<svg width="17" height="13" viewBox="0 0 17 13" fill="none" xmlns="http://www.w3.org/2000/svg">
<path d="M2.98849 12.744V2.196C2.12449 2.988 1.18849 3.384 0.000492219 3.6V2.142C1.26049 1.872 2.35849 1.224 3.24049 0.143999H4.53649V12.744H2.98849ZM11.4067 12.888C8.23873 12.888 6.58273 10.314 6.58273 6.444C6.58273 2.574 8.23873 -5.96046e-07 11.4067 -5.96046e-07C14.5387 -5.96046e-07 16.2307 2.574 16.2307 6.444C16.2307 10.314 14.5387 12.888 11.4067 12.888ZM11.4067 11.412C13.4407 11.412 14.5387 9.468 14.5387 6.444C14.5387 3.42 13.4407 1.458 11.4067 1.458C9.33673 1.458 8.25673 3.42 8.25673 6.444C8.25673 9.468 9.33673 11.412 11.4067 11.412Z" fill="#777777"/>
</svg>
