<svg width="15" height="13" viewBox="0 0 15 13" fill="none" xmlns="http://www.w3.org/2000/svg">
<path d="M2.98752 12.744V2.196C2.12352 2.988 1.18752 3.384 -0.000484344 3.6V2.142C1.25952 1.872 2.35752 1.224 3.23952 0.143999H4.53552V12.744H2.98752ZM6.38375 12.744L6.36575 11.322L11.0998 7.236C12.5758 5.958 13.2058 4.914 13.2058 3.78C13.2058 2.376 12.2698 1.458 10.7938 1.458C9.02975 1.458 8.03975 2.7 8.21975 4.572L6.63575 4.464C6.43775 1.818 8.16575 -5.96046e-07 10.7938 -5.96046e-07C13.2778 -5.96046e-07 14.8978 1.494 14.8978 3.78C14.8978 5.31 14.0518 6.714 12.1078 8.352L8.68775 11.268H14.8978V12.744H6.38375Z" fill="#777777"/>
</svg>
