<svg width="16" height="13" viewBox="0 0 16 13" fill="none" xmlns="http://www.w3.org/2000/svg">
<path d="M2.98752 12.6V2.052C2.12352 2.844 1.18752 3.24 -0.000484344 3.456V1.998C1.25952 1.728 2.35752 1.08 3.23952 1.43051e-06H4.53552V12.6H2.98752ZM10.7938 12.744C8.30975 12.744 6.52775 11.304 6.29375 9.108L7.84175 8.874C8.02175 10.332 9.19175 11.268 10.7938 11.268C12.5398 11.268 13.6738 10.224 13.6738 8.64C13.6738 7.002 12.6298 6.048 10.8838 6.048C10.4158 6.048 9.89375 6.192 9.49775 6.444L8.79575 5.4L12.7738 1.458H6.65375V1.43051e-06H14.6998V1.422L11.1178 4.914C13.6018 4.68 15.3658 6.192 15.3658 8.676C15.3658 11.106 13.5658 12.744 10.7938 12.744Z" fill="#777777"/>
</svg>
