<svg width="16" height="13" viewBox="0 0 16 13" fill="none" xmlns="http://www.w3.org/2000/svg">
<path d="M2.98849 12.6V2.052C2.12449 2.844 1.18849 3.24 0.000492219 3.456V1.998C1.26049 1.728 2.35849 1.08 3.24049 -2.38419e-06H4.53649V12.6H2.98849ZM10.9927 12.744C8.56273 12.744 6.78073 11.376 6.45673 9.27L7.98673 9C8.22073 10.386 9.37273 11.268 10.9567 11.268C12.6307 11.268 13.7107 10.134 13.7107 8.424C13.7107 6.678 12.5947 5.598 10.7767 5.598C9.57073 5.598 8.61673 6.156 7.98673 7.11L6.79873 6.858L7.78873 -2.38419e-06H14.5027V1.458H8.99473L8.45473 5.238C9.10273 4.626 10.1287 4.194 11.0467 4.194C13.6567 4.194 15.4027 5.886 15.4027 8.424C15.4027 11.034 13.6747 12.744 10.9927 12.744Z" fill="#777777"/>
</svg>
