<svg width="16" height="13" viewBox="0 0 16 13" fill="none" xmlns="http://www.w3.org/2000/svg">
<path d="M2.98849 12.744V2.196C2.12449 2.988 1.18849 3.384 0.000492219 3.6V2.142C1.26049 1.872 2.35849 1.224 3.24049 0.144002H4.53649V12.744H2.98849ZM11.3887 4.302C13.9807 4.302 15.8347 6.102 15.8347 8.586C15.8347 11.106 13.9267 12.888 11.2627 12.888C8.45473 12.888 6.58273 10.62 6.58273 7.128C6.58273 2.502 9.03073 3.21865e-06 12.4147 3.21865e-06C13.6747 3.21865e-06 14.8987 0.396002 15.8527 1.152L15.0247 2.43C14.2687 1.782 13.3507 1.458 12.3967 1.458C9.96673 1.458 8.16673 3.456 8.11273 6.192C8.68873 5.04 9.98473 4.302 11.3887 4.302ZM11.2807 11.412C12.9727 11.412 14.1607 10.206 14.1787 8.532C14.1787 6.876 12.9727 5.688 11.2807 5.688C9.58873 5.688 8.38273 6.876 8.38273 8.532C8.38273 10.206 9.58873 11.412 11.2807 11.412Z" fill="#777777"/>
</svg>
