<svg width="16" height="13" viewBox="0 0 16 13" fill="none" xmlns="http://www.w3.org/2000/svg">
<path d="M2.98849 12.744V2.196C2.12449 2.988 1.18849 3.384 0.000492219 3.6V2.142C1.26049 1.872 2.35849 1.224 3.24049 0.144002H4.53649V12.744H2.98849ZM11.0467 12.888C8.36473 12.888 6.52873 11.412 6.52873 9.126C6.52873 7.65 7.46473 6.408 8.90473 5.958C7.78873 5.454 7.05073 4.428 7.05073 3.312C7.05073 1.35 8.61673 3.21865e-06 11.0467 3.21865e-06C13.4047 3.21865e-06 14.9707 1.35 14.9707 3.312C14.9707 4.428 14.2327 5.472 13.1167 5.958C14.5567 6.408 15.4927 7.65 15.4927 9.126C15.4927 11.412 13.6567 12.888 11.0467 12.888ZM11.0467 5.346C12.4327 5.346 13.3507 4.572 13.3687 3.366C13.3867 2.16 12.4507 1.386 11.0467 1.386C9.57073 1.386 8.63473 2.16 8.65273 3.366C8.67073 4.572 9.60673 5.346 11.0467 5.346ZM11.0287 11.466C12.7387 11.466 13.8367 10.53 13.8367 9.108C13.8367 7.686 12.7387 6.75 11.0287 6.75C9.30073 6.75 8.18473 7.686 8.18473 9.108C8.18473 10.53 9.30073 11.466 11.0287 11.466Z" fill="#777777"/>
</svg>
