<svg width="16" height="13" viewBox="0 0 16 13" fill="none" xmlns="http://www.w3.org/2000/svg">
<path d="M2.98849 12.744V2.196C2.12449 2.988 1.18849 3.384 0.000492219 3.6V2.142C1.26049 1.872 2.35849 1.224 3.24049 0.144002H4.53649V12.744H2.98849ZM11.0287 8.586C8.43673 8.586 6.58273 6.786 6.58273 4.302C6.58273 1.782 8.49073 3.21865e-06 11.1547 3.21865e-06C13.9627 3.21865e-06 15.8347 2.268 15.8347 5.76C15.8347 10.386 13.3867 12.888 10.0027 12.888C8.74273 12.888 7.51873 12.492 6.56473 11.736L7.39273 10.458C8.14873 11.106 9.06673 11.412 10.0207 11.412C12.4507 11.412 14.2507 9.432 14.3047 6.696C13.7287 7.848 12.4327 8.586 11.0287 8.586ZM11.1367 1.458C9.44473 1.458 8.25673 2.682 8.23873 4.356C8.23873 6.012 9.44473 7.2 11.1367 7.2C12.8287 7.2 14.0347 6.012 14.0347 4.356C14.0347 2.682 12.8287 1.458 11.1367 1.458Z" fill="#777777" fill-opacity="0.3"/>
</svg>
