<svg width="20" height="13" viewBox="0 0 20 13" fill="none" xmlns="http://www.w3.org/2000/svg">
<path d="M0.0175391 12.744L-0.000460919 11.322L4.73354 7.236C6.20954 5.958 6.83954 4.914 6.83954 3.78C6.83954 2.376 5.90354 1.458 4.42754 1.458C2.66354 1.458 1.67354 2.7 1.85354 4.572L0.269539 4.464C0.0715391 1.818 1.79954 3.21865e-06 4.42754 3.21865e-06C6.91154 3.21865e-06 8.53154 1.494 8.53154 3.78C8.53154 5.31 7.68554 6.714 5.74154 8.352L2.32154 11.268H8.53154V12.744H0.0175391ZM15.1118 12.888C11.9438 12.888 10.2878 10.314 10.2878 6.444C10.2878 2.574 11.9438 3.21865e-06 15.1118 3.21865e-06C18.2438 3.21865e-06 19.9358 2.574 19.9358 6.444C19.9358 10.314 18.2438 12.888 15.1118 12.888ZM15.1118 11.412C17.1458 11.412 18.2438 9.468 18.2438 6.444C18.2438 3.42 17.1458 1.458 15.1118 1.458C13.0418 1.458 11.9618 3.42 11.9618 6.444C11.9618 9.468 13.0418 11.412 15.1118 11.412Z" fill="#777777" fill-opacity="0.3"/>
</svg>
