<svg width="9" height="13" viewBox="0 0 9 13" fill="none" xmlns="http://www.w3.org/2000/svg">
<path d="M4.53667 12.744C2.10667 12.744 0.324672 11.376 0.000671908 9.27L1.53067 9C1.76467 10.386 2.91667 11.268 4.50067 11.268C6.17467 11.268 7.25467 10.134 7.25467 8.424C7.25467 6.678 6.13867 5.598 4.32067 5.598C3.11467 5.598 2.16067 6.156 1.53067 7.11L0.342672 6.858L1.33267 4.76837e-07H8.04667V1.458H2.53867L1.99867 5.238C2.64667 4.626 3.67267 4.194 4.59067 4.194C7.20067 4.194 8.94667 5.886 8.94667 8.424C8.94667 11.034 7.21867 12.744 4.53667 12.744Z" fill="#FF6B35"/>
</svg>
