<svg width="10" height="13" viewBox="0 0 10 13" fill="none" xmlns="http://www.w3.org/2000/svg">
<path d="M4.80572 4.302C7.39772 4.302 9.25172 6.102 9.25172 8.586C9.25172 11.106 7.34372 12.888 4.67972 12.888C1.87172 12.888 -0.00028123 10.62 -0.00028123 7.128C-0.00028123 2.502 2.44772 3.57628e-07 5.83172 3.57628e-07C7.09172 3.57628e-07 8.31572 0.396 9.26972 1.152L8.44172 2.43C7.68572 1.782 6.76772 1.458 5.81372 1.458C3.38372 1.458 1.58372 3.456 1.52972 6.192C2.10572 5.04 3.40172 4.302 4.80572 4.302ZM4.69772 11.412C6.38972 11.412 7.57772 10.206 7.59572 8.532C7.59572 6.876 6.38972 5.688 4.69772 5.688C3.00572 5.688 1.79972 6.876 1.79972 8.532C1.79972 10.206 3.00572 11.412 4.69772 11.412Z" fill="#FF6B35"/>
</svg>
