<svg width="9" height="13" viewBox="0 0 9 13" fill="none" xmlns="http://www.w3.org/2000/svg">
<path d="M4.51841 12.888C1.83641 12.888 0.000406295 11.412 0.000406295 9.126C0.000406295 7.65 0.936406 6.408 2.37641 5.958C1.26041 5.454 0.522406 4.428 0.522406 3.312C0.522406 1.35 2.08841 -5.96046e-07 4.51841 -5.96046e-07C6.87641 -5.96046e-07 8.44241 1.35 8.44241 3.312C8.44241 4.428 7.70441 5.472 6.58841 5.958C8.02841 6.408 8.96441 7.65 8.96441 9.126C8.96441 11.412 7.12841 12.888 4.51841 12.888ZM4.51841 5.346C5.90441 5.346 6.82241 4.572 6.84041 3.366C6.85841 2.16 5.92241 1.386 4.51841 1.386C3.04241 1.386 2.10641 2.16 2.12441 3.366C2.14241 4.572 3.07841 5.346 4.51841 5.346ZM4.50041 11.466C6.21041 11.466 7.30841 10.53 7.30841 9.108C7.30841 7.686 6.21041 6.75 4.50041 6.75C2.77241 6.75 1.65641 7.686 1.65641 9.108C1.65641 10.53 2.77241 11.466 4.50041 11.466Z" fill="#777777"/>
</svg>
