<svg width="10" height="13" viewBox="0 0 10 13" fill="none" xmlns="http://www.w3.org/2000/svg">
<path d="M4.4633 8.586C1.8713 8.586 0.0172969 6.786 0.0172969 4.302C0.0172969 1.782 1.9253 -5.96046e-07 4.5893 -5.96046e-07C7.3973 -5.96046e-07 9.2693 2.268 9.2693 5.76C9.2693 10.386 6.8213 12.888 3.4373 12.888C2.1773 12.888 0.953297 12.492 -0.000703074 11.736L0.827297 10.458C1.5833 11.106 2.5013 11.412 3.4553 11.412C5.8853 11.412 7.6853 9.432 7.7393 6.696C7.1633 7.848 5.8673 8.586 4.4633 8.586ZM4.5713 1.458C2.8793 1.458 1.6913 2.682 1.6733 4.356C1.6733 6.012 2.8793 7.2 4.5713 7.2C6.2633 7.2 7.4693 6.012 7.4693 4.356C7.4693 2.682 6.2633 1.458 4.5713 1.458Z" fill="#777777"/>
</svg>
