<svg width="14" height="14" viewBox="0 0 14 14" fill="none" xmlns="http://www.w3.org/2000/svg">
<path d="M7 0C5.14368 0 3.3632 0.737504 2.04992 2.04992C0.737424 3.36304 0 5.14368 0 7C0 8.85632 0.737504 10.6368 2.04992 11.9501C3.36304 13.2626 5.14368 14 7 14C8.85632 14 10.6368 13.2625 11.9501 11.9501C13.2626 10.637 14 8.85632 14 7C14 5.14368 13.2625 3.3632 11.9501 2.04992C10.637 0.737424 8.85632 0 7 0ZM6.75 2.75008C7.05312 2.75008 7.32688 2.93258 7.44312 3.2132C7.55875 3.4932 7.49499 3.8157 7.28062 4.0307C7.06562 4.24507 6.74312 4.30883 6.46312 4.1932C6.1825 4.07695 6 3.8032 6 3.50008C6 3.08571 6.33563 2.75008 6.75 2.75008ZM8 10.7501H6C5.72374 10.7501 5.5 10.5263 5.5 10.2501C5.5 9.97382 5.72374 9.75008 6 9.75008H6.5V6.25008H6C5.72374 6.25008 5.5 6.02634 5.5 5.75008C5.5 5.47382 5.72374 5.25008 6 5.25008H7C7.1325 5.25008 7.26 5.30258 7.35374 5.39633C7.44749 5.49008 7.49999 5.61758 7.49999 5.75007V9.75007H7.99999C8.27625 9.75007 8.49999 9.97382 8.49999 10.2501C8.49999 10.5263 8.27626 10.7501 8 10.7501Z" fill="#8C8C8C"/>
</svg>
