<svg width="44" height="20" viewBox="0 0 44 20" fill="none" xmlns="http://www.w3.org/2000/svg">
<path d="M10.981 14V4.2H12.521L15.825 12.152L19.129 4.2H20.669V14H19.409V6.608L16.357 14H15.293L12.227 6.608V14H10.981ZM25.8198 14.112C23.7198 14.112 22.2358 12.586 22.2358 10.472C22.2358 8.358 23.7198 6.832 25.8198 6.832C27.9058 6.832 29.4178 8.358 29.4178 10.472C29.4178 12.586 27.9058 14.112 25.8198 14.112ZM25.8198 13.048C27.2338 13.048 28.1858 11.984 28.1858 10.472C28.1858 8.96 27.2338 7.896 25.8198 7.896C24.4058 7.896 23.4538 8.96 23.4538 10.472C23.4538 11.984 24.4058 13.048 25.8198 13.048ZM30.9406 14V6.944H32.1306V8.274C32.6206 7.434 33.4746 6.832 34.5526 6.832C36.0226 6.832 37.0726 7.826 37.0726 9.324V14H35.8826V9.548C35.8826 8.596 35.2806 7.91 34.2866 7.91C32.9706 7.91 32.1306 9.044 32.1306 10.906V14H30.9406Z" fill="#777777"/>
</svg>
