<svg width="18" height="18" viewBox="0 0 18 18" fill="none" xmlns="http://www.w3.org/2000/svg">
<path d="M17.7016 2.13469L15.8632 0.298193C15.4652 -0.0993978 14.8209 -0.0993978 14.4229 0.298193L13.3047 1.41524L16.5834 4.69063L17.7016 3.57359C18.0996 3.176 18.0996 2.53228 17.7016 2.13469Z" fill="#FF6B35"/>
<path d="M4.85142 9.85899C4.77561 9.93472 4.73771 10.0294 4.71876 10.124L4.47238 13.0208C4.45343 13.1533 4.51029 13.2669 4.60505 13.3616C4.69981 13.4562 4.81352 13.4941 4.94618 13.4941L7.86481 13.248C7.95957 13.248 8.07328 13.1912 8.13014 13.1155L8.85032 12.396L5.59055 9.12061L4.85142 9.85899Z" fill="#FF6B35"/>
<path d="M12.4001 2.32727L6.49023 8.23114L9.77349 11.5111L15.6833 5.6072L12.4001 2.32727Z" fill="#FF6B35"/>
<path d="M16.0524 8.55248C15.5976 8.55248 15.2185 8.93114 15.2185 9.38553V14.9329C15.2185 15.6902 14.6121 16.296 13.854 16.296H3.05129C2.2932 16.296 1.68674 15.6902 1.68674 14.9329V4.14111C1.68674 3.3838 2.2932 2.77794 3.05129 2.77794H8.60425C9.0591 2.77794 9.43814 2.39929 9.43814 1.9449C9.43814 1.49051 9.0591 1.11185 8.60425 1.11185H3.05129C1.36455 1.11185 0 2.47502 0 4.16005V14.9518C0 16.6368 1.36455 18 3.05129 18H13.854C15.5407 18 16.9053 16.6368 16.9053 14.9518V9.38553C16.9053 8.91221 16.5262 8.55248 16.0524 8.55248Z" fill="#FF6B35"/>
</svg>
