<svg width="44" height="20" viewBox="0 0 44 20" fill="none" xmlns="http://www.w3.org/2000/svg">
<path d="M17.7462 14.112C15.8562 14.112 14.3442 12.894 14.0222 11.102L15.2262 10.71C15.4222 12.082 16.4722 12.978 17.7742 12.978C19.1182 12.978 19.9862 12.348 19.9862 11.368C19.9862 8.75 14.4142 10.122 14.4142 6.65C14.4142 5.124 15.7862 4.088 17.7182 4.088C19.5102 4.088 20.8962 5.054 21.1482 6.51L19.9862 6.958C19.7902 5.894 18.9502 5.222 17.7182 5.222C16.4582 5.222 15.7022 5.768 15.7022 6.65C15.7022 8.89 21.3022 7.434 21.3022 11.354C21.3022 13.02 19.8882 14.112 17.7462 14.112ZM25.4173 6.832C27.1253 6.832 28.3153 7.84 28.3153 9.478V14H27.1393V12.796C26.7333 13.608 25.8093 14.112 24.7873 14.112C23.3733 14.112 22.4073 13.244 22.4073 12.026C22.4073 10.668 23.5133 9.926 25.7673 9.702L27.1393 9.548V9.408C27.1393 8.442 26.4533 7.826 25.4173 7.826C24.4513 7.826 23.7653 8.4 23.6673 9.352L22.5613 9.142C22.7713 7.742 23.9333 6.832 25.4173 6.832ZM24.9693 13.132C26.3413 13.132 27.1393 12.222 27.1393 10.808V10.472L25.7673 10.626C24.3393 10.78 23.5973 11.27 23.5973 12.012C23.5973 12.67 24.1573 13.132 24.9693 13.132ZM33.9612 13.944C33.6112 14.07 33.2332 14.112 32.8552 14.112C31.6512 14.112 30.7692 13.44 30.7692 11.886V7.994H29.4532V6.944H30.7692V4.802H31.9592V6.944H33.8492V7.994H31.9592V11.928C31.9592 12.67 32.3792 13.034 32.9952 13.034C33.2752 13.034 33.5972 12.992 33.8772 12.852L33.9612 13.944Z" fill="#777777"/>
</svg>
