<svg width="44" height="20" viewBox="0 0 44 20" fill="none" xmlns="http://www.w3.org/2000/svg">
<path d="M15.962 14.112C14.072 14.112 12.56 12.894 12.238 11.102L13.442 10.71C13.638 12.082 14.688 12.978 15.99 12.978C17.334 12.978 18.202 12.348 18.202 11.368C18.202 8.75 12.63 10.122 12.63 6.65C12.63 5.124 14.002 4.088 15.934 4.088C17.726 4.088 19.112 5.054 19.364 6.51L18.202 6.958C18.006 5.894 17.166 5.222 15.934 5.222C14.674 5.222 13.918 5.768 13.918 6.65C13.918 8.89 19.518 7.434 19.518 11.354C19.518 13.02 18.104 14.112 15.962 14.112ZM27.1332 6.944V14H25.9432V12.67C25.4532 13.51 24.5992 14.112 23.5212 14.112C22.0512 14.112 21.0012 13.118 21.0012 11.62V6.944H22.1912V11.396C22.1912 12.348 22.7932 13.034 23.7872 13.034C25.1032 13.034 25.9432 11.9 25.9432 10.038V6.944H27.1332ZM29.0676 14V6.944H30.2576V8.274C30.7476 7.434 31.6016 6.832 32.6796 6.832C34.1496 6.832 35.1996 7.826 35.1996 9.324V14H34.0096V9.548C34.0096 8.596 33.4076 7.91 32.4136 7.91C31.0976 7.91 30.2576 9.044 30.2576 10.906V14H29.0676Z" fill="#777777"/>
</svg>
