<svg width="44" height="20" viewBox="0 0 44 20" fill="none" xmlns="http://www.w3.org/2000/svg">
<path d="M15.2744 14V5.334H12.1524V4.2H19.6564V5.334H16.5484V14H15.2744ZM20.8918 14V4.088H22.0818V8.33C22.5998 7.322 23.4538 6.832 24.4898 6.832C26.0858 6.832 27.1358 7.826 27.1358 9.352V14H25.9458V9.576C25.9458 8.54 25.3018 7.91 24.2238 7.91C22.9218 7.91 22.0818 9.086 22.0818 10.976V14H20.8918ZM35.1312 6.944V14H33.9412V12.67C33.4512 13.51 32.5972 14.112 31.5192 14.112C30.0492 14.112 28.9992 13.118 28.9992 11.62V6.944H30.1892V11.396C30.1892 12.348 30.7912 13.034 31.7852 13.034C33.1012 13.034 33.9412 11.9 33.9412 10.038V6.944H35.1312Z" fill="#777777"/>
</svg>
