<svg width="44" height="20" viewBox="0 0 44 20" fill="none" xmlns="http://www.w3.org/2000/svg">
<path d="M15.7871 14V5.334H12.6651V4.2H20.1691V5.334H17.0611V14H15.7871ZM26.7025 6.944V14H25.5125V12.67C25.0225 13.51 24.1685 14.112 23.0905 14.112C21.6205 14.112 20.5705 13.118 20.5705 11.62V6.944H21.7605V11.396C21.7605 12.348 22.3625 13.034 23.3565 13.034C24.6725 13.034 25.5125 11.9 25.5125 10.038V6.944H26.7025ZM35.0209 10.15C35.0209 10.318 35.0069 10.57 34.9929 10.696H29.4209C29.5049 12.124 30.4009 13.062 31.6749 13.062C32.7529 13.062 33.4949 12.558 33.7049 11.676L34.8249 11.942C34.4749 13.314 33.2989 14.112 31.6749 14.112C29.5609 14.112 28.2309 12.474 28.2309 10.472C28.2309 8.47 29.5189 6.832 31.6469 6.832C33.7329 6.832 35.0209 8.33 35.0209 10.15ZM29.4909 9.702H33.7609C33.6489 8.624 32.8929 7.826 31.6469 7.826C30.5409 7.826 29.7289 8.526 29.4909 9.702Z" fill="#777777"/>
</svg>
