<svg width="44" height="20" viewBox="0 0 44 20" fill="none" xmlns="http://www.w3.org/2000/svg">
<path d="M12.4684 14L9.48638 4.2H10.8024L13.1404 12.53L15.5064 4.2H16.8364L19.1884 12.53L21.5264 4.2H22.8424L19.8744 14H18.5304L16.1784 6.104L13.7984 14H12.4684ZM29.7914 10.15C29.7914 10.318 29.7774 10.57 29.7634 10.696H24.1914C24.2754 12.124 25.1714 13.062 26.4454 13.062C27.5234 13.062 28.2654 12.558 28.4754 11.676L29.5954 11.942C29.2454 13.314 28.0694 14.112 26.4454 14.112C24.3314 14.112 23.0014 12.474 23.0014 10.472C23.0014 8.47 24.2894 6.832 26.4174 6.832C28.5034 6.832 29.7914 8.33 29.7914 10.15ZM24.2614 9.702H28.5314C28.4194 8.624 27.6634 7.826 26.4174 7.826C25.3114 7.826 24.4994 8.526 24.2614 9.702ZM34.3194 14.112C32.1214 14.112 30.9174 12.544 30.9174 10.472C30.9174 8.4 32.1214 6.832 34.3054 6.832C35.2434 6.832 36.1674 7.294 36.6154 7.952V4.088H37.8054V14H36.6154V12.978C36.2934 13.622 35.3554 14.112 34.3194 14.112ZM34.4314 13.048C35.8174 13.048 36.7274 12.026 36.7274 10.472C36.7274 8.918 35.8174 7.896 34.4314 7.896C33.0454 7.896 32.1354 8.918 32.1354 10.472C32.1354 12.026 33.0454 13.048 34.4314 13.048Z" fill="#777777"/>
</svg>
