<svg width="20" height="20" viewBox="0 0 20 20" fill="none" xmlns="http://www.w3.org/2000/svg">
<path d="M15.635 11.31L9.34246 17.7729C9.08562 18.0367 8.96234 18.3444 8.97261 18.6962C8.98289 19.0479 9.11687 19.3556 9.37456 19.6194C9.6314 19.8612 9.93104 19.9879 10.2735 19.9993C10.6159 20.0107 10.9156 19.8841 11.1724 19.6194L19.6481 10.9143C19.7765 10.7824 19.8676 10.6396 19.9216 10.4857C19.9755 10.3318 20.0016 10.1669 19.9999 9.99107C19.9982 9.81521 19.9712 9.65034 19.919 9.49646C19.8668 9.34259 19.776 9.1997 19.6468 9.06781L11.1711 0.362712C10.9357 0.120904 10.6412 0 10.2876 0C9.93404 0 9.62926 0.120904 9.37328 0.362712C9.11644 0.626502 8.98802 0.939974 8.98802 1.30313C8.98802 1.66628 9.11644 1.97931 9.37328 2.24222L15.635 8.67212H1.28419C0.920338 8.67212 0.615131 8.79874 0.368567 9.05198C0.122004 9.30522 -0.000850677 9.61825 3.8147e-06 9.99107C0.000860214 10.3639 0.124144 10.6774 0.36985 10.9315C0.615559 11.1856 0.920338 11.3118 1.28419 11.31H15.635Z" fill="white"/>
</svg>
