<svg width="289" height="222" viewBox="0 0 289 222" fill="none" xmlns="http://www.w3.org/2000/svg">
<path d="M42.2554 198.111C98.6125 229.093 189.944 229.093 246.288 198.111C302.632 167.129 302.645 116.915 246.288 85.9333C189.931 54.951 98.5993 54.958 42.2554 85.9333C-14.0885 116.908 -14.0818 167.136 42.2554 198.111Z" fill="#F5F5F5"/>
<path d="M25.5404 148.721H27.9141C29.002 144.898 29.7151 140.967 30.0424 136.991C30.5595 129.629 27.1715 118.36 20.9656 114.585C14.7596 110.81 11.3981 115.478 13.48 119.47C15.5619 123.461 22.5833 134.814 22.6762 144.583L25.5404 148.721Z" fill="#FF6B35"/>
<path d="M24.9706 148.721H25.6337C26.2815 143.9 26.2815 139.007 25.6337 134.186C24.5596 124.633 21.5759 120.195 18.8045 117.111C18.7438 117.043 18.6602 117.004 18.5719 117.001C18.4836 116.998 18.3979 117.033 18.3338 117.097C18.2696 117.161 18.2321 117.249 18.2296 117.342C18.2271 117.434 18.2598 117.525 18.3205 117.592C21.019 120.586 23.9231 124.912 24.9507 134.263C25.6076 139.057 25.6143 143.925 24.9706 148.721Z" fill="white"/>
<path d="M25.7328 148.721C24.5129 142.664 18.97 135.463 13.7387 134.221C7.67202 132.825 4.72156 136.196 5.59012 139.105C6.45868 142.015 11.2524 143.369 15.9068 145.651C17.474 146.414 18.9067 147.452 20.1435 148.721H25.7328Z" fill="#FF6B35"/>
<path d="M23.5252 148.721H24.2346C21.6687 141.932 15.8341 137.089 11.0603 136.643C11.0171 136.638 10.9734 136.642 10.9318 136.655C10.8902 136.669 10.8516 136.691 10.8182 136.72C10.7848 136.749 10.7574 136.785 10.7375 136.826C10.7175 136.866 10.7056 136.911 10.7023 136.957C10.6967 137.002 10.7002 137.049 10.7125 137.093C10.7247 137.137 10.7455 137.178 10.7735 137.213C10.8015 137.249 10.8361 137.278 10.8752 137.298C10.9143 137.319 10.957 137.331 11.0006 137.333C15.5092 137.759 21.0189 142.309 23.5252 148.721Z" fill="white"/>
<path d="M239.764 84.8796L244.73 87.622L245.147 84.3493C242.688 77.0503 244.71 68.7744 247.369 65.3273C250.027 61.8802 249.517 59.3472 248.555 58.2168C247.594 57.0863 243.947 56.228 240.341 60.666C236.734 65.104 235.905 70.491 236.508 75.9269C236.893 79.3251 238.59 82.8141 239.764 84.8796Z" fill="#FF6B35"/>
<path opacity="0.2" d="M239.764 84.8796L244.73 87.622L245.147 84.3493C242.688 77.0503 244.71 68.7744 247.369 65.3273C250.027 61.8802 249.517 59.3472 248.555 58.2168C247.594 57.0863 243.947 56.228 240.341 60.666C236.734 65.104 235.905 70.491 236.508 75.9269C236.893 79.3251 238.59 82.8141 239.764 84.8796Z" fill="black"/>
<path d="M241.812 86.0098L242.794 86.5541C242.784 86.5345 242.773 86.5158 242.761 86.4982C241.355 84.7398 239.538 76.129 240.301 71.0839C241.242 64.8526 244.279 60.7844 246.878 59.0608C246.91 59.0402 246.937 59.0131 246.959 58.981C246.981 58.949 246.996 58.9126 247.004 58.8742C247.012 58.8358 247.013 58.7961 247.006 58.7574C246.999 58.7187 246.985 58.6819 246.964 58.6491C246.922 58.5824 246.857 58.5356 246.783 58.5187C246.708 58.5017 246.631 58.516 246.566 58.5584C243.914 60.3517 240.705 64.5595 239.731 70.9932C239.028 75.6893 240.433 83.1279 241.812 86.0098Z" fill="white"/>
<path d="M244.83 72.4235C246.282 76.1707 246.275 78.0059 243.908 78.3897C241.773 78.7246 239.181 81.453 241.588 85.884L255.67 93.6575C255.706 92.8291 255.9 92.0168 256.242 91.2696C256.584 90.5225 257.066 89.8559 257.659 89.3102C259.973 86.8749 262.108 85.0397 261.777 82.3322C261.445 79.6248 259.211 77.015 258.839 74.6565C258.468 72.2979 259.609 70.9511 262.042 68.3065C264.475 65.6618 266.683 61.5588 263.434 59.6887C260.185 57.8186 256.466 61.0215 254.914 63.1777C253.363 65.3339 251.944 66.2829 248.887 66.1015C245.831 65.92 243.378 68.6763 244.83 72.4235Z" fill="#FF6B35"/>
<path d="M248.814 89.8758C248.748 78.3761 256.578 64.9086 260.934 62.1872C260.999 62.144 261.045 62.0765 261.063 61.9987C261.082 61.9208 261.071 61.8385 261.034 61.7685C260.994 61.7014 260.931 61.653 260.858 61.6335C260.785 61.614 260.708 61.6249 260.643 61.6638C256.227 64.455 248.33 77.9295 248.244 89.5757L248.814 89.8758Z" fill="white"/>
<path d="M250.91 77.9227C250.85 77.9371 250.787 77.9298 250.732 77.9019C250.676 77.8741 250.631 77.8273 250.605 77.7692C249.34 75.2857 248.275 72.6947 247.422 70.0237C247.411 69.9861 247.407 69.9465 247.41 69.9073C247.413 69.868 247.423 69.8298 247.441 69.7948C247.458 69.7598 247.482 69.7287 247.51 69.7033C247.539 69.678 247.572 69.6588 247.608 69.6468C247.643 69.6349 247.681 69.6305 247.718 69.6339C247.756 69.6373 247.792 69.6484 247.825 69.6665C247.858 69.6846 247.888 69.7095 247.912 69.7397C247.936 69.7698 247.954 69.8047 247.966 69.8422C248.811 72.4762 249.862 75.032 251.108 77.4831C251.144 77.5545 251.151 77.6377 251.129 77.7147C251.106 77.7917 251.056 77.8564 250.989 77.8948L250.91 77.9227Z" fill="white"/>
<path d="M249.026 84.9702C248.972 84.9808 248.916 84.9753 248.864 84.9543C248.813 84.9334 248.768 84.8978 248.735 84.8516C248.691 84.7848 248.674 84.7027 248.688 84.6229C248.701 84.5432 248.744 84.4724 248.808 84.4259C251.663 82.3221 255.127 81.3348 258.6 81.6347C258.676 81.6449 258.745 81.6863 258.791 81.7497C258.838 81.8132 258.859 81.8936 258.849 81.9731C258.839 82.0527 258.8 82.125 258.74 82.1741C258.679 82.2231 258.603 82.245 258.527 82.2348C255.201 81.9684 251.889 82.9065 249.139 84.8934C249.107 84.9267 249.068 84.9528 249.026 84.9702Z" fill="white"/>
<path d="M165.817 14.7233L149.659 4.90527L133.507 14.7233L149.659 24.5413L165.817 14.7233Z" fill="#F5F5F5"/>
<path d="M149.659 44.1846L165.817 34.3666V14.7236L149.659 24.5416V44.1846Z" fill="#EBEBEB"/>
<path d="M152.775 37.6666C152.689 37.6682 152.605 37.6466 152.529 37.6038C152.426 37.5245 152.344 37.4188 152.291 37.2966C152.237 37.1745 152.215 37.04 152.224 36.906V34.8126V34.6591H152.324L153.875 33.7031V36.0268C153.873 36.3261 153.803 36.6204 153.67 36.8851C153.537 37.1498 153.346 37.3771 153.113 37.548C153.013 37.6193 152.896 37.6603 152.775 37.6666ZM152.476 34.9661V36.8921C152.465 36.9817 152.476 37.0728 152.507 37.157C152.539 37.2411 152.589 37.3156 152.655 37.3735C152.709 37.3988 152.768 37.4082 152.827 37.4009C152.885 37.3935 152.94 37.3696 152.987 37.3317C153.185 37.1859 153.349 36.9932 153.464 36.769C153.579 36.5449 153.643 36.2955 153.65 36.0408V35.8733H153.073L152.96 35.0569L152.476 34.9661ZM153.272 35.6081H153.63V34.1776L152.702 34.7428L153.159 34.8336L153.272 35.6081Z" fill="white"/>
<path d="M153.054 39.3272C153.02 39.3272 152.988 39.3133 152.965 39.2884C152.941 39.2635 152.928 39.2298 152.928 39.1947V37.4502C152.927 37.4325 152.93 37.4148 152.936 37.3983C152.942 37.3817 152.951 37.3667 152.963 37.3542C152.975 37.3416 152.989 37.3319 153.005 37.3256C153.02 37.3193 153.037 37.3166 153.054 37.3176C153.087 37.3176 153.119 37.3316 153.143 37.3564C153.167 37.3813 153.18 37.415 153.18 37.4502V39.1667C153.183 39.1862 153.182 39.206 153.177 39.2249C153.172 39.2439 153.163 39.2615 153.151 39.2767C153.139 39.2918 153.124 39.3042 153.108 39.3129C153.091 39.3216 153.073 39.3265 153.054 39.3272Z" fill="white"/>
<path d="M152.331 39.7672C152.309 39.7671 152.287 39.7605 152.269 39.7482C152.25 39.7358 152.235 39.7183 152.225 39.6975C152.216 39.6832 152.21 39.667 152.207 39.65C152.204 39.6329 152.205 39.6155 152.21 39.5989C152.214 39.5823 152.222 39.5669 152.233 39.5538C152.243 39.5407 152.256 39.5302 152.271 39.523L153.71 38.6438C153.725 38.6351 153.74 38.6294 153.757 38.6271C153.773 38.6248 153.79 38.626 153.806 38.6305C153.822 38.6351 153.837 38.6429 153.85 38.6535C153.863 38.6642 153.874 38.6775 153.883 38.6926C153.898 38.7235 153.901 38.7593 153.893 38.7928C153.884 38.8264 153.864 38.8553 153.836 38.8741L152.391 39.7463L152.331 39.7672Z" fill="white"/>
<path d="M157.476 36.7528C157.43 36.7673 157.382 36.7673 157.337 36.7528C157.288 36.7186 157.249 36.6715 157.224 36.6164C157.198 36.5612 157.187 36.5 157.191 36.4388V36.0829C157.19 36.0658 157.192 36.0487 157.198 36.0327C157.203 36.0166 157.212 36.0019 157.223 35.9895C157.234 35.9771 157.248 35.9672 157.263 35.9605C157.278 35.9537 157.294 35.9503 157.31 35.9503C157.327 35.9493 157.344 35.952 157.359 35.9583C157.375 35.9646 157.389 35.9744 157.401 35.9869C157.413 35.9994 157.422 36.0144 157.428 36.031C157.434 36.0475 157.437 36.0652 157.436 36.0829V36.376C157.436 36.4318 157.436 36.4597 157.436 36.4597C157.436 36.4597 157.476 36.4597 157.516 36.4597C157.593 36.386 157.654 36.2952 157.694 36.1939C157.734 36.0926 157.752 35.9832 157.748 35.8736V33.5848C157.748 33.5677 157.751 33.5508 157.757 33.535C157.764 33.5193 157.773 33.5052 157.785 33.4934C157.797 33.4816 157.811 33.4725 157.826 33.4667C157.841 33.4608 157.857 33.4582 157.874 33.4592C157.905 33.4592 157.936 33.4724 157.958 33.496C157.98 33.5195 157.993 33.5515 157.993 33.5848V35.9154C157.998 36.0708 157.969 36.2252 157.908 36.3668C157.847 36.5084 157.756 36.6333 157.642 36.7318C157.588 36.7498 157.532 36.7569 157.476 36.7528Z" fill="white"/>
<path d="M156.163 34.7216V34.4983C156.194 33.9172 156.354 33.3518 156.63 32.8476C156.907 32.3434 157.292 31.9146 157.754 31.5955C157.92 31.4489 158.124 31.3595 158.34 31.3393C158.555 31.3192 158.771 31.3692 158.959 31.4827C159.146 31.5963 159.296 31.7677 159.388 31.9739C159.48 32.1801 159.509 32.411 159.472 32.6352V32.712L156.163 34.7216ZM158.497 31.6234C158.278 31.6306 158.065 31.7006 157.88 31.8258C157.487 32.0991 157.153 32.4577 156.901 32.8777C156.65 33.2977 156.486 33.7693 156.422 34.2611L159.22 32.5654C159.23 32.4007 159.2 32.236 159.133 32.0869C159.066 31.9378 158.963 31.8094 158.835 31.7141C158.732 31.6527 158.615 31.6213 158.497 31.6234Z" fill="white"/>
<path d="M161.912 34.0734C161.879 34.0735 161.848 34.0605 161.825 34.0371C161.801 34.0137 161.787 33.9818 161.786 33.9478V29.4959C161.786 29.4607 161.799 29.427 161.823 29.4021C161.846 29.3772 161.878 29.3633 161.912 29.3633C161.945 29.3633 161.977 29.3772 162.001 29.4021C162.024 29.427 162.038 29.4607 162.038 29.4959V33.9478C162.036 33.9818 162.022 34.0137 161.998 34.0371C161.975 34.0605 161.944 34.0735 161.912 34.0734Z" fill="white"/>
<path d="M161.574 30.5069H161.527C161.512 30.5 161.498 30.4901 161.487 30.4776C161.475 30.4651 161.466 30.4504 161.46 30.4341C161.454 30.4179 161.45 30.4006 161.451 30.3831C161.451 30.3657 161.454 30.3484 161.461 30.3324L161.905 29.2578L162.396 29.8579C162.406 29.8707 162.414 29.8856 162.419 29.9017C162.424 29.9177 162.426 29.9347 162.425 29.9515C162.424 29.9684 162.419 29.9848 162.412 29.9999C162.405 30.0149 162.395 30.0283 162.383 30.0393C162.37 30.0503 162.356 30.0587 162.341 30.0639C162.326 30.0692 162.31 30.0712 162.294 30.0699C162.278 30.0686 162.262 30.064 162.248 30.0564C162.233 30.0488 162.221 30.0382 162.21 30.0254L161.971 29.7463L161.686 30.4441C161.675 30.4647 161.659 30.4815 161.639 30.4926C161.619 30.5038 161.596 30.5087 161.574 30.5069Z" fill="white"/>
<path d="M163.085 33.3899C163.053 33.3881 163.022 33.3734 163 33.3487C162.978 33.324 162.966 33.2913 162.966 33.2573V28.8054C162.961 28.7859 162.961 28.7657 162.965 28.7462C162.97 28.7267 162.978 28.7084 162.99 28.6928C163.001 28.6771 163.016 28.6645 163.034 28.6558C163.051 28.6471 163.069 28.6426 163.088 28.6426C163.107 28.6426 163.126 28.6471 163.143 28.6558C163.16 28.6645 163.175 28.6771 163.187 28.6928C163.199 28.7084 163.207 28.7267 163.211 28.7462C163.215 28.7657 163.215 28.7859 163.211 28.8054V33.2573C163.211 33.2925 163.198 33.3262 163.174 33.3511C163.151 33.3759 163.118 33.3899 163.085 33.3899Z" fill="white"/>
<path d="M162.72 29.8164H162.674C162.659 29.8096 162.645 29.7996 162.633 29.7872C162.621 29.7747 162.612 29.7599 162.606 29.7437C162.6 29.7275 162.597 29.7102 162.597 29.6927C162.597 29.6753 162.601 29.658 162.607 29.642L163.052 28.5674L163.542 29.1675C163.564 29.1921 163.576 29.2245 163.576 29.2582C163.576 29.2919 163.564 29.3243 163.542 29.3489C163.518 29.3724 163.486 29.3855 163.453 29.3855C163.42 29.3855 163.388 29.3724 163.363 29.3489L163.131 29.0628L162.846 29.7606C162.832 29.7817 162.813 29.7982 162.791 29.8081C162.769 29.818 162.744 29.8209 162.72 29.8164Z" fill="white"/>
<path d="M149.659 44.1846L133.501 34.3666L133.508 14.7236L149.659 24.5416V44.1846Z" fill="#E0E0E0"/>
<path d="M142.458 20.1659L158.603 10.3409L156.78 9.23145L140.628 19.0564L142.458 20.1659Z" fill="white"/>
<path d="M135.954 25.9854L141.742 29.4744C142.075 29.7052 142.352 30.0146 142.551 30.3781C142.751 30.7415 142.866 31.1489 142.889 31.5677V35.3219C142.889 36.0965 142.372 36.4105 141.742 36.0197L135.954 32.5307C135.621 32.3003 135.344 31.9909 135.144 31.6274C134.945 31.2639 134.83 30.8563 134.807 30.4373V26.6832C134.807 25.9086 135.324 25.6016 135.954 25.9854Z" fill="#FF6B35"/>
<path d="M135.51 26.9199L135.729 27.0595V31.2253L135.51 31.0927V26.9199Z" fill="#FF6B35"/>
<path d="M136.405 27.4648L136.783 27.7021V31.8679L136.405 31.6377V27.4648Z" fill="#FF6B35"/>
<path d="M137.3 28.0088L137.519 28.1414V32.3142L137.3 32.1816V28.0088Z" fill="#FF6B35"/>
<path d="M137.97 28.4141L138.414 28.6862V32.859L137.97 32.5799V28.4141Z" fill="#FF6B35"/>
<path d="M139.083 29.0977L139.309 29.2302V33.4031L139.083 33.2635V29.0977Z" fill="#FF6B35"/>
<path d="M139.734 29.4814L140.198 29.7745V33.9404L139.727 33.6473L139.734 29.4814Z" fill="#FF6B35"/>
<path d="M140.874 30.1865L141.092 30.3191V34.4849L140.874 34.3524V30.1865Z" fill="#FF6B35"/>
<path d="M141.384 30.4863L141.497 30.5561V34.722L141.384 34.6592V30.4863Z" fill="#FF6B35"/>
<path d="M140.469 29.9561L140.575 30.0258V34.1917L140.469 34.1289V29.9561Z" fill="#FF6B35"/>
<path d="M138.666 28.8467L138.772 28.9095V33.0823L138.666 33.0125V28.8467Z" fill="#FF6B35"/>
<path d="M137.678 28.2471L137.79 28.3168V32.4897L137.678 32.4199V28.2471Z" fill="#FF6B35"/>
<path d="M136.969 27.835L137.081 27.9047V32.0776L136.969 32.0078V27.835Z" fill="#FF6B35"/>
<path d="M136.007 27.2207L136.12 27.2905V31.4633L136.007 31.3935V27.2207Z" fill="#FF6B35"/>
<path d="M141.769 30.7236L141.987 30.8562V35.0291L141.769 34.8965V30.7236Z" fill="#FF6B35"/>
<path d="M144.275 11.4509L125.419 0L106.569 11.4509L125.419 22.9087L144.275 11.4509Z" fill="#F5F5F5"/>
<path d="M117.337 17.9959L136.193 6.54504L134.363 5.43555L115.513 16.8864L117.337 17.9959Z" fill="white"/>
<path d="M125.419 58.9084L144.275 47.4575V11.4512L125.419 22.909V58.9084Z" fill="#EBEBEB"/>
<path d="M128.535 52.4246C128.449 52.4262 128.363 52.402 128.29 52.3548C128.185 52.2769 128.102 52.1714 128.048 52.0489C127.995 51.9264 127.973 51.7912 127.985 51.657V49.5636V49.4101H128.091L129.636 48.4541V50.7778C129.632 51.0768 129.561 51.3708 129.429 51.6353C129.296 51.8998 129.106 52.1273 128.873 52.299C128.773 52.3727 128.656 52.4162 128.535 52.4246ZM128.237 49.7241V51.65C128.225 51.7396 128.236 51.8307 128.267 51.9149C128.299 51.9991 128.35 52.0736 128.416 52.1315C128.469 52.1567 128.528 52.1662 128.587 52.1588C128.645 52.1514 128.701 52.1275 128.747 52.0896C128.946 51.9438 129.109 51.7511 129.224 51.527C129.339 51.3028 129.403 51.0534 129.41 50.7987V50.6312H128.833L128.721 49.8148L128.237 49.7241ZM129.032 50.3661H129.423V48.9356L128.495 49.5078L128.953 49.5915L129.032 50.3661Z" fill="white"/>
<path d="M128.813 54.0587C128.78 54.0587 128.748 54.0447 128.724 54.0198C128.701 53.995 128.688 53.9613 128.688 53.9261V52.1746C128.687 52.1575 128.691 52.1406 128.697 52.1249C128.704 52.1092 128.713 52.095 128.725 52.0832C128.737 52.0715 128.751 52.0624 128.766 52.0565C128.781 52.0506 128.797 52.0481 128.813 52.049C128.846 52.049 128.877 52.062 128.9 52.0854C128.924 52.1087 128.938 52.1407 128.939 52.1746V53.9261C128.938 53.9607 128.924 53.9935 128.901 54.018C128.877 54.0425 128.846 54.057 128.813 54.0587Z" fill="white"/>
<path d="M128.097 54.5181C128.076 54.5186 128.055 54.513 128.036 54.502C128.017 54.4909 128.002 54.4748 127.991 54.4553C127.976 54.4244 127.973 54.3887 127.981 54.3551C127.99 54.3216 128.01 54.2926 128.038 54.2739L129.476 53.4016C129.491 53.3929 129.507 53.3872 129.523 53.3849C129.54 53.3826 129.556 53.3838 129.572 53.3883C129.588 53.3929 129.603 53.4007 129.616 53.4114C129.63 53.422 129.641 53.4353 129.649 53.4505C129.657 53.465 129.662 53.4812 129.664 53.498C129.666 53.5147 129.665 53.5318 129.661 53.5481C129.657 53.5644 129.649 53.5796 129.639 53.5928C129.629 53.606 129.617 53.6169 129.602 53.6249L128.157 54.5041C128.139 54.5153 128.118 54.5201 128.097 54.5181Z" fill="white"/>
<path d="M133.236 51.4835C133.187 51.4836 133.139 51.4717 133.096 51.4486C133.048 51.4144 133.009 51.3673 132.983 51.3122C132.958 51.2571 132.946 51.1958 132.951 51.1346V50.7717C132.95 50.7546 132.954 50.7377 132.96 50.722C132.967 50.7063 132.976 50.6921 132.988 50.6804C133 50.6686 133.014 50.6595 133.029 50.6536C133.044 50.6477 133.06 50.6452 133.076 50.6461C133.092 50.6461 133.108 50.6494 133.122 50.6557C133.137 50.662 133.15 50.6713 133.161 50.6829C133.172 50.6946 133.181 50.7084 133.187 50.7237C133.193 50.7389 133.196 50.7552 133.196 50.7717V51.1346C133.196 51.1834 133.196 51.2113 133.196 51.2183C133.196 51.2253 133.236 51.2183 133.275 51.2183C133.353 51.1432 133.414 51.0512 133.454 50.9488C133.494 50.8463 133.512 50.7359 133.507 50.6252V48.3015C133.507 48.2664 133.521 48.2326 133.544 48.2078C133.568 48.1829 133.6 48.1689 133.633 48.1689C133.666 48.1706 133.697 48.1852 133.721 48.2097C133.744 48.2342 133.758 48.2669 133.759 48.3015V50.6252C133.766 50.7814 133.736 50.937 133.674 51.079C133.612 51.221 133.518 51.3453 133.401 51.4416C133.35 51.4687 133.293 51.483 133.236 51.4835Z" fill="white"/>
<path d="M131.923 49.4521V49.2218C131.954 48.6418 132.115 48.0775 132.391 47.5746C132.667 47.0716 133.052 46.6439 133.514 46.326C133.68 46.1794 133.884 46.09 134.099 46.0698C134.315 46.0496 134.531 46.0997 134.719 46.2132C134.906 46.3267 135.056 46.4982 135.148 46.7044C135.239 46.9105 135.269 47.1414 135.231 47.3657V47.4424L131.923 49.4521ZM134.257 46.3469C134.038 46.3574 133.826 46.4271 133.64 46.5493C133.246 46.8234 132.911 47.1831 132.66 47.6043C132.408 48.0256 132.245 48.4985 132.181 48.9916L134.979 47.2959C134.989 47.1303 134.959 46.9648 134.892 46.8147C134.825 46.6647 134.722 46.535 134.595 46.4376C134.491 46.3782 134.375 46.347 134.257 46.3469Z" fill="white"/>
<path d="M137.698 48.804C137.664 48.804 137.632 48.7901 137.609 48.7652C137.585 48.7403 137.572 48.7066 137.572 48.6714V44.2195C137.572 44.1843 137.585 44.1506 137.609 44.1257C137.632 44.1009 137.664 44.0869 137.698 44.0869C137.731 44.0869 137.763 44.1009 137.787 44.1257C137.81 44.1506 137.824 44.1843 137.824 44.2195V48.6714C137.824 48.7066 137.81 48.7403 137.787 48.7652C137.763 48.7901 137.731 48.804 137.698 48.804Z" fill="white"/>
<path d="M137.333 45.2382H137.287C137.272 45.2321 137.258 45.2228 137.247 45.211C137.235 45.1991 137.226 45.185 137.22 45.1693C137.213 45.1537 137.21 45.1369 137.21 45.1199C137.211 45.103 137.214 45.0862 137.22 45.0707L137.665 43.9961L138.155 44.5962C138.176 44.6221 138.187 44.6558 138.184 44.6898C138.182 44.7238 138.167 44.7554 138.142 44.7776C138.117 44.7998 138.085 44.8108 138.053 44.8082C138.021 44.8056 137.991 44.7896 137.97 44.7637L137.731 44.4776L137.446 45.1754C137.435 45.196 137.418 45.2128 137.398 45.2239C137.378 45.2351 137.356 45.24 137.333 45.2382Z" fill="white"/>
<path d="M138.845 48.1127C138.813 48.1127 138.783 48.0994 138.76 48.0759C138.738 48.0523 138.725 48.0204 138.725 47.9871V43.5351C138.724 43.5181 138.727 43.501 138.732 43.4849C138.738 43.4689 138.747 43.4542 138.758 43.4418C138.769 43.4294 138.782 43.4195 138.797 43.4127C138.812 43.406 138.828 43.4025 138.845 43.4025C138.861 43.4015 138.878 43.4043 138.894 43.4106C138.91 43.4169 138.924 43.4266 138.936 43.4391C138.948 43.4516 138.957 43.4667 138.963 43.4832C138.969 43.4998 138.972 43.5174 138.971 43.5351V47.9871C138.971 48.0042 138.967 48.0211 138.961 48.0368C138.955 48.0525 138.945 48.0667 138.933 48.0785C138.922 48.0902 138.908 48.0993 138.892 48.1052C138.877 48.1111 138.861 48.1136 138.845 48.1127Z" fill="white"/>
<path d="M138.487 44.5469H138.434C138.404 44.5317 138.381 44.5055 138.369 44.4732C138.357 44.4409 138.356 44.405 138.368 44.3725L138.812 43.2979L139.309 43.898C139.33 43.9232 139.341 43.9554 139.341 43.9887C139.341 44.0219 139.33 44.0541 139.309 44.0794C139.298 44.0918 139.284 44.1017 139.268 44.1085C139.253 44.1152 139.236 44.1187 139.22 44.1187C139.203 44.1187 139.187 44.1152 139.171 44.1085C139.156 44.1017 139.142 44.0918 139.13 44.0794L138.898 43.7933L138.613 44.4911C138.6 44.5129 138.581 44.5299 138.558 44.5399C138.536 44.5498 138.511 44.5523 138.487 44.5469Z" fill="white"/>
<path d="M125.419 58.9084L106.569 47.4575V11.4512L125.419 22.909V58.9084Z" fill="#E0E0E0"/>
<path d="M110.401 39.9698L116.183 43.4588C116.517 43.6884 116.796 43.9975 116.996 44.361C117.196 44.7246 117.313 45.1326 117.336 45.5522V49.3133C117.336 50.0809 116.819 50.3949 116.183 50.0111L110.401 46.5221C110.067 46.293 109.788 45.9839 109.589 45.6201C109.39 45.2563 109.275 44.8481 109.254 44.4287V40.6746C109.254 39.8651 109.771 39.586 110.401 39.9698Z" fill="#F5F5F5"/>
<path d="M109.957 40.9043L110.176 41.0439V45.2097L109.957 45.0771V40.9043Z" fill="#E0E0E0"/>
<path d="M110.852 41.4482L111.23 41.6855V45.8583L110.852 45.6211V41.4482Z" fill="#E0E0E0"/>
<path d="M111.74 41.9932L111.966 42.1257L111.959 46.2986L111.74 46.166V41.9932Z" fill="#E0E0E0"/>
<path d="M112.417 42.3975L112.854 42.6696V46.8424L112.417 46.5633V42.3975Z" fill="#E0E0E0"/>
<path d="M113.531 43.082L113.75 43.2146V47.3874L113.531 47.2479V43.082Z" fill="#E0E0E0"/>
<path d="M114.173 43.4658L114.644 43.7589V47.9247L114.173 47.6317V43.4658Z" fill="#E0E0E0"/>
<path d="M115.321 44.1631L115.54 44.3026V48.4685L115.321 48.3359V44.1631Z" fill="#E0E0E0"/>
<path d="M115.831 44.4697L115.944 44.5395V48.7123L115.831 48.6426V44.4697Z" fill="#E0E0E0"/>
<path d="M114.917 43.9395L115.023 44.0092V48.1751L114.917 48.1123V43.9395Z" fill="#E0E0E0"/>
<path d="M113.113 42.8301L113.219 42.8929V47.0657L113.113 46.9959V42.8301Z" fill="#E0E0E0"/>
<path d="M112.125 42.2305L112.231 42.3003V46.4731L112.125 46.4033V42.2305Z" fill="#E0E0E0"/>
<path d="M111.416 41.8184L111.528 41.8881V46.061L111.416 45.9912V41.8184Z" fill="#E0E0E0"/>
<path d="M110.454 41.2051L110.567 41.2749V45.4477L110.454 45.3779V41.2051Z" fill="#E0E0E0"/>
<path d="M116.216 44.708L116.435 44.8406V49.0134L116.216 48.8808V44.708Z" fill="#E0E0E0"/>
<path d="M115.513 21.5331L117.337 22.6426V17.9952L115.513 16.8857V21.5331Z" fill="#F0F0F0"/>
<path d="M87.7123 49.0903L74.2463 40.9121L55.3965 52.363L68.8625 60.5481L87.7123 49.0903Z" fill="#F5F5F5"/>
<path d="M68.8628 93.2744L87.7126 81.8235V49.0898L68.8628 60.5477V93.2744Z" fill="#EBEBEB"/>
<path d="M71.9723 86.7644C71.888 86.7662 71.805 86.742 71.7336 86.6946C71.6295 86.6163 71.5466 86.5107 71.4931 86.3883C71.4396 86.266 71.4174 86.131 71.4286 85.9968V83.9034V83.7499H71.5281L73.0795 82.7939V85.1176C73.0763 85.4167 73.0054 85.7106 72.8729 85.9751C72.7403 86.2396 72.5497 86.4671 72.3171 86.6388C72.2146 86.7119 72.0957 86.7552 71.9723 86.7644ZM71.6806 84.0639V85.9899C71.6682 86.0796 71.6782 86.1711 71.7096 86.2555C71.741 86.3399 71.7927 86.4143 71.8596 86.4713C71.9138 86.4938 71.9725 86.5018 72.0304 86.4945C72.0882 86.4872 72.1435 86.4648 72.1911 86.4295C72.3896 86.2837 72.553 86.091 72.6682 85.8668C72.7833 85.6426 72.847 85.3932 72.8541 85.1385V84.9711H72.2773L72.1646 84.1546L71.6806 84.0639ZM72.4762 84.7059H72.8342V83.2684L71.906 83.8406L72.3635 83.9244L72.4762 84.7059Z" fill="white"/>
<path d="M72.2573 88.4249C72.2239 88.4249 72.1919 88.4109 72.1682 88.3861C72.1446 88.3612 72.1313 88.3275 72.1313 88.2923V86.5408C72.1313 86.5237 72.1346 86.5068 72.141 86.4911C72.1474 86.4754 72.1568 86.4612 72.1686 86.4495C72.1804 86.4377 72.1944 86.4286 72.2096 86.4227C72.2249 86.4168 72.2411 86.4143 72.2573 86.4152C72.289 86.4152 72.3193 86.4285 72.3417 86.452C72.3641 86.4756 72.3767 86.5075 72.3767 86.5408V88.2923C72.3767 88.3263 72.3644 88.359 72.3421 88.3837C72.3199 88.4083 72.2896 88.4231 72.2573 88.4249Z" fill="white"/>
<path d="M71.5342 88.857C71.5127 88.8583 71.4912 88.853 71.4724 88.8419C71.4536 88.8308 71.4382 88.8142 71.4281 88.7941C71.4186 88.7797 71.4121 88.7634 71.4089 88.7462C71.4057 88.729 71.4061 88.7112 71.4098 88.6942C71.4135 88.6771 71.4206 88.661 71.4307 88.647C71.4407 88.6329 71.4534 88.6213 71.4679 88.6127L72.9133 87.7405C72.9277 87.7317 72.9435 87.7261 72.96 87.7238C72.9764 87.7215 72.9931 87.7227 73.0091 87.7272C73.0252 87.7317 73.0402 87.7396 73.0533 87.7502C73.0664 87.7609 73.0774 87.7742 73.0857 87.7893C73.0939 87.8039 73.0991 87.8201 73.1012 87.8368C73.1033 87.8536 73.1021 87.8707 73.0978 87.887C73.0935 87.9032 73.086 87.9184 73.076 87.9316C73.0659 87.9448 73.0535 87.9558 73.0393 87.9638L71.5939 88.843C71.5759 88.8541 71.555 88.859 71.5342 88.857Z" fill="white"/>
<path d="M76.6799 85.8496C76.6316 85.8498 76.5838 85.8378 76.5407 85.8147C76.4923 85.7805 76.4533 85.7335 76.4277 85.6784C76.4021 85.6232 76.3908 85.5619 76.3949 85.5007V85.1379C76.3949 85.1046 76.4074 85.0726 76.4298 85.0491C76.4522 85.0255 76.4825 85.0123 76.5142 85.0123C76.5304 85.0113 76.5467 85.0139 76.5619 85.0198C76.5772 85.0256 76.5911 85.0347 76.6029 85.0465C76.6147 85.0583 76.6241 85.0724 76.6305 85.0881C76.6369 85.1039 76.6402 85.1208 76.6402 85.1379V85.5007C76.6402 85.5496 76.6402 85.5775 76.6402 85.5845C76.6402 85.5915 76.6799 85.5845 76.7197 85.5845C76.7957 85.5082 76.8557 85.416 76.8957 85.3139C76.9356 85.2117 76.9548 85.1018 76.9518 84.9913V82.6677C76.9475 82.6482 76.9474 82.628 76.9515 82.6085C76.9557 82.589 76.9639 82.5707 76.9757 82.5551C76.9875 82.5394 77.0025 82.5268 77.0196 82.5181C77.0367 82.5094 77.0555 82.5049 77.0744 82.5049C77.0934 82.5049 77.1122 82.5094 77.1293 82.5181C77.1464 82.5268 77.1614 82.5394 77.1732 82.5551C77.185 82.5707 77.1932 82.589 77.1974 82.6085C77.2015 82.628 77.2014 82.6482 77.1971 82.6677V84.9913C77.2026 85.1468 77.1737 85.3014 77.1127 85.4431C77.0517 85.5847 76.9603 85.7096 76.8457 85.8078C76.7942 85.8348 76.7375 85.8491 76.6799 85.8496Z" fill="white"/>
<path d="M75.3667 83.8252V83.5949C75.3981 83.0148 75.5585 82.4506 75.8348 81.9476C76.1112 81.4447 76.4959 81.017 76.958 80.699C77.1226 80.5509 77.3269 80.4601 77.5426 80.4392C77.7584 80.4183 77.975 80.4683 78.1626 80.5823C78.3502 80.6964 78.4996 80.8688 78.5902 81.0759C78.6808 81.283 78.7082 81.5146 78.6686 81.7388V81.8155L75.3667 83.8252ZM77.7006 80.72C77.4819 80.7305 77.2695 80.8002 77.0839 80.9223C76.6894 81.1964 76.3551 81.5562 76.1035 81.9774C75.852 82.3986 75.6889 82.8716 75.6253 83.3646L78.4232 81.662C78.4326 81.4975 78.4022 81.3332 78.335 81.1843C78.2677 81.0355 78.1658 80.9069 78.0387 80.8107C77.9375 80.75 77.8236 80.7164 77.7072 80.713L77.7006 80.72Z" fill="white"/>
<path d="M81.1421 83.1702C81.1087 83.1702 81.0766 83.1563 81.053 83.1314C81.0294 83.1065 81.0161 83.0728 81.0161 83.0376V78.5857C81.0161 78.5505 81.0294 78.5168 81.053 78.492C81.0766 78.4671 81.1087 78.4531 81.1421 78.4531C81.1755 78.4531 81.2075 78.4671 81.2312 78.492C81.2548 78.5168 81.2681 78.5505 81.2681 78.5857V83.0376C81.2681 83.0728 81.2548 83.1065 81.2312 83.1314C81.2075 83.1563 81.1755 83.1702 81.1421 83.1702Z" fill="white"/>
<path d="M80.7775 79.6395H80.7311C80.7161 79.6334 80.7024 79.6242 80.6908 79.6123C80.6793 79.6005 80.6702 79.5864 80.664 79.5707C80.6578 79.5551 80.6546 79.5382 80.6548 79.5213C80.6549 79.5043 80.6583 79.4876 80.6648 79.4721L81.109 78.3975L81.5996 78.9976C81.6207 79.0235 81.6312 79.0571 81.6287 79.0912C81.6262 79.1252 81.611 79.1568 81.5864 79.179C81.5742 79.19 81.5601 79.1983 81.5448 79.2036C81.5295 79.2088 81.5134 79.2109 81.4974 79.2096C81.4651 79.207 81.4351 79.191 81.414 79.165L81.1753 78.8789L80.8902 79.5767C80.879 79.5974 80.8624 79.6142 80.8425 79.6253C80.8225 79.6364 80.8 79.6414 80.7775 79.6395Z" fill="white"/>
<path d="M82.2891 82.4799C82.2568 82.4799 82.2257 82.4669 82.2022 82.4435C82.1788 82.4202 82.1648 82.3882 82.1631 82.3543V77.9023C82.1631 77.8671 82.1764 77.8334 82.2 77.8086C82.2236 77.7837 82.2557 77.7697 82.2891 77.7697C82.3059 77.7687 82.3227 77.7715 82.3384 77.7778C82.3541 77.7841 82.3684 77.7938 82.3803 77.8063C82.3922 77.8188 82.4014 77.8339 82.4074 77.8504C82.4134 77.8669 82.416 77.8846 82.415 77.9023V82.3543C82.4151 82.3714 82.4118 82.3883 82.4054 82.404C82.3989 82.4197 82.3896 82.4339 82.3778 82.4456C82.366 82.4574 82.352 82.4665 82.3368 82.4724C82.3215 82.4783 82.3053 82.4808 82.2891 82.4799Z" fill="white"/>
<path d="M81.924 78.9423C81.909 78.9482 81.8925 78.9482 81.8776 78.9423C81.8625 78.9362 81.8489 78.9269 81.8373 78.9151C81.8258 78.9032 81.8166 78.8891 81.8105 78.8734C81.8043 78.8578 81.8011 78.841 81.8013 78.824C81.8014 78.8071 81.8048 78.7903 81.8113 78.7748L82.2555 77.7002L82.7461 78.3003C82.768 78.3249 82.7802 78.3573 82.7802 78.391C82.7802 78.4247 82.768 78.4571 82.7461 78.4817C82.7344 78.4942 82.7205 78.5041 82.7051 78.5108C82.6897 78.5175 82.6733 78.521 82.6566 78.521C82.64 78.521 82.6235 78.5175 82.6081 78.5108C82.5928 78.5041 82.5788 78.4942 82.5671 78.4817L82.3351 78.1956L82.05 78.8934C82.0355 78.9132 82.016 78.9283 81.9937 78.937C81.9714 78.9456 81.9472 78.9475 81.924 78.9423Z" fill="white"/>
<path d="M68.8625 93.2742L55.3965 85.096V52.3623L68.8625 60.5475V93.2742Z" fill="#E0E0E0"/>
<path d="M61.6489 60.8124L63.4722 61.9219V57.2745L61.6489 56.165V60.8124Z" fill="#F5F5F5"/>
<path d="M63.4722 57.2753L82.3287 45.8175L80.4987 44.708L61.6489 56.1658L63.4722 57.2753Z" fill="white"/>
<path d="M63.4723 76.911L39.2387 62.1875L14.9985 76.911L39.2387 91.6415L63.4723 76.911Z" fill="#F5F5F5"/>
<path d="M39.2388 111.278L63.4723 96.5541V76.9111L39.2388 91.6416V111.278Z" fill="#EBEBEB"/>
<path d="M42.3485 104.761C42.2646 104.759 42.1825 104.735 42.1098 104.691C42.0062 104.612 41.9236 104.506 41.8702 104.384C41.8168 104.262 41.7942 104.127 41.8048 103.993V101.9V101.746H41.9042L43.4557 100.783V103.114C43.4514 103.412 43.3801 103.704 43.2475 103.967C43.115 104.231 42.925 104.457 42.6932 104.628C42.5912 104.703 42.4724 104.749 42.3485 104.761ZM42.0501 102.06V103.986C42.0383 104.075 42.0486 104.165 42.08 104.248C42.1114 104.331 42.1628 104.405 42.2291 104.461C42.2834 104.487 42.3433 104.497 42.4027 104.491C42.462 104.485 42.5188 104.462 42.5673 104.426C42.7651 104.279 42.9279 104.086 43.0429 103.862C43.158 103.638 43.2221 103.389 43.2303 103.135V102.96H42.6336L42.5208 102.144L42.0501 102.06ZM42.8457 102.702H43.2303V101.272L42.3087 101.844L42.7662 101.928L42.8457 102.702Z" fill="white"/>
<path d="M42.6271 106.421C42.6114 106.421 42.5959 106.417 42.5814 106.411C42.5669 106.405 42.5537 106.396 42.5427 106.384C42.5316 106.372 42.5228 106.358 42.5168 106.343C42.5108 106.328 42.5077 106.312 42.5077 106.295V104.544C42.5034 104.524 42.5033 104.504 42.5074 104.484C42.5116 104.465 42.5199 104.447 42.5317 104.431C42.5435 104.415 42.5585 104.403 42.5756 104.394C42.5926 104.385 42.6114 104.381 42.6304 104.381C42.6494 104.381 42.6681 104.385 42.6852 104.394C42.7023 104.403 42.7173 104.415 42.7291 104.431C42.7409 104.447 42.7492 104.465 42.7533 104.484C42.7574 104.504 42.7574 104.524 42.753 104.544V106.295C42.7531 106.312 42.7498 106.329 42.7434 106.345C42.7369 106.361 42.7276 106.375 42.7158 106.387C42.704 106.398 42.69 106.407 42.6748 106.413C42.6595 106.419 42.6433 106.422 42.6271 106.421Z" fill="white"/>
<path d="M41.9037 106.854C41.8772 106.852 41.8518 106.841 41.8313 106.823C41.8108 106.806 41.7962 106.781 41.7896 106.754C41.783 106.727 41.7847 106.698 41.7945 106.672C41.8043 106.646 41.8216 106.624 41.8441 106.609L43.2895 105.737C43.3026 105.727 43.3176 105.72 43.3335 105.717C43.3494 105.714 43.3657 105.714 43.3814 105.718C43.3972 105.722 43.4119 105.73 43.4246 105.74C43.4373 105.751 43.4478 105.764 43.4552 105.779C43.4647 105.793 43.4713 105.81 43.4744 105.827C43.4776 105.844 43.4773 105.862 43.4736 105.879C43.4698 105.896 43.4627 105.912 43.4527 105.926C43.4427 105.94 43.43 105.952 43.4154 105.96L41.97 106.854H41.9037Z" fill="white"/>
<path d="M47.0488 103.853C47.0051 103.863 46.9598 103.863 46.9162 103.853C46.8655 103.819 46.8246 103.771 46.7977 103.715C46.7708 103.658 46.7591 103.595 46.7637 103.532V103.176C46.7637 103.141 46.7769 103.107 46.8006 103.082C46.8242 103.057 46.8562 103.043 46.8896 103.043C46.923 103.043 46.9551 103.057 46.9787 103.082C47.0023 103.107 47.0156 103.141 47.0156 103.176V103.532C47.0065 103.561 47.0065 103.593 47.0156 103.623C47.0156 103.623 47.0554 103.623 47.1018 103.623C47.1766 103.546 47.2353 103.453 47.2742 103.351C47.313 103.249 47.3311 103.139 47.3272 103.029V100.706C47.3288 100.671 47.3426 100.638 47.3659 100.614C47.3892 100.589 47.4203 100.575 47.4532 100.573C47.4866 100.573 47.5187 100.587 47.5423 100.612C47.5659 100.637 47.5792 100.671 47.5792 100.706V103.029C47.5846 103.185 47.5557 103.34 47.4948 103.481C47.4338 103.623 47.3424 103.748 47.2278 103.846C47.1695 103.863 47.1081 103.865 47.0488 103.853Z" fill="white"/>
<path d="M45.7432 101.822V101.592C45.772 101.011 45.9312 100.446 46.2078 99.9426C46.4844 99.4392 46.8705 99.012 47.3344 98.6961C47.4991 98.548 47.7034 98.4572 47.9191 98.4363C48.1348 98.4154 48.3514 98.4654 48.539 98.5794C48.7266 98.6935 48.876 98.8659 48.9667 99.073C49.0573 99.2801 49.0847 99.5117 49.045 99.7358V99.8126L45.7432 101.822ZM48.077 98.717C47.8565 98.7288 47.6423 98.7984 47.4538 98.9194C47.0605 99.1942 46.7275 99.5543 46.477 99.9755C46.2266 100.397 46.0646 100.869 46.0017 101.362L48.7931 99.6591C48.8038 99.4951 48.7747 99.3309 48.7086 99.182C48.6425 99.0331 48.5415 98.9043 48.4152 98.8078C48.3122 98.7463 48.1954 98.715 48.077 98.717Z" fill="white"/>
<path d="M51.518 101.174C51.5012 101.175 51.4844 101.172 51.4686 101.166C51.4529 101.16 51.4386 101.15 51.4267 101.137C51.4149 101.125 51.4056 101.11 51.3996 101.093C51.3936 101.077 51.391 101.059 51.392 101.041V96.5895C51.3877 96.5701 51.3876 96.5499 51.3917 96.5304C51.3959 96.5109 51.4041 96.4926 51.4159 96.477C51.4277 96.4613 51.4427 96.4487 51.4598 96.44C51.4769 96.4313 51.4957 96.4268 51.5146 96.4268C51.5336 96.4268 51.5524 96.4313 51.5695 96.44C51.5866 96.4487 51.6016 96.4613 51.6134 96.477C51.6251 96.4926 51.6334 96.5109 51.6376 96.5304C51.6417 96.5499 51.6416 96.5701 51.6373 96.5895V101.041C51.6382 101.059 51.6358 101.076 51.6302 101.092C51.6246 101.108 51.616 101.122 51.6048 101.135C51.5936 101.147 51.5801 101.157 51.5652 101.164C51.5503 101.171 51.5342 101.174 51.518 101.174Z" fill="white"/>
<path d="M51.1865 97.6075H51.1335C51.1182 97.6007 51.1044 97.5908 51.0929 97.5781C51.0815 97.5655 51.0727 97.5505 51.0671 97.5341C51.0615 97.5177 51.0592 97.5002 51.0603 97.4828C51.0615 97.4654 51.0661 97.4484 51.0738 97.433L51.5114 96.3584L52.0087 96.9585C52.0306 96.9853 52.0416 97.0203 52.0391 97.0556C52.0366 97.0909 52.0209 97.1238 51.9954 97.1469C51.9699 97.17 51.9367 97.1816 51.9032 97.179C51.8696 97.1763 51.8384 97.1598 51.8164 97.133L51.5843 96.8469L51.2992 97.5447C51.2875 97.5647 51.2708 97.5811 51.251 97.5922C51.2312 97.6032 51.2089 97.6085 51.1865 97.6075Z" fill="white"/>
<path d="M52.665 100.483C52.6316 100.483 52.5996 100.469 52.576 100.444C52.5523 100.419 52.5391 100.385 52.5391 100.35V95.8982C52.5391 95.863 52.5523 95.8293 52.576 95.8045C52.5996 95.7796 52.6316 95.7656 52.665 95.7656C52.6984 95.7656 52.7305 95.7796 52.7541 95.8045C52.7777 95.8293 52.791 95.863 52.791 95.8982V100.35C52.791 100.385 52.7777 100.419 52.7541 100.444C52.7305 100.469 52.6984 100.483 52.665 100.483Z" fill="white"/>
<path d="M52.3 96.917H52.2535C52.2385 96.9109 52.2248 96.9017 52.2133 96.8898C52.2018 96.878 52.1926 96.8638 52.1864 96.8482C52.1802 96.8325 52.1771 96.8157 52.1773 96.7988C52.1774 96.7818 52.1808 96.7651 52.1872 96.7496L52.6315 95.668L53.1221 96.2681C53.1339 96.2804 53.1433 96.2951 53.1497 96.3112C53.1561 96.3274 53.1594 96.3448 53.1594 96.3623C53.1594 96.3798 53.1561 96.3971 53.1497 96.4133C53.1433 96.4295 53.1339 96.4442 53.1221 96.4565C53.111 96.4687 53.0976 96.4785 53.0828 96.4851C53.068 96.4918 53.052 96.4952 53.0359 96.4952C53.0198 96.4952 53.0039 96.4918 52.9891 96.4851C52.9742 96.4785 52.9609 96.4687 52.9497 96.4565L52.711 96.1704L52.4259 96.8682C52.412 96.8887 52.3926 96.9043 52.3701 96.913C52.3476 96.9217 52.3232 96.9231 52.3 96.917Z" fill="white"/>
<path d="M39.2387 111.278L14.9985 96.5541V76.9111L39.2387 91.6416V111.278Z" fill="#E0E0E0"/>
<path d="M26.2036 88.369L28.0269 89.4785V84.8312L26.2036 83.7217V88.369Z" fill="#F5F5F5"/>
<path d="M28.0269 84.8312L52.2671 70.1077L50.4438 68.9912L26.2036 83.7217L28.0269 84.8312Z" fill="white"/>
<path d="M18.8375 89.0667L24.619 92.5557C24.9535 92.7853 25.2322 93.0944 25.4325 93.4579C25.6329 93.8215 25.7494 94.2295 25.7727 94.6491V98.4102C25.7727 99.1778 25.2555 99.4918 24.619 99.108L18.8375 95.619C18.5031 95.3898 18.2249 95.0808 18.0256 94.717C17.8263 94.3532 17.7114 93.945 17.6904 93.5256V89.7715C17.6904 88.9899 18.2076 88.7108 18.8375 89.0667Z" fill="#F5F5F5"/>
<path d="M18.3931 90.001L18.6119 90.1335V94.3064L18.3931 94.1738V90.001Z" fill="#E0E0E0"/>
<path d="M19.2817 90.5459L19.6663 90.7831V94.949L19.2817 94.7187V90.5459Z" fill="#E0E0E0"/>
<path d="M20.1768 91.0898L20.4022 91.2224L20.3956 95.3953L20.1768 95.2627V91.0898Z" fill="#E0E0E0"/>
<path d="M20.853 91.4951L21.2973 91.7673L21.2906 95.9401L20.853 95.661V91.4951Z" fill="#E0E0E0"/>
<path d="M21.9668 92.1787L22.1856 92.3113V96.4841L21.9668 96.3446V92.1787Z" fill="#E0E0E0"/>
<path d="M22.6099 92.5625L23.0806 92.8556V97.0214L22.6099 96.7284V92.5625Z" fill="#E0E0E0"/>
<path d="M23.7568 93.2676L23.9756 93.4002V97.566L23.7568 97.4334V93.2676Z" fill="#E0E0E0"/>
<path d="M24.2676 93.5674L24.3803 93.6372V97.803L24.2676 97.7402V93.5674Z" fill="#E0E0E0"/>
<path d="M23.3525 93.0371L23.4586 93.0999V97.2727L23.3525 97.2099V93.0371Z" fill="#E0E0E0"/>
<path d="M21.5493 91.9277L21.6554 91.9905V96.1634L21.5493 96.0936V91.9277Z" fill="#E0E0E0"/>
<path d="M20.5615 91.3281L20.6742 91.3979V95.5638L20.5615 95.501V91.3281Z" fill="#E0E0E0"/>
<path d="M19.8521 90.916L19.9648 90.9858V95.1586L19.8521 95.0888V90.916Z" fill="#E0E0E0"/>
<path d="M18.8906 90.3008L19.0033 90.3706V94.5364L18.8906 94.4736V90.3008Z" fill="#E0E0E0"/>
<path d="M24.6523 93.8047L24.8711 93.9442V98.1101L24.6523 97.9775V93.8047Z" fill="#E0E0E0"/>
<path d="M58.0886 37.6395L39.2388 26.1816L20.3823 37.6395L39.2388 49.0903L58.0886 37.6395Z" fill="#F5F5F5"/>
<path d="M39.2388 88.3686L58.0886 76.9107V37.6387L39.2388 49.0895V88.3686Z" fill="#EBEBEB"/>
<path d="M42.3485 81.8522C42.2651 81.8529 42.183 81.8313 42.1098 81.7894C42.0062 81.7105 41.9236 81.6049 41.8702 81.4826C41.8168 81.3604 41.7942 81.2257 41.8048 81.0916V78.9982V78.8447H41.9042L43.4557 77.8887V80.2123C43.4519 80.5113 43.3808 80.805 43.2483 81.0694C43.1158 81.3339 42.9255 81.5615 42.6932 81.7335C42.5901 81.8041 42.4713 81.845 42.3485 81.8522ZM42.0501 79.1517V81.0846C42.0396 81.1731 42.0505 81.263 42.0818 81.346C42.1131 81.4289 42.1637 81.5022 42.2291 81.5591C42.2834 81.5852 42.3433 81.5957 42.4027 81.5896C42.462 81.5835 42.5188 81.5609 42.5673 81.5242C42.7652 81.3761 42.928 81.182 43.043 80.9569C43.158 80.7318 43.2221 80.4817 43.2303 80.2263V80.0588H42.6336L42.5208 79.2424L42.0501 79.1517ZM42.8457 79.7937H43.2303V78.3632L42.3087 78.9354L42.7662 79.0191L42.8457 79.7937Z" fill="white"/>
<path d="M42.6268 83.5128C42.6106 83.5128 42.5945 83.5094 42.5796 83.5026C42.5647 83.4959 42.5512 83.486 42.54 83.4736C42.5289 83.4612 42.5202 83.4465 42.5146 83.4304C42.509 83.4144 42.5066 83.3973 42.5075 83.3802V81.6357C42.5066 81.6186 42.509 81.6016 42.5146 81.5855C42.5202 81.5695 42.5289 81.5548 42.54 81.5424C42.5512 81.5299 42.5647 81.5201 42.5796 81.5133C42.5945 81.5066 42.6106 81.5031 42.6268 81.5031C42.6436 81.5021 42.6605 81.5049 42.6762 81.5112C42.6919 81.5175 42.7062 81.5272 42.7181 81.5397C42.73 81.5522 42.7392 81.5673 42.7452 81.5838C42.7512 81.6004 42.7538 81.618 42.7528 81.6357V83.3802C42.7538 83.3979 42.7512 83.4156 42.7452 83.4321C42.7392 83.4487 42.73 83.4637 42.7181 83.4762C42.7062 83.4887 42.6919 83.4985 42.6762 83.5048C42.6605 83.5111 42.6436 83.5138 42.6268 83.5128Z" fill="white"/>
<path d="M41.9037 83.9517C41.8772 83.95 41.8518 83.9394 41.8313 83.9216C41.8108 83.9037 41.7962 83.8795 41.7896 83.8524C41.783 83.8253 41.7847 83.7967 41.7945 83.7706C41.8043 83.7446 41.8216 83.7225 41.8441 83.7075L43.2895 82.8283C43.3185 82.8107 43.3529 82.806 43.3853 82.8151C43.4176 82.8243 43.4451 82.8466 43.4618 82.8771C43.4786 82.9076 43.483 82.9439 43.4743 82.9779C43.4656 83.012 43.4444 83.041 43.4154 83.0585L41.97 83.9308C41.9506 83.9449 41.9274 83.9522 41.9037 83.9517Z" fill="white"/>
<path d="M47.0489 80.9435C47.0017 80.9436 46.9556 80.9291 46.9163 80.9016C46.8656 80.8694 46.8245 80.8229 46.7976 80.7675C46.7706 80.712 46.7589 80.6497 46.7638 80.5876V80.2318C46.7638 80.1966 46.777 80.1629 46.8007 80.138C46.8243 80.1131 46.8563 80.0992 46.8897 80.0992C46.9231 80.0992 46.9552 80.1131 46.9788 80.138C47.0024 80.1629 47.0157 80.1966 47.0157 80.2318V80.5876C47.0066 80.6171 47.0066 80.6489 47.0157 80.6783C47.0439 80.6867 47.0737 80.6867 47.1019 80.6783C47.1776 80.6037 47.2369 80.5126 47.2759 80.4114C47.3148 80.3102 47.3323 80.2012 47.3273 80.0922V77.7685C47.3273 77.7334 47.3406 77.6996 47.3642 77.6748C47.3879 77.6499 47.4199 77.6359 47.4533 77.6359C47.4701 77.6349 47.4869 77.6377 47.5026 77.644C47.5183 77.6503 47.5326 77.66 47.5445 77.6725C47.5564 77.685 47.5657 77.7001 47.5717 77.7166C47.5776 77.7332 47.5802 77.7509 47.5793 77.7685V80.0922C47.5847 80.2476 47.5558 80.4022 47.4949 80.5439C47.4339 80.6856 47.3425 80.8104 47.2279 80.9086C47.1717 80.9352 47.1103 80.9471 47.0489 80.9435Z" fill="white"/>
<path d="M45.7432 78.9416V78.7183C45.773 78.1369 45.9327 77.5711 46.2091 77.0667C46.4856 76.5624 46.8711 76.1337 47.3344 75.8155C47.5006 75.6707 47.7049 75.583 47.9199 75.5643C48.1349 75.5456 48.3501 75.5968 48.5366 75.7109C48.7231 75.825 48.8718 75.9966 48.9627 76.2024C49.0537 76.4083 49.0824 76.6386 49.045 76.8622V76.9319L45.7432 78.9416ZM48.077 75.8434C47.8565 75.8552 47.6423 75.9247 47.4538 76.0457C47.0612 76.3198 46.7287 76.6787 46.4783 77.0987C46.228 77.5186 46.0655 77.9898 46.0017 78.481L48.7931 76.7854C48.8051 76.6213 48.7766 76.4566 48.7104 76.3075C48.6441 76.1583 48.5425 76.0297 48.4152 75.9341C48.3155 75.8603 48.1985 75.8169 48.077 75.8085V75.8434Z" fill="white"/>
<path d="M51.518 78.2434C51.4846 78.2434 51.4525 78.2295 51.4289 78.2046C51.4053 78.1797 51.392 78.146 51.392 78.1108V73.6589C51.3877 73.6394 51.3876 73.6192 51.3917 73.5997C51.3959 73.5802 51.4041 73.562 51.4159 73.5463C51.4277 73.5306 51.4427 73.518 51.4598 73.5093C51.4769 73.5006 51.4957 73.4961 51.5146 73.4961C51.5336 73.4961 51.5524 73.5006 51.5695 73.5093C51.5866 73.518 51.6016 73.5306 51.6134 73.5463C51.6251 73.562 51.6334 73.5802 51.6376 73.5997C51.6417 73.6192 51.6416 73.6394 51.6373 73.6589V78.1108C51.6374 78.1448 51.625 78.1775 51.6028 78.2022C51.5806 78.2269 51.5502 78.2416 51.518 78.2434Z" fill="white"/>
<path d="M51.1865 74.6924H51.1335C51.1182 74.6857 51.1044 74.6757 51.0929 74.6631C51.0815 74.6504 51.0727 74.6354 51.0671 74.619C51.0615 74.6026 51.0592 74.5852 51.0603 74.5678C51.0615 74.5504 51.0661 74.5334 51.0738 74.518L51.5114 73.4434L52.0087 74.0435C52.0306 74.068 52.0428 74.1005 52.0428 74.1342C52.0428 74.1679 52.0306 74.2003 52.0087 74.2249C51.9842 74.2484 51.9523 74.2615 51.9192 74.2615C51.886 74.2615 51.8541 74.2484 51.8297 74.2249L51.5976 73.9388L51.3125 74.6366C51.2995 74.6584 51.2804 74.6754 51.2579 74.6854C51.2353 74.6953 51.2104 74.6978 51.1865 74.6924Z" fill="white"/>
<path d="M52.665 77.5452C52.6321 77.5435 52.601 77.529 52.5777 77.5045C52.5545 77.48 52.5407 77.4473 52.5391 77.4126V72.9607C52.5391 72.9255 52.5523 72.8918 52.576 72.867C52.5996 72.8421 52.6316 72.8281 52.665 72.8281C52.6984 72.8281 52.7305 72.8421 52.7541 72.867C52.7777 72.8918 52.791 72.9255 52.791 72.9607V77.4126C52.7894 77.4473 52.7756 77.48 52.7523 77.5045C52.729 77.529 52.6979 77.5435 52.665 77.5452Z" fill="white"/>
<path d="M52.3002 74.0088H52.2538C52.2386 74.002 52.2248 73.992 52.2132 73.9795C52.2016 73.9671 52.1924 73.9523 52.1863 73.9361C52.1801 73.9199 52.177 73.9026 52.1773 73.8851C52.1775 73.8676 52.181 73.8504 52.1875 73.8344L52.6318 72.7598L53.1224 73.3599C53.1342 73.3722 53.1436 73.3869 53.15 73.403C53.1564 73.4192 53.1597 73.4366 53.1597 73.4541C53.1597 73.4716 53.1564 73.4889 53.15 73.5051C53.1436 73.5213 53.1342 73.536 53.1224 73.5483C53.0984 73.5699 53.0678 73.5818 53.0362 73.5818C53.0046 73.5818 52.974 73.5699 52.95 73.5483L52.7113 73.2622L52.4262 73.96C52.4117 73.9798 52.3922 73.9949 52.3699 74.0035C52.3476 74.0122 52.3235 74.014 52.3002 74.0088Z" fill="white"/>
<path d="M39.2388 88.3686L20.3823 76.9107V37.6387L39.2388 49.0895V88.3686Z" fill="#E0E0E0"/>
<path d="M29.3267 47.7147L31.1566 48.8242V44.1839L29.3267 43.0674V47.7147Z" fill="#F5F5F5"/>
<path d="M31.1566 44.1845L50.0064 32.7267L48.1831 31.6172L29.3267 43.068L31.1566 44.1845Z" fill="white"/>
<path d="M24.2211 69.4236L30.0026 72.9126C30.3374 73.1413 30.6158 73.4503 30.8152 73.8142C31.0146 74.178 31.1292 74.5865 31.1497 75.0059V78.7601C31.1497 79.5277 30.6391 79.8417 30.0026 79.4579L24.2211 75.9689C23.8855 75.7405 23.606 75.4318 23.4055 75.0679C23.205 74.7041 23.0891 74.2955 23.0674 73.8755V70.1214C23.074 69.3538 23.5845 69.0398 24.2211 69.4236Z" fill="#F5F5F5"/>
<path d="M23.77 70.3662L23.9888 70.4988V74.6716L23.77 74.5321V70.3662Z" fill="#E0E0E0"/>
<path d="M24.6655 70.9102L25.0435 71.1404V75.3133L24.6655 75.076V70.9102Z" fill="#E0E0E0"/>
<path d="M25.5605 71.4473L25.7793 71.5868V75.7527L25.5605 75.6201V71.4473Z" fill="#E0E0E0"/>
<path d="M26.2368 71.8516L26.6744 72.1307V76.2965L26.2368 76.0244V71.8516Z" fill="#E0E0E0"/>
<path d="M27.3506 72.5361L27.5694 72.6687V76.8415L27.3506 76.709V72.5361Z" fill="#E0E0E0"/>
<path d="M27.9941 72.9199L28.4649 73.213V77.3858L27.9941 77.0928V72.9199Z" fill="#E0E0E0"/>
<path d="M29.1406 73.625L29.3594 73.7576V77.9304L29.1406 77.7909V73.625Z" fill="#E0E0E0"/>
<path d="M29.6514 73.9316L29.7575 73.9944V78.1673L29.6514 78.0975V73.9316Z" fill="#E0E0E0"/>
<path d="M28.73 73.3945L28.8427 73.4643V77.6371L28.73 77.5674V73.3945Z" fill="#E0E0E0"/>
<path d="M26.9263 72.2852L27.039 72.3549V76.5208L26.9263 76.458V72.2852Z" fill="#E0E0E0"/>
<path d="M25.9385 71.6914L26.0512 71.7542V75.927L25.9385 75.8573V71.6914Z" fill="#E0E0E0"/>
<path d="M25.2354 71.2793L25.3414 71.3421V75.5149L25.2354 75.4451V71.2793Z" fill="#E0E0E0"/>
<path d="M24.2739 70.666L24.38 70.7288V74.9017L24.2739 74.8319V70.666Z" fill="#E0E0E0"/>
<path d="M30.0293 74.1689L30.2547 74.3015V78.4674L30.0293 78.3348V74.1689Z" fill="#E0E0E0"/>
<path d="M20.561 145.756L92.9236 189.717C93.8133 190.192 94.7968 190.44 95.7945 190.44C96.7921 190.44 97.7757 190.192 98.6654 189.717L257.215 93.4212C258.799 92.4582 258.799 90.8951 257.215 89.9322L184.852 45.9709C183.963 45.4926 182.979 45.2432 181.981 45.2432C180.983 45.2432 179.999 45.4926 179.11 45.9709L20.561 142.267C18.9764 143.23 18.9764 144.793 20.561 145.756Z" fill="#455A64"/>
<path d="M59.673 166.167C60.9067 166.822 62.2693 167.163 63.6511 167.163C65.033 167.163 66.3956 166.822 67.6293 166.167C69.8372 164.827 69.8372 162.678 67.6293 161.317C66.3965 160.659 65.0336 160.315 63.6511 160.315C62.2687 160.315 60.9058 160.659 59.673 161.317C57.4651 162.678 57.4651 164.841 59.673 166.167Z" fill="#263238"/>
<path d="M94.2828 189.717L21.9202 145.756C20.5013 144.891 20.3555 143.551 21.476 142.588C20.7683 143.177 20.1864 143.917 19.7683 144.758C19.3502 145.6 19.1052 146.525 19.0493 147.472V150.313C19.1037 151.361 19.392 152.381 19.8908 153.29C20.3896 154.199 21.0848 154.972 21.9202 155.546L94.2828 199.507C95.1676 199.994 96.1558 200.234 97.1537 200.205V190.443C96.1535 190.463 95.1651 190.213 94.2828 189.717Z" fill="#37474F"/>
<path d="M257.208 103.204C258.045 102.632 258.742 101.86 259.242 100.95C259.742 100.041 260.031 99.0199 260.085 97.9707V95.1307C260.032 94.1816 259.787 93.2553 259.367 92.4132C258.948 91.5712 258.363 90.8325 257.652 90.2461C258.779 91.2091 258.633 92.5488 257.215 93.4071L98.6653 189.717C97.7799 190.202 96.7921 190.442 95.7944 190.415V200.233C96.7921 200.26 97.7799 200.02 98.6653 199.535L257.208 103.204Z" fill="#263238"/>
<path d="M104.845 180.611L35.5852 138.505C34.6305 137.926 34.6305 136.984 35.5852 136.412L169.463 55.0419C169.997 54.7563 170.588 54.6074 171.187 54.6074C171.786 54.6074 172.377 54.7563 172.911 55.0419L242.197 97.14C243.145 97.7192 243.145 98.6542 242.197 99.2334L108.266 180.611C107.735 180.892 107.149 181.038 106.555 181.038C105.961 181.038 105.375 180.892 104.845 180.611Z" fill="white"/>
<path d="M76.9385 157.101L85.0207 152.189L82.3289 150.556L74.2466 155.461L76.9385 157.101Z" fill="#FF6B35"/>
<path d="M173.899 98.1869L181.981 93.2744L179.283 91.6416L171.207 96.5541L173.899 98.1869Z" fill="#FF6B35"/>
<path d="M190.057 88.3686L198.139 83.4561L195.447 81.8232L187.365 86.7288L190.057 88.3686Z" fill="#FF6B35"/>
<path d="M215.995 71.168C216.309 71.3332 216.655 71.4192 217.006 71.4192C217.357 71.4192 217.703 71.3332 218.017 71.168C218.139 71.1242 218.244 71.0415 218.319 70.9313C218.394 70.8212 218.434 70.6893 218.434 70.5539C218.434 70.4186 218.394 70.2866 218.319 70.1765C218.244 70.0664 218.139 69.9836 218.017 69.9399C217.704 69.7714 217.357 69.6836 217.006 69.6836C216.654 69.6836 216.308 69.7714 215.995 69.9399C215.873 69.9836 215.767 70.0664 215.693 70.1765C215.618 70.2866 215.578 70.4186 215.578 70.5539C215.578 70.6893 215.618 70.8212 215.693 70.9313C215.767 71.0415 215.873 71.1242 215.995 71.168Z" fill="#263238"/>
<path d="M219.224 80.8054C219.849 81.1389 220.541 81.3127 221.242 81.3127C221.944 81.3127 222.636 81.1389 223.261 80.8054C224.375 80.1076 224.375 79.026 223.261 78.3491C222.636 78.0156 221.944 77.8418 221.242 77.8418C220.541 77.8418 219.849 78.0156 219.224 78.3491C218.11 79.026 218.11 80.1285 219.224 80.8054Z" fill="#263238"/>
<path d="M216.373 76.5345C217.115 76.081 217.075 75.3273 216.286 74.8459L203.026 66.7723C202.599 66.5315 202.124 66.4009 201.64 66.3912C201.156 66.3815 200.676 66.493 200.241 66.7165C199.499 67.1701 199.538 67.9237 200.327 68.4052L213.628 76.4787C214.05 76.7121 214.517 76.8387 214.994 76.8484C215.47 76.8581 215.942 76.7506 216.373 76.5345Z" fill="#263238"/>
<path d="M193.737 43.7934L194.188 43.5143C193.876 44.7051 193.725 45.9358 193.737 47.1708V48.8734C193.737 54.9861 200.705 70.6028 203.271 76.1294C203.536 76.7085 200.016 80.6511 200.016 80.6511L204.199 78.1111C204.199 78.1111 214.655 69.0397 214.655 61.5873V59.8846C214.655 52.3973 209.974 43.4864 204.199 39.9765C201.282 38.211 198.65 38.1482 196.754 39.488L192.775 41.8884L193.737 43.7934ZM198.968 49.5084C198.968 46.0194 201.309 44.575 204.199 46.3334C203.961 48.5873 207.872 55.6071 209.424 55.8653C209.424 59.3543 207.083 60.7987 204.199 59.0403C202.681 57.9936 201.419 56.5851 200.515 54.929C199.61 53.2729 199.09 51.4158 198.995 49.5084H198.968Z" fill="#FF6B35"/>
<path d="M189.434 51.6016C189.553 59.082 200.347 80.651 200.347 80.651C200.347 80.651 210.664 71.4261 210.551 63.9457V62.2431C210.432 54.7627 205.612 45.9285 199.777 42.5233C193.942 39.118 189.315 42.4117 189.434 49.899V51.6016ZM194.672 52.1459C194.619 48.6569 196.939 47.1706 199.85 48.8733C201.388 49.8912 202.677 51.2766 203.611 52.917C204.546 54.5575 205.099 56.4066 205.227 58.3145C205.287 61.8034 202.966 63.2898 200.049 61.5871C198.512 60.5671 197.225 59.1812 196.291 57.5412C195.357 55.9012 194.802 54.0531 194.672 52.1459Z" fill="#FF6B35"/>
<path opacity="0.1" d="M189.434 51.6016C189.553 59.082 200.347 80.651 200.347 80.651C200.347 80.651 210.664 71.4261 210.551 63.9457V62.2431C210.432 54.7627 205.612 45.9285 199.777 42.5233C193.942 39.118 189.315 42.4117 189.434 49.899V51.6016ZM194.672 52.1459C194.619 48.6569 196.939 47.1706 199.85 48.8733C201.388 49.8912 202.677 51.2766 203.611 52.917C204.546 54.5575 205.099 56.4066 205.227 58.3145C205.287 61.8034 202.966 63.2898 200.049 61.5871C198.512 60.5671 197.225 59.1812 196.291 57.5412C195.357 55.9012 194.802 54.0531 194.672 52.1459Z" fill="black"/>
<path d="M88.3159 151.366C95.0191 155.427 110.733 152.475 123.416 144.765L158.258 123.6C170.942 115.89 175.782 106.358 169.066 102.304C162.349 98.2494 146.622 101.215 133.925 108.919L99.1498 130.055C86.4727 137.759 81.6194 147.325 88.3159 151.366Z" fill="#F0F0F0"/>
<path d="M93.103 147.285L101.179 142.372L98.4868 140.739L90.4111 145.645L93.103 147.285Z" fill="#FF6B35"/>
<path d="M109.261 137.466L117.343 132.554L114.644 130.921L106.569 135.826L109.261 137.466Z" fill="#FF6B35"/>
<path d="M105.939 135.463C105.939 139.566 103.207 144.534 99.8325 146.627C98.0357 147.723 96.4179 147.758 95.304 146.934C94.855 146.563 94.4861 146.095 94.2221 145.562C93.958 145.029 93.8047 144.443 93.7725 143.843C93.9992 143.732 94.2205 143.608 94.4355 143.473C97.8103 141.429 100.542 136.44 100.542 132.309C100.545 132.003 100.527 131.697 100.489 131.394C100.995 131.113 101.551 130.945 102.121 130.902C102.692 130.859 103.265 130.941 103.804 131.143C105.13 131.729 105.939 133.244 105.939 135.463Z" fill="#263238"/>
<path d="M106.489 127.034L106.377 126.964C104.679 126.015 102.398 126.19 99.8325 127.739C94.6278 130.9 90.4043 138.59 90.4043 144.919C90.4043 148.101 91.4718 150.327 93.1956 151.359C94.9195 152.392 97.2467 152.218 99.8259 150.662C105.031 147.501 109.247 139.804 109.247 133.475C109.254 130.293 108.207 128.067 106.489 127.034ZM99.859 146.614C98.0556 147.71 96.4378 147.745 95.324 146.914C94.3427 146.217 93.7459 144.821 93.7459 142.902C93.7459 138.806 96.4842 133.831 99.859 131.737C101.397 130.802 102.796 130.642 103.837 131.123C105.123 131.702 105.932 133.217 105.932 135.45C105.939 139.581 103.207 144.57 99.8325 146.628L99.859 146.614Z" fill="#37474F"/>
<path d="M104.149 131.311L104.076 131.269C102.975 130.648 101.483 130.767 99.8323 131.764C96.4575 133.816 93.7192 138.805 93.7192 142.929C93.7192 145.023 94.3823 146.418 95.5293 147.116C96.6763 147.814 98.1814 147.674 99.8323 146.655C103.207 144.604 105.939 139.615 105.939 135.491C105.939 133.425 105.256 131.974 104.149 131.311ZM99.8323 145.162C98.3869 146.041 97.0874 146.069 96.1857 145.399C95.4033 144.82 94.9193 143.711 94.9193 142.176C95.0122 140.382 95.5055 138.637 96.3591 137.081C97.2127 135.526 98.4026 134.204 99.8323 133.223C100.297 132.882 100.831 132.659 101.391 132.573C101.952 132.487 102.524 132.54 103.061 132.727C104.096 133.195 104.745 134.409 104.745 136.216C104.653 138.009 104.16 139.754 103.306 141.308C102.453 142.863 101.262 144.183 99.8323 145.162Z" fill="#FF6B35"/>
<path d="M125.418 127.64L133.501 122.735L130.809 121.095L122.727 126.007L125.418 127.64Z" fill="#FF6B35"/>
<path d="M141.583 117.823L149.659 112.917L146.967 111.277L138.885 116.19L141.583 117.823Z" fill="#FF6B35"/>
<path d="M157.741 108.005L165.817 103.1L163.125 101.46L155.042 106.372L157.741 108.005Z" fill="#FF6B35"/>
<path d="M117.528 62.3479C117.613 62.2292 117.731 62.1419 117.866 62.0986C118.001 62.0554 118.145 62.0585 118.278 62.1075C118.411 62.1565 118.526 62.2489 118.606 62.3711C118.685 62.4934 118.726 62.6393 118.722 62.7875C118.774 63.1847 118.735 63.5892 118.61 63.9677C118.484 64.3462 118.275 64.6879 117.999 64.9647C117.469 65.4461 116.932 65.2507 116.806 64.525C116.754 64.1279 116.793 63.7236 116.919 63.3452C117.044 62.9668 117.253 62.6251 117.528 62.3479Z" fill="#FF6B35"/>
<path d="M123.748 65.4321L118.344 62.1455L117.157 65.153L122.581 68.4466L123.748 65.4321Z" fill="#FF6B35"/>
<path d="M122.919 65.62C123.449 65.1455 123.98 65.3409 124.112 66.0666C124.161 66.4632 124.121 66.8663 123.994 67.2433C123.867 67.6203 123.658 67.9606 123.383 68.2367C122.853 68.7182 122.316 68.5228 122.19 67.7971C122.141 67.3995 122.182 66.9955 122.309 66.6174C122.435 66.2394 122.644 65.8978 122.919 65.62Z" fill="#FF6B35"/>
<path d="M164.451 93.1409C164.451 93.2804 164.451 93.406 164.451 93.5456C164.451 93.8247 164.451 94.1108 164.451 94.3969C163.377 93.9154 161.978 94.0759 160.439 95.0109C157.065 97.0625 154.326 102.052 154.326 106.176C154.326 108.088 154.923 109.469 155.904 110.188C155.629 110.394 155.343 110.585 155.049 110.76L154.737 110.928L153.803 114.633L148.392 111.458C146.682 110.418 145.627 108.199 145.627 105.031C145.627 98.7023 149.844 91.0126 155.049 87.8446C157.622 86.2815 159.949 86.121 161.679 87.1468L166.983 90.2729L167.096 90.3427L164.451 93.1409Z" fill="#455A64"/>
<path d="M167.09 90.2803L166.977 90.2105C165.28 89.2615 162.999 89.4359 160.433 90.985C155.228 94.1461 151.005 101.836 151.005 108.165C151.005 111.347 152.072 113.573 153.796 114.605C155.52 115.638 157.847 115.464 160.426 113.908C165.631 110.747 169.848 103.05 169.848 96.7209C169.868 93.539 168.8 91.313 167.09 90.2803ZM160.46 109.86C158.656 110.956 157.038 110.991 155.925 110.161C154.943 109.463 154.347 108.067 154.347 106.148C154.347 102.052 157.085 97.0768 160.46 94.9834C161.998 94.0484 163.397 93.8879 164.471 94.3694C165.757 94.9485 166.566 96.4628 166.566 98.6957C166.553 102.827 163.808 107.816 160.433 109.86H160.46Z" fill="#37474F"/>
<path d="M166.553 98.7234C166.553 102.826 163.821 107.795 160.446 109.888C158.649 110.984 157.032 111.019 155.918 110.195C155.469 109.824 155.1 109.356 154.836 108.823C154.572 108.29 154.418 107.704 154.386 107.104C154.613 106.992 154.834 106.869 155.049 106.734C158.424 104.69 161.156 99.7003 161.156 95.5693C161.159 95.2637 161.141 94.9582 161.103 94.6552C161.608 94.3736 162.164 94.2058 162.735 94.1626C163.306 94.1193 163.879 94.2015 164.418 94.404C165.731 94.9902 166.553 96.4904 166.553 98.7234Z" fill="#263238"/>
<path d="M164.749 94.5576L164.676 94.5087C163.576 93.8947 162.077 94.0063 160.433 95.0111C157.058 97.0627 154.32 102.045 154.32 106.176C154.32 108.269 154.983 109.665 156.13 110.363C157.277 111.06 158.782 110.914 160.433 109.895C163.808 107.851 166.539 102.861 166.539 98.7304C166.553 96.6719 165.89 95.2275 164.749 94.5576ZM160.433 108.402C158.981 109.288 157.681 109.316 156.786 108.646C155.997 108.067 155.52 106.957 155.52 105.422C155.613 103.629 156.106 101.883 156.96 100.328C157.813 98.7724 159.003 97.4505 160.433 96.4695C161.666 95.7159 162.793 95.5833 163.655 95.9741C164.69 96.4416 165.339 97.6558 165.339 99.4631C165.247 101.254 164.755 102.997 163.902 104.55C163.05 106.104 161.861 107.423 160.433 108.402Z" fill="#FF6B35"/>
<path d="M155.043 100.81L170.292 91.5434C172.063 90.4618 166.314 84.1468 162.038 83.7211C159.683 83.4218 157.295 83.6598 155.036 84.4189C155.036 84.4189 158.292 88.8081 157.735 91.2992C157.178 93.7903 155.043 100.81 155.043 100.81Z" fill="#FF6B35"/>
<path d="M133.501 74.6221C133.501 74.6221 155.606 86.359 156.561 87.0638C157.515 87.7686 156.561 95.9537 155.042 100.81C153.524 105.667 151.19 113.134 150.255 115.227C149.32 117.32 148.1 118.102 145.859 119.463L129.947 129.141L108.405 131.904L99.8521 127.02L102.08 112.289C102.08 112.289 124.974 99.4706 128.11 97.5657C131.246 95.6607 140.522 86.7219 133.501 74.6221Z" fill="#FF6B35"/>
<path opacity="0.2" d="M133.501 74.6221C133.501 74.6221 155.606 86.359 156.561 87.0638C157.515 87.7686 156.561 95.9537 155.042 100.81C153.524 105.667 151.19 113.134 150.255 115.227C149.32 117.32 148.1 118.102 145.859 119.463L129.947 129.141L108.405 131.904L99.8521 127.02L102.08 112.289C102.08 112.289 124.974 99.4706 128.11 97.5657C131.246 95.6607 140.522 86.7219 133.501 74.6221Z" fill="black"/>
<path d="M156.985 98.0125C158.974 92.3883 160.459 87.727 160.207 84.5799C159.902 80.8467 158.576 77.7973 152.729 76.2622C146.881 74.727 138.706 74.7549 138.706 74.7549L136.219 76.2691C136.219 76.2691 153.034 86.5268 154.943 87.6432C156.11 88.341 157.356 91.4183 155.069 100.818L155.46 101.055C155.652 101.181 156.349 99.8198 156.985 98.0125Z" fill="#FF6B35"/>
<path opacity="0.3" d="M156.985 98.0125C158.974 92.3883 160.459 87.727 160.207 84.5799C159.902 80.8467 158.576 77.7973 152.729 76.2622C146.881 74.727 138.706 74.7549 138.706 74.7549L136.219 76.2691C136.219 76.2691 153.034 86.5268 154.943 87.6432C156.11 88.341 157.356 91.4183 155.069 100.818L155.46 101.055C155.652 101.181 156.349 99.8198 156.985 98.0125Z" fill="white"/>
<path d="M144.248 81.1673L146.967 79.5345C146.967 79.5345 146.808 69.6188 142.843 67.2114C138.878 64.804 125.418 66.4438 125.418 66.4438L122.727 68.0766L144.248 81.1673Z" fill="#FF6B35"/>
<path d="M135.431 69.4795C134.138 70.268 134.138 71.538 135.431 72.3195C136.156 72.708 136.958 72.9105 137.771 72.9105C138.585 72.9105 139.387 72.708 140.112 72.3195C141.398 71.538 141.398 70.261 140.112 69.4795C139.386 69.0942 138.584 68.8936 137.771 68.8936C136.958 68.8936 136.157 69.0942 135.431 69.4795Z" fill="#F0F0F0"/>
<path d="M139.567 74.2169C138.659 74.7751 138.659 75.6753 139.567 76.2266C140.081 76.5028 140.649 76.6468 141.225 76.6468C141.801 76.6468 142.369 76.5028 142.883 76.2266C143.798 75.6753 143.798 74.7751 142.883 74.2169C142.369 73.9439 141.801 73.8018 141.225 73.8018C140.649 73.8018 140.082 73.9439 139.567 74.2169Z" fill="#F0F0F0"/>
<path d="M129.152 68.2161C128.237 68.7674 128.237 69.6676 129.152 70.2258C129.666 70.4988 130.233 70.641 130.809 70.641C131.385 70.641 131.953 70.4988 132.467 70.2258C133.382 69.6676 133.382 68.7674 132.467 68.2161C131.954 67.9399 131.385 67.7959 130.809 67.7959C130.233 67.7959 129.665 67.9399 129.152 68.2161Z" fill="#F0F0F0"/>
<path d="M144.673 78.2922C145.203 77.8107 145.734 78.0061 145.866 78.7318C145.915 79.1295 145.875 79.5336 145.748 79.9118C145.621 80.2899 145.412 80.6315 145.137 80.9089C145.052 81.0277 144.934 81.115 144.799 81.1582C144.665 81.2014 144.52 81.1983 144.387 81.1493C144.254 81.1003 144.139 81.008 144.06 80.8857C143.98 80.7634 143.939 80.6176 143.944 80.4693C143.892 80.0716 143.932 79.6668 144.059 79.2882C144.186 78.9097 144.396 78.5683 144.673 78.2922Z" fill="#FF6B35"/>
<path d="M150.859 81.3765L145.448 78.0898L144.268 81.0973L149.685 84.384L150.859 81.3765Z" fill="#FF6B35"/>
<path d="M150.023 81.5647C150.108 81.446 150.226 81.3587 150.361 81.3154C150.496 81.2722 150.64 81.2753 150.773 81.3243C150.906 81.3733 151.021 81.4657 151.101 81.5879C151.18 81.7102 151.221 81.8561 151.217 82.0043C151.267 82.4021 151.227 82.8067 151.101 83.1851C150.974 83.5636 150.764 83.905 150.487 84.1815C149.957 84.6629 149.427 84.4606 149.294 83.7418C149.245 83.3442 149.285 82.9398 149.412 82.5616C149.538 82.1834 149.748 81.8418 150.023 81.5647Z" fill="#FF6B35"/>
<path d="M150.023 81.5647C150.108 81.446 150.226 81.3587 150.361 81.3154C150.496 81.2722 150.64 81.2753 150.773 81.3243C150.906 81.3733 151.021 81.4657 151.101 81.5879C151.18 81.7102 151.221 81.8561 151.217 82.0043C151.267 82.4021 151.227 82.8067 151.101 83.1851C150.974 83.5636 150.764 83.905 150.487 84.1815C149.957 84.6629 149.427 84.4606 149.294 83.7418C149.245 83.3442 149.285 82.9398 149.412 82.5616C149.538 82.1834 149.748 81.8418 150.023 81.5647Z" fill="black"/>
<path d="M103.85 129.88C103.85 130.02 103.85 130.145 103.85 130.285C103.85 130.564 103.85 130.85 103.85 131.136C102.776 130.655 101.377 130.815 99.872 131.75C96.4972 133.802 93.759 138.791 93.759 142.915C93.759 144.827 94.3557 146.209 95.3369 146.927C95.0614 147.133 94.776 147.324 94.4816 147.499L94.17 147.667L93.2352 151.372L87.8249 148.197C86.1143 147.158 85.0601 144.939 85.0601 141.771C85.0601 135.442 89.2769 127.752 94.4816 124.584C97.0542 123.021 99.3814 122.86 101.112 123.886L106.416 127.012L106.529 127.082L103.85 129.88Z" fill="#455A64"/>
<path d="M87.7121 118.807L83.6743 133.537L91.7566 138.45L95.9403 123.81L87.7121 118.807Z" fill="#FF6B35"/>
<path opacity="0.2" d="M87.7121 118.807L83.6743 133.537L91.7566 138.45L95.9403 123.81L87.7121 118.807Z" fill="black"/>
<path d="M87.7124 118.807C87.7124 118.807 92.2939 122.903 95.9405 123.81C100.728 125.032 108.339 125.164 111.038 125.36C115.162 125.66 118.278 125.653 119.737 125.101C121.626 124.404 126.705 121.298 128.111 120.447C130.802 118.814 131.949 112.388 124.53 110.629C119.514 109.535 114.404 108.986 109.281 108.989L87.7124 118.807Z" fill="#FF6B35"/>
<path d="M133.401 116.922C133.171 117.529 133.015 118.165 132.937 118.813C132.723 119.488 132.673 120.207 132.791 120.907C133.297 121.787 134.092 122.44 135.026 122.742C135.698 122.899 136.394 122.909 137.071 122.771C137.747 122.633 138.389 122.35 138.957 121.94C140.33 121.074 141.364 120.028 143.313 119.441C144.707 119.131 146.019 118.505 147.159 117.606C148.24 116.692 149.685 114.166 147.616 113.58C145.548 112.994 141.053 115.059 136.955 115.248L133.401 116.922Z" fill="#37474F"/>
<path d="M133.401 114.229V117.453C133.527 117.816 133.745 118.134 134.032 118.374C134.318 118.615 134.662 118.767 135.026 118.814C135.359 118.865 135.699 118.827 136.014 118.702C136.51 118.503 136.941 118.155 137.252 117.701C137.563 117.247 137.741 116.707 137.764 116.148L137.883 114.229H133.401Z" fill="#FFA8A7"/>
<path d="M139.236 94.293C139.236 98.3053 138.162 115.653 138.162 115.653C138.162 115.653 136.604 117.746 133.216 115.653L132.075 96.2677L139.236 94.293Z" fill="#37474F"/>
<path d="M121.467 111.389L132.075 104.955C132.51 104.715 132.874 104.355 133.128 103.912C133.382 103.47 133.516 102.963 133.516 102.447C133.516 101.93 133.382 101.423 133.128 100.981C132.874 100.539 132.51 100.178 132.075 99.9381L124.172 95.1373C123.727 94.9 123.235 94.7764 122.737 94.7764C122.238 94.7764 121.746 94.9 121.301 95.1373L110.693 101.571C110.26 101.813 109.898 102.174 109.645 102.616C109.393 103.058 109.259 103.564 109.259 104.08C109.259 104.595 109.393 105.101 109.645 105.543C109.898 105.985 110.26 106.346 110.693 106.588L118.596 111.389C119.041 111.626 119.533 111.75 120.031 111.75C120.53 111.75 121.022 111.626 121.467 111.389Z" fill="#FF6B35"/>
<path d="M121.467 111.389L132.075 104.955C132.51 104.715 132.874 104.355 133.128 103.912C133.382 103.47 133.516 102.963 133.516 102.447C133.516 101.93 133.382 101.423 133.128 100.981C132.874 100.539 132.51 100.178 132.075 99.9381L124.172 95.1373C123.727 94.9 123.235 94.7764 122.737 94.7764C122.238 94.7764 121.746 94.9 121.301 95.1373L110.693 101.571C110.26 101.813 109.898 102.174 109.645 102.616C109.393 103.058 109.259 103.564 109.259 104.08C109.259 104.595 109.393 105.101 109.645 105.543C109.898 105.985 110.26 106.346 110.693 106.588L118.596 111.389C119.041 111.626 119.533 111.75 120.031 111.75C120.53 111.75 121.022 111.626 121.467 111.389Z" fill="white"/>
<path d="M110.693 103.315L118.596 108.116C119.041 108.354 119.533 108.477 120.031 108.477C120.53 108.477 121.022 108.354 121.467 108.116L132.075 101.683C132.248 101.621 132.399 101.503 132.505 101.347C132.612 101.19 132.669 101.003 132.669 100.81C132.669 100.618 132.612 100.43 132.505 100.274C132.399 100.117 132.248 100 132.075 99.9381L124.172 95.1373C123.727 94.9 123.235 94.7764 122.736 94.7764C122.238 94.7764 121.746 94.9 121.301 95.1373L110.693 101.571C110.519 101.633 110.369 101.75 110.262 101.907C110.156 102.063 110.099 102.251 110.099 102.443C110.099 102.636 110.156 102.823 110.262 102.98C110.369 103.136 110.519 103.254 110.693 103.315Z" fill="#FF6B35"/>
<path d="M117.157 60.6106L115.811 66.4512L110.03 66.821L111.276 58.7266L117.157 60.6106Z" fill="#FFA8A7"/>
<path d="M122.793 56.2139C122.793 56.2139 123.456 58.6841 123.184 58.8236C122.767 58.8907 122.342 58.8907 121.924 58.8236L122.793 56.2139Z" fill="#F28F8F"/>
<path d="M121.686 48.3289C122.614 49.4803 123.463 51.3713 122.807 56.0047C122.091 61.0707 121.202 61.6568 120.486 62.1453C119.551 62.7872 115.812 62.4453 114.757 61.6359C113.491 60.6659 111.535 57.5887 111.071 54.5532C110.527 50.9875 111.661 47.031 114.154 46.3541C117.662 45.3981 120.897 47.352 121.686 48.3289Z" fill="#FFA8A7"/>
<path d="M110.693 60.3663C111.588 61.3432 113.425 61.6083 114.578 61.8316C115.732 62.0549 119.279 62.2992 120.327 59.6406C121.374 56.982 120.658 55.07 121.945 54.428C123.231 53.786 124.517 53.3674 124.855 53.0324C125.193 52.6975 125.2 48.3223 121.746 46.0544C118.291 43.7866 113 43.2633 109.519 47.8617C106.881 51.4135 107.961 57.3657 110.693 60.3663Z" fill="#455A64"/>
<path d="M114.173 61.8656C115.068 61.9493 117.9 61.4818 118.755 60.2537C119.61 59.0255 119.955 56.8275 120.081 55.6761C120.092 55.2227 120.25 54.7869 120.529 54.4406C120.807 54.0943 121.189 53.8582 121.612 53.7711C122.468 53.485 124.357 52.5081 124.357 52.5081V51.9638C124.967 51.9235 125.578 51.9235 126.187 51.9638C126.585 52.0406 126.366 52.6616 125.359 53.1989C124.351 53.7362 121.586 54.776 121.162 55.1318C120.737 55.4877 120.538 56.988 120.2 58.5859C119.862 60.1839 118.815 62.5704 114.173 61.8656Z" fill="#37474F"/>
<path d="M122.13 68.4745L125.445 66.4719C125.763 65.4601 125.253 64.9507 124.351 65.0135C123.449 65.0763 123.728 64.1552 123.177 63.897C122.455 63.5481 122.044 63.7435 121.719 63.583C121.394 63.4225 121.255 63.0178 120.83 62.9689C118.934 62.7805 117.641 65.6275 117.641 65.6275L122.13 68.4745Z" fill="#F28F8F"/>
<path d="M99.627 94.0978C99.627 94.0978 114.273 86.4569 116.826 85.2218C119.378 83.9867 123.383 82.1934 125.511 82.1934C126.343 82.2657 127.122 82.6513 127.706 83.2793C128.289 83.9074 128.638 84.7358 128.687 85.6126C128.715 86.9586 128.642 88.3049 128.469 89.6389C124.445 91.0282 120.332 92.1171 116.163 92.8976C110.07 94.014 99.627 94.0978 99.627 94.0978Z" fill="#37474F"/>
<path d="M101.218 89.6806C101.218 92.8486 100.933 96.1422 102.186 98.4589C103.439 100.776 110.228 106.135 116.62 105.011C120.797 104.272 133.196 98.2635 133.196 98.2635C133.196 98.2635 139.209 95.9398 139.236 94.2861C139.275 91.8507 139.116 88.4176 133.872 88.5641C129.091 88.6967 114.989 91.7949 114.989 91.7949L101.218 89.6806Z" fill="#455A64"/>
<path d="M105.309 64.5805C107.576 62.0893 109.108 61.88 110.195 62.187C112.694 62.9397 115.114 63.9591 117.416 65.2294C117.416 65.2294 116.541 74.1473 120.684 76.7152V90.6153C120.684 90.6153 120.558 92.1225 118.755 93.6228C117.164 94.9416 113.564 96.2744 109.267 95.8976C104.162 95.451 101.218 89.6802 101.218 89.6802C101.218 89.6802 101.085 78.3131 101.808 73.7984C102.657 68.53 104.527 65.4457 105.309 64.5805Z" fill="#455A64"/>
<path d="M120.684 77.3929C120.684 77.3929 118.178 75.2995 117.416 72.5781C117.416 72.5781 117.714 76.8486 120.684 79.0118V77.3929Z" fill="#37474F"/>
<path d="M143.884 83.9511C145.074 84.0027 146.245 83.6207 147.199 82.8695C147.199 82.8695 148.353 80.511 149.771 80.7133C149.771 80.7133 150.023 79.7085 149.44 79.3806C148.856 79.0526 148.604 79.1433 148.366 78.7944C148.127 78.4455 148.101 77.7966 147.04 77.7966C146.602 77.7966 146.662 77.4686 145.601 77.336C144.54 77.2034 143.493 79.7783 142.717 79.7783L143.884 83.9511Z" fill="#FFA8A7"/>
<path d="M117.416 65.2305C121.056 65.8236 122.375 66.961 123.701 68.2519C125.027 69.5428 133.143 78.1118 133.143 78.1118L142.969 79.5981C143.485 80.0382 143.864 80.6313 144.056 81.3007C144.454 82.5149 144.096 83.8407 143.718 84.1547C143.718 84.1547 133.972 84.7688 132.056 84.385C130.139 84.0012 120.652 77.3721 120.652 77.3721C119.745 76.6524 118.984 75.7487 118.415 74.7144C117.845 73.68 117.479 72.5361 117.336 71.3501C116.72 67.1424 117.416 65.2305 117.416 65.2305Z" fill="#455A64"/>
<path d="M108.677 102.088L93.6198 121.431C93.4527 121.453 93.2844 121.465 93.1159 121.466C92.5189 121.476 91.9288 121.329 91.3987 121.04L78.6819 113.309L77.8199 112.785C77.3492 112.499 76.958 111.327 76.958 110.168V106.91C76.9575 103.562 77.7942 100.274 79.384 97.3743C80.9738 94.475 83.2607 92.0672 86.0149 90.3929L101.198 81.168L117.356 90.986L108.677 102.088Z" fill="#FF6B35"/>
<g opacity="0.1">
<path d="M108.677 102.088L93.6198 121.431C93.4527 121.453 93.2844 121.465 93.1159 121.466C92.5189 121.476 91.9288 121.329 91.3987 121.04L78.6819 113.309L77.8199 112.785C77.3492 112.499 76.958 111.327 76.958 110.168V106.91C76.9575 103.562 77.7942 100.274 79.384 97.3743C80.9738 94.475 83.2607 92.0672 86.0149 90.3929L101.198 81.168L117.356 90.986L108.677 102.088Z" fill="black"/>
</g>
<path d="M103.486 108.759L117.336 90.9928L101.178 81.1748L86.0018 90.3927C84.0386 91.5889 82.3067 93.163 80.8965 95.0331L103.486 108.759Z" fill="#FF6B35"/>
<path d="M117.336 105.255C117.336 106.414 116.951 107.586 116.474 107.872L115.612 108.395L94.8196 121.033C94.4412 121.247 94.0269 121.382 93.5996 121.43C93.4325 121.453 93.2642 121.464 93.0957 121.465V116.727C93.0952 113.379 93.9326 110.089 95.5237 107.19C97.1148 104.29 99.4034 101.883 102.159 100.21L103.876 99.1705L117.336 90.9854V105.255Z" fill="#FF6B35"/>
<g opacity="0.2">
<path d="M117.336 105.255C117.336 106.414 116.951 107.586 116.474 107.872L115.612 108.395L94.8196 121.033C94.4412 121.247 94.0269 121.382 93.5996 121.43C93.4325 121.453 93.2642 121.464 93.0957 121.465V116.727C93.0952 113.379 93.9326 110.089 95.5237 107.19C97.1148 104.29 99.4034 101.883 102.159 100.21L103.876 99.1705L117.336 90.9854V105.255Z" fill="black"/>
</g>
<path d="M121.799 129.19L129.934 129.162L141.577 122.086L130.173 130.76L121.586 130.885L121.799 129.19Z" fill="#E0E0E0"/>
<path d="M102.047 141.373C102.047 141.373 116.713 135.554 117.959 134.87C119.422 133.926 120.81 132.86 122.11 131.681C122.375 131.312 122.5 130.851 122.459 130.391C122.419 129.93 122.216 129.501 121.891 129.19C121.891 129.19 115.924 128.903 114.392 129.399C113.537 129.671 99.7329 134.332 99.7329 134.332L102.047 141.373Z" fill="#E0E0E0"/>
<path d="M101.391 134.869C100.177 133.774 98.9573 134.227 98.6589 135.874C98.545 136.783 98.6363 137.707 98.9255 138.571C99.2146 139.436 99.6935 140.216 100.323 140.849C101.536 141.945 102.756 141.498 103.055 139.845C103.168 138.936 103.077 138.012 102.787 137.148C102.498 136.283 102.02 135.503 101.391 134.869Z" fill="#455A64"/>
</svg>
