<svg width="18" height="20" viewBox="0 0 18 20" fill="none" xmlns="http://www.w3.org/2000/svg">
<path d="M18 0V20H16V13H12V6C12 4.92 12.2733 3.91333 12.82 2.98C13.3533 2.07333 14.0733 1.35333 14.98 0.82C15.9133 0.273335 16.92 0 18 0ZM16 2.52C15.48 2.81333 15.04 3.22667 14.68 3.76C14.2267 4.42667 14 5.17333 14 6V11H16V2.52ZM6 11.9V20H4V11.9C3.24 11.7533 2.55667 11.4433 1.95 10.97C1.34333 10.4967 0.866667 9.91333 0.52 9.22C0.173333 8.52667 0 7.78667 0 7V1H2V8H4V1H6V8H8V1H10V7C10 7.78667 9.82667 8.52667 9.48 9.22C9.13333 9.91333 8.65667 10.4967 8.05 10.97C7.44333 11.4433 6.76 11.7533 6 11.9Z" fill="#FF6B35"/>
</svg>
