<svg width="16" height="20" viewBox="0 0 16 20" fill="none" xmlns="http://www.w3.org/2000/svg">
<path d="M6.95652 12.093V13.9535C6.01739 13.9535 5.14203 14.2078 4.33043 14.7163C3.54203 15.2124 2.91594 15.8822 2.45217 16.7256C1.97681 17.5938 1.73913 18.5364 1.73913 19.5535H0C0 18.2016 0.318841 16.9488 0.956522 15.7953C1.57101 14.6667 2.4 13.7736 3.44348 13.1163C4.52174 12.4341 5.69275 12.093 6.95652 12.093ZM6.95652 11.1628C6.01739 11.1628 5.14203 10.9147 4.33043 10.4186C3.54203 9.92248 2.91594 9.25271 2.45217 8.4093C1.97681 7.54109 1.73913 6.60155 1.73913 5.5907C1.73913 4.57984 1.97681 3.64031 2.45217 2.77209C2.91594 1.92868 3.54203 1.25891 4.33043 0.762791C5.14203 0.254265 6.02029 0 6.96522 0C7.91014 0 8.78841 0.254265 9.6 0.762791C10.3768 1.25891 10.9971 1.92868 11.4609 2.77209C11.9362 3.64031 12.1739 4.57984 12.1739 5.5907C12.1739 6.60155 11.9362 7.54109 11.4609 8.4093C10.9971 9.25271 10.3768 9.92248 9.6 10.4186C8.78841 10.9147 7.90725 11.1628 6.95652 11.1628ZM6.95652 9.30233C7.58261 9.30233 8.16232 9.13798 8.69565 8.8093C9.22898 8.48062 9.65217 8.03101 9.96522 7.46047C10.2783 6.88992 10.4348 6.26667 10.4348 5.5907C10.4348 4.91473 10.2783 4.29147 9.96522 3.72093C9.65217 3.15039 9.22898 2.69767 8.69565 2.36279C8.16232 2.02791 7.58261 1.86047 6.95652 1.86047C6.33043 1.86047 5.75072 2.02791 5.21739 2.36279C4.68406 2.69767 4.26087 3.15039 3.94783 3.72093C3.63478 4.29147 3.47826 4.91473 3.47826 5.5907C3.47826 6.26667 3.63478 6.88992 3.94783 7.46047C4.26087 8.03101 4.68406 8.48062 5.21739 8.8093C5.75072 9.13798 6.33043 9.30233 6.95652 9.30233ZM9.21739 16.5767C9.15942 16.3287 9.13043 16.0775 9.13043 15.8233C9.13043 15.569 9.15942 15.3178 9.21739 15.0698L8.34783 14.5302L9.21739 12.9302L10.087 13.4512C10.4348 13.1039 10.8406 12.8558 11.3043 12.707V11.6279H13.0435V12.707C13.5072 12.8558 13.913 13.1039 14.2609 13.4512L15.1304 12.9302L16 14.5302L15.1304 15.0698C15.1884 15.3178 15.2174 15.569 15.2174 15.8233C15.2174 16.0775 15.1884 16.3287 15.1304 16.5767L16 17.1163L15.1304 18.7163L14.2609 18.1953C13.913 18.5426 13.5072 18.7907 13.0435 18.9395V20H11.3043V18.9395C10.8406 18.7907 10.4348 18.5426 10.087 18.1953L9.21739 18.7163L8.34783 17.1163L9.21739 16.5767ZM12.1739 17.2093C12.5333 17.2093 12.8406 17.076 13.0957 16.8093C13.3507 16.5426 13.4783 16.214 13.4783 15.8233C13.4783 15.4326 13.3507 15.1039 13.0957 14.8372C12.8406 14.5705 12.5333 14.4341 12.1739 14.4279C11.8145 14.4217 11.5072 14.555 11.2522 14.8279C10.9971 15.1008 10.8696 15.4326 10.8696 15.8233C10.8696 16.214 10.9971 16.5457 11.2522 16.8186C11.5072 17.0915 11.8145 17.2279 12.1739 17.2279V17.2093Z" fill="white"/>
</svg>
