<svg width="10" height="14" viewBox="0 0 10 14" fill="none" xmlns="http://www.w3.org/2000/svg">
<path d="M9.49867 3.61642H7.86608C7.77096 2.60533 7.29381 1.66799 6.53131 0.994013H9.50102C9.77624 0.994013 10 0.771135 10 0.497006C10 0.222877 9.77624 0 9.50102 0L0.501474 0.0256276H0.453135C0.435982 0.0248511 0.418829 0.0248511 0.401678 0.0256276C0.386865 0.0287339 0.372051 0.0326167 0.357237 0.0380528L0.30734 0.0535842L0.265238 0.0776572L0.223136 0.0994022L0.183374 0.131242L0.149068 0.160753C0.137373 0.172401 0.127237 0.18638 0.114762 0.200358C0.103068 0.214337 0.0944919 0.222103 0.0866959 0.234528H0.0882552C0.0788994 0.249283 0.0711028 0.264814 0.0640868 0.280346L0.0422557 0.318399L0.0266627 0.37043V0.369653C0.0212051 0.383632 0.0173069 0.397609 0.0141883 0.411589C0.0134087 0.42945 0.0134087 0.447311 0.0141883 0.465172C0.0134087 0.480703 0.0134087 0.497012 0.0141883 0.512543C0.0134087 0.53118 0.0134087 0.549041 0.0141883 0.566903C0.0134087 0.581658 0.0134087 0.597189 0.0141883 0.611944C0.0180865 0.630582 0.0235438 0.648442 0.0305606 0.666304L0.0422557 0.70591C0.0516116 0.725324 0.0625262 0.743185 0.0742222 0.761046C0.0773408 0.771141 0.0820187 0.78046 0.0882559 0.789001L0.130358 0.841032C0.130358 0.841032 0.142052 0.856563 0.150628 0.862777H0.149848C0.165441 0.877532 0.182593 0.89151 0.199746 0.904712L0.223914 0.924903V0.924126C0.243405 0.936551 0.262897 0.946646 0.283947 0.955966L0.308116 0.969945L0.368149 0.987806L0.402454 0.997901H0.401674C0.4352 1.00567 0.468725 1.01033 0.503029 1.00955H3.97631C4.6928 1.01965 5.38203 1.2899 5.91374 1.76904C6.44547 2.24819 6.78305 2.90438 6.86413 3.61416H0.498977C0.223761 3.61416 0 3.83704 0 4.11117C0 4.38607 0.223761 4.60817 0.498977 4.60817H6.8282C6.70502 5.27603 6.35262 5.88019 5.8318 6.31742C5.31099 6.7554 4.65376 6.99925 3.97234 7.0078H0.499057C0.312721 7.01324 0.144324 7.12118 0.0624521 7.28815C-0.0194121 7.45511 -0.000700587 7.65313 0.11001 7.80301L4.98202 13.8144C5.07636 13.9317 5.21826 14 5.36951 14C5.5613 13.9984 5.73516 13.8874 5.81781 13.715C5.90045 13.5418 5.87628 13.3376 5.75622 13.1885L1.54305 8.00173H3.97247C4.91586 7.99164 5.82414 7.64528 6.53282 7.0248C7.24153 6.40509 7.70386 5.55242 7.83639 4.62207H9.4986C9.7746 4.62207 9.99758 4.39919 9.99758 4.12506C9.99758 3.85093 9.7746 3.62805 9.4986 3.62805L9.49867 3.61642Z" fill="black"/>
</svg>
