<svg width="5" height="8" viewBox="0 0 5 8" fill="none" xmlns="http://www.w3.org/2000/svg">
<path d="M4.74933 2.06652H3.93304C3.88548 1.48876 3.6469 0.953139 3.26566 0.568007H4.75051C4.88812 0.568007 5 0.440649 5 0.284004C5 0.127359 4.88812 0 4.75051 0L0.250737 0.0146444H0.226567C0.217991 0.0142006 0.209414 0.0142006 0.200839 0.0146444C0.193432 0.0164194 0.186025 0.0186381 0.178619 0.0217445L0.15367 0.0306196L0.132619 0.0443756L0.111568 0.0568013L0.0916869 0.0749957L0.074534 0.0918587C0.0686866 0.0985151 0.0636183 0.106503 0.0573811 0.11449C0.0515338 0.122478 0.0472459 0.126916 0.0433479 0.134016H0.0441276C0.0394497 0.142447 0.0355514 0.151322 0.0320434 0.160198L0.0211279 0.181942L0.0133314 0.211674V0.21123C0.0106026 0.219218 0.00865345 0.227205 0.00709414 0.235193C0.00670434 0.2454 0.00670434 0.255606 0.00709414 0.265812C0.00670434 0.274688 0.00670434 0.284007 0.00709414 0.292882C0.00670434 0.303532 0.00670434 0.313738 0.00709414 0.323945C0.00670434 0.332376 0.00670434 0.341251 0.00709414 0.349682C0.00904325 0.360332 0.0117719 0.370538 0.0152803 0.380745L0.0211279 0.403377C0.0258058 0.414471 0.0312631 0.424677 0.0371111 0.434883C0.0386704 0.440652 0.0410094 0.445977 0.044128 0.450858L0.0651788 0.48059C0.0651788 0.48059 0.0710262 0.489465 0.075314 0.493015H0.074924C0.0827206 0.501447 0.0912965 0.509434 0.0998729 0.516979L0.111957 0.528516V0.528072C0.121703 0.535172 0.131448 0.540941 0.141974 0.546266L0.154058 0.554254L0.184074 0.56446L0.201227 0.570229H0.200837C0.2176 0.574667 0.234363 0.577329 0.251514 0.576886H1.98815C2.3464 0.582654 2.69101 0.737086 2.95687 1.01088C3.22273 1.28468 3.39153 1.65964 3.43206 2.06523H0.249489C0.111881 2.06523 0 2.19259 0 2.34924C0 2.50633 0.111881 2.63324 0.249489 2.63324H3.4141C3.35251 3.01487 3.17631 3.36011 2.9159 3.60995C2.6555 3.86023 2.32688 3.99957 1.98617 4.00446H0.249528C0.15636 4.00756 0.0721621 4.06924 0.031226 4.16466C-0.00970605 4.26006 -0.000350294 4.37322 0.0550052 4.45886L2.49101 7.89394C2.53818 7.96095 2.60913 8 2.68475 8C2.78065 7.99911 2.86758 7.93565 2.9089 7.83714C2.95023 7.73818 2.93814 7.62148 2.87811 7.53628L0.771527 4.57242H1.98624C2.45793 4.56665 2.91207 4.36873 3.26641 4.01417C3.62077 3.66005 3.85193 3.17281 3.9182 2.64118H4.7493C4.8873 2.64118 4.99879 2.51382 4.99879 2.35718C4.99879 2.20053 4.8873 2.07317 4.7493 2.07317L4.74933 2.06652Z" fill="#777777"/>
</svg>
