<svg width="13" height="20" viewBox="0 0 13 20" fill="none" xmlns="http://www.w3.org/2000/svg">
<path d="M5.41531 12.45C4.40445 12.3167 3.48802 11.9583 2.666 11.375C1.84398 10.7917 1.19415 10.0556 0.716487 9.16667C0.238829 8.25556 0 7.28333 0 6.25C0 5.11667 0.283262 4.06667 0.849787 3.1C1.4052 2.15556 2.15502 1.40556 3.09922 0.85C4.06565 0.283335 5.11539 0 6.24844 0C7.38149 0 8.43122 0.283335 9.39765 0.85C10.3419 1.40556 11.0917 2.15556 11.6471 3.1C12.2136 4.06667 12.4969 5.11667 12.4969 6.25C12.4969 7.28333 12.258 8.25556 11.7804 9.16667C11.3027 10.0556 10.6529 10.7917 9.83087 11.375C9.00886 11.9583 8.09242 12.3167 7.08156 12.45V14.1667H11.2472V15.8333H7.08156V19.1667H5.41531V15.8333H1.24969V14.1667H5.41531V12.45ZM6.24844 10.8333C7.08156 10.8333 7.84804 10.6278 8.54786 10.2167C9.24769 9.80556 9.8031 9.25 10.2141 8.55C10.6251 7.85 10.8306 7.08333 10.8306 6.25C10.8306 5.41667 10.6251 4.65 10.2141 3.95C9.8031 3.25 9.24769 2.69444 8.54786 2.28333C7.84804 1.87222 7.08156 1.66667 6.24844 1.66667C5.41531 1.66667 4.64884 1.87222 3.94901 2.28333C3.24919 2.69444 2.69377 3.25 2.28276 3.95C1.87175 4.65 1.66625 5.41667 1.66625 6.25C1.66625 7.08333 1.87175 7.85 2.28276 8.55C2.69377 9.25 3.24919 9.80556 3.94901 10.2167C4.64884 10.6278 5.41531 10.8333 6.24844 10.8333Z" fill="#374151"/>
</svg>
