<svg width="64" height="64" viewBox="0 0 64 64" fill="none" xmlns="http://www.w3.org/2000/svg">
<path d="M0 32C0 14.3269 14.3269 0 32 0C49.6731 0 64 14.3269 64 32C64 49.6731 49.6731 64 32 64C14.3269 64 0 49.6731 0 32Z" fill="#FFE6DD"/>
<path d="M43.7995 24.7403L41.4639 27.0759L39.7915 28.762C39.6857 28.8678 39.5526 28.9213 39.407 28.935H39.3933C39.3672 28.9487 39.3535 28.9487 39.3274 28.9487H39.3012L37.9188 28.8952H37.7732L36.6322 28.8416C36.4331 28.8416 36.2477 28.828 36.1145 28.828L34.9996 29.9429L34.2966 30.6335L32.4649 32.4651C32.3455 32.5983 32.1725 32.6642 32.0008 32.6642C31.8278 32.6642 31.6561 32.5983 31.5367 32.4651C31.2716 32.2125 31.2716 31.7882 31.5367 31.5356L33.3683 29.704L34.0589 29.0009L35.1739 27.886L35.1079 26.2273L35.1054 26.0817L35.0519 24.7018V24.5948H35.0656C35.0656 24.5288 35.0793 24.4753 35.1054 24.4094C35.1315 24.3434 35.1851 24.2762 35.2386 24.2103L36.9246 22.5379L39.2615 20.2011C39.4469 20.0157 39.7256 19.9485 39.9645 20.0418C40.2171 20.1476 40.3764 20.374 40.3888 20.6391L40.4684 22.9224L40.4946 23.506L41.0782 23.5321L43.3615 23.6118C43.6266 23.6255 43.853 23.7847 43.9588 24.0361C44.0509 24.2762 43.9849 24.5549 43.7995 24.7403Z" fill="#FF6B35"/>
<path d="M43.0686 27.3559L40.733 29.6915C40.4804 29.9441 40.1494 30.1295 39.8035 30.2091C39.9491 30.7803 40.0163 31.39 40.0163 32.0009C40.0163 36.4208 36.4189 40.0182 31.9991 40.0182C27.5792 40.0182 23.9819 36.4208 23.9819 32.0009C23.9819 27.5811 27.5792 23.9837 31.9991 23.9837C32.61 23.9837 33.2197 24.0497 33.7909 24.1965C33.8705 23.8518 34.0435 23.5333 34.3085 23.267L36.6441 20.9314C35.2244 20.3341 33.644 20.0019 31.9991 20.0019C25.3755 20.0019 20 25.3911 20 32.0009C20 38.6245 25.3755 44 31.9991 44C38.6089 44 43.9981 38.6245 43.9981 32.0009C43.9981 30.3547 43.6659 28.7756 43.0686 27.3559Z" fill="#FF6B35"/>
<path d="M38.4756 30.3422C37.7588 30.1693 37.5597 30.1295 36.843 29.9577L35.8612 30.9395C35.9546 31.2718 36.0068 31.6301 36.0068 31.9885C36.0068 34.6165 33.4584 36.661 30.7247 35.7974C29.5301 35.4253 28.5745 34.4572 28.2024 33.2627C27.3401 30.5289 29.3708 27.9805 32.0113 27.9805C32.3696 27.9805 32.728 28.034 33.0603 28.1261L33.8429 27.3559L33.7508 25.5503C33.1797 25.3911 32.5824 25.3114 31.9453 25.3114C29.0647 25.3375 26.4105 27.2364 25.6005 29.9963C24.0749 35.2001 28.7337 39.885 33.9362 38.4254C36.8691 37.6029 38.7406 34.9612 38.6883 31.9089C38.6747 31.3639 38.6087 30.8462 38.4756 30.3422Z" fill="#FF6B35"/>
</svg>
