<svg width="16" height="16" viewBox="0 0 16 16" fill="none" xmlns="http://www.w3.org/2000/svg">
<path d="M10.0308 4.61668L12.9801 1.66668H9.16438V1.14441e-05H15.8294V6.66668H14.1631V2.85001L11.2139 5.80001C11.6249 6.33334 11.9415 6.92223 12.1636 7.56668C12.3858 8.21112 12.4969 8.88334 12.4969 9.58334C12.4969 10.7167 12.2136 11.7667 11.6471 12.7333C11.0917 13.6778 10.3419 14.4278 9.39765 14.9833C8.43123 15.55 7.38149 15.8333 6.24844 15.8333C5.11539 15.8333 4.06565 15.55 3.09923 14.9833C2.15502 14.4278 1.4052 13.6778 0.849788 12.7333C0.283263 11.7667 0 10.7167 0 9.58334C0 8.45001 0.283263 7.40001 0.849788 6.43334C1.4052 5.4889 2.15502 4.7389 3.09923 4.18334C4.06565 3.61668 5.11539 3.33334 6.24844 3.33334C6.94826 3.33334 7.62032 3.44446 8.2646 3.66668C8.90888 3.8889 9.49763 4.20557 10.0308 4.61668ZM6.24844 14.1667C7.08156 14.1667 7.84804 13.9611 8.54786 13.55C9.24769 13.1389 9.8031 12.5833 10.2141 11.8833C10.6251 11.1833 10.8306 10.4167 10.8306 9.58334C10.8306 8.75001 10.6251 7.98334 10.2141 7.28334C9.8031 6.58334 9.24769 6.02779 8.54786 5.61668C7.84804 5.20557 7.08156 5.00001 6.24844 5.00001C5.41531 5.00001 4.64884 5.20557 3.94901 5.61668C3.24919 6.02779 2.69377 6.58334 2.28276 7.28334C1.87175 7.98334 1.66625 8.75001 1.66625 9.58334C1.66625 10.4167 1.87175 11.1833 2.28276 11.8833C2.69377 12.5833 3.24919 13.1389 3.94901 13.55C4.64884 13.9611 5.41531 14.1667 6.24844 14.1667Z" fill="#374151"/>
</svg>
