<svg width="18" height="18" viewBox="0 0 18 18" fill="none" xmlns="http://www.w3.org/2000/svg">
<path d="M16.2286 12.1283C16.2561 12.5064 16.2074 12.8861 16.0855 13.245C15.9635 13.604 15.7708 13.9348 15.5187 14.2179C14.0453 15.8794 10.8417 16.1316 9.06247 16.1316C8.71356 16.1316 8.35786 16.1218 8.00518 16.1029C3.30402 15.8492 1.66145 14.1311 1.23174 12.4069C0.890892 12.5977 0.60101 12.8678 0.386611 13.1944C0.172212 13.5209 0.0396032 13.8943 0 14.2829C0 16.3363 4.00259 18 8.94617 18C13.8897 18 17.8946 16.3355 17.8946 14.2829C17.8946 13.4786 17.2731 12.7362 16.2286 12.1283Z" fill="#FF6B35"/>
<path d="M2.31273 6.04073C2.31273 6.19095 2.3724 6.33502 2.47863 6.44124C2.58485 6.54746 2.72891 6.60714 2.87913 6.60714C3.02935 6.60714 3.17342 6.54746 3.27964 6.44124C3.38586 6.33502 3.44554 6.19095 3.44554 6.04073C3.44013 5.7023 3.36074 5.36915 3.21292 5.06465C3.06511 4.76015 2.85246 4.49168 2.58989 4.27808C2.24854 3.94051 2.07031 3.74415 2.07031 3.32048C2.07031 2.89681 2.24854 2.70197 2.58989 2.36515C2.85236 2.15197 3.06498 1.8839 3.2128 1.57978C3.36062 1.27566 3.44006 0.942862 3.44554 0.604765C3.44554 0.454545 3.38586 0.310478 3.27964 0.204257C3.17342 0.0980353 3.02935 0.0383606 2.87913 0.0383606C2.72891 0.0383606 2.58485 0.0980353 2.47863 0.204257C2.3724 0.310478 2.31273 0.454545 2.31273 0.604765C2.31273 1.02768 2.1345 1.22252 1.7939 1.55934C1.53114 1.77265 1.31829 2.04094 1.17033 2.34533C1.02238 2.64972 0.942902 2.98284 0.9375 3.32124C0.942906 3.65967 1.0223 3.99283 1.17011 4.29733C1.31793 4.60182 1.53058 4.87029 1.79315 5.08389C2.1345 5.42147 2.31273 5.61706 2.31273 6.04073Z" fill="#FF6B35"/>
<path d="M5.17854 4.96321C5.25406 5.03873 5.33562 5.11425 5.40963 5.19581C5.45893 5.25332 5.51926 5.30035 5.58705 5.33413C5.65485 5.36791 5.72873 5.38775 5.80432 5.39247C5.87992 5.39719 5.95569 5.38671 6.02717 5.36163C6.09864 5.33656 6.16435 5.2974 6.22043 5.24648C6.2765 5.19556 6.32179 5.13391 6.35362 5.06518C6.38545 4.99645 6.40317 4.92203 6.40573 4.84633C6.40829 4.77063 6.39564 4.69519 6.36854 4.62446C6.34143 4.55373 6.30041 4.48916 6.24791 4.43457C6.15804 4.33564 6.06213 4.24274 5.96622 4.14985C5.62789 3.8221 5.45117 3.63178 5.45117 3.22548C5.45117 2.81918 5.61807 2.6402 5.96622 2.30338C6.22915 2.09551 6.44269 1.83189 6.59144 1.53152C6.74018 1.23116 6.82043 0.90153 6.8264 0.566404C6.8264 0.416184 6.76672 0.272117 6.6605 0.165896C6.55428 0.0596745 6.41021 0 6.25999 0C6.10977 0 5.96571 0.0596745 5.85949 0.165896C5.75326 0.272117 5.69359 0.416184 5.69359 0.566404C5.69359 0.972705 5.52669 1.15244 5.17854 1.48851C4.9156 1.69638 4.70207 1.96 4.55332 2.26036C4.40457 2.56073 4.32432 2.89036 4.31836 3.22548C4.32421 3.56074 4.40441 3.89051 4.55316 4.19102C4.70191 4.49152 4.91551 4.75526 5.17854 4.96321Z" fill="#FF6B35"/>
<path d="M1.85547 11.314C1.85547 14.0479 4.53645 15.158 8.04815 15.3468C11.6656 15.5432 15.8041 14.7276 15.4718 12.0088C15.3239 11.2339 14.96 10.5166 14.4221 9.93957C15.0799 9.04983 15.4346 7.97238 15.4341 6.86588L16.5065 5.84635L17.1861 5.86146H17.2088C17.308 5.86294 17.4065 5.84488 17.4987 5.8083C17.5909 5.77173 17.6749 5.71735 17.7461 5.64827C17.8173 5.5792 17.8742 5.49678 17.9135 5.40572C17.9528 5.31466 17.9738 5.21675 17.9753 5.11758C17.9768 5.0184 17.9588 4.91991 17.9222 4.82771C17.8856 4.73552 17.8312 4.65143 17.7621 4.58025C17.6931 4.50907 17.6107 4.45219 17.5196 4.41287C17.4285 4.37354 17.3306 4.35253 17.2315 4.35104H17.0049L17.0124 4.12448C17.0157 4.02562 16.9992 3.9271 16.964 3.83466C16.9288 3.74222 16.8756 3.6577 16.8074 3.58602C16.7392 3.51434 16.6575 3.45692 16.5669 3.41712C16.4764 3.37732 16.3788 3.35592 16.2799 3.35417C16.0812 3.35365 15.8898 3.4293 15.7451 3.56555C15.6004 3.7018 15.5134 3.88831 15.502 4.08672L15.4869 4.7362L14.4901 5.67794C14.4663 5.70928 14.4383 5.73723 14.407 5.76101L14.3692 5.79122H14.3315C14.2723 5.81767 14.2064 5.82557 14.1427 5.81388C14.1049 5.81388 12.1489 5.57221 9.8682 8.31361C9.83226 8.35475 9.78823 8.38805 9.73885 8.41144C9.68948 8.43482 9.63582 8.4478 9.58122 8.44955C9.49216 8.45066 9.40592 8.41832 9.33956 8.35892C9.30046 8.32833 9.26797 8.29014 9.24403 8.24665C9.22009 8.20316 9.2052 8.15528 9.20027 8.10588C9.19533 8.05649 9.20044 8.00661 9.21529 7.95924C9.23014 7.91187 9.25443 7.86801 9.28669 7.83028C10.1845 6.6349 11.4174 5.73329 12.8286 5.23992C12.8211 5.20216 13.6669 3.91076 13.6669 3.91076L14.339 3.80503C14.5364 3.77111 14.7126 3.66116 14.8298 3.49878C14.947 3.3364 14.9958 3.13454 14.9658 2.93654C14.9502 2.83852 14.9152 2.74458 14.8629 2.66019C14.8106 2.57581 14.7421 2.50268 14.6613 2.44505C14.5804 2.38742 14.489 2.34644 14.3921 2.3245C14.2953 2.30257 14.1951 2.30011 14.0974 2.31728L13.8783 2.34748L13.8406 2.12847C13.8288 2.02677 13.7964 1.92853 13.7455 1.83971C13.6945 1.7509 13.6261 1.67337 13.5442 1.61184C13.4624 1.55032 13.3689 1.50607 13.2694 1.4818C13.17 1.45752 13.0666 1.45373 12.9656 1.47064C12.8647 1.48756 12.7682 1.52483 12.682 1.58019C12.5959 1.63556 12.5219 1.70785 12.4646 1.79269C12.4073 1.87753 12.3678 1.97314 12.3486 2.07371C12.3294 2.17427 12.3308 2.2777 12.3528 2.37769L12.4586 3.01207L11.5523 4.26571C10.1162 4.54353 8.83481 5.34574 7.95753 6.51622C7.86691 6.50867 7.76873 6.50111 7.67055 6.50111C4.3552 6.50338 1.85547 8.57264 1.85547 11.314ZM6.74165 11.45C6.74165 11.5164 6.72856 11.5822 6.70313 11.6436C6.6777 11.705 6.64043 11.7608 6.59345 11.8078C6.54646 11.8547 6.49068 11.892 6.42929 11.9174C6.36791 11.9429 6.30211 11.956 6.23566 11.956C6.10146 11.956 5.97276 11.9027 5.87787 11.8078C5.78298 11.7129 5.72967 11.5842 5.72967 11.45C5.72967 11.3158 5.78298 11.1871 5.87787 11.0922C5.97276 10.9973 6.10146 10.944 6.23566 10.944C6.36986 10.944 6.49856 10.9973 6.59345 11.0922C6.68834 11.1871 6.74165 11.3158 6.74165 11.45ZM5.8354 8.70103C5.93548 8.70103 6.0333 8.7307 6.11651 8.7863C6.19972 8.8419 6.26458 8.92093 6.30287 9.01338C6.34117 9.10584 6.35119 9.20758 6.33167 9.30573C6.31214 9.40388 6.26395 9.49404 6.19319 9.5648C6.12243 9.63557 6.03227 9.68376 5.93412 9.70328C5.83596 9.72281 5.73423 9.71278 5.64177 9.67449C5.54931 9.63619 5.47029 9.57134 5.41469 9.48813C5.35909 9.40492 5.32941 9.30709 5.32941 9.20702C5.32912 9.14038 5.34198 9.07434 5.36728 9.01269C5.39257 8.95104 5.4298 8.89499 5.47681 8.84776C5.52383 8.80054 5.57971 8.76306 5.64124 8.73749C5.70278 8.71192 5.76876 8.69876 5.8354 8.69876V8.70103ZM4.24947 10.0906C4.34921 10.0921 4.44629 10.123 4.52849 10.1795C4.6107 10.236 4.67438 10.3156 4.71152 10.4081C4.74866 10.5007 4.75761 10.6022 4.73725 10.6999C4.71688 10.7975 4.6681 10.887 4.59705 10.957C4.52599 11.027 4.43583 11.0744 4.33789 11.0933C4.23995 11.1123 4.1386 11.1018 4.04658 11.0633C3.95456 11.0248 3.87598 10.9599 3.82071 10.8769C3.76544 10.7939 3.73594 10.6963 3.73593 10.5966C3.73592 10.5295 3.74926 10.4631 3.77516 10.4012C3.80106 10.3393 3.839 10.2832 3.88679 10.2361C3.93458 10.189 3.99125 10.1519 4.05352 10.1269C4.11578 10.102 4.18239 10.0896 4.24947 10.0906Z" fill="#FF6B35"/>
</svg>
