<svg width="64" height="64" viewBox="0 0 64 64" fill="none" xmlns="http://www.w3.org/2000/svg">
<path d="M0 32C0 14.3269 14.3269 0 32 0C49.6731 0 64 14.3269 64 32C64 49.6731 49.6731 64 32 64C14.3269 64 0 49.6731 0 32Z" fill="#FFE6DD"/>
<path d="M24 36V40H28V42H22V36H24ZM42 36V42H36V40H40V36H42ZM27.5 27C27.5 27.7067 27.65 28.3667 27.95 28.98C28.25 29.5933 28.6667 30.11 29.2 30.53C29.7333 30.95 30.3333 31.2333 31 31.38V37H33V31.38C33.6667 31.2333 34.2667 30.95 34.8 30.53C35.3333 30.11 35.75 29.5933 36.05 28.98C36.35 28.3667 36.5 27.7067 36.5 27H38.5C38.5 28.24 38.18 29.38 37.54 30.42C36.9 31.4333 36.0533 32.2133 35 32.76V39H29V32.76C27.9467 32.2133 27.1067 31.4333 26.48 30.42C25.8267 29.38 25.5 28.24 25.5 27H27.5ZM32 25C32.4533 25 32.87 25.1133 33.25 25.34C33.63 25.5667 33.9333 25.87 34.16 26.25C34.3867 26.63 34.5 27.0467 34.5 27.5C34.5 27.9533 34.3867 28.37 34.16 28.75C33.9333 29.13 33.63 29.4333 33.25 29.66C32.87 29.8867 32.4533 30 32 30C31.5467 30 31.13 29.8867 30.75 29.66C30.37 29.4333 30.0667 29.13 29.84 28.75C29.6133 28.37 29.5 27.9533 29.5 27.5C29.5 27.0467 29.6133 26.63 29.84 26.25C30.0667 25.87 30.37 25.5667 30.75 25.34C31.13 25.1133 31.5467 25 32 25ZM28 22V24H24V28H22V22H28ZM42 22V28H40V24H36V22H42Z" fill="#FF6B35"/>
</svg>
