<svg width="20" height="20" viewBox="0 0 20 20" fill="none" xmlns="http://www.w3.org/2000/svg">
<path d="M19.8001 18.791L15.1267 14.1176V14.1184C17.0515 11.8433 17.6577 8.73271 16.7279 5.90222C15.798 3.07081 13.4658 0.92478 10.5675 0.233932C7.66926 -0.456985 4.61945 0.405995 2.51268 2.51266C0.40602 4.61932 -0.457024 7.66925 0.233959 10.5675C0.924873 13.4658 3.07083 15.7981 5.90223 16.7279C8.73271 17.6577 11.8432 17.0515 14.1184 15.1267L18.7919 19.8002H18.791C19.0709 20.0703 19.5158 20.0658 19.7912 19.7912C20.0658 19.5158 20.0703 19.0709 19.8001 18.791ZM1.4652 8.59739C1.4652 6.70558 2.21676 4.89141 3.55401 3.55399C4.89127 2.21657 6.70561 1.46518 8.59739 1.46518C10.4892 1.46518 12.3034 2.21673 13.6408 3.55399C14.9782 4.89125 15.7296 6.7056 15.7296 8.59739C15.7296 10.4892 14.978 12.3034 13.6408 13.6408C12.3035 14.9782 10.4892 15.7296 8.59739 15.7296C6.70648 15.7278 4.89394 14.9754 3.55675 13.6381C2.21947 12.3008 1.46701 10.4883 1.4652 8.59739Z" fill="#777777"/>
</svg>
