<svg width="64" height="64" viewBox="0 0 64 64" fill="none" xmlns="http://www.w3.org/2000/svg">
<path d="M0 32C0 14.3269 14.3269 0 32 0C49.6731 0 64 14.3269 64 32C64 49.6731 49.6731 64 32 64C14.3269 64 0 49.6731 0 32Z" fill="#FFE6DD"/>
<path d="M24 42.5C24 41.0467 24.3667 39.7 25.1 38.46C25.8067 37.26 26.76 36.3067 27.96 35.6C29.2 34.8667 30.5467 34.5 32 34.5C33.4533 34.5 34.8 34.8667 36.04 35.6C37.24 36.3067 38.1933 37.26 38.9 38.46C39.6333 39.7 40 41.0467 40 42.5H38C38 41.42 37.7267 40.4133 37.18 39.48C36.6467 38.5733 35.9267 37.8533 35.02 37.32C34.0867 36.7733 33.08 36.5 32 36.5C30.92 36.5 29.9133 36.7733 28.98 37.32C28.0733 37.8533 27.3533 38.5733 26.82 39.48C26.2733 40.4133 26 41.42 26 42.5H24ZM32 33.5C30.9067 33.5 29.9 33.2267 28.98 32.68C28.0733 32.1467 27.3533 31.4267 26.82 30.52C26.2733 29.6 26 28.5933 26 27.5C26 26.4067 26.2733 25.4 26.82 24.48C27.3533 23.5733 28.0733 22.8533 28.98 22.32C29.9 21.7733 30.9067 21.5 32 21.5C33.0933 21.5 34.1 21.7733 35.02 22.32C35.9267 22.8533 36.6467 23.5733 37.18 24.48C37.7267 25.4 38 26.4067 38 27.5C38 28.5933 37.7267 29.6 37.18 30.52C36.6467 31.4267 35.9267 32.1467 35.02 32.68C34.1 33.2267 33.0933 33.5 32 33.5ZM32 31.5C32.72 31.5 33.3867 31.32 34 30.96C34.6133 30.6 35.1 30.1133 35.46 29.5C35.82 28.8867 36 28.22 36 27.5C36 26.78 35.82 26.1133 35.46 25.5C35.1 24.8867 34.6133 24.4 34 24.04C33.3867 23.68 32.72 23.5 32 23.5C31.28 23.5 30.6133 23.68 30 24.04C29.3867 24.4 28.9 24.8867 28.54 25.5C28.18 26.1133 28 26.78 28 27.5C28 28.22 28.18 28.8867 28.54 29.5C28.9 30.1133 29.3867 30.6 30 30.96C30.6133 31.32 31.28 31.5 32 31.5Z" fill="#FF6B35"/>
</svg>
