<svg width="17" height="18" viewBox="0 0 17 18" fill="none" xmlns="http://www.w3.org/2000/svg">
<path d="M14.7843 6.6C14.6955 6.2623 14.5118 5.95712 14.255 5.72057C13.5343 5.02948 12.2232 4.6473 11.4322 5.26492C11.4314 5.26492 11.4307 5.26568 11.4299 5.26568C11.4292 5.26568 11.4284 5.26492 11.4276 5.26492C10.4019 4.58845 8.48779 4.86461 8.00114 6.66077C6.78601 6.93363 6.43474 7.89028 6.56738 8.63455C6.72678 9.529 7.8786 10.3137 9.09362 9.61823C9.09362 9.61823 10.1376 10.7579 11.2645 9.89669C11.2645 9.89669 12.0174 10.7954 13.0935 10.5546C13.0482 11.0025 14.2589 12.4324 15.4637 11.7591C16.336 11.2656 16.54 9.9873 15.9895 9.32259C16.8433 8.03186 16.1158 6.63421 14.7843 6.6Z" fill="#FF6B35"/>
<path d="M0.893847 11.759C2.09803 12.4327 3.30863 11.0028 3.26372 10.5547C4.33957 10.7954 5.09244 9.89703 5.09244 9.89703C5.26937 10.0437 5.47973 10.1444 5.70489 10.1903C5.93005 10.2362 6.16306 10.2258 6.38325 10.1601C5.98751 9.80297 5.71905 9.32649 5.61862 8.80296C5.51009 8.20286 5.61395 7.58371 5.91235 7.05187C6.21075 6.52004 6.68506 6.10875 7.25378 5.88866C7.33 5.71314 7.42199 5.54491 7.52863 5.38602C7.15657 5.10979 6.7106 4.95074 6.2477 4.92921C5.78481 4.90768 5.32601 5.02464 4.92991 5.26515H4.92455C4.13425 4.647 2.82312 5.02881 2.10232 5.72075C1.84519 5.95694 1.66143 6.2621 1.57295 6.59985C0.241497 6.63408 -0.485717 8.03188 0.367691 9.32272C-0.183068 9.98685 0.021189 11.2659 0.893847 11.759Z" fill="#FF6B35"/>
<path d="M4.9518 4.17759C5.71287 3.89057 6.55256 3.89133 7.31311 4.17973C7.62602 4.29695 7.91839 4.46299 8.17935 4.67168C8.43968 4.46262 8.73175 4.29654 9.04452 4.17973C9.80471 3.89133 10.6441 3.89056 11.4048 4.17759C11.7806 4.0282 12.1852 3.96498 12.5886 3.99258C12.4066 3.78147 12.19 3.60282 11.948 3.46426C12.0443 1.3756 10.0915 0.422687 8.76113 0.794872H8.75899C8.75843 0.794834 8.75791 0.794596 8.75751 0.794202C8.75712 0.793808 8.75688 0.793285 8.75684 0.792729C8.1216 -0.138786 6.58803 -0.180483 5.57956 0.311464C5.22393 0.477065 4.92274 0.740422 4.71117 1.07079C3.27492 0.65049 2.01726 1.89641 2.48782 3.57012C2.2945 3.70559 2.13126 3.87954 2.00833 4.08106C1.8854 4.28258 1.80543 4.50732 1.77344 4.7412C2.66856 4.07064 3.923 3.75621 4.9518 4.17759Z" fill="#FF6B35"/>
<path d="M7.26123 15.8132C7.14384 15.6771 7.00418 15.5619 6.84821 15.4726C6.86588 15.2119 6.82167 14.9507 6.71921 14.7103C6.61674 14.4699 6.45892 14.2571 6.2586 14.0894C6.05829 13.9216 5.82115 13.8035 5.56653 13.7448C5.31192 13.6861 5.04703 13.6884 4.79347 13.7515H4.79209C4.79173 13.7515 4.79139 13.7513 4.79114 13.7511C4.79088 13.7508 4.79073 13.7505 4.79071 13.7501C4.38114 13.1495 3.39238 13.1227 2.74218 13.4398C2.51288 13.5466 2.31869 13.7164 2.18229 13.9294C1.25628 13.6584 0.445417 14.4617 0.748804 15.5408C0.624168 15.6282 0.518919 15.7403 0.439659 15.8702C0.360398 16.0002 0.308834 16.1451 0.288201 16.2959C0.288201 16.2959 -0.0792985 17.7728 1.74169 17.497C1.74169 17.497 2.32088 18.3127 3.34343 17.7728C4.11625 18.1771 4.81353 17.9479 5.27406 17.3019C6.45772 18.0142 8.0321 16.8487 7.26123 15.8132Z" fill="#FF6B35"/>
<path d="M10.6048 11.1661C9.95587 11.8752 9.39993 12.664 8.95039 13.5136C8.92011 13.5707 8.87052 13.6151 8.81048 13.639C8.75045 13.6628 8.68388 13.6646 8.62268 13.6439C8.56149 13.6232 8.50964 13.5814 8.47642 13.526C8.4432 13.4706 8.43077 13.4051 8.44135 13.3414C8.57329 12.49 8.87594 11.6741 9.33112 10.9426C9.19409 10.8808 9.06183 10.809 8.93542 10.7276C8.62743 10.8216 8.30494 10.8589 7.98362 10.8378C7.87278 11.0614 7.77529 11.2914 7.69167 11.5265C7.67382 11.5759 7.64152 11.6188 7.59897 11.6496C7.55642 11.6803 7.5056 11.6976 7.45311 11.6991C7.40062 11.7006 7.34889 11.6863 7.30465 11.658C7.26042 11.6297 7.22572 11.5887 7.20508 11.5404C7.12776 11.3553 7.03882 11.1753 6.93879 11.0014L6.65112 11.0848C6.18296 11.2233 5.6831 11.211 5.22235 11.0496C5.0168 11.1883 4.79524 11.3018 4.5625 11.3875C4.83236 11.8367 5.05903 12.3104 5.23945 12.8024C5.8087 12.8176 6.35753 13.0177 6.80297 13.3724C7.31331 13.7732 7.64464 14.3594 7.72482 15.0034C7.80415 15.0752 7.8788 15.152 7.94833 15.2333L7.98149 15.2761C8.25021 15.6185 8.3859 16.0465 8.36349 16.4812C8.34108 16.9159 8.16208 17.3277 7.85957 17.6407C7.73411 17.7778 7.59182 17.8985 7.43608 18H9.63034C9.76908 18.0006 9.90257 17.947 10.0024 17.8507C10.1022 17.7543 10.1604 17.6228 10.1647 17.4841C10.2166 15.2236 11.0137 12.6316 11.7951 11.3864C11.5627 11.3017 11.3415 11.1889 11.1363 11.0506C10.9645 11.1106 10.786 11.1494 10.6048 11.1661Z" fill="#FF6B35"/>
</svg>
