<svg width="20" height="18" viewBox="0 0 20 18" fill="none" xmlns="http://www.w3.org/2000/svg">
<path d="M13.9956 3.50692C11.6652 5.41598 10.5329 6.10342 9.13553 9.05548C8.51391 10.3646 7.67035 14.0266 8.02582 16.6015C8.38128 15.3809 8.82516 14.5373 9.38002 13.5827C10.4672 11.6519 12.1317 9.45409 14.1076 7.61286C12.4205 10.343 9.69141 14.8486 8.781 18C11.1782 17.2232 14.9071 14.715 16.2602 12.7617C18.7675 9.12229 19.5885 4.39469 19.5443 0C19.5443 0 15.128 2.57498 13.9956 3.50692Z" fill="#FF6B35"/>
<path d="M3.07566 9.899C4.40732 11.5636 5.91675 13.2723 6.82605 14.9154C6.73762 13.4953 6.89281 12.4298 7.11475 11.3201C6.82605 9.74395 5.38342 8.23554 4.05172 7.19152C2.98622 6.2812 1.63299 5.63793 0.0125857 4.68335C-0.0316297 6.25863 0.0351262 6.99111 0.301289 8.56735C0.567443 10.1209 1.07809 12.1411 2.16525 13.2949C2.98626 14.1827 3.67464 14.826 4.65079 15.537C5.38338 16.0693 6.04921 16.7135 6.58151 17.4461C6.69248 17.6238 6.84767 17.779 6.95864 17.9567C6.09428 15.2701 4.34051 12.1628 3.07566 9.899Z" fill="#FF6B35"/>
</svg>
