<svg width="53" height="49" viewBox="0 0 53 49" fill="none" xmlns="http://www.w3.org/2000/svg">
<path d="M26.0099 48.999C40.3747 48.999 52.0198 42.3896 52.0198 34.2364C52.0198 26.0833 40.3747 19.4738 26.0099 19.4738C11.645 19.4738 0 26.0833 0 34.2364C0 42.3896 11.645 48.999 26.0099 48.999Z" fill="#F5F5F5"/>
<path d="M42.6567 40.5607C46.4032 40.5607 49.4404 38.8074 49.4404 36.6446C49.4404 34.4818 46.4032 32.7285 42.6567 32.7285C38.9102 32.7285 35.873 34.4818 35.873 36.6446C35.873 38.8074 38.9102 40.5607 42.6567 40.5607Z" fill="#E0E0E0"/>
<path d="M1.76953 32.1036L27.647 47.0439L39.6999 40.0859L13.8225 25.1445L1.76953 32.1036Z" fill="#E0E0E0"/>
<path d="M31.8876 29.3762L31.4936 29.1477C31.2254 28.9932 31.2254 28.7426 31.4936 28.5881L32.3766 28.0804L29.1945 26.2437L28.3115 26.7515C28.1611 26.8277 27.995 26.8674 27.8264 26.8674C27.6578 26.8674 27.4916 26.8277 27.3413 26.7515L26.9473 26.523C26.679 26.3685 26.679 26.1179 26.9473 25.9634L29.615 24.4237C29.7652 24.3475 29.9312 24.3077 30.0996 24.3077C30.2679 24.3077 30.434 24.3475 30.5841 24.4237L30.9793 24.651C31.2464 24.8056 31.2464 25.0561 30.9793 25.2106L30.008 25.7757L33.1901 27.6135L34.1614 27.0528C34.3115 26.9766 34.4775 26.9369 34.6459 26.9369C34.8143 26.9369 34.9803 26.9766 35.1305 27.0528L35.5256 27.2802C35.7927 27.4347 35.7927 27.6852 35.5256 27.8398L32.8578 29.385C32.7068 29.4598 32.5402 29.4981 32.3717 29.4965C32.2031 29.495 32.0373 29.4537 31.8876 29.3762Z" fill="#E0E0E0"/>
<path d="M20.3255 26.6908C21.324 26.6908 22.1335 26.2233 22.1335 25.6467C22.1335 25.07 21.324 24.6025 20.3255 24.6025C19.327 24.6025 18.5176 25.07 18.5176 25.6467C18.5176 26.2233 19.327 26.6908 20.3255 26.6908Z" fill="#E0E0E0"/>
<path d="M21.597 23.4167C21.5447 23.2262 21.4737 23.0413 21.3851 22.8648C21.3762 22.8449 21.3663 22.8251 21.3564 22.8052C21.2721 22.6416 21.2294 22.4597 21.2321 22.2757C21.2348 22.0916 21.2828 21.9111 21.3718 21.75L21.3906 21.7169C21.5007 21.5286 21.5572 21.3137 21.5539 21.0955C21.5474 20.9761 21.5117 20.8601 21.45 20.7578C21.3882 20.6554 21.3022 20.5697 21.1996 20.5083C21.1467 20.4781 21.0918 20.4515 21.0352 20.4288C20.9827 20.4083 20.9377 20.3725 20.9058 20.3261C20.8739 20.2796 20.8567 20.2247 20.8564 20.1684V19.8472H19.8277V20.1684C19.8273 20.2247 19.81 20.2796 19.7779 20.3259C19.7458 20.3722 19.7004 20.4077 19.6478 20.4277C19.5906 20.4494 19.5352 20.4756 19.4822 20.5061C19.3791 20.5669 19.2926 20.652 19.23 20.7539C19.1675 20.8559 19.1309 20.9717 19.1235 21.0911C19.1184 21.3087 19.173 21.5236 19.2813 21.7125L19.299 21.7445C19.387 21.9065 19.4339 22.0877 19.4354 22.2721C19.4369 22.4565 19.3931 22.6384 19.3078 22.8019L19.278 22.8604C19.1886 23.0347 19.1165 23.2173 19.0628 23.4056C19.0263 23.5873 19.0093 23.7723 19.012 23.9575V25.4542C19.012 25.6484 19.1389 25.8438 19.395 25.9917C19.6235 26.1195 19.8777 26.1949 20.1389 26.2125C20.2624 26.2224 20.3864 26.2224 20.5098 26.2125C20.769 26.1959 21.0217 26.1236 21.2504 26.0005C21.5076 25.8537 21.6367 25.6606 21.6378 25.4663V24.3836C21.6378 24.2489 21.6444 24.1076 21.6444 23.9663C21.6487 23.7819 21.6328 23.5976 21.597 23.4167Z" fill="#FF6B35"/>
<path opacity="0.3" d="M21.597 23.4167C21.5447 23.2262 21.4737 23.0413 21.3851 22.8648C21.3762 22.8449 21.3663 22.8251 21.3564 22.8052C21.2721 22.6416 21.2294 22.4597 21.2321 22.2757C21.2348 22.0916 21.2828 21.9111 21.3718 21.75L21.3906 21.7169C21.5007 21.5286 21.5572 21.3137 21.5539 21.0955C21.5474 20.9761 21.5117 20.8601 21.45 20.7578C21.3882 20.6554 21.3022 20.5697 21.1996 20.5083C21.1467 20.4781 21.0918 20.4515 21.0352 20.4288C20.9827 20.4083 20.9377 20.3725 20.9058 20.3261C20.8739 20.2796 20.8567 20.2247 20.8564 20.1684V19.8472H19.8277V20.1684C19.8273 20.2247 19.81 20.2796 19.7779 20.3259C19.7458 20.3722 19.7004 20.4077 19.6478 20.4277C19.5906 20.4494 19.5352 20.4756 19.4822 20.5061C19.3791 20.5669 19.2926 20.652 19.23 20.7539C19.1675 20.8559 19.1309 20.9717 19.1235 21.0911C19.1184 21.3087 19.173 21.5236 19.2813 21.7125L19.299 21.7445C19.387 21.9065 19.4339 22.0877 19.4354 22.2721C19.4369 22.4565 19.3931 22.6384 19.3078 22.8019L19.278 22.8604C19.1886 23.0347 19.1165 23.2173 19.0628 23.4056C19.0263 23.5873 19.0093 23.7723 19.012 23.9575V25.4542C19.012 25.6484 19.1389 25.8438 19.395 25.9917C19.6235 26.1195 19.8777 26.1949 20.1389 26.2125C20.2624 26.2224 20.3864 26.2224 20.5098 26.2125C20.769 26.1959 21.0217 26.1236 21.2504 26.0005C21.5076 25.8537 21.6367 25.6606 21.6378 25.4663V24.3836C21.6378 24.2489 21.6444 24.1076 21.6444 23.9663C21.6487 23.7819 21.6328 23.5976 21.597 23.4167Z" fill="black"/>
<path opacity="0.1" d="M21.3709 21.7543L21.3897 21.7212C21.4832 21.5609 21.5381 21.381 21.5497 21.1958C21.5265 21.2703 21.4938 21.3415 21.4526 21.4077C21.3259 21.5941 21.1688 21.7578 20.9879 21.8923C20.8124 22.0358 20.616 22.2002 20.5939 22.4265C20.5718 22.6527 20.7274 22.8448 20.904 22.9783C21.0806 23.1119 21.2848 23.1991 21.4438 23.358C21.511 23.4251 21.571 23.4991 21.6226 23.5788C21.6165 23.5236 21.6077 23.4687 21.5961 23.4143C21.5438 23.2238 21.4729 23.039 21.3842 22.8625C21.3753 22.8426 21.3654 22.8227 21.3555 22.8029C21.2723 22.6401 21.2302 22.4594 21.2329 22.2767C21.2356 22.0939 21.283 21.9146 21.3709 21.7543Z" fill="black"/>
<path d="M19.6563 20.2066V20.3799C19.6617 20.4416 19.6835 20.5007 19.7194 20.5512C19.7553 20.6016 19.804 20.6416 19.8605 20.6669C20.0136 20.7445 20.1828 20.7849 20.3544 20.7849C20.5261 20.7849 20.6953 20.7445 20.8484 20.6669C20.9088 20.6339 20.9615 20.5884 21.0029 20.5333C21.0354 20.4896 21.0532 20.4366 21.0537 20.3821V20.2066C21.0539 20.1906 21.0521 20.1747 21.0481 20.1592C21.0342 20.1075 21.0094 20.0593 20.9753 20.018C20.9412 19.9767 20.8987 19.9432 20.8506 19.9197H20.8406C20.6884 19.8444 20.5209 19.8052 20.3511 19.8052C20.1813 19.8052 20.0138 19.8444 19.8616 19.9197C19.8132 19.9424 19.7702 19.9755 19.7357 20.0164C19.7012 20.0574 19.676 20.1053 19.6618 20.157C19.6577 20.1732 19.6559 20.1899 19.6563 20.2066Z" fill="#FF6B35"/>
<path opacity="0.1" d="M19.6563 20.2066V20.3799C19.6617 20.4416 19.6835 20.5007 19.7194 20.5512C19.7553 20.6016 19.804 20.6416 19.8605 20.6669C20.0136 20.7445 20.1828 20.7849 20.3544 20.7849C20.5261 20.7849 20.6953 20.7445 20.8484 20.6669C20.9088 20.6339 20.9615 20.5884 21.0029 20.5333C21.0354 20.4896 21.0532 20.4366 21.0537 20.3821V20.2066C21.0539 20.1906 21.0521 20.1747 21.0481 20.1592C21.0342 20.1075 21.0094 20.0593 20.9753 20.018C20.9412 19.9767 20.8987 19.9432 20.8506 19.9197H20.8406C20.6884 19.8444 20.5209 19.8052 20.3511 19.8052C20.1813 19.8052 20.0138 19.8444 19.8616 19.9197C19.8132 19.9424 19.7702 19.9755 19.7357 20.0164C19.7012 20.0574 19.676 20.1053 19.6618 20.157C19.6577 20.1732 19.6559 20.1899 19.6563 20.2066Z" fill="black"/>
<path opacity="0.2" d="M20.8475 20.4954C21.1202 20.3386 21.1213 20.0826 20.8475 19.9247C20.6937 19.8461 20.5235 19.8052 20.3508 19.8052C20.1781 19.8052 20.0079 19.8461 19.8541 19.9247C19.5804 20.0815 19.5793 20.3364 19.8541 20.4954C20.008 20.5737 20.1782 20.6145 20.3508 20.6145C20.5235 20.6145 20.6937 20.5737 20.8475 20.4954Z" fill="black"/>
<path d="M19.6563 20.0042V20.109C19.656 20.1254 19.6578 20.1417 19.6618 20.1576C19.6757 20.2092 19.7005 20.2572 19.7346 20.2983C19.7687 20.3395 19.8112 20.3728 19.8594 20.396C19.995 20.4699 20.1464 20.5104 20.3009 20.5141C20.4915 20.5292 20.6826 20.4909 20.8527 20.4037C20.9132 20.3712 20.9659 20.326 21.0073 20.2713C21.0296 20.2403 21.045 20.2049 21.0525 20.1675C21.0566 20.1521 21.0584 20.1361 21.058 20.1201V20.0097C21.0527 19.9483 21.031 19.8894 20.9953 19.8392C20.9596 19.7889 20.9112 19.7491 20.855 19.7238C20.8429 19.7164 20.8304 19.7097 20.8174 19.704C20.6679 19.6349 20.5047 19.6005 20.3399 19.6032C20.1752 19.6058 20.0132 19.6456 19.866 19.7194C19.8087 19.7437 19.759 19.7829 19.7221 19.833C19.6852 19.8831 19.6624 19.9423 19.6563 20.0042Z" fill="#FF6B35"/>
<path opacity="0.1" d="M19.6563 20.0042V20.109C19.656 20.1254 19.6578 20.1417 19.6618 20.1576C19.6757 20.2092 19.7005 20.2572 19.7346 20.2983C19.7687 20.3395 19.8112 20.3728 19.8594 20.396C19.995 20.4699 20.1464 20.5104 20.3009 20.5141C20.4915 20.5292 20.6826 20.4909 20.8527 20.4037C20.9132 20.3712 20.9659 20.326 21.0073 20.2713C21.0296 20.2403 21.045 20.2049 21.0525 20.1675C21.0566 20.1521 21.0584 20.1361 21.058 20.1201V20.0097C21.0527 19.9483 21.031 19.8894 20.9953 19.8392C20.9596 19.7889 20.9112 19.7491 20.855 19.7238C20.8429 19.7164 20.8304 19.7097 20.8174 19.704C20.6679 19.6349 20.5047 19.6005 20.3399 19.6032C20.1752 19.6058 20.0132 19.6456 19.866 19.7194C19.8087 19.7437 19.759 19.7829 19.7221 19.833C19.6852 19.8831 19.6624 19.9423 19.6563 20.0042Z" fill="black"/>
<path d="M19.6562 20.0005C19.6562 20.2213 19.9675 20.4034 20.3538 20.4056C20.7401 20.4078 21.0536 20.2279 21.0547 20.006C21.0558 19.7842 20.7434 19.6032 20.3571 19.6021C19.9708 19.601 19.6574 19.7787 19.6562 20.0005Z" fill="#FF6B35"/>
<path d="M20.1137 19.5949V19.9569C20.1131 19.9624 20.1131 19.968 20.1137 19.9735C20.1186 19.9914 20.1272 20.008 20.139 20.0223C20.1508 20.0365 20.1655 20.0481 20.1821 20.0563C20.2285 20.0818 20.2804 20.0958 20.3333 20.0971C20.3998 20.1016 20.4662 20.0878 20.5254 20.0574C20.5463 20.0461 20.5644 20.0303 20.5784 20.011C20.586 20.0005 20.5912 19.9884 20.5938 19.9757C20.5949 19.9702 20.5949 19.9646 20.5938 19.9591V19.5949C20.5921 19.5737 20.5847 19.5533 20.5725 19.5358C20.5603 19.5184 20.5436 19.5045 20.5243 19.4956L20.511 19.4889C20.459 19.4648 20.4022 19.4527 20.3448 19.4537C20.2875 19.4547 20.2311 19.4686 20.1799 19.4945C20.1611 19.504 20.1451 19.5183 20.1335 19.5359C20.1219 19.5535 20.115 19.5738 20.1137 19.5949Z" fill="#FF6B35"/>
<path opacity="0.1" d="M20.1137 19.5949V19.9569C20.1131 19.9624 20.1131 19.968 20.1137 19.9735C20.1186 19.9914 20.1272 20.008 20.139 20.0223C20.1508 20.0365 20.1655 20.0481 20.1821 20.0563C20.2285 20.0818 20.2804 20.0958 20.3333 20.0971C20.3998 20.1016 20.4662 20.0878 20.5254 20.0574C20.5463 20.0461 20.5644 20.0303 20.5784 20.011C20.586 20.0005 20.5912 19.9884 20.5938 19.9757C20.5949 19.9702 20.5949 19.9646 20.5938 19.9591V19.5949C20.5921 19.5737 20.5847 19.5533 20.5725 19.5358C20.5603 19.5184 20.5436 19.5045 20.5243 19.4956L20.511 19.4889C20.459 19.4648 20.4022 19.4527 20.3448 19.4537C20.2875 19.4547 20.2311 19.4686 20.1799 19.4945C20.1611 19.504 20.1451 19.5183 20.1335 19.5359C20.1219 19.5535 20.115 19.5738 20.1137 19.5949Z" fill="black"/>
<path d="M20.1133 19.5876C20.1133 19.6637 20.2237 19.7266 20.355 19.7277C20.4863 19.7289 20.5978 19.6659 20.5978 19.5887C20.5978 19.5114 20.4875 19.4496 20.3561 19.4485C20.2248 19.4474 20.1144 19.5103 20.1133 19.5876Z" fill="#FF6B35"/>
<path opacity="0.5" d="M20.2695 19.5881C20.2695 19.6157 20.3082 19.6378 20.3556 19.6378C20.4031 19.6378 20.4417 19.6168 20.4417 19.5892C20.4417 19.5616 20.4031 19.5396 20.3556 19.5396C20.3082 19.5396 20.2695 19.5616 20.2695 19.5881Z" fill="#FF6B35"/>
<path opacity="0.3" d="M20.2695 19.5881C20.2695 19.6157 20.3082 19.6378 20.3556 19.6378C20.4031 19.6378 20.4417 19.6168 20.4417 19.5892C20.4417 19.5616 20.4031 19.5396 20.3556 19.5396C20.3082 19.5396 20.2695 19.5616 20.2695 19.5881Z" fill="black"/>
<path d="M30.2659 22.9703C30.0561 22.2849 29.1985 21.7175 28.3972 21.9416C28.2709 21.9777 28.1496 22.0296 28.0363 22.0961C27.2637 22.5442 26.629 23.6347 26.629 24.5332C26.6273 24.6827 26.6486 24.8316 26.6919 24.9747C26.9016 25.6601 27.7581 26.2241 28.5595 26.0001C28.6856 25.9644 28.8066 25.9125 28.9193 25.8455C29.6919 25.3974 30.3266 24.3069 30.3266 23.4096C30.3283 23.2609 30.3078 23.1129 30.2659 22.9703Z" fill="#455A64"/>
<path d="M28.9198 25.8498C29.6925 25.4017 30.3271 24.3112 30.3271 23.4138C30.3271 22.5165 29.6969 22.1523 28.9198 22.6004C28.1428 23.0485 27.5137 24.1456 27.5137 25.0374C27.5137 25.9293 28.1428 26.299 28.9198 25.8498Z" fill="#37474F"/>
<path d="M28.9217 23.5958C29.2208 23.4236 29.4636 23.5627 29.4636 23.9082C29.4535 24.096 29.3991 24.2788 29.3049 24.4417C29.2108 24.6045 29.0794 24.7428 28.9217 24.8453C28.6237 25.0175 28.3809 24.8784 28.3809 24.5329C28.3911 24.3452 28.4453 24.1626 28.5393 23.9997C28.6333 23.8369 28.7643 23.6986 28.9217 23.5958Z" fill="#455A64"/>
<path d="M29.1057 24.1137C29.1022 24.1779 29.0837 24.2404 29.0517 24.2962C29.0197 24.352 28.975 24.3995 28.9213 24.4349C28.9034 24.4475 28.8827 24.4556 28.861 24.4585C28.8393 24.4614 28.8172 24.459 28.7966 24.4515L28.7834 24.4437C28.7666 24.4297 28.7535 24.4119 28.745 24.3917C28.7366 24.3715 28.7331 24.3496 28.7348 24.3278C28.7386 24.2634 28.7574 24.2008 28.7898 24.145C28.8222 24.0892 28.8673 24.0418 28.9213 24.0066C28.9391 23.994 28.9596 23.9859 28.9811 23.9831C29.0026 23.9802 29.0246 23.9826 29.045 23.9901L29.0582 23.9978C29.0749 24.0118 29.088 24.0297 29.0962 24.0499C29.1045 24.0701 29.1077 24.092 29.1057 24.1137Z" fill="#37474F"/>
<path d="M32.0781 25.83C32.0747 25.8943 32.0561 25.9568 32.0239 26.0124C31.9917 26.0681 31.9467 26.1153 31.8926 26.1501C31.869 26.1657 31.8415 26.1745 31.8132 26.1755C31.7914 26.1751 31.7701 26.169 31.7514 26.1578L28.7966 24.4515L28.7834 24.4437C28.7666 24.4297 28.7535 24.4119 28.745 24.3917C28.7366 24.3715 28.7331 24.3496 28.7348 24.3278C28.7386 24.2634 28.7574 24.2008 28.7898 24.145C28.8222 24.0892 28.8673 24.0418 28.9213 24.0066C28.9391 23.994 28.9596 23.9859 28.9811 23.9831C29.0026 23.9802 29.0246 23.9826 29.045 23.9901L29.0582 23.9978L32.013 25.7031C32.035 25.7156 32.0529 25.7343 32.0644 25.7569C32.076 25.7794 32.0807 25.8048 32.0781 25.83Z" fill="#FF6B35"/>
<path d="M34.9776 25.6905C34.7668 25.0051 33.9103 24.4377 33.109 24.6629C32.9826 24.6983 32.8613 24.7499 32.7481 24.8163C31.9754 25.2644 31.3419 26.3561 31.3419 27.2534C31.3402 27.4029 31.3615 27.5518 31.4048 27.6949C31.6145 28.3814 32.471 28.9454 33.2723 28.7203C33.3984 28.6849 33.5193 28.6333 33.6322 28.5669C34.4048 28.1176 35.0395 27.0271 35.0395 26.1298C35.0414 25.9811 35.0205 25.8329 34.9776 25.6905Z" fill="#455A64"/>
<path d="M33.6394 28.5707C34.412 28.1215 35.0466 27.031 35.0466 26.1336C35.0466 25.2363 34.412 24.872 33.6394 25.3202C32.8667 25.7683 32.2266 26.8599 32.2266 27.7628C32.2266 28.6656 32.8568 29.0188 33.6394 28.5707Z" fill="#37474F"/>
<path d="M33.6385 26.3144C33.9376 26.1422 34.1793 26.2824 34.1793 26.6267C34.1694 26.8145 34.1152 26.9973 34.0212 27.1601C33.9272 27.323 33.7961 27.4613 33.6385 27.5638C33.3394 27.7371 33.0977 27.5969 33.0977 27.2515C33.1078 27.0637 33.162 26.8811 33.256 26.7182C33.35 26.5554 33.481 26.417 33.6385 26.3144Z" fill="#455A64"/>
<path d="M33.8187 26.8335C33.8152 26.8979 33.7966 26.9605 33.7643 27.0163C33.7321 27.0721 33.6872 27.1195 33.6333 27.1547C33.6155 27.1676 33.5948 27.1759 33.573 27.1788C33.5513 27.1816 33.5291 27.1791 33.5086 27.1713L33.4953 27.1636C33.4786 27.1495 33.4656 27.1316 33.4573 27.1115C33.449 27.0913 33.4458 27.0694 33.4479 27.0477C33.4514 26.9833 33.47 26.9207 33.5023 26.8649C33.5345 26.8091 33.5794 26.7617 33.6333 26.7265C33.651 26.7139 33.6715 26.7058 33.6931 26.7029C33.7146 26.7 33.7365 26.7024 33.7569 26.7099L33.7702 26.7176C33.7872 26.7314 33.8006 26.7492 33.8091 26.7695C33.8175 26.7897 33.8209 26.8117 33.8187 26.8335Z" fill="#37474F"/>
<path d="M34.2658 27.0929C34.2626 27.1571 34.2442 27.2195 34.2122 27.2752C34.1801 27.3308 34.1353 27.3781 34.0814 27.413C34.0574 27.4286 34.0295 27.4374 34.0009 27.4384C33.9791 27.438 33.9577 27.4319 33.939 27.4207L33.5086 27.1713L33.4953 27.1636C33.4786 27.1495 33.4656 27.1316 33.4573 27.1115C33.449 27.0913 33.4458 27.0694 33.4479 27.0477C33.4514 26.9833 33.47 26.9207 33.5023 26.8649C33.5345 26.8091 33.5794 26.7617 33.6333 26.7265C33.651 26.7139 33.6715 26.7058 33.6931 26.7029C33.7146 26.7 33.7365 26.7024 33.7569 26.7099L33.7702 26.7176L34.2006 26.966C34.2227 26.9785 34.2405 26.9972 34.2521 27.0197C34.2637 27.0423 34.2684 27.0677 34.2658 27.0929Z" fill="#FF6B35"/>
<path opacity="0.2" d="M34.2667 27.0913C34.2634 27.1556 34.245 27.2181 34.2129 27.2739C34.1809 27.3297 34.1362 27.3772 34.0824 27.4125C34.0645 27.4251 34.0438 27.4332 34.0221 27.4361C34.0003 27.439 33.9782 27.4366 33.9577 27.4291L33.9444 27.4213C33.9279 27.4071 33.915 27.3892 33.9068 27.3691C33.8985 27.3489 33.8952 27.3271 33.897 27.3054C33.9006 27.241 33.9192 27.1783 33.9514 27.1223C33.9836 27.0663 34.0285 27.0187 34.0824 26.9831C34.1 26.9704 34.1206 26.9622 34.1422 26.9595C34.1638 26.9568 34.1858 26.9596 34.206 26.9677L34.2192 26.9754C34.2361 26.9893 34.2493 27.0072 34.2575 27.0274C34.2658 27.0476 34.269 27.0696 34.2667 27.0913Z" fill="black"/>
<path d="M40.123 7.99671C39.5965 8.85432 38.6119 10.8918 38.3106 11.3234C37.8272 10.7627 36.8548 9.53312 36.6384 9.28478C36.3647 8.96911 35.5082 8.46249 35.5082 8.46249L35.2168 9.74835C35.2168 9.74835 37.0998 12.7042 37.6649 13.2671C38.0236 13.6258 38.4375 13.8532 39.2797 12.9614C40.0656 12.1302 41.9287 9.65012 41.9287 9.65012L41.9839 6.69761C41.081 6.63359 40.804 6.88966 40.123 7.99671Z" fill="#FFA8A7"/>
<path d="M38.3086 11.3222C38.5106 11.543 38.7446 11.8686 38.8086 12.0617C38.7776 11.7182 38.6481 11.3908 38.4355 11.1191L38.3086 11.3222Z" fill="#F28F8F"/>
<path d="M35.1113 7.0372L34.3563 6.5957V10.7502C34.3382 10.8525 34.2847 10.9451 34.2051 11.0118L34.96 11.4478C35.0396 11.3811 35.0932 11.2884 35.1113 11.1862V7.0372Z" fill="#37474F"/>
<path d="M34.3549 8.27832C34.3549 8.27832 34.1419 8.33351 34.0679 8.66684C33.994 9.00017 33.9653 9.63593 34.1595 9.84122C34.3538 10.0465 34.6176 10.1315 34.7887 10.0531C35.1099 9.90524 34.9973 9.25072 34.7346 9.10502C34.3152 8.87103 34.3593 8.60392 34.3593 8.60392L34.3549 8.27832Z" fill="#FFA8A7"/>
<path d="M36.0269 7.0293L35.709 7.43437V10.2721L36.0523 10.824L34.9629 11.452C35.0453 11.3877 35.0995 11.2939 35.1141 11.1904V7.56351L36.0269 7.0293Z" fill="#455A64"/>
<path d="M36.055 10.8203V10.9947L34.959 11.6271V11.4528L36.055 10.8203Z" fill="#FF6B35"/>
<path d="M34.9589 11.627L34.2051 11.191V11.0166L34.9589 11.4526V11.627Z" fill="#FF6B35"/>
<path opacity="0.1" d="M34.9589 11.627L34.2051 11.191V11.0166L34.9589 11.4526V11.627Z" fill="black"/>
<path d="M35.1459 5.20429C35.2739 5.12702 35.4516 5.13696 35.6492 5.25064H35.6569C35.8625 5.38467 36.0335 5.56524 36.1563 5.77771C36.279 5.99018 36.3499 6.22859 36.3633 6.47359V6.48242C36.3633 6.71531 36.2783 6.87756 36.1426 6.9471L35.5708 7.27822L34.6172 5.50561L35.1459 5.20429Z" fill="#FF6B35"/>
<path opacity="0.8" d="M35.1459 5.20429C35.2739 5.12702 35.4516 5.13696 35.6492 5.25064H35.6569C35.8625 5.38467 36.0335 5.56524 36.1563 5.77771C36.279 5.99018 36.3499 6.22859 36.3633 6.47359V6.48242C36.3633 6.71531 36.2783 6.87756 36.1426 6.9471L35.5708 7.27822L34.6172 5.50561L35.1459 5.20429Z" fill="#FAFAFA"/>
<path opacity="0.2" d="M36.1433 6.95246L35.5715 7.28359L35.2559 6.69639L36.2978 6.09375C36.3395 6.21609 36.3619 6.3442 36.364 6.47344V6.48227C36.364 6.72068 36.279 6.88293 36.1433 6.95246Z" fill="#FF6B35"/>
<path d="M33.9121 5.63922C34.0578 5.55644 34.2521 5.55975 34.464 5.66571C34.4876 5.67635 34.5104 5.68851 34.5324 5.70214C34.56 5.71759 34.5865 5.73414 34.6141 5.75291C34.6591 5.78338 34.7022 5.81655 34.7432 5.85225C34.8225 5.91992 34.8963 5.99374 34.964 6.07299C35.1469 6.29708 35.2828 6.55572 35.3635 6.83347C35.4009 6.96381 35.4205 7.09857 35.422 7.23413C35.422 7.51007 35.3271 7.70543 35.1737 7.80146L35.7201 7.48689C35.821 7.42136 35.9036 7.33107 35.9598 7.22461C36.016 7.11816 36.0441 6.99908 36.0412 6.87873C36.0401 6.74895 36.0223 6.61987 35.9883 6.49462C35.9082 6.21183 35.7702 5.94874 35.5832 5.722C35.5167 5.64168 35.4428 5.56777 35.3624 5.50125C35.3214 5.46521 35.2783 5.43167 35.2333 5.40081C35.2068 5.38315 35.1792 5.36549 35.1527 5.35004C35.1262 5.33459 35.1064 5.32466 35.0832 5.31362C34.9862 5.268 34.88 5.24527 34.7729 5.24718C34.6657 5.2491 34.5604 5.2756 34.4651 5.32466L34.4496 5.33349L34.4309 5.34563L33.9121 5.63922Z" fill="#FF6B35"/>
<path opacity="0.1" d="M35.721 7.48827C35.822 7.42274 35.9046 7.33245 35.9608 7.22599C36.017 7.11954 36.045 7.00046 36.0422 6.88011C36.0411 6.75033 36.0233 6.62124 35.9892 6.496L35.3656 6.83596C35.4029 6.96629 35.4226 7.10105 35.4241 7.23661C35.4241 7.51255 35.3292 7.70791 35.1758 7.80394L35.721 7.48827Z" fill="black"/>
<path d="M33.6504 6.21272C33.6504 6.77784 34.0466 7.46547 34.5334 7.74803C34.7795 7.89041 35.0025 7.90255 35.1625 7.80763H35.1714C35.3248 7.7116 35.4197 7.51624 35.4197 7.2403C35.4035 6.93316 35.3151 6.63416 35.1617 6.36759C35.0083 6.10102 34.7942 5.87439 34.5367 5.7061C34.2928 5.56482 34.0709 5.55157 33.9109 5.64319C33.7508 5.7348 33.6504 5.93016 33.6504 6.21272Z" fill="#FF6B35"/>
<path opacity="0.2" d="M33.6504 6.21272C33.6504 6.77784 34.0466 7.46547 34.5334 7.74803C34.7795 7.89041 35.0025 7.90255 35.1625 7.80763H35.1714C35.3248 7.7116 35.4197 7.51624 35.4197 7.2403C35.4035 6.93316 35.3151 6.63416 35.1617 6.36759C35.0083 6.10102 34.7942 5.87439 34.5367 5.7061C34.2928 5.56482 34.0709 5.55157 33.9109 5.64319C33.7508 5.7348 33.6504 5.93016 33.6504 6.21272Z" fill="black"/>
<path d="M30.9355 6.06649C30.9355 6.06649 31.8285 6.52454 32.5912 7.84793C32.7292 8.0848 32.8502 8.33119 32.9532 8.58523C33.3373 9.52562 33.3053 10.1735 33.3053 10.1735C33.5713 9.52121 33.9035 8.84903 34.4554 8.32806C34.672 8.12684 34.8989 7.9371 35.1353 7.75963C35.281 7.67575 35.366 7.49032 35.366 7.23646C35.3633 7.05872 35.3297 6.8828 35.2667 6.71659C35.226 6.60415 35.1754 6.49555 35.1154 6.39209C34.9707 6.13038 34.7618 5.90972 34.5084 5.75082C34.2876 5.62389 34.0868 5.60623 33.94 5.69011C33.6686 5.80648 33.3911 5.90817 33.1088 5.99475C32.3837 6.21218 31.6331 6.16141 30.9355 6.06649Z" fill="#FF6B35"/>
<path opacity="0.8" d="M30.9355 6.06649C30.9355 6.06649 31.8285 6.52454 32.5912 7.84793C32.7292 8.0848 32.8502 8.33119 32.9532 8.58523C33.3373 9.52562 33.3053 10.1735 33.3053 10.1735C33.5713 9.52121 33.9035 8.84903 34.4554 8.32806C34.672 8.12684 34.8989 7.9371 35.1353 7.75963C35.281 7.67575 35.366 7.49032 35.366 7.23646C35.3633 7.05872 35.3297 6.8828 35.2667 6.71659C35.226 6.60415 35.1754 6.49555 35.1154 6.39209C34.9707 6.13038 34.7618 5.90972 34.5084 5.75082C34.2876 5.62389 34.0868 5.60623 33.94 5.69011C33.6686 5.80648 33.3911 5.90817 33.1088 5.99475C32.3837 6.21218 31.6331 6.16141 30.9355 6.06649Z" fill="#FAFAFA"/>
<path opacity="0.2" d="M32.9551 8.5855C33.3392 9.52589 33.3072 10.1738 33.3072 10.1738C33.5732 9.52147 33.9054 8.84929 34.4573 8.32832C34.6738 8.1271 34.9008 7.93737 35.1372 7.7599C35.2829 7.67601 35.3679 7.49058 35.3679 7.23672C35.3652 7.05898 35.3316 6.88306 35.2685 6.71686C34.5908 7.0546 33.4948 7.68043 32.9551 8.5855Z" fill="#FF6B35"/>
<path d="M29.252 7.34411C29.2703 7.98352 29.4357 8.6101 29.7354 9.17522C30.1228 9.9379 30.7067 10.6189 31.3601 10.9964C32.5257 11.6697 33.4694 11.1244 33.4694 9.78228C33.4659 9.45997 33.4192 9.13959 33.3303 8.82974C33.0944 8.01138 32.6546 7.26628 32.0522 6.6642C31.9694 6.58362 31.8855 6.50636 31.7983 6.43572L31.6879 6.34853C31.6357 6.30879 31.5827 6.272 31.529 6.23815C31.4753 6.20431 31.419 6.16751 31.3601 6.12778C30.1957 5.45229 29.252 5.99754 29.252 7.34411Z" fill="#FF6B35"/>
<path opacity="0.1" d="M29.7344 9.17262C30.1218 9.93531 30.7057 10.6163 31.3591 10.9938C32.5247 11.6671 33.4684 11.1218 33.4684 9.77968C33.4649 9.45737 33.4181 9.13699 33.3293 8.82715C33.2509 9.00044 32.9673 9.24878 32.8414 9.07549C32.9188 9.35077 32.9597 9.63503 32.9628 9.92096C32.9628 10.3073 32.8768 10.6185 32.7145 10.8227C32.6473 10.9081 32.5609 10.9764 32.4623 11.022C32.3637 11.0677 32.2557 11.0894 32.1472 11.0854C31.8729 11.0714 31.6068 10.987 31.3746 10.8404C30.8227 10.5192 30.3061 9.94303 29.9397 9.28851C29.9397 9.2852 29.8668 9.34701 29.7344 9.17262Z" fill="black"/>
<path d="M29.3945 7.41569C29.3945 8.00951 29.6031 8.68058 29.9398 9.28433C30.3018 9.93885 30.814 10.515 31.3747 10.8362C31.6069 10.9829 31.873 11.0672 32.1473 11.0812C32.2559 11.0852 32.3638 11.0635 32.4624 11.0178C32.561 10.9722 32.6474 10.9039 32.7146 10.8185C32.8769 10.6143 32.963 10.3031 32.963 9.91678C32.9598 9.63085 32.9189 9.34658 32.8415 9.07131C32.8117 8.96093 32.7764 8.85056 32.7367 8.74019C32.6661 8.54704 32.5832 8.35865 32.4883 8.17617C32.4685 8.13865 32.4486 8.10112 32.4276 8.0658C32.3934 8.00399 32.3581 7.94218 32.3173 7.88147C32.1935 7.67624 32.0544 7.48068 31.9011 7.29649C31.8022 7.1782 31.6968 7.06545 31.5855 6.95874C31.5071 6.88369 31.4276 6.81305 31.346 6.74793C31.3117 6.72033 31.2764 6.69384 31.2422 6.66846C31.208 6.64307 31.1572 6.60775 31.1153 6.58016C31.0733 6.55256 31.0314 6.52718 30.9894 6.5029C30.7572 6.35632 30.4911 6.27194 30.2168 6.25786C29.7003 6.25235 29.3945 6.68833 29.3945 7.41569Z" fill="#FF6B35"/>
<path opacity="0.3" d="M29.3945 7.41569C29.3945 8.00951 29.6031 8.68058 29.9398 9.28433C30.3018 9.93885 30.814 10.515 31.3747 10.8362C31.6069 10.9829 31.873 11.0672 32.1473 11.0812C32.2559 11.0852 32.3638 11.0635 32.4624 11.0178C32.561 10.9722 32.6474 10.9039 32.7146 10.8185C32.8769 10.6143 32.963 10.3031 32.963 9.91678C32.9598 9.63085 32.9189 9.34658 32.8415 9.07131C32.8117 8.96093 32.7764 8.85056 32.7367 8.74019C32.6661 8.54704 32.5832 8.35865 32.4883 8.17617C32.4685 8.13865 32.4486 8.10112 32.4276 8.0658C32.3934 8.00399 32.3581 7.94218 32.3173 7.88147C32.1935 7.67624 32.0544 7.48068 31.9011 7.29649C31.8022 7.1782 31.6968 7.06545 31.5855 6.95874C31.5071 6.88369 31.4276 6.81305 31.346 6.74793C31.3117 6.72033 31.2764 6.69384 31.2422 6.66846C31.208 6.64307 31.1572 6.60775 31.1153 6.58016C31.0733 6.55256 31.0314 6.52718 30.9894 6.5029C30.7572 6.35632 30.4911 6.27194 30.2168 6.25786C29.7003 6.25235 29.3945 6.68833 29.3945 7.41569Z" fill="black"/>
<path d="M31.1875 7.74797L31.927 9.12876C32.1356 9.05149 32.4877 8.92677 32.7736 8.85282C32.7614 8.8164 32.7493 8.78108 32.7361 8.74245C32.6652 8.54905 32.5823 8.3603 32.4877 8.17733L32.427 8.06696C32.3928 8.00515 32.3575 7.94334 32.3166 7.88263C32.1932 7.67757 32.0541 7.48236 31.9005 7.29875V7.29213L31.8332 7.21376C31.6337 7.41004 31.4177 7.58877 31.1875 7.74797Z" fill="#FF6B35"/>
<g opacity="0.6">
<path d="M31.1875 7.74787L31.927 9.12865C32.1356 9.05139 32.4877 8.92666 32.7736 8.85271C32.7614 8.81629 32.7493 8.78097 32.7361 8.74234C32.6652 8.54894 32.5823 8.3602 32.4877 8.17722L32.427 8.06685C32.3928 8.00504 32.3575 7.94323 32.3166 7.88252C32.1932 7.67746 32.0541 7.48226 31.9005 7.29864V7.29202L31.8332 7.21365C31.6337 7.40994 31.4177 7.58867 31.1875 7.74787Z" fill="#FAFAFA"/>
</g>
<path d="M31.8648 9.12517C32.0325 9.12517 32.1319 8.99052 32.1319 8.76425V8.75763C32.1213 8.56376 32.0653 8.3751 31.9682 8.20692C31.8712 8.03875 31.7359 7.8958 31.5734 7.78964C31.5029 7.74571 31.4223 7.72063 31.3394 7.7168C31.1727 7.7168 31.0723 7.85256 31.0723 8.07883V8.08545C31.0831 8.27923 31.1394 8.46773 31.2366 8.63571C31.3338 8.80368 31.4692 8.94641 31.6319 9.05233H31.6374C31.7077 9.0956 31.7878 9.12029 31.8703 9.12407L31.8648 9.12517Z" fill="#FF6B35"/>
<g opacity="0.8">
<path d="M31.8648 9.12517C32.0325 9.12517 32.1319 8.99052 32.1319 8.76425V8.75763C32.1213 8.56376 32.0653 8.3751 31.9682 8.20692C31.8712 8.03875 31.7359 7.8958 31.5734 7.78964C31.5029 7.74571 31.4223 7.72063 31.3394 7.7168C31.1727 7.7168 31.0723 7.85256 31.0723 8.07883V8.08545C31.0831 8.27923 31.1394 8.46773 31.2366 8.63571C31.3338 8.80368 31.4692 8.94641 31.6319 9.05233H31.6374C31.7077 9.0956 31.7878 9.12029 31.8703 9.12407L31.8648 9.12517Z" fill="#FAFAFA"/>
</g>
<path d="M31.066 5.23407C31.0879 5.23422 31.1096 5.23001 31.1299 5.22169C31.1502 5.21336 31.1686 5.20109 31.1841 5.18558C31.1996 5.17008 31.2119 5.15165 31.2202 5.13136C31.2286 5.11107 31.2328 5.08934 31.2326 5.06741V3.45925C31.2353 3.43591 31.2331 3.41225 31.226 3.38984C31.2189 3.36743 31.2071 3.34678 31.1915 3.32923C31.1759 3.31168 31.1567 3.29764 31.1352 3.28802C31.1138 3.27841 31.0906 3.27344 31.0671 3.27344C31.0436 3.27344 31.0203 3.27841 30.9989 3.28802C30.9774 3.29764 30.9583 3.31168 30.9426 3.32923C30.927 3.34678 30.9152 3.36743 30.9081 3.38984C30.9011 3.41225 30.8988 3.43591 30.9015 3.45925V5.06741C30.9013 5.08915 30.9055 5.11071 30.9137 5.13085C30.9219 5.15099 30.9339 5.16933 30.9492 5.1848C30.9645 5.20028 30.9826 5.2126 31.0027 5.22105C31.0227 5.2295 31.0442 5.23393 31.066 5.23407Z" fill="#E0E0E0"/>
<path d="M32.5361 5.62741C32.5655 5.6274 32.5943 5.61963 32.6197 5.6049C32.6451 5.59017 32.6662 5.569 32.6807 5.54352L33.4843 4.1506C33.4967 4.13164 33.5051 4.11034 33.509 4.08802C33.5129 4.06569 33.5123 4.0428 33.507 4.02075C33.5018 3.99869 33.4921 3.97794 33.4786 3.95975C33.465 3.94157 33.4479 3.92633 33.4283 3.91498C33.4087 3.90363 33.387 3.8964 33.3645 3.89373C33.342 3.89107 33.3191 3.89302 33.2974 3.89948C33.2757 3.90593 33.2555 3.91675 33.2381 3.93127C33.2207 3.94579 33.2064 3.96371 33.1962 3.98393L32.3915 5.37686C32.3805 5.39581 32.3734 5.41676 32.3705 5.43849C32.3677 5.46023 32.3692 5.48231 32.3749 5.50346C32.3807 5.52461 32.3906 5.54441 32.404 5.56171C32.4175 5.57901 32.4343 5.59346 32.4534 5.60423C32.4783 5.61941 32.5069 5.62743 32.5361 5.62741Z" fill="#E0E0E0"/>
<path d="M34.0546 13.3802C34.0837 13.3803 34.1123 13.3727 34.1374 13.3581C34.1564 13.3473 34.1731 13.3328 34.1864 13.3154C34.1998 13.2981 34.2095 13.2783 34.2152 13.2571C34.2208 13.236 34.2222 13.2139 34.2193 13.1922C34.2164 13.1705 34.2092 13.1497 34.1981 13.1308L33.3935 11.7378C33.3832 11.7176 33.369 11.6997 33.3516 11.6852C33.3342 11.6707 33.314 11.6598 33.2922 11.6534C33.2705 11.6469 33.2477 11.645 33.2252 11.6476C33.2027 11.6503 33.1809 11.6575 33.1613 11.6689C33.1417 11.6802 33.1246 11.6955 33.1111 11.7137C33.0975 11.7318 33.0879 11.7526 33.0826 11.7747C33.0774 11.7967 33.0767 11.8196 33.0806 11.8419C33.0845 11.8643 33.093 11.8855 33.1054 11.9045L33.91 13.2974C33.9248 13.3226 33.946 13.3435 33.9713 13.358C33.9967 13.3726 34.0254 13.3802 34.0546 13.3802Z" fill="#E0E0E0"/>
<path d="M31.066 13.5965C31.1102 13.5965 31.1525 13.5789 31.1838 13.5477C31.2151 13.5164 31.2326 13.474 31.2326 13.4298V11.8206C31.2353 11.7972 31.2331 11.7736 31.226 11.7512C31.2189 11.7288 31.2071 11.7081 31.1915 11.6906C31.1759 11.673 31.1567 11.659 31.1352 11.6494C31.1138 11.6397 31.0906 11.6348 31.0671 11.6348C31.0436 11.6348 31.0203 11.6397 30.9989 11.6494C30.9774 11.659 30.9583 11.673 30.9426 11.6906C30.927 11.7081 30.9152 11.7288 30.9081 11.7512C30.9011 11.7736 30.8988 11.7972 30.9015 11.8206V13.4298C30.9015 13.4737 30.9187 13.5157 30.9495 13.5469C30.9803 13.5781 31.0221 13.5959 31.066 13.5965Z" fill="#E0E0E0"/>
<path d="M28.7986 12.0894C28.8278 12.0894 28.8565 12.0818 28.8819 12.0672C28.9072 12.0527 28.9284 12.0318 28.9432 12.0066L29.7478 10.6126C29.7699 10.5743 29.7759 10.5287 29.7644 10.486C29.7529 10.4432 29.7249 10.4068 29.6865 10.3847C29.6482 10.3626 29.6026 10.3566 29.5599 10.3681C29.5172 10.3796 29.4807 10.4076 29.4586 10.4459L28.6551 11.84C28.6331 11.8782 28.6271 11.9236 28.6385 11.9662C28.6498 12.0088 28.6776 12.0452 28.7158 12.0673C28.741 12.0817 28.7695 12.0893 28.7986 12.0894Z" fill="#E0E0E0"/>
<path d="M27.1384 10.4341C27.1675 10.4342 27.1961 10.4266 27.2212 10.412L28.6141 9.60738C28.6349 9.59755 28.6535 9.58351 28.6686 9.56616C28.6837 9.54881 28.6951 9.52852 28.7019 9.50656C28.7088 9.48461 28.7111 9.46146 28.7086 9.43859C28.7061 9.41572 28.6989 9.39361 28.6874 9.37366C28.6759 9.35371 28.6605 9.33635 28.642 9.32267C28.6235 9.309 28.6023 9.2993 28.5799 9.29419C28.5575 9.28909 28.5342 9.28868 28.5116 9.29301C28.489 9.29733 28.4675 9.30628 28.4486 9.31931L27.0545 10.1239C27.0231 10.1425 26.9987 10.1708 26.985 10.2046C26.9712 10.2384 26.9689 10.2757 26.9784 10.3109C26.988 10.3461 27.0088 10.3772 27.0377 10.3995C27.0666 10.4217 27.102 10.4339 27.1384 10.4341Z" fill="#E0E0E0"/>
<path d="M26.5296 8.16328H28.1388C28.1795 8.15858 28.2169 8.13912 28.2441 8.10859C28.2713 8.07807 28.2864 8.03861 28.2864 7.99772C28.2864 7.95683 28.2713 7.91737 28.2441 7.88685C28.2169 7.85632 28.1795 7.83686 28.1388 7.83216H26.5296C26.5062 7.82946 26.4826 7.83173 26.4602 7.83881C26.4377 7.8459 26.4171 7.85765 26.3995 7.87328C26.382 7.88892 26.368 7.90809 26.3583 7.92953C26.3487 7.95098 26.3438 7.97422 26.3438 7.99772C26.3438 8.02122 26.3487 8.04446 26.3583 8.06591C26.368 8.08735 26.382 8.10652 26.3995 8.12216C26.4171 8.13779 26.4377 8.14954 26.4602 8.15663C26.4826 8.16371 26.5062 8.16598 26.5296 8.16328Z" fill="#E0E0E0"/>
<path d="M28.5311 6.69873C28.5678 6.6987 28.6035 6.68655 28.6326 6.66416C28.6617 6.64177 28.6826 6.61039 28.692 6.5749C28.7015 6.53941 28.6989 6.5018 28.6848 6.4679C28.6707 6.43401 28.6457 6.40574 28.6139 6.38747L27.2209 5.58284C27.1826 5.56074 27.137 5.55478 27.0943 5.56627C27.0515 5.57775 27.0151 5.60575 26.993 5.6441C26.9709 5.68245 26.9649 5.728 26.9764 5.77075C26.9879 5.81349 27.0159 5.84992 27.0543 5.87202L28.4516 6.68107C28.4761 6.69375 28.5035 6.69984 28.5311 6.69873Z" fill="#E0E0E0"/>
<path d="M29.6028 5.62787C29.632 5.6279 29.6607 5.61988 29.6856 5.6047C29.7047 5.59393 29.7215 5.57947 29.7349 5.56218C29.7484 5.54488 29.7583 5.52508 29.764 5.50393C29.7698 5.48278 29.7713 5.46069 29.7684 5.43896C29.7656 5.41723 29.7584 5.39628 29.7474 5.37732L28.9428 3.9844C28.9194 3.94877 28.8833 3.92343 28.8419 3.9136C28.8004 3.90376 28.7568 3.91016 28.7199 3.93149C28.683 3.95282 28.6557 3.98747 28.6436 4.0283C28.6315 4.06913 28.6355 4.11306 28.6547 4.15106L29.4582 5.54399C29.4728 5.56947 29.4939 5.59064 29.5193 5.60537C29.5446 5.6201 29.5735 5.62786 29.6028 5.62787Z" fill="#E0E0E0"/>
<path d="M36.6385 9.28409C36.3073 8.88784 36.2941 8.63619 36.0424 8.44414C35.7908 8.25209 35.5424 8.24546 35.176 8.35805C34.9 8.44414 34.5744 8.41103 34.4641 8.51699C34.4321 8.53906 34.4861 8.71566 34.6175 8.77747C34.7764 8.85032 35.0292 8.82714 35.2157 8.82383C35.6418 8.8172 35.3018 9.24104 35.7201 9.65605C35.9 9.95627 36.6385 9.28409 36.6385 9.28409Z" fill="#FFA8A7"/>
<path d="M44.4126 6.06551C44.566 5.57765 45.1411 4.98274 45.5594 4.43969C46.0285 3.8238 46.4501 2.56885 45.545 1.74656C45.545 1.74656 45.6068 0.318312 44.1521 0.0523099C42.8563 -0.183891 41.7349 0.467318 40.3717 0.279681C39.7095 0.189174 39.3993 0.951861 40.1223 1.68254C40.1223 1.68254 39.6223 2.20461 39.9015 2.81498C40.1808 3.42535 41.0605 3.32712 41.0605 3.32712L44.4126 6.06551Z" fill="#263238"/>
<path d="M45.2006 1.60393C45.2381 1.54892 45.2847 1.50076 45.3385 1.46154C45.4779 1.37239 45.6371 1.31894 45.8021 1.30592C46.098 1.26433 46.3995 1.29193 46.683 1.38654C46.9664 1.48114 47.224 1.64018 47.4357 1.85117C47.8286 2.26507 47.9875 2.85668 48.0041 3.42731C48.0206 3.99795 47.9169 4.56417 47.8551 5.13149C47.803 5.52659 47.8001 5.92661 47.8462 6.32243C47.8937 6.65356 48.0074 7.06857 48.2326 7.33126C48.3794 7.50344 48.6156 7.64251 48.61 7.88975C48.6045 8.13699 48.3816 8.26613 48.1542 8.30255C47.5008 8.4063 46.7911 8.09063 46.3882 7.5807C46.3661 7.55311 46.3463 7.52552 46.3264 7.49792C45.9732 7.00124 45.9588 6.43722 45.9621 5.85224C45.9621 5.21869 46.1387 4.60501 46.248 3.98581C46.3072 3.67313 46.3445 3.35668 46.3595 3.03879C46.365 2.83681 46.3672 2.58736 46.2425 2.41518C46.1764 2.32268 46.0865 2.24975 45.9824 2.2041C45.8782 2.15844 45.7637 2.14175 45.6509 2.1558C45.556 2.18375 45.4562 2.19054 45.3584 2.17567C45.2936 2.15554 45.2362 2.11673 45.1934 2.06411C45.1506 2.01148 45.1243 1.94739 45.1178 1.87986C45.1126 1.78107 45.1418 1.68354 45.2006 1.60393Z" fill="#263238"/>
<path d="M44.7539 29.749L47.095 29.707C47.0596 31.2699 46.8113 33.0039 46.7705 34.4697C46.7627 34.7456 46.7782 36.6143 46.6733 37.1827C46.5177 38.0359 45.5045 37.92 45.4504 37.4101C45.3963 36.9001 45.5155 34.718 45.5133 34.4929C45.5221 33.5525 45.0806 31.9653 44.851 30.2777C44.8389 30.1993 44.7638 29.8351 44.7539 29.749Z" fill="#FFA8A7"/>
<path d="M45.0694 37.7702C45.0484 38.2713 45.0926 38.6091 45.2394 38.9192C45.3861 39.2294 45.7118 39.3552 46.0583 39.3033C46.4049 39.2515 46.8608 39.0671 47.0009 38.6466C47.1411 38.2261 47.151 37.9292 47.1201 37.459L45.0694 37.7702Z" fill="#263238"/>
<path d="M46.775 34.2961C46.913 34.3215 46.8854 34.9948 46.8998 35.6725C46.913 36.3999 47.0973 36.7178 47.115 37.3149C47.136 37.997 47.0697 38.2939 46.7938 38.6769C46.5179 39.0599 45.6426 39.3756 45.2894 38.7509C45.0013 38.242 45.041 37.7144 45.1393 37.0456C45.2408 36.3535 45.317 35.8679 45.3424 35.3381C45.3655 34.8315 45.3799 34.3447 45.5068 34.2961C45.5068 34.3712 45.5068 34.4661 45.5068 34.5401C45.5068 34.5964 45.4958 34.8712 45.5731 34.8811C45.5861 34.8187 45.5931 34.7551 45.594 34.6913C45.5914 34.6334 45.6108 34.5766 45.6481 34.5323C45.6949 34.4973 45.7519 34.4786 45.8104 34.4794C45.95 34.4639 46.0904 34.4561 46.2309 34.4562C46.3004 34.4562 46.37 34.4562 46.4395 34.4683C46.4996 34.4732 46.5584 34.4878 46.6139 34.5114C46.6301 34.5184 46.6446 34.5288 46.6564 34.542C46.6683 34.5551 46.6771 34.5707 46.6823 34.5875C46.6867 34.6131 46.6867 34.6392 46.6823 34.6648C46.6757 34.7113 46.6757 34.7585 46.6823 34.805C46.6823 34.8248 46.6967 34.8513 46.7165 34.848C46.7364 34.8447 46.7419 34.8259 46.7441 34.8094C46.7519 34.7288 46.7441 34.6681 46.7541 34.5732C46.7541 34.5301 46.7541 34.4694 46.7541 34.4253C46.7541 34.3811 46.775 34.3392 46.775 34.2961Z" fill="#455A64"/>
<path d="M47.1037 37.1212C47.1037 37.2194 47.1258 37.8706 46.9393 37.9689C46.7527 38.0671 46.6832 37.5594 46.6832 37.5594C46.6832 37.5594 46.2527 37.3783 45.5795 37.5958C45.6015 37.7062 45.4691 38.0373 45.2969 37.9468C45.1247 37.8563 45.1324 37.1134 45.1324 37.1035C45.0408 37.7448 45.0121 38.258 45.2914 38.7514C45.6446 39.3761 46.5187 39.0605 46.7958 38.6775C47.0728 38.2945 47.1379 37.9976 47.117 37.3154C47.1148 37.247 47.1104 37.183 47.1037 37.1212Z" fill="#37474F"/>
<path d="M46.6282 37.596C46.6072 37.8399 46.8556 37.7814 46.9008 37.4392C46.9461 37.0971 46.839 36.2626 46.9008 35.6732C46.8876 34.9955 46.9141 34.3223 46.7761 34.2969C46.7756 34.305 46.7756 34.3131 46.7761 34.3212L46.7607 34.6644C46.7607 34.7141 46.7607 34.7582 46.754 34.8101C46.7066 35.3068 46.6801 36.2726 46.6779 36.7306C46.6771 37.0198 46.6605 37.3086 46.6282 37.596Z" fill="#263238"/>
<path d="M45.655 37.5963C45.6234 37.3086 45.6079 37.0194 45.6087 36.7299C45.6087 36.2752 45.5789 35.3215 45.5336 34.8215C45.5166 34.7287 45.5096 34.6344 45.5126 34.5401C45.5126 34.4705 45.5126 34.3844 45.5126 34.3116C45.512 34.3065 45.512 34.3013 45.5126 34.2961C45.421 34.3304 45.389 34.5986 45.3691 34.9363C45.3691 35.1328 45.3691 35.3778 45.3879 35.6725C45.4486 36.263 45.3415 37.1019 45.3879 37.4385C45.4343 37.7751 45.6771 37.8403 45.655 37.5963Z" fill="#263238"/>
<path d="M40.4272 32.8402C40.4448 32.3568 40.1203 27.8623 40.1203 27.8623L42.3356 29.2663C41.8598 32.1073 41.7583 32.7773 41.7495 33.2397C41.7599 33.2786 41.7644 33.3188 41.7627 33.359C41.7627 33.9108 41.1369 34.2088 40.6512 34.5731C40.2388 34.8969 39.7989 35.1842 39.3367 35.4318C38.9835 35.6084 38.2671 35.6249 38.1777 35.3976C38.7693 34.9461 39.6292 34.2706 40.1005 33.7552C40.3245 33.5157 40.4095 33.3269 40.4272 32.8402Z" fill="#FFA8A7"/>
<path d="M37.1727 36.0002C37.1417 36.0002 37.1064 36.3026 37.2709 36.4417C37.4618 36.6051 38.0093 36.8832 38.7466 36.7916C39.4839 36.7 39.8835 36.4881 40.1815 36.2397C40.4795 35.9914 40.8901 35.6448 41.2234 35.5708C41.5336 35.5024 41.8702 35.3622 41.9696 35.2662C42.0689 35.1702 42.0545 34.7441 42.0545 34.7441L37.1727 36.0002Z" fill="#263238"/>
<path d="M41.7549 33.1094C41.7818 33.111 41.8074 33.1217 41.8275 33.1398C41.8475 33.1578 41.8608 33.1821 41.8653 33.2087C41.8874 33.3257 41.9127 33.6679 41.9613 33.8599C42.037 34.1991 42.0616 34.5477 42.0342 34.8941C41.9933 35.1149 41.4878 35.2639 41.1655 35.3875C40.7852 35.5539 40.4324 35.7772 40.1192 36.0497C39.7726 36.3356 39.0441 36.6325 38.564 36.6292C37.9944 36.6292 37.3498 36.4416 37.2086 36.1778C37.0264 35.8467 37.1688 35.6623 38.0121 35.2716C38.171 35.1977 38.7317 34.8654 38.9227 34.7451C39.4403 34.4206 39.9525 33.967 40.1898 33.3908C40.209 33.3202 40.2518 33.2582 40.3112 33.2153C40.3626 33.193 40.4198 33.1876 40.4746 33.1999C40.6154 33.2199 40.7523 33.2613 40.8807 33.3224C40.9911 33.3765 41.1545 33.4394 41.1523 33.584C41.1493 33.6346 41.1385 33.6845 41.1203 33.7319C41.1103 33.7617 41.1026 33.8003 41.128 33.818C41.1534 33.8356 41.1854 33.818 41.2074 33.7959C41.2902 33.7114 41.3659 33.6202 41.4337 33.5233C41.4731 33.4732 41.5179 33.4277 41.5673 33.3875C41.6175 33.3595 41.6658 33.3281 41.7119 33.2937C41.7648 33.2407 41.7516 33.1767 41.7549 33.1094Z" fill="#455A64"/>
<path d="M40.1203 36.0467C40.2682 35.9253 40.4238 35.8083 40.5805 35.7035C40.5805 35.7035 39.5871 36.3072 39.1887 36.0346C38.9304 35.858 39.0529 35.6439 39.0595 35.5754C39.0662 35.507 38.4282 35.2134 38.1765 35.1836C38.107 35.2222 38.0485 35.2542 38.0121 35.2708C37.1688 35.6615 37.0264 35.8503 37.2086 36.177C37.3543 36.4408 37.8189 36.6461 38.554 36.6461C39.0353 36.6438 39.7737 36.3326 40.1203 36.0467Z" fill="#37474F"/>
<path d="M39.1279 35.3799C38.6036 35.5896 38.8277 35.6878 38.9745 35.711C39.1213 35.7342 40.0043 35.2165 40.5418 34.7905C41.1036 34.349 41.4568 33.8611 41.6654 33.6978C41.7438 33.6371 41.8277 33.562 41.9016 33.4925C41.8884 33.3821 41.8762 33.2717 41.8663 33.2165C41.8618 33.1899 41.8485 33.1656 41.8285 33.1476C41.8084 33.1295 41.7828 33.1188 41.7559 33.1172C41.7559 33.1845 41.7658 33.2485 41.714 33.2993C41.6679 33.3337 41.6196 33.3651 41.5694 33.3931C41.52 33.4333 41.4752 33.4789 41.4358 33.5289C41.368 33.6258 41.2923 33.717 41.2096 33.8015C40.7504 34.3766 39.6522 35.1657 39.1279 35.3799Z" fill="#263238"/>
<path d="M39.0121 35.6261C39.0044 35.6261 38.9967 35.6243 38.9897 35.6211C38.9826 35.6179 38.9764 35.6132 38.9713 35.6074C38.8583 35.493 38.7227 35.4035 38.5731 35.3448C38.4235 35.286 38.2632 35.2593 38.1026 35.2663C38.0958 35.267 38.0889 35.2664 38.0823 35.2645C38.0758 35.2625 38.0696 35.2593 38.0643 35.255C38.059 35.2507 38.0546 35.2454 38.0513 35.2394C38.048 35.2334 38.0459 35.2268 38.0452 35.22C38.0445 35.2132 38.0451 35.2063 38.0471 35.1997C38.049 35.1931 38.0522 35.187 38.0565 35.1817C38.0608 35.1763 38.0661 35.1719 38.0721 35.1686C38.0782 35.1654 38.0848 35.1633 38.0916 35.1626C38.2693 35.1541 38.4468 35.1834 38.6124 35.2487C38.7779 35.3139 38.9277 35.4136 39.0518 35.5412C39.0563 35.5463 39.0597 35.5523 39.0618 35.5588C39.0639 35.5653 39.0646 35.5722 39.064 35.579C39.0634 35.5858 39.0614 35.5924 39.0582 35.5984C39.055 35.6044 39.0505 35.6097 39.0452 35.614C39.0358 35.6216 39.0242 35.6258 39.0121 35.6261Z" fill="#EBEBEB"/>
<path d="M39.4706 35.344C39.463 35.3439 39.4555 35.3421 39.4487 35.3389C39.4418 35.3357 39.4358 35.331 39.4309 35.3252C39.3177 35.2112 39.182 35.122 39.0324 35.0633C38.8829 35.0046 38.7227 34.9776 38.5622 34.9841C38.5554 34.9849 38.5485 34.9844 38.5419 34.9825C38.5353 34.9807 38.5291 34.9775 38.5237 34.9732C38.5184 34.969 38.5139 34.9637 38.5105 34.9577C38.5072 34.9517 38.5051 34.9452 38.5043 34.9383C38.5035 34.9315 38.504 34.9246 38.5059 34.918C38.5078 34.9114 38.5109 34.9053 38.5152 34.8999C38.5194 34.8945 38.5247 34.89 38.5307 34.8867C38.5367 34.8833 38.5433 34.8812 38.5501 34.8804C38.728 34.8717 38.9057 34.901 39.0715 34.9663C39.2372 35.0315 39.3872 35.1313 39.5114 35.259C39.52 35.2697 39.5241 35.2833 39.5226 35.297C39.5212 35.3107 39.5144 35.3232 39.5037 35.3318C39.4946 35.34 39.4828 35.3443 39.4706 35.344Z" fill="#EBEBEB"/>
<path d="M39.9301 35.0783C39.9223 35.0786 39.9145 35.077 39.9074 35.0738C39.9003 35.0705 39.8941 35.0656 39.8893 35.0595C39.7761 34.9454 39.6405 34.8561 39.4909 34.7974C39.3413 34.7387 39.1812 34.7118 39.0206 34.7185C39.0069 34.7197 38.9932 34.7156 38.9825 34.7069C38.9718 34.6983 38.9649 34.6858 38.9632 34.6721C38.9624 34.6653 38.9631 34.6585 38.965 34.652C38.9669 34.6455 38.9701 34.6394 38.9745 34.6341C38.9788 34.6289 38.9841 34.6246 38.9902 34.6214C38.9962 34.6183 39.0028 34.6164 39.0096 34.6158C39.1874 34.6069 39.365 34.6361 39.5306 34.7014C39.6962 34.7667 39.8459 34.8666 39.9698 34.9944C39.9784 35.0051 39.9825 35.0188 39.981 35.0324C39.9796 35.0461 39.9728 35.0586 39.9621 35.0672C39.9531 35.0746 39.9417 35.0785 39.9301 35.0783Z" fill="#EBEBEB"/>
<path d="M40.352 34.7737C40.3441 34.7738 40.3363 34.772 40.3292 34.7686C40.3221 34.7651 40.3159 34.7601 40.3111 34.7538C40.1983 34.6393 40.0627 34.5498 39.913 34.491C39.7634 34.4323 39.6031 34.4056 39.4425 34.4128C39.4357 34.4137 39.4288 34.4132 39.4223 34.4115C39.4157 34.4097 39.4095 34.4066 39.4042 34.4023C39.3988 34.3981 39.3944 34.3929 39.3911 34.3869C39.3878 34.3809 39.3858 34.3743 39.3851 34.3675C39.3843 34.3607 39.3849 34.3538 39.3868 34.3472C39.3888 34.3406 39.392 34.3345 39.3963 34.3291C39.4006 34.3238 39.4059 34.3194 39.412 34.3161C39.418 34.3128 39.4246 34.3108 39.4314 34.3101C39.6092 34.3013 39.7868 34.3305 39.9524 34.3958C40.118 34.4611 40.2678 34.561 40.3917 34.6887C40.4003 34.6994 40.4043 34.7131 40.4029 34.7267C40.4015 34.7404 40.3946 34.7529 40.384 34.7616C40.375 34.7692 40.3637 34.7735 40.352 34.7737Z" fill="#EBEBEB"/>
<path d="M40.7667 34.469C40.7588 34.4691 40.751 34.4674 40.7439 34.4639C40.7369 34.4605 40.7307 34.4554 40.7259 34.4492C40.5449 34.2218 40.1155 34.0662 39.7689 34.1037C39.7616 34.105 39.7542 34.1046 39.747 34.1027C39.7399 34.1009 39.7333 34.0974 39.7276 34.0927C39.7219 34.088 39.7173 34.082 39.7142 34.0754C39.711 34.0687 39.7094 34.0614 39.7093 34.054C39.7078 34.0404 39.7116 34.0267 39.7201 34.016C39.7286 34.0052 39.741 33.9983 39.7546 33.9966C40.1398 33.9547 40.6 34.1235 40.8042 34.3807C40.8125 34.3917 40.8161 34.4053 40.8145 34.4189C40.8128 34.4325 40.806 34.4449 40.7954 34.4536C40.7875 34.4613 40.7775 34.4667 40.7667 34.469Z" fill="#EBEBEB"/>
<path d="M45.2387 13.1572C45.5554 13.8316 46.4451 14.942 46.7298 15.6958C47.3137 17.2499 47.0356 18.3757 46.8667 20.4199C46.6857 22.6097 46.5124 24.3415 46.5124 24.3415C46.5455 24.73 47.0863 25.4894 47.1559 27.2112C47.221 28.8194 47.0455 30.8635 47.0455 30.8635C47.0455 30.8635 45.8314 31.5368 44.9329 30.8569C44.9329 30.8569 44.0665 26.72 43.8126 24.7068C43.5919 22.9496 43.338 21.5313 43.338 21.5313L42.6515 24.7995C42.6515 24.7995 42.7 25.6825 42.7729 26.4309C42.8833 27.6152 42.221 29.9397 42.221 29.9397C42.221 29.9397 40.9661 30.3149 40.2001 29.635C40.2001 29.635 39.902 26.2421 39.934 24.5578C39.9694 22.6428 40.3038 16.2223 40.5389 13.485L45.2387 13.1572Z" fill="#FF6B35"/>
<path opacity="0.3" d="M45.2387 13.1572C45.5554 13.8316 46.4451 14.942 46.7298 15.6958C47.3137 17.2499 47.0356 18.3757 46.8667 20.4199C46.6857 22.6097 46.5124 24.3415 46.5124 24.3415C46.5455 24.73 47.0863 25.4894 47.1559 27.2112C47.221 28.8194 47.0455 30.8635 47.0455 30.8635C47.0455 30.8635 45.8314 31.5368 44.9329 30.8569C44.9329 30.8569 44.0665 26.72 43.8126 24.7068C43.5919 22.9496 43.338 21.5313 43.338 21.5313L42.6515 24.7995C42.6515 24.7995 42.7 25.6825 42.7729 26.4309C42.8833 27.6152 42.221 29.9397 42.221 29.9397C42.221 29.9397 40.9661 30.3149 40.2001 29.635C40.2001 29.635 39.902 26.2421 39.934 24.5578C39.9694 22.6428 40.3038 16.2223 40.5389 13.485L45.2387 13.1572Z" fill="black"/>
<path opacity="0.2" d="M43.3391 21.5345L42.87 17.7067C42.87 17.7067 41.9539 17.5875 41.1758 16.6758C41.1758 16.6758 41.3314 17.5511 42.455 17.986L43.0742 21.3976L42.6526 24.8049L43.3391 21.5345Z" fill="black"/>
<path d="M45.561 37.6138C45.5508 37.6139 45.5408 37.6108 45.5323 37.6051C45.5238 37.5994 45.5173 37.5913 45.5135 37.5818C45.5084 37.5689 45.5085 37.5545 45.5139 37.5417C45.5193 37.5289 45.5294 37.5187 45.5422 37.5134C45.9171 37.3806 46.3262 37.3806 46.7012 37.5134C46.7138 37.5184 46.724 37.5281 46.7295 37.5406C46.735 37.553 46.7354 37.5671 46.7306 37.5798C46.7258 37.5925 46.7163 37.6029 46.704 37.6086C46.6916 37.6144 46.6775 37.615 46.6647 37.6105C46.3138 37.4879 45.9317 37.4879 45.5808 37.6105L45.561 37.6138Z" fill="#EBEBEB"/>
<path d="M45.4986 37.0729C45.4865 37.0728 45.4748 37.0684 45.4656 37.0606C45.4563 37.0527 45.4501 37.0419 45.448 37.03C45.446 37.0181 45.4481 37.0058 45.4541 36.9953C45.4601 36.9848 45.4696 36.9767 45.4809 36.9725C45.8982 36.8399 46.3462 36.8399 46.7635 36.9725C46.7762 36.9774 46.7865 36.987 46.7925 36.9993C46.7984 37.0116 46.7995 37.0256 46.7955 37.0387C46.7934 37.0452 46.79 37.0513 46.7855 37.0565C46.781 37.0618 46.7755 37.066 46.7693 37.0691C46.7632 37.0722 46.7564 37.074 46.7496 37.0745C46.7427 37.075 46.7358 37.074 46.7293 37.0718C46.3338 36.9493 45.9106 36.9493 45.5151 37.0718C45.5097 37.0731 45.5041 37.0735 45.4986 37.0729Z" fill="#EBEBEB"/>
<path d="M46.7492 36.5639C46.742 36.5655 46.7344 36.5655 46.7272 36.5639C46.1665 36.3078 45.5362 36.5551 45.5296 36.5573C45.5232 36.5604 45.5162 36.5621 45.5091 36.5624C45.502 36.5627 45.4949 36.5615 45.4883 36.559C45.4816 36.5564 45.4756 36.5525 45.4705 36.5475C45.4655 36.5425 45.4615 36.5366 45.4588 36.53C45.4562 36.5234 45.4549 36.5163 45.4551 36.5092C45.4553 36.5021 45.457 36.4951 45.46 36.4886C45.463 36.4822 45.4673 36.4764 45.4726 36.4717C45.4779 36.467 45.4842 36.4634 45.491 36.4612C45.5186 36.4502 46.1676 36.1952 46.7702 36.469C46.7811 36.4738 46.79 36.4822 46.7954 36.4928C46.8009 36.5034 46.8025 36.5155 46.8 36.5271C46.7976 36.5388 46.7912 36.5492 46.7819 36.5567C46.7727 36.5642 46.7611 36.5683 46.7492 36.5683V36.5639Z" fill="#EBEBEB"/>
<path d="M46.7591 36.0873C46.7519 36.0889 46.7443 36.0889 46.7371 36.0873C46.5464 36.002 46.3403 35.9568 46.1315 35.9543C45.9227 35.9519 45.7156 35.9922 45.5229 36.073C45.5162 36.0765 45.5087 36.0786 45.501 36.0789C45.4934 36.0793 45.4857 36.0779 45.4787 36.075C45.4716 36.072 45.4653 36.0675 45.4601 36.0618C45.455 36.0561 45.4512 36.0494 45.449 36.0421C45.4458 36.0359 45.444 36.0292 45.4435 36.0223C45.443 36.0155 45.4439 36.0086 45.4462 36.0021C45.4485 35.9956 45.452 35.9896 45.4567 35.9845C45.4614 35.9794 45.467 35.9753 45.4733 35.9725C45.6796 35.8839 45.9021 35.8394 46.1266 35.8419C46.351 35.8444 46.5725 35.8937 46.7768 35.9869C46.7831 35.9897 46.7887 35.9938 46.7934 35.9988C46.7981 36.0039 46.8017 36.0098 46.8041 36.0163C46.8064 36.0228 46.8075 36.0297 46.8072 36.0365C46.8068 36.0434 46.8052 36.0502 46.8022 36.0564C46.7986 36.065 46.7926 36.0725 46.785 36.0779C46.7774 36.0834 46.7685 36.0866 46.7591 36.0873Z" fill="#EBEBEB"/>
<path d="M46.7731 35.5511C46.7651 35.5513 46.7571 35.5494 46.75 35.5456C46.176 35.2619 45.5303 35.5456 45.5237 35.5456C45.5175 35.5485 45.5108 35.5501 45.5039 35.5503C45.497 35.5506 45.4902 35.5494 45.4838 35.5469C45.4774 35.5445 45.4716 35.5407 45.4667 35.5359C45.4618 35.5311 45.4579 35.5254 45.4553 35.5191C45.45 35.5064 45.4498 35.4923 45.4547 35.4795C45.4597 35.4668 45.4694 35.4564 45.4818 35.4506C45.5093 35.4385 46.1771 35.146 46.7963 35.4506C46.8086 35.4568 46.8179 35.4676 46.8223 35.4806C46.8266 35.4936 46.8256 35.5079 46.8195 35.5202C46.8156 35.5293 46.8092 35.5371 46.8009 35.5425C46.7927 35.548 46.783 35.551 46.7731 35.5511Z" fill="#EBEBEB"/>
<path d="M44.3083 6.79222C44.7598 6.82313 45.5821 6.89598 45.5821 6.89598C46.0556 7.15977 46.1759 7.37721 46.2631 8.00634C46.3006 8.27345 46.0832 8.98868 45.8955 10.003L45.4717 11.9092L45.2399 13.1597C44.6814 13.6487 43.8801 13.9323 42.3878 13.9467C41.7448 13.9522 41.1108 13.7954 40.5445 13.4908C40.5236 12.599 40.3944 11.7094 40.3768 11.1884C39.6726 10.6112 39.4364 9.65755 39.8249 9.03614C40.7178 7.59134 41.5843 6.68185 42.1593 6.72931L44.3083 6.79222Z" fill="#FFA8A7"/>
<path d="M40.3016 11.1956L40.4539 12.1493C40.4539 12.1493 41.157 12.5996 42.7983 12.5334C45.082 12.4418 45.4859 11.8391 45.4859 11.8391C45.6603 11.1769 45.8171 10.4672 45.9495 9.71552C45.6795 9.64275 45.4398 9.4858 45.2651 9.26746C45.0905 9.04912 44.99 8.78077 44.9782 8.5014C44.9544 8.20945 44.9912 7.91573 45.0861 7.63863C45.1811 7.36153 45.3322 7.10702 45.5301 6.89104L44.4109 6.8215C44.4109 6.8215 42.3016 6.67912 41.9826 6.69568C41.6637 6.71223 41.1482 7.07205 40.5423 7.85461C39.9363 8.63716 38.9882 10.0069 40.3016 11.1956Z" fill="#455A64"/>
<path d="M50.0388 11.1458C49.1282 10.0421 48.1139 8.89749 47.4605 8.11052C46.4461 6.88867 46.2463 6.92289 45.5333 6.88867C45.1613 7.17123 45.1481 8.02442 45.6437 9.58843C46.3788 10.2065 48.254 12.1193 48.254 12.1193C48.1713 12.318 47.3788 13.765 46.8677 14.3787C46.7772 14.4891 46.488 14.499 46.3479 14.52C45.9911 14.576 45.6429 14.6769 45.3114 14.8202C45.0587 14.9306 44.8909 14.9074 44.8887 14.9758C44.8943 15.0543 44.9294 15.1277 44.9869 15.1814C45.0445 15.235 45.1202 15.2649 45.1989 15.265C45.3203 15.2793 45.6326 15.2032 45.8534 15.1679C45.7259 15.2822 45.5833 15.3784 45.4296 15.4537C45.2872 15.5343 44.6757 15.8345 44.4362 15.9504C44.1205 16.1005 44.2 16.6745 45.0907 16.8643C45.5454 16.9614 46.1393 16.9085 47.0576 16.1502C47.3258 15.9294 47.7198 15.4681 48.0399 15.0994C48.871 14.1259 49.3744 13.4979 49.8225 12.8787C50.5642 11.85 50.339 11.5112 50.0388 11.1458Z" fill="#FFA8A7"/>
<path opacity="0.1" d="M41.5527 11.0542C41.5527 11.0542 42.3794 11.6955 43.3187 11.3611C43.5833 11.2771 43.8217 11.1263 44.0109 10.9233C44.2002 10.7203 44.334 10.4719 44.3993 10.2021C44.3993 10.2021 44.4997 11.2805 43.3099 11.6481C42.1653 12.0024 41.5527 11.0542 41.5527 11.0542Z" fill="black"/>
<path d="M40.4278 3.82969C40.4631 5.3937 40.9709 5.78111 41.2258 5.89149C41.4808 6.00186 41.9709 5.93564 42.4477 5.85617V6.79104C42.4477 6.79104 41.4543 7.63982 41.4951 8.06917C41.536 8.49853 42.6795 8.55813 43.2976 8.1365C43.749 7.82966 44.1938 7.19722 44.334 7.03276C44.3865 6.97134 44.4148 6.89282 44.4135 6.81201V4.60452C44.5153 4.65143 44.6287 4.66764 44.7396 4.65117C44.8506 4.63471 44.9543 4.58628 45.0382 4.51181C45.462 4.14867 45.4896 3.57362 45.1806 3.26568C45.0316 3.11667 44.643 3.07363 44.398 3.44117C44.2876 3.92351 44.0801 4.01843 43.9565 3.86832C43.3826 3.13875 43.2004 3.47649 42.3616 2.97539C41.3936 2.39703 41.2269 1.77893 41.0371 1.17188C40.6971 1.38269 40.3848 1.98423 40.4278 3.82969Z" fill="#FFA8A7"/>
<path d="M42.1665 3.62832C42.1647 3.65234 42.1677 3.67648 42.1753 3.69933C42.1829 3.72219 42.1949 3.74331 42.2107 3.76148C42.2265 3.77965 42.2458 3.7945 42.2674 3.80518C42.289 3.81586 42.3125 3.82215 42.3365 3.82369C42.385 3.82488 42.4321 3.80689 42.4674 3.77362C42.5027 3.74035 42.5235 3.69449 42.5252 3.64598C42.5279 3.62158 42.5256 3.59689 42.5184 3.57342C42.5112 3.54995 42.4993 3.5282 42.4834 3.50951C42.4674 3.49083 42.4479 3.4756 42.4258 3.46476C42.4038 3.45393 42.3798 3.44771 42.3553 3.44651C42.3307 3.4453 42.3062 3.44912 42.2833 3.45774C42.2603 3.46636 42.2393 3.4796 42.2216 3.49663C42.2039 3.51366 42.1899 3.53413 42.1804 3.55678C42.171 3.57943 42.1662 3.60378 42.1665 3.62832Z" fill="#263238"/>
<path d="M40.7017 3.62832C40.6999 3.65234 40.7029 3.67648 40.7104 3.69933C40.718 3.72219 40.7301 3.74331 40.7459 3.76148C40.7617 3.77965 40.781 3.7945 40.8025 3.80518C40.8241 3.81586 40.8476 3.82215 40.8717 3.82369C40.9202 3.82488 40.9672 3.80689 41.0025 3.77362C41.0379 3.74035 41.0587 3.69449 41.0604 3.64598C41.0631 3.62158 41.0608 3.59689 41.0536 3.57342C41.0464 3.54995 41.0344 3.5282 41.0185 3.50951C41.0026 3.49083 40.983 3.4756 40.961 3.46476C40.939 3.45393 40.9149 3.44771 40.8904 3.44651C40.8659 3.4453 40.8414 3.44912 40.8184 3.45774C40.7954 3.46636 40.7744 3.4796 40.7568 3.49663C40.7391 3.51366 40.7251 3.53413 40.7156 3.55678C40.7061 3.57943 40.7014 3.60378 40.7017 3.62832Z" fill="#263238"/>
<path d="M41.6922 3.27148L41.6569 4.58715L40.9648 4.37302L41.6922 3.27148Z" fill="#F28F8F"/>
<path d="M42.4473 5.85661C42.9495 5.79038 43.9848 5.49347 44.1459 5.08398C44.0811 5.29102 43.9543 5.47322 43.7828 5.60606C43.4738 5.87095 42.4473 6.17007 42.4473 6.17007V5.85661Z" fill="#F28F8F"/>
<path d="M42.3672 2.74642L42.8263 3.02567C42.8626 2.96267 42.8731 2.88806 42.8556 2.81749C42.8382 2.74692 42.794 2.68585 42.7325 2.64708C42.7022 2.62878 42.6685 2.61681 42.6335 2.6119C42.5984 2.60699 42.5627 2.60925 42.5286 2.61854C42.4944 2.62783 42.4625 2.64395 42.4348 2.66593C42.407 2.68791 42.384 2.71529 42.3672 2.74642Z" fill="#263238"/>
<path d="M42.4544 4.60352L41.8418 4.91477C41.8867 4.9963 41.9613 5.05738 42.0501 5.08533C42.1389 5.11329 42.2351 5.10596 42.3186 5.06488C42.3587 5.04442 42.3942 5.01601 42.423 4.98137C42.4517 4.94673 42.4731 4.90659 42.4858 4.86341C42.4985 4.82023 42.5022 4.77491 42.4968 4.73023C42.4915 4.68554 42.477 4.64243 42.4544 4.60352Z" fill="#B16668"/>
<path d="M42.1621 5.05637C42.1623 5.0738 42.1642 5.09117 42.1676 5.10824C42.2159 5.10817 42.2636 5.09753 42.3074 5.07707C42.3511 5.05661 42.3899 5.02683 42.4209 4.98981C42.4519 4.95279 42.4745 4.90943 42.487 4.86278C42.4995 4.81612 42.5016 4.7673 42.4932 4.71973C42.4049 4.72117 42.3207 4.75728 42.2588 4.82026C42.1968 4.88323 42.1621 4.96803 42.1621 5.05637Z" fill="#F28F8F"/>
<path d="M40.5539 2.89032L41.065 2.70709C41.0549 2.6738 41.0383 2.64286 41.0161 2.61611C40.9939 2.58937 40.9665 2.56736 40.9357 2.5514C40.9048 2.53544 40.871 2.52585 40.8363 2.52321C40.8016 2.52057 40.7668 2.52492 40.7338 2.53601C40.6636 2.55998 40.6055 2.61042 40.5719 2.6766C40.5383 2.74278 40.5318 2.81946 40.5539 2.89032Z" fill="#263238"/>
<path d="M1.76953 31.4542L27.647 46.3956L39.6999 39.4365L13.8225 24.4951L1.76953 31.4542Z" fill="#FF6B35"/>
<path opacity="0.7" d="M1.76953 31.4542L27.647 46.3956L39.6999 39.4365L13.8225 24.4951L1.76953 31.4542Z" fill="white"/>
<path opacity="0.1" d="M28.9429 40.9321C29.5092 41.2478 29.9286 41.7809 30.5633 41.9608C31.2112 42.1425 31.9012 42.1037 32.5246 41.8504C32.795 41.7401 33.061 41.5745 33.1869 41.314C33.3127 41.0535 33.2564 40.6827 32.997 40.5502C32.9277 40.5239 32.8608 40.4914 32.7972 40.4531C32.7664 40.4329 32.7441 40.4019 32.735 40.3661C32.7258 40.3304 32.7303 40.2925 32.7476 40.2599C32.8039 40.1871 32.9187 40.2224 33.0025 40.2599C33.388 40.4307 33.8094 40.5049 34.23 40.476C34.6506 40.4472 35.0579 40.3162 35.4164 40.0944C35.6217 39.9641 35.8215 39.7831 35.8579 39.5425C35.8686 39.4304 35.8519 39.3174 35.8092 39.2132C35.7665 39.109 35.6991 39.0167 35.6129 38.9443C35.2818 38.6363 34.8006 38.5513 34.3767 38.4343L32.9418 38.0403C32.1836 37.8317 31.4584 37.4156 30.7343 37.0911C29.6538 36.6043 28.5456 36.0977 27.7178 35.2522C27.1571 34.6783 26.7244 33.9498 26.0224 33.5646C25.0688 33.0425 23.8845 33.2335 22.8569 32.9642C21.7752 32.6816 20.7057 32.3869 19.6483 31.9951C17.4346 31.1753 15.3109 30.1304 13.3105 28.877C13.8462 27.8228 14.2184 26.6933 14.4143 25.5272C13.7112 25.281 13.0302 25.8892 12.337 26.1607C11.794 26.3737 11.2509 26.3649 10.709 26.2821L8.40546 27.6066C8.50148 27.9455 8.65491 28.2689 8.75976 28.611C8.91981 29.1243 8.93747 29.7611 8.53901 30.1187C8.30833 30.3251 7.98714 30.3936 7.68581 30.4499L6.4154 30.7004C6.05337 30.7721 5.63615 30.8869 5.49487 31.228C5.32268 31.6452 5.68913 32.09 6.07434 32.3251C6.79067 32.7666 7.64608 32.9068 8.43526 33.196C10.2874 33.8715 11.7377 35.3295 13.4628 36.2865C14.6621 36.9487 15.9829 37.3617 17.3458 37.5006C18.7531 37.643 20.188 37.4917 21.5754 37.7622C22.6659 37.9752 23.7829 38.2732 24.8458 38.5944C25.2948 38.7245 25.7305 38.8967 26.1471 39.1087C26.5202 39.303 26.8635 39.4343 27.1405 39.7787C27.3381 40.0281 27.5136 40.3074 27.7818 40.4763C28.05 40.6451 28.3778 40.6827 28.6736 40.7963C28.7666 40.835 28.8566 40.8804 28.9429 40.9321Z" fill="#FF6B35"/>
<path opacity="0.05" d="M28.9429 40.9321C29.5092 41.2478 29.9286 41.7809 30.5633 41.9608C31.2112 42.1425 31.9012 42.1037 32.5246 41.8504C32.795 41.7401 33.061 41.5745 33.1869 41.314C33.3127 41.0535 33.2564 40.6827 32.997 40.5502C32.9277 40.5239 32.8608 40.4914 32.7972 40.4531C32.7664 40.4329 32.7441 40.4019 32.735 40.3661C32.7258 40.3304 32.7303 40.2925 32.7476 40.2599C32.8039 40.1871 32.9187 40.2224 33.0025 40.2599C33.388 40.4307 33.8094 40.5049 34.23 40.476C34.6506 40.4472 35.0579 40.3162 35.4164 40.0944C35.6217 39.9641 35.8215 39.7831 35.8579 39.5425C35.8686 39.4304 35.8519 39.3174 35.8092 39.2132C35.7665 39.109 35.6991 39.0167 35.6129 38.9443C35.2818 38.6363 34.8006 38.5513 34.3767 38.4343L32.9418 38.0403C32.1836 37.8317 31.4584 37.4156 30.7343 37.0911C29.6538 36.6043 28.5456 36.0977 27.7178 35.2522C27.1571 34.6783 26.7244 33.9498 26.0224 33.5646C25.0688 33.0425 23.8845 33.2335 22.8569 32.9642C21.7752 32.6816 20.7057 32.3869 19.6483 31.9951C17.4346 31.1753 15.3109 30.1304 13.3105 28.877C13.8462 27.8228 14.2184 26.6933 14.4143 25.5272C13.7112 25.281 13.0302 25.8892 12.337 26.1607C11.794 26.3737 11.2509 26.3649 10.709 26.2821L8.40546 27.6066C8.50148 27.9455 8.65491 28.2689 8.75976 28.611C8.91981 29.1243 8.93747 29.7611 8.53901 30.1187C8.30833 30.3251 7.98714 30.3936 7.68581 30.4499L6.4154 30.7004C6.05337 30.7721 5.63615 30.8869 5.49487 31.228C5.32268 31.6452 5.68913 32.09 6.07434 32.3251C6.79067 32.7666 7.64608 32.9068 8.43526 33.196C10.2874 33.8715 11.7377 35.3295 13.4628 36.2865C14.6621 36.9487 15.9829 37.3617 17.3458 37.5006C18.7531 37.643 20.188 37.4917 21.5754 37.7622C22.6659 37.9752 23.7829 38.2732 24.8458 38.5944C25.2948 38.7245 25.7305 38.8967 26.1471 39.1087C26.5202 39.303 26.8635 39.4343 27.1405 39.7787C27.3381 40.0281 27.5136 40.3074 27.7818 40.4763C28.05 40.6451 28.3778 40.6827 28.6736 40.7963C28.7666 40.835 28.8566 40.8804 28.9429 40.9321Z" fill="black"/>
<path d="M1.76953 31.4541V31.6892L27.647 46.6295V46.3955L1.76953 31.4541Z" fill="#FF6B35"/>
<path opacity="0.5" d="M1.76953 31.4541V31.6892L27.647 46.6295V46.3955L1.76953 31.4541Z" fill="white"/>
<path d="M27.6465 46.3956L39.6994 39.4365V39.6716L27.6465 46.6296V46.3956Z" fill="#FF6B35"/>
<path opacity="0.4" d="M27.6465 46.3956L39.6994 39.4365V39.6716L27.6465 46.6296V46.3956Z" fill="white"/>
<path d="M7.26099 32.5311C6.8923 32.6448 6.50183 32.669 6.12192 32.6018C5.51375 32.4914 4.74554 32.0974 4.79741 31.3678C4.80177 31.2836 4.82477 31.2014 4.86474 31.1272C5.00161 30.8865 5.32059 30.8424 5.5877 30.7662C5.84237 30.692 6.07985 30.5682 6.28651 30.4019C6.49316 30.2356 6.66491 30.0301 6.79189 29.7972C7.06452 29.2894 7.10315 28.6934 7.07004 28.1139C7.04964 27.9303 7.05335 27.7448 7.08108 27.5621C7.11426 27.4181 7.17295 27.2813 7.25436 27.1581C7.51929 26.7464 7.91688 26.4376 8.38129 26.2828C8.45971 26.2479 8.54426 26.2288 8.63008 26.2268C8.7159 26.2247 8.80128 26.2396 8.88129 26.2707C8.93272 26.2988 8.97516 26.3408 9.00368 26.392C9.0322 26.4432 9.04564 26.5014 9.04244 26.5599C9.02809 26.6912 8.88571 26.774 8.80403 26.8667C8.59244 27.0907 8.46559 27.3815 8.44531 27.689C8.44531 27.9914 8.57004 28.2773 8.6771 28.5599C9.00822 29.4506 9.1186 30.487 8.6771 31.3336C8.3821 31.9044 7.87288 32.335 7.26099 32.5311Z" fill="#263238"/>
<path d="M16.0589 28.5187C16.0589 28.5187 16.8028 23.1633 16.656 21.2339C16.581 20.2406 16.0721 19.9315 15.3403 19.9878C14.6086 20.0441 10.3613 22.4315 10.3613 22.4315L10.9529 23.8664L14.4342 22.777C14.4342 22.777 14.0799 24.8321 13.9982 25.2229C13.9165 25.6136 13.7454 26.139 13.6086 26.6103C13.5334 26.8308 13.4802 27.0581 13.4496 27.2891C13.454 27.6323 16.0589 28.5187 16.0589 28.5187Z" fill="#B16668"/>
<path d="M14.436 22.7772C14.9216 22.6823 15.4062 22.3964 15.5585 22.168C15.4796 22.4253 15.3061 22.643 15.0728 22.7772C14.8515 22.92 14.6172 23.0416 14.373 23.1404L14.436 22.7772Z" fill="#9A4A4D"/>
<path d="M15.2618 33.5705C14.0112 33.0683 12.4848 32.6014 11.6338 32.1102C10.7828 31.619 10.7353 31.4921 9.78167 30.9347C8.82803 30.3773 10.0311 28.2405 10.0311 28.2405C10.0311 28.2405 11.8126 27.6246 12.6536 27.2924C13.1867 27.1687 13.8048 26.9612 14.4196 26.9888C15.0344 27.0164 16.2165 27.0032 16.6591 27.4105C17.1017 27.8177 17.0852 28.6577 17.0852 28.6577L18.5134 30.0926L15.2618 33.5705Z" fill="#B16668"/>
<path d="M17.4667 29.0399L17.0859 28.658C17.0457 28.5992 17.0207 28.5313 17.013 28.4604C16.7669 28.3865 16.2128 28.3379 14.8905 29.1172C13.151 30.1436 12.7051 32.6061 12.7051 32.6061C12.917 32.6911 13.257 32.8269 13.4887 32.9085C13.6797 31.7639 14.438 30.5995 15.4291 29.8986C16.0405 29.4726 16.7347 29.18 17.4667 29.0399Z" fill="#FF6B35"/>
<path opacity="0.4" d="M17.4667 29.0399L17.0859 28.658C17.0457 28.5992 17.0207 28.5313 17.013 28.4604C16.7669 28.3865 16.2128 28.3379 14.8905 29.1172C13.151 30.1436 12.7051 32.6061 12.7051 32.6061C12.917 32.6911 13.257 32.8269 13.4887 32.9085C13.6797 31.7639 14.438 30.5995 15.4291 29.8986C16.0405 29.4726 16.7347 29.18 17.4667 29.0399Z" fill="black"/>
<path d="M11.0456 29.7497C11.3138 30.6691 11.1946 31.1923 11.0268 31.7629L11.6328 32.1139C12.0771 32.3579 12.5412 32.5639 13.0202 32.7298C13.0202 31.9417 13.7608 30.5908 14.5224 29.9186C15.5632 29.0003 17.0831 28.6559 17.0831 28.6559C17.0831 28.6559 17.0997 27.8159 16.6571 27.4087C16.2145 27.0014 15.2056 26.9561 14.6273 26.955C14.2505 26.9558 13.8739 26.9761 13.4992 27.0157C13.1762 27.0953 12.86 27.2002 12.5533 27.3292C12.5533 27.3292 13.8237 27.4705 13.1052 27.838C12.1118 28.3413 10.6935 28.0091 10.6935 28.0091C10.4626 28.0526 10.2395 28.1299 10.0312 28.2387C10.0312 28.2387 10.7134 28.6084 11.0456 29.7497Z" fill="#FF6B35"/>
<path opacity="0.3" d="M11.0456 29.7497C11.3138 30.6691 11.1946 31.1923 11.0268 31.7629L11.6328 32.1139C12.0771 32.3579 12.5412 32.5639 13.0202 32.7298C13.0202 31.9417 13.7608 30.5908 14.5224 29.9186C15.5632 29.0003 17.0831 28.6559 17.0831 28.6559C17.0831 28.6559 17.0997 27.8159 16.6571 27.4087C16.2145 27.0014 15.2056 26.9561 14.6273 26.955C14.2505 26.9558 13.8739 26.9761 13.4992 27.0157C13.1762 27.0953 12.86 27.2002 12.5533 27.3292C12.5533 27.3292 13.8237 27.4705 13.1052 27.838C12.1118 28.3413 10.6935 28.0091 10.6935 28.0091C10.4626 28.0526 10.2395 28.1299 10.0312 28.2387C10.0312 28.2387 10.7134 28.6084 11.0456 29.7497Z" fill="black"/>
<path d="M34.8131 38.0459C33.5691 37.3273 33.0239 37.0878 32.0868 35.8053C31.3892 34.0768 30.7446 31.2225 30.2446 30.4069C29.8605 29.781 29.7535 29.4345 28.5437 29.4466C26.0868 29.4709 20.0118 31.1916 20.0118 31.1916L17.6508 32.2038L17.2402 32.9399C17.6685 33.3958 18.4444 32.8119 19.227 33.2214C20.0095 33.6309 20.2303 34.4521 21.376 34.3561C23.6685 34.1618 25.0283 33.5658 26.2159 33.1419C27.2093 32.7854 28.4356 32.4124 28.4356 32.4124C28.546 33.0503 28.7005 33.5371 29.1828 34.2667C29.823 35.2335 29.9764 35.4068 30.451 36.207C30.4773 36.2878 30.5189 36.3627 30.5735 36.4278C30.695 36.6552 30.6784 37.0481 30.6972 37.3196C30.77 38.313 31.1784 37.6264 32.5956 38.8483C32.9267 39.1342 33.238 39.3726 33.6817 39.4708C34.0757 39.558 34.5757 39.4708 34.9654 39.3825C35.3263 39.2964 35.4356 39.1496 35.6607 38.8306C35.8627 38.5426 35.1409 38.2346 34.8131 38.0459Z" fill="#B16668"/>
<path d="M14.959 33.4511C14.959 33.4511 15.0837 31.8165 16.3828 30.8529C17.5495 29.9876 18.1323 29.822 18.4281 29.9192C18.7239 30.0163 19.8089 30.1542 20.5473 30.1013C21.0991 30.0604 25.5804 29.3055 28.5086 29.3286C29.6665 29.3397 30.0726 29.6355 30.438 30.6531C30.8099 31.684 31.3982 33.7756 31.3982 33.7756C31.3982 33.7756 30.9038 34.7127 29.4777 34.6995C29.1723 34.3706 28.9168 33.9988 28.7194 33.5957C28.5496 33.2483 28.4378 32.8755 28.3883 32.492C28.3883 32.492 24.0594 34.8959 21.7007 35.2083C19.342 35.5207 14.959 33.4511 14.959 33.4511Z" fill="#455A64"/>
<path d="M28.5925 31.3221C28.3853 31.5721 28.2327 31.8627 28.1444 32.1753L28.1069 32.0417C27.9259 31.4015 27.7184 30.8828 27.363 30.5539C27.0075 30.2249 26.6797 30.1212 25.8674 30.1631C25.055 30.2051 20.3199 31.0152 20.3199 31.0152C20.2162 30.6543 20.0263 30.5594 20.0263 30.5594C20.1544 30.8486 20.0981 31.2216 19.8983 31.3795L19.0352 34.8872C19.9877 35.1609 20.9502 35.3044 21.7051 35.2039C23.8023 34.9258 27.4733 32.9865 28.2471 32.5682L28.3928 32.4876C28.3674 32.0671 28.5925 31.3221 28.5925 31.3221Z" fill="#37474F"/>
<path d="M30.6766 37.6133C30.5927 37.6608 30.7041 38.0328 30.7693 38.1222C30.9209 38.2736 31.1122 38.3792 31.3211 38.4268C31.6401 38.5063 31.9205 38.6774 32.2505 38.9643C32.613 39.2723 33.0311 39.5079 33.4823 39.6586C34.0581 39.8514 34.6861 39.8154 35.2361 39.5581C35.8487 39.259 35.8278 38.9511 35.7659 38.7226L30.6766 37.6133Z" fill="#37474F"/>
<path d="M32.0849 35.7956L32.0242 35.6411C32.1345 35.5738 32.4734 36.0528 32.9226 36.5484C33.2618 36.9308 33.6518 37.265 34.0815 37.5418C34.9955 38.0484 35.3266 38.1323 35.65 38.4049C36.0661 38.7537 35.5915 39.2459 34.81 39.4755C33.9966 39.7139 33.3332 39.4082 32.8299 39.1025C32.4767 38.8883 31.9634 38.4689 31.7041 38.2934C31.4447 38.1179 30.8608 37.9932 30.6676 37.7515C30.5573 37.619 30.5904 37.2702 30.5639 36.9645C30.5396 36.6842 30.3685 36.1974 30.4646 36.1919L30.5882 36.4182C31.2902 36.6025 32.0948 36.1786 32.0849 35.7956Z" fill="#FF6B35"/>
<path opacity="0.2" d="M32.0849 35.7956L32.0242 35.6411C32.1345 35.5738 32.4734 36.0528 32.9226 36.5484C33.2618 36.9308 33.6518 37.265 34.0815 37.5418C34.9955 38.0484 35.3266 38.1323 35.65 38.4049C36.0661 38.7537 35.5915 39.2459 34.81 39.4755C33.9966 39.7139 33.3332 39.4082 32.8299 39.1025C32.4767 38.8883 31.9634 38.4689 31.7041 38.2934C31.4447 38.1179 30.8608 37.9932 30.6676 37.7515C30.5573 37.619 30.5904 37.2702 30.5639 36.9645C30.5396 36.6842 30.3685 36.1974 30.4646 36.1919L30.5882 36.4182C31.2902 36.6025 32.0948 36.1786 32.0849 35.7956Z" fill="black"/>
<path opacity="0.2" d="M34.4786 37.8638C34.1392 37.7006 33.8212 37.4963 33.5315 37.2556C32.951 36.7965 32.2545 35.8958 32.0834 35.7998C32.0834 35.7998 32.0834 35.7998 32.0834 35.8064C32.0834 36.0614 31.728 36.3307 31.2832 36.4256C31.6728 36.355 32.387 37.2777 32.7269 37.6155C33.1861 38.0735 33.4995 38.3329 33.7092 38.345C33.9929 38.0857 34.2633 37.9179 34.4786 37.8638Z" fill="black"/>
<path d="M33.2746 38.3032C33.2633 38.3034 33.2523 38.2994 33.2437 38.2921C33.2381 38.2881 33.2334 38.283 33.2299 38.2771C33.2264 38.2712 33.2241 38.2646 33.2231 38.2578C33.2222 38.251 33.2227 38.2441 33.2245 38.2375C33.2263 38.2308 33.2295 38.2246 33.2338 38.2193C33.5561 37.7998 33.896 37.6122 34.2834 37.6453C34.2908 37.6451 34.298 37.6464 34.3048 37.6492C34.3116 37.652 34.3177 37.6562 34.3228 37.6615C34.3278 37.6668 34.3317 37.6731 34.3341 37.68C34.3365 37.687 34.3374 37.6943 34.3368 37.7016C34.3362 37.7089 34.334 37.716 34.3304 37.7224C34.3269 37.7288 34.322 37.7344 34.3161 37.7388C34.3102 37.7431 34.3035 37.7462 34.2963 37.7478C34.2892 37.7494 34.2818 37.7495 34.2746 37.748C33.928 37.7182 33.6123 37.8937 33.3154 38.2833C33.3106 38.2895 33.3045 38.2946 33.2974 38.298C33.2903 38.3015 33.2825 38.3032 33.2746 38.3032Z" fill="#37474F"/>
<path d="M32.8527 37.9909C32.8411 37.991 32.8298 37.9871 32.8207 37.9798C32.8153 37.9756 32.8108 37.9704 32.8075 37.9645C32.8041 37.9585 32.802 37.952 32.8012 37.9452C32.8003 37.9385 32.8009 37.9316 32.8027 37.925C32.8045 37.9185 32.8076 37.9123 32.8118 37.907C33.133 37.4876 33.4741 37.2988 33.8615 37.333C33.8682 37.3336 33.8747 37.3355 33.8806 37.3385C33.8866 37.3416 33.8919 37.3458 33.8962 37.351C33.9005 37.3561 33.9037 37.362 33.9057 37.3684C33.9077 37.3748 33.9085 37.3816 33.9079 37.3882C33.9067 37.4018 33.9003 37.4144 33.89 37.4233C33.8797 37.4321 33.8663 37.4366 33.8527 37.4357C33.5061 37.4059 33.1904 37.5814 32.8935 37.971C32.8887 37.9773 32.8825 37.9823 32.8754 37.9858C32.8683 37.9892 32.8606 37.991 32.8527 37.9909Z" fill="#37474F"/>
<path d="M32.4249 37.6803C32.4133 37.6804 32.402 37.6765 32.3929 37.6693C32.3876 37.6651 32.3831 37.6599 32.3797 37.6539C32.3764 37.648 32.3742 37.6415 32.3734 37.6347C32.3726 37.6279 32.3731 37.6211 32.375 37.6145C32.3768 37.6079 32.3799 37.6018 32.3841 37.5964C32.7053 37.177 33.0464 36.9883 33.4338 37.0225C33.4463 37.0251 33.4574 37.0322 33.4649 37.0425C33.4725 37.0528 33.476 37.0655 33.4748 37.0783C33.4735 37.091 33.4677 37.1028 33.4583 37.1114C33.4489 37.1201 33.4366 37.125 33.4238 37.1251C33.0784 37.0964 32.7616 37.2708 32.4658 37.6605C32.461 37.6667 32.4548 37.6718 32.4477 37.6752C32.4406 37.6787 32.4328 37.6804 32.4249 37.6803Z" fill="#37474F"/>
<path d="M32.046 37.3334C32.0344 37.3335 32.0231 37.3296 32.014 37.3224C32.0087 37.3182 32.0042 37.313 32.0008 37.307C31.9975 37.3011 31.9953 37.2946 31.9945 37.2878C31.9937 37.281 31.9942 37.2742 31.9961 37.2676C31.9979 37.261 32.001 37.2549 32.0052 37.2495C32.3275 36.8301 32.6674 36.6425 33.0549 36.6756C33.0684 36.6767 33.081 36.6831 33.0899 36.6935C33.0988 36.7038 33.1032 36.7172 33.1023 36.7308C33.1009 36.7444 33.0943 36.757 33.0838 36.7659C33.0733 36.7747 33.0597 36.7792 33.046 36.7782C32.6984 36.7484 32.3838 36.9239 32.0869 37.3136C32.0821 37.3198 32.0759 37.3249 32.0688 37.3283C32.0617 37.3318 32.0539 37.3335 32.046 37.3334Z" fill="#37474F"/>
<path d="M31.7296 36.9157C31.7183 36.9159 31.7073 36.912 31.6987 36.9046C31.6932 36.9007 31.6885 36.8957 31.685 36.8899C31.6814 36.8841 31.6791 36.8776 31.6782 36.8709C31.6773 36.8642 31.6777 36.8573 31.6795 36.8508C31.6814 36.8443 31.6845 36.8382 31.6888 36.8329C32.0111 36.4124 32.351 36.2236 32.7384 36.2578C32.7458 36.2576 32.753 36.2589 32.7598 36.2617C32.7666 36.2645 32.7727 36.2687 32.7778 36.274C32.7828 36.2793 32.7867 36.2856 32.7891 36.2926C32.7915 36.2995 32.7924 36.3068 32.7918 36.3141C32.7912 36.3214 32.789 36.3285 32.7854 36.3349C32.7819 36.3413 32.777 36.3469 32.7711 36.3513C32.7652 36.3557 32.7585 36.3587 32.7513 36.3603C32.7442 36.3619 32.7368 36.362 32.7296 36.3605C32.3841 36.3318 32.0673 36.5062 31.7715 36.8958C31.7665 36.902 31.7601 36.907 31.7528 36.9105C31.7456 36.9139 31.7376 36.9157 31.7296 36.9157Z" fill="#37474F"/>
<path d="M32.166 39.7936C30.9376 39.3102 30.3504 38.7793 29.4144 37.4978C28.7157 35.7683 27.9861 32.1932 27.4861 31.3776C27.1009 30.7517 26.6462 30.3533 25.4641 30.5034C23.0281 30.8169 19.1672 31.6259 19.1672 31.6259L17.5027 30.8952L15.0469 33.4471C15.697 33.7782 15.9895 34.3003 16.6661 34.787C17.3846 35.3047 17.7577 35.6491 18.9034 35.67C20.7621 35.7098 22.293 34.606 23.485 34.1789C24.1611 33.9206 24.8103 33.5968 25.4232 33.212C25.4376 33.7318 25.6694 34.787 26.5159 35.957C26.978 36.577 27.4012 37.225 27.7831 37.8974C27.809 37.9802 27.851 38.0571 27.9067 38.1236C28.027 38.351 28.0104 38.744 28.0303 39.0155C28.102 40.0144 28.5104 39.3223 29.9276 40.5442C30.2588 40.83 30.57 41.0684 31.0137 41.1667C31.4173 41.2494 31.8342 41.2418 32.2345 41.1446C32.4019 41.1099 32.5585 41.0351 32.6907 40.9267C32.823 40.8183 32.927 40.6795 32.9939 40.5221C33.2256 40.0574 32.5181 39.9338 32.166 39.7936Z" fill="#B16668"/>
<path d="M26.7222 36.247C26.6314 36.162 26.5504 36.0673 26.4804 35.9645C25.6339 34.7945 25.3932 33.8475 25.3767 33.3265C25.3767 33.3265 24.8822 33.608 23.4484 34.4038C22.3447 35.0174 20.9098 35.9689 18.9727 35.8729C17.9794 35.8221 17.3171 35.4181 16.6107 34.8795C16.1317 34.513 15.7939 33.9126 14.9551 33.4501C15.2586 32.4711 15.4639 31.2095 17.3668 30.47L19.8955 31.3762C19.8955 31.3762 22.7994 30.7139 25.2442 30.47C26.8204 30.3144 27.0003 30.5064 27.3844 31.1323C27.8259 31.8618 28.2442 33.566 28.7586 35.3839C28.6283 35.5991 27.6328 36.3166 26.7222 36.247Z" fill="#455A64"/>
<path d="M27.993 39.3223C27.9091 39.3708 28.0206 39.7428 28.0857 39.8322C28.2376 39.9832 28.4288 40.0888 28.6376 40.1368C28.9565 40.2163 29.2369 40.3874 29.5669 40.6744C29.9294 40.9823 30.3475 41.218 30.7987 41.3686C31.3745 41.5614 32.0025 41.5254 32.5526 41.2682C33.1651 40.969 33.1442 40.66 33.0824 40.4326L27.993 39.3223Z" fill="#37474F"/>
<path d="M29.4159 37.4998L29.3541 37.3442C29.4644 37.2768 29.79 37.7636 30.2371 38.2592C30.5763 38.6416 30.9662 38.9758 31.396 39.2525C32.3099 39.7591 32.641 39.843 32.9644 40.1157C33.3805 40.4644 32.9059 40.9567 32.1245 41.1863C31.311 41.4247 30.6477 41.119 30.1443 40.8132C29.7911 40.598 29.2779 40.1797 29.0185 40.0042C28.7591 39.8287 28.1753 39.704 27.9821 39.4622C27.8717 39.3298 27.9048 38.981 27.8783 38.6753C27.8541 38.3949 27.683 37.9026 27.779 37.9026L27.9026 38.1289C28.6068 38.3132 29.4258 37.8817 29.4159 37.4998Z" fill="#FF6B35"/>
<path opacity="0.2" d="M29.4159 37.4998L29.3541 37.3442C29.4644 37.2768 29.79 37.7636 30.2371 38.2592C30.5763 38.6416 30.9662 38.9758 31.396 39.2525C32.3099 39.7591 32.641 39.843 32.9644 40.1157C33.3805 40.4644 32.9059 40.9567 32.1245 41.1863C31.311 41.4247 30.6477 41.119 30.1443 40.8132C29.7911 40.598 29.2779 40.1797 29.0185 40.0042C28.7591 39.8287 28.1753 39.704 27.9821 39.4622C27.8717 39.3298 27.9048 38.981 27.8783 38.6753C27.8541 38.3949 27.683 37.9026 27.779 37.9026L27.9026 38.1289C28.6068 38.3132 29.4258 37.8817 29.4159 37.4998Z" fill="black"/>
<path opacity="0.2" d="M30.8487 38.9639C30.2681 38.5036 29.5849 37.6107 29.4138 37.5146C29.4072 37.7685 29.043 38.0389 28.5938 38.1338C28.9823 38.0511 29.7052 38.9826 30.0441 39.3215C30.5032 39.7806 30.8167 40.04 31.0264 40.0522C31.3079 39.795 31.5783 39.625 31.7935 39.5731C31.4549 39.4094 31.1376 39.2048 30.8487 38.9639Z" fill="black"/>
<path d="M30.591 40.0141C30.5793 40.0142 30.568 40.0103 30.5589 40.0031C30.5536 39.9988 30.5491 39.9936 30.5458 39.9877C30.5424 39.9818 30.5403 39.9752 30.5394 39.9685C30.5386 39.9617 30.5391 39.9548 30.541 39.9483C30.5428 39.9417 30.5459 39.9356 30.5501 39.9302C30.8724 39.5108 31.2124 39.3231 31.5998 39.3563C31.6134 39.3574 31.6259 39.3638 31.6348 39.3741C31.6437 39.3845 31.6482 39.3979 31.6472 39.4114C31.6458 39.4251 31.6392 39.4377 31.6287 39.4466C31.6182 39.4554 31.6047 39.4598 31.591 39.4589C31.2444 39.4291 30.9287 39.6046 30.6318 39.9942C30.627 40.0005 30.6208 40.0055 30.6137 40.009C30.6066 40.0124 30.5988 40.0142 30.591 40.0141Z" fill="#37474F"/>
<path d="M30.1671 39.7025C30.1555 39.7026 30.1442 39.6987 30.1351 39.6914C30.1298 39.6872 30.1253 39.682 30.1219 39.6761C30.1186 39.6701 30.1164 39.6636 30.1156 39.6568C30.1148 39.6501 30.1153 39.6432 30.1171 39.6366C30.119 39.6301 30.1221 39.6239 30.1263 39.6186C30.4486 39.1992 30.7885 39.0115 31.176 39.0435C31.1828 39.0441 31.1894 39.046 31.1955 39.0492C31.2015 39.0523 31.2069 39.0566 31.2113 39.0618C31.2157 39.0671 31.2191 39.0731 31.2212 39.0796C31.2232 39.0862 31.224 39.093 31.2234 39.0998C31.2228 39.1066 31.2209 39.1133 31.2178 39.1193C31.2146 39.1254 31.2103 39.1308 31.2051 39.1352C31.1999 39.1396 31.1938 39.143 31.1873 39.145C31.1808 39.1471 31.1739 39.1479 31.1671 39.1473C30.8205 39.1175 30.5049 39.293 30.208 39.6815C30.2034 39.6881 30.1973 39.6935 30.1902 39.6971C30.1831 39.7008 30.1751 39.7026 30.1671 39.7025Z" fill="#37474F"/>
<path d="M29.7453 39.3902C29.7336 39.3903 29.7223 39.3864 29.7132 39.3791C29.7079 39.3749 29.7034 39.3697 29.7 39.3638C29.6967 39.3578 29.6946 39.3513 29.6937 39.3445C29.6929 39.3378 29.6934 39.3309 29.6953 39.3244C29.6971 39.3178 29.7002 39.3117 29.7044 39.3063C30.0256 38.8869 30.3667 38.6981 30.753 38.7312C30.7666 38.7326 30.7792 38.7393 30.7881 38.7498C30.7969 38.7603 30.8014 38.7738 30.8004 38.7875C30.8 38.7944 30.7982 38.8011 30.7951 38.8073C30.7921 38.8134 30.7878 38.8189 30.7825 38.8233C30.7772 38.8278 30.7711 38.8311 30.7645 38.8331C30.7579 38.8351 30.751 38.8358 30.7441 38.835C30.3987 38.8052 30.0819 38.9796 29.7861 39.3692C29.7813 39.3756 29.7752 39.3808 29.7681 39.3845C29.761 39.3881 29.7532 39.39 29.7453 39.3902Z" fill="#37474F"/>
<path d="M29.3624 39.0435C29.3508 39.0436 29.3395 39.0397 29.3304 39.0325C29.3251 39.0283 29.3206 39.023 29.3172 39.0171C29.3139 39.0112 29.3117 39.0046 29.3109 38.9979C29.3101 38.9911 29.3106 38.9842 29.3125 38.9777C29.3143 38.9711 29.3174 38.965 29.3216 38.9596C29.6439 38.5402 29.9839 38.3514 30.3713 38.3846C30.3848 38.386 30.3973 38.3926 30.406 38.4032C30.4147 38.4137 30.4189 38.4273 30.4176 38.4409C30.4172 38.4476 30.4154 38.4542 30.4124 38.4603C30.4094 38.4664 30.4052 38.4718 30.4001 38.4762C30.3949 38.4807 30.3889 38.484 30.3825 38.4861C30.376 38.4882 30.3692 38.4889 30.3624 38.4883C30.0148 38.4585 29.7002 38.634 29.4033 39.0225C29.3987 39.0291 29.3926 39.0345 29.3855 39.0381C29.3784 39.0418 29.3704 39.0436 29.3624 39.0435Z" fill="#37474F"/>
<path d="M29.0456 38.6264C29.0343 38.6266 29.0233 38.6227 29.0147 38.6154C29.0093 38.6112 29.0047 38.6061 29.0012 38.6002C28.9978 38.5943 28.9955 38.5878 28.9946 38.581C28.9937 38.5742 28.9941 38.5673 28.9959 38.5607C28.9976 38.5541 29.0006 38.5479 29.0048 38.5425C29.3271 38.1231 29.667 37.9355 30.0544 37.9686C30.068 37.9697 30.0806 37.9761 30.0895 37.9864C30.0984 37.9968 30.1028 38.0102 30.1019 38.0238C30.1005 38.0374 30.0939 38.05 30.0834 38.0589C30.0729 38.0677 30.0593 38.0721 30.0456 38.0712C29.7001 38.0414 29.3834 38.2169 29.0876 38.6065C29.0825 38.6127 29.0761 38.6178 29.0688 38.6212C29.0616 38.6246 29.0536 38.6264 29.0456 38.6264Z" fill="#37474F"/>
<path d="M10.031 28.2413C10.031 28.2413 6.99462 26.6188 6.51449 26.4002L9.16349 24.8395L8.60057 23.376C8.60057 23.376 4.70323 24.6497 3.95709 25.0537C3.56306 25.2656 3.33899 25.5724 3.33789 25.8749C3.33789 26.3804 3.6337 27.0095 4.29815 27.5768C5.71537 28.7832 7.82353 29.9311 9.68887 30.9642C10.3158 31.3031 11.0233 31.7622 11.0233 31.7622C11.2407 31.3097 11.5068 29.7435 10.031 28.2413Z" fill="#B16668"/>
<path d="M6.51376 26.3994C6.0629 26.6421 5.57633 26.8116 5.07227 26.9016C5.07227 26.9016 5.87028 27.1058 6.82392 26.5517L6.51376 26.3994Z" fill="#9A4A4D"/>
<path d="M13.1289 22.3994L13.1091 22.3476C12.4932 20.7504 11.4656 20.7107 9.79783 21.3719C8.56383 21.8619 7.57818 22.7802 7.51306 24.0208C7.49149 24.4808 7.57603 24.9395 7.76016 25.3615C7.94428 25.7836 8.22304 26.1576 8.57487 26.4546C9.32101 27.0859 10.332 27.2692 11.555 26.7979C13.2426 26.5296 13.7437 23.9955 13.1289 22.3994Z" fill="#263238"/>
<path d="M11.7788 21.9387C12.1596 22.0027 12.8439 22.6352 13.4344 24.2864C13.9366 25.6859 13.6198 26.2014 13.4344 26.3835C13.249 26.5656 12.7876 26.6771 12.3373 26.7698L12.6585 27.602L10.6883 28.0071L10.1011 26.4619C10.1011 26.4619 9.94544 26.7996 9.38031 26.5932C8.91343 26.4232 8.59776 25.9541 8.76332 25.5734C8.80853 25.4806 8.87512 25.4 8.95759 25.3381C9.04007 25.2761 9.13608 25.2347 9.23771 25.2171C9.33934 25.1996 9.4437 25.2064 9.54218 25.237C9.64066 25.2677 9.73045 25.3213 9.80416 25.3934C9.80416 25.3934 10.0602 25.3184 10.1353 24.761C10.5686 24.647 10.9516 24.3919 11.2236 24.0358C11.909 23.1793 11.8086 22.2445 11.7788 21.9387Z" fill="#B16668"/>
<path d="M11.409 24.5C11.4181 24.5234 11.4224 24.5484 11.4217 24.5734C11.421 24.5985 11.4154 24.6232 11.4052 24.6461C11.3949 24.669 11.3802 24.6896 11.3619 24.7068C11.3436 24.724 11.3221 24.7373 11.2987 24.7461C11.2505 24.762 11.198 24.7582 11.1526 24.7357C11.1072 24.7132 11.0724 24.6737 11.0558 24.6258C11.0476 24.6027 11.0439 24.5782 11.0452 24.5537C11.0464 24.5292 11.0524 24.5051 11.0629 24.4829C11.0734 24.4607 11.0882 24.4408 11.1064 24.4244C11.1246 24.4079 11.1458 24.3951 11.169 24.3869C11.1921 24.3786 11.2166 24.375 11.2411 24.3762C11.2656 24.3774 11.2897 24.3835 11.3119 24.394C11.3341 24.4045 11.354 24.4192 11.3704 24.4374C11.3869 24.4556 11.3997 24.4769 11.4079 24.5H11.409Z" fill="#263238"/>
<path d="M12.7849 23.4287L12.3379 23.3183C12.3435 23.2888 12.355 23.2608 12.3717 23.236C12.3885 23.2112 12.4101 23.19 12.4353 23.1738C12.4605 23.1576 12.4888 23.1467 12.5183 23.1417C12.5479 23.1368 12.5781 23.1379 12.6072 23.145C12.6677 23.1602 12.72 23.1982 12.7531 23.2511C12.7862 23.304 12.7976 23.3676 12.7849 23.4287Z" fill="#263238"/>
<path d="M10.9973 24.0226L10.6562 24.3306C10.6351 24.3093 10.6185 24.284 10.6074 24.2562C10.5963 24.2284 10.5911 24.1986 10.5919 24.1686C10.5927 24.1387 10.5996 24.1092 10.6122 24.082C10.6248 24.0548 10.6428 24.0305 10.665 24.0105C10.7115 23.9696 10.7718 23.9481 10.8336 23.9504C10.8954 23.9526 10.954 23.9785 10.9973 24.0226Z" fill="#263238"/>
<path d="M12.8901 23.8991C12.9009 23.9339 12.9012 23.9712 12.891 24.0063C12.8808 24.0413 12.8605 24.0726 12.8327 24.0963C12.8049 24.1199 12.7707 24.1349 12.7345 24.1393C12.6982 24.1437 12.6615 24.1374 12.6288 24.1211C12.5961 24.1049 12.5689 24.0794 12.5506 24.0478C12.5323 24.0162 12.5236 23.9799 12.5257 23.9435C12.5278 23.907 12.5405 23.872 12.5623 23.8427C12.5842 23.8134 12.6141 23.7912 12.6484 23.7788C12.6722 23.7706 12.6973 23.7673 12.7224 23.769C12.7474 23.7706 12.7719 23.7773 12.7944 23.7884C12.8169 23.7996 12.8369 23.8152 12.8534 23.8342C12.8698 23.8531 12.8823 23.8752 12.8901 23.8991Z" fill="#263238"/>
<path d="M12.2787 25.7201C12.2898 25.7552 12.2903 25.7928 12.2801 25.8282C12.27 25.8636 12.2497 25.8952 12.2217 25.9192C12.1937 25.9431 12.1593 25.9583 12.1227 25.9628C12.0862 25.9673 12.0491 25.961 12.0161 25.9445C11.9832 25.9281 11.9558 25.9024 11.9373 25.8705C11.9189 25.8386 11.9102 25.802 11.9125 25.7653C11.9147 25.7285 11.9277 25.6932 11.9498 25.6638C11.9719 25.6343 12.0022 25.6121 12.037 25.5997C12.085 25.5837 12.1374 25.5873 12.1827 25.6098C12.2281 25.6324 12.2626 25.672 12.2787 25.7201Z" fill="#9A4A4D"/>
<path d="M11.916 24.0791L12.2361 25.1575L12.7604 24.8274L11.916 24.0791Z" fill="#9A4A4D"/>
<path d="M12.3383 26.7686C11.8692 26.879 10.8504 26.9717 10.5723 26.6582C10.7003 26.8197 10.8748 26.9379 11.0723 26.9971C11.4365 27.1262 12.4497 27.0401 12.4497 27.0401L12.3383 26.7686Z" fill="#9A4A4D"/>
<path d="M9.80469 25.3944L10.0861 26.124C10.2177 26.0731 10.3238 25.9722 10.3811 25.8433C10.4384 25.7144 10.4423 25.5681 10.3919 25.4363L10.1292 24.7619L9.80469 25.3944Z" fill="#263238"/>
<path d="M18.5189 2.64544C18.4275 2.62266 18.3326 2.61853 18.2396 2.6333C18.1662 2.64511 18.0963 2.67341 18.0354 2.71608C17.978 2.75638 17.9302 2.80874 17.8952 2.8695C17.8585 2.93271 17.8279 2.99923 17.8036 3.06818C17.784 3.12304 17.7678 3.17907 17.7551 3.23595C17.7374 3.30879 17.7208 3.38274 17.7043 3.45669C17.6877 3.53065 17.6734 3.61011 17.6601 3.68517C17.6469 3.76022 17.6381 3.81872 17.6325 3.85956C17.6235 3.93287 17.6235 4.007 17.6325 4.08031C17.6417 4.15032 17.6646 4.21784 17.6999 4.27898C17.7391 4.34395 17.7928 4.39907 17.8566 4.44013C17.9353 4.49065 18.023 4.52551 18.1149 4.54278C18.1931 4.55986 18.2733 4.56691 18.3533 4.56375C18.4257 4.56148 18.497 4.54498 18.563 4.51519C18.627 4.48384 18.6826 4.43768 18.7253 4.38053C18.7754 4.31214 18.8093 4.23326 18.8246 4.14985L18.4261 4.06375C18.4093 4.0602 18.3935 4.05329 18.3794 4.04342C18.3654 4.03356 18.3535 4.02095 18.3445 4.00636C18.3347 3.99217 18.328 3.97611 18.3248 3.95921C18.3216 3.9423 18.3219 3.92491 18.3257 3.90813L18.4361 3.40592C18.4395 3.38894 18.4463 3.37283 18.4562 3.35859C18.4661 3.34436 18.4788 3.33229 18.4935 3.32314C18.5078 3.31383 18.5239 3.30747 18.5408 3.30444C18.5577 3.30141 18.575 3.30176 18.5917 3.30548L19.733 3.55162C19.7498 3.55498 19.7658 3.56182 19.7799 3.5717C19.7939 3.58159 19.8058 3.59429 19.8147 3.60901C19.8242 3.62331 19.8307 3.63937 19.8339 3.65624C19.8372 3.6731 19.837 3.69045 19.8334 3.70724L19.7032 4.3143C19.6654 4.50298 19.5863 4.68092 19.4714 4.83527C19.3645 4.97728 19.2277 5.09408 19.0707 5.17743C18.9083 5.263 18.7312 5.31693 18.5487 5.33637C18.3479 5.35721 18.1451 5.34529 17.9482 5.30105C17.74 5.26027 17.541 5.18172 17.361 5.06926C17.2058 4.97111 17.071 4.84409 16.9637 4.6951C16.863 4.55383 16.7934 4.39282 16.7595 4.22269C16.7258 4.05087 16.7235 3.87435 16.7529 3.70173C16.7738 3.57148 16.8003 3.43131 16.8323 3.2823C16.8643 3.1333 16.8985 2.99202 16.9339 2.85847C16.9761 2.68851 17.0511 2.52842 17.1546 2.38717C17.2561 2.24653 17.3853 2.1282 17.5343 2.03949C17.6933 1.94596 17.8692 1.88482 18.052 1.85958C18.4737 1.80883 18.9004 1.89844 19.2661 2.11454C19.4166 2.20621 19.5509 2.3222 19.6634 2.45781C19.7603 2.57303 19.8351 2.7051 19.8842 2.84743C19.9263 2.96354 19.9403 3.08799 19.925 3.21056C19.9239 3.22458 19.9193 3.2381 19.9116 3.24987C19.9038 3.26163 19.8933 3.27127 19.8809 3.27789C19.8563 3.2934 19.8265 3.29855 19.7981 3.29224L19.1679 3.15758C19.1469 3.15443 19.1269 3.14678 19.1092 3.13516C19.0914 3.12354 19.0764 3.10822 19.0652 3.09025C19.0442 3.05604 19.0244 3.02292 19.0056 2.98871C18.9661 2.91397 18.9134 2.84702 18.85 2.79114C18.7547 2.71365 18.6403 2.66332 18.5189 2.64544Z" fill="#FF6B35"/>
<path d="M22.6921 4.79019C22.6843 4.83875 22.6733 4.90056 22.6578 4.97451C22.6424 5.04846 22.6269 5.10917 22.6137 5.15553C22.5757 5.30224 22.5089 5.43993 22.4172 5.5606C22.3273 5.67903 22.2147 5.77845 22.0861 5.85309C21.9465 5.93078 21.7932 5.98099 21.6347 6.00099C21.4539 6.0242 21.2704 6.01523 21.0927 5.9745C20.914 5.93848 20.743 5.87163 20.5872 5.77693C20.4505 5.69365 20.3313 5.58456 20.2362 5.45574C20.1483 5.33429 20.0853 5.19661 20.0508 5.05067C20.0163 4.90367 20.0122 4.7512 20.0386 4.60255C20.0453 4.55399 20.0563 4.49218 20.0729 4.41822C20.0894 4.34427 20.1027 4.28357 20.1159 4.23721C20.1505 4.08976 20.2159 3.95132 20.308 3.83103C20.3995 3.71193 20.5145 3.61277 20.6457 3.53964C20.7862 3.46151 20.9401 3.41023 21.0994 3.38843C21.4637 3.34375 21.8325 3.4214 22.1479 3.60918C22.2817 3.69653 22.3984 3.80763 22.4923 3.93699C22.5813 4.0578 22.6445 4.19571 22.6777 4.34207C22.7118 4.48906 22.7166 4.64131 22.6921 4.79019ZM20.8918 4.76149C20.8825 4.81529 20.884 4.8704 20.8961 4.92364C20.9082 4.97688 20.9308 5.02718 20.9625 5.07164C21.0364 5.15692 21.136 5.21586 21.2463 5.23955C21.3566 5.26324 21.4716 5.25041 21.574 5.20299C21.621 5.17543 21.6621 5.13879 21.6949 5.09521C21.7277 5.05164 21.7515 5.00198 21.7649 4.94913C21.783 4.89677 21.7978 4.84331 21.8091 4.78908C21.821 4.7356 21.8295 4.6814 21.8344 4.62683C21.8438 4.57303 21.8424 4.51791 21.8303 4.46466C21.8182 4.41141 21.7956 4.36111 21.7638 4.31668C21.6938 4.22692 21.5925 4.16698 21.4801 4.14891C21.3692 4.11883 21.2511 4.13144 21.149 4.18423C21.1019 4.21201 21.0608 4.24885 21.028 4.29261C20.9953 4.33637 20.9715 4.38619 20.9581 4.4392C20.9401 4.49122 20.9254 4.5443 20.9139 4.59813C20.9032 4.65208 20.8958 4.70663 20.8918 4.76149Z" fill="#FF6B35"/>
<path d="M23.7297 6.35724C23.7218 6.39086 23.7012 6.4201 23.6721 6.43883C23.6431 6.45755 23.608 6.46431 23.5741 6.45768L22.977 6.32965C22.96 6.32624 22.9439 6.31939 22.9296 6.30952C22.9154 6.29964 22.9033 6.28696 22.8942 6.27226C22.8846 6.25801 22.878 6.24191 22.875 6.225C22.872 6.20809 22.8725 6.19072 22.8765 6.17402L22.9792 5.695C22.9827 5.67821 22.9896 5.66232 22.9995 5.64828C23.0094 5.63424 23.022 5.62235 23.0366 5.61332C23.0507 5.60352 23.0668 5.59679 23.0837 5.59356C23.1006 5.59033 23.118 5.59067 23.1348 5.59456L23.7319 5.72259C23.7487 5.72614 23.7646 5.73306 23.7786 5.74292C23.7927 5.75279 23.8046 5.76539 23.8136 5.77998C23.8233 5.79421 23.8299 5.81026 23.8332 5.82716C23.8364 5.84405 23.8361 5.86143 23.8324 5.87822L23.7297 6.35724ZM23.9505 5.33738C23.9471 5.35437 23.9402 5.37047 23.9303 5.38471C23.9205 5.39895 23.9078 5.41101 23.8931 5.42016C23.8788 5.42977 23.8627 5.43631 23.8458 5.43935C23.8289 5.44239 23.8115 5.44187 23.7948 5.43782L23.1977 5.30979C23.1808 5.30656 23.1648 5.29977 23.1507 5.28988C23.1366 5.27998 23.1248 5.2672 23.116 5.25239C23.1062 5.23823 23.0995 5.22218 23.0963 5.20526C23.093 5.18834 23.0934 5.17094 23.0973 5.15416L23.5388 3.11113C23.5422 3.09415 23.549 3.07804 23.5589 3.0638C23.5688 3.04957 23.5815 3.0375 23.5962 3.02835C23.6105 3.0189 23.6266 3.01238 23.6434 3.00916C23.6603 3.00594 23.6776 3.00609 23.6944 3.00959L24.2926 3.13872C24.3095 3.14209 24.3255 3.14893 24.3395 3.15881C24.3536 3.16869 24.3654 3.1814 24.3743 3.19612C24.3839 3.2104 24.3905 3.22645 24.3937 3.24333C24.3969 3.2602 24.3967 3.27756 24.3931 3.29435L23.9505 5.33738Z" fill="#FF6B35"/>
<path d="M18.5056 11.5914C18.4157 11.6204 18.3324 11.6669 18.2606 11.7283C18.2055 11.7748 18.1618 11.8333 18.1327 11.8993C18.1037 11.9653 18.09 12.037 18.0928 12.1091C18.094 12.1833 18.1025 12.2572 18.1182 12.3298C18.1305 12.387 18.1464 12.4434 18.1657 12.4987C18.1888 12.5693 18.2142 12.6422 18.2407 12.7194C18.2672 12.7967 18.2948 12.8673 18.3235 12.9402C18.3522 13.013 18.3743 13.066 18.3919 13.1047C18.421 13.1707 18.4581 13.233 18.5023 13.2901C18.5464 13.3448 18.6013 13.3898 18.6635 13.4225C18.7316 13.4582 18.8073 13.4771 18.8842 13.4777C18.9773 13.4789 19.0698 13.4624 19.1568 13.4292C19.2326 13.4016 19.3046 13.3645 19.371 13.3188C19.4317 13.279 19.4835 13.2272 19.5233 13.1665C19.5617 13.1067 19.5852 13.0386 19.5917 12.9678C19.5976 12.8829 19.5848 12.7977 19.5542 12.7183L19.1701 12.8552C19.1383 12.8683 19.1026 12.8683 19.0707 12.8552C19.0551 12.8481 19.0411 12.8379 19.0295 12.8251C19.0179 12.8124 19.009 12.7975 19.0034 12.7813L18.8301 12.2967C18.8242 12.2805 18.8217 12.2632 18.8226 12.2459C18.8236 12.2287 18.828 12.2118 18.8356 12.1963C18.8506 12.1651 18.8771 12.141 18.9096 12.1289L20.0133 11.736C20.0293 11.7298 20.0465 11.7271 20.0636 11.728C20.0807 11.729 20.0975 11.7336 20.1127 11.7415C20.1284 11.7484 20.1426 11.7584 20.1544 11.7709C20.1661 11.7835 20.1752 11.7982 20.1811 11.8144L20.3886 12.3994C20.4565 12.5795 20.4829 12.7727 20.4659 12.9645C20.4497 13.1415 20.3951 13.3129 20.3058 13.4667C20.2127 13.6253 20.0898 13.7643 19.9438 13.8762C19.7843 13.9996 19.6057 14.0962 19.4151 14.162C19.2164 14.2361 19.0058 14.2735 18.7937 14.2724C18.6095 14.2704 18.4273 14.2329 18.2573 14.162C18.0975 14.0942 17.9538 13.9934 17.8356 13.8662C17.7157 13.7372 17.62 13.5877 17.5531 13.4247C17.5034 13.3022 17.4526 13.1687 17.4008 13.0263C17.3489 12.8839 17.3047 12.7448 17.2639 12.6113C17.2104 12.4446 17.1898 12.2692 17.2032 12.0947C17.2163 11.9218 17.264 11.7533 17.3434 11.5991C17.4298 11.4364 17.5476 11.2923 17.6899 11.1753C18.0212 10.9116 18.43 10.7643 18.8533 10.7559C19.0296 10.7549 19.2048 10.7829 19.3721 10.8387C19.5145 10.8882 19.6468 10.963 19.7628 11.0594C19.8595 11.1362 19.9369 11.2345 19.9891 11.3464C19.9953 11.3589 19.9985 11.3727 19.9985 11.3867C19.9985 11.4007 19.9953 11.4144 19.9891 11.427C19.9764 11.4533 19.9537 11.4736 19.9261 11.4832L19.318 11.704C19.299 11.7128 19.2782 11.7174 19.2573 11.7174C19.2363 11.7174 19.2156 11.7128 19.1966 11.704C19.1601 11.6863 19.1259 11.6676 19.0917 11.6488C19.0056 11.5931 18.9066 11.5603 18.8042 11.5536C18.7019 11.5468 18.5995 11.5663 18.5067 11.6102L18.5056 11.5914Z" fill="#FF6B35"/>
<path d="M23.1843 11.2223C23.203 11.2676 23.2251 11.3261 23.2516 11.3967C23.2781 11.4673 23.2957 11.528 23.309 11.5744C23.3545 11.718 23.3704 11.8693 23.3556 12.0192C23.3408 12.1691 23.2956 12.3145 23.2229 12.4464C23.1463 12.5866 23.0428 12.7104 22.9183 12.8106C22.6292 13.0363 22.275 13.1626 21.9083 13.1704C21.7484 13.1713 21.5897 13.141 21.4414 13.081C21.3025 13.0248 21.1763 12.9411 21.0706 12.8349C20.9633 12.7281 20.8791 12.6003 20.8233 12.4596C20.8046 12.4154 20.7814 12.3569 20.756 12.2852C20.7306 12.2135 20.7119 12.155 20.6986 12.1075C20.6501 11.9657 20.6328 11.8151 20.6478 11.666C20.6631 11.5164 20.7085 11.3715 20.7814 11.24C20.8602 11.0996 20.9643 10.975 21.0882 10.8724C21.23 10.757 21.391 10.6677 21.564 10.6086C21.7348 10.5448 21.9158 10.5126 22.0982 10.5137C22.2591 10.5139 22.4186 10.5443 22.5684 10.6031C22.7076 10.6588 22.8338 10.7426 22.9392 10.8492C23.0444 10.9565 23.1276 11.0832 23.1843 11.2223ZM21.639 12.1439C21.659 12.1945 21.6887 12.2407 21.7266 12.2797C21.7645 12.3187 21.8098 12.3499 21.8598 12.3713C21.9675 12.4049 22.0832 12.4026 22.1894 12.3648C22.2957 12.3269 22.3869 12.2556 22.4492 12.1616C22.4751 12.1135 22.4912 12.0607 22.4963 12.0062C22.5014 11.9518 22.4955 11.8969 22.479 11.8448C22.4663 11.7911 22.4508 11.738 22.4326 11.6859C22.4143 11.6337 22.3925 11.5828 22.3675 11.5336C22.3477 11.4829 22.318 11.4366 22.2801 11.3976C22.2422 11.3585 22.1968 11.3275 22.1467 11.3062C22.0389 11.2731 21.9232 11.2757 21.817 11.3137C21.7108 11.3517 21.6197 11.423 21.5573 11.517C21.5315 11.5652 21.5157 11.618 21.5108 11.6725C21.5059 11.7269 21.5119 11.7817 21.5286 11.8338C21.5403 11.8874 21.5558 11.9402 21.575 11.9916C21.5922 12.0438 21.6133 12.0948 21.6379 12.1439H21.639Z" fill="#FF6B35"/>
<path d="M24.54 11.0296C24.5459 11.0456 24.5485 11.0627 24.5476 11.0798C24.5466 11.0969 24.5421 11.1136 24.5345 11.1289C24.5273 11.1446 24.5171 11.1586 24.5044 11.1702C24.4917 11.1817 24.4768 11.1906 24.4605 11.1962L23.8844 11.4015C23.8517 11.4129 23.8159 11.4109 23.7847 11.396C23.7535 11.3811 23.7294 11.3546 23.7177 11.3221L23.0157 9.35298C23.0026 9.32117 23.0026 9.28546 23.0157 9.25364C23.0304 9.22198 23.057 9.19739 23.0897 9.18521L23.6658 8.98102C23.6815 8.97421 23.6984 8.9707 23.7155 8.9707C23.7326 8.9707 23.7495 8.97421 23.7651 8.98102C23.781 8.9878 23.7952 8.99791 23.8069 9.01067C23.8185 9.02343 23.8272 9.03854 23.8325 9.05497L24.54 11.0296ZM24.8899 12.0119C24.8958 12.028 24.8984 12.0451 24.8974 12.0621C24.8965 12.0792 24.892 12.0959 24.8844 12.1112C24.8697 12.1429 24.8431 12.1675 24.8104 12.1797L24.2342 12.3839C24.2016 12.3952 24.1658 12.3932 24.1346 12.3784C24.1034 12.3635 24.0793 12.3369 24.0676 12.3044L23.9031 11.843C23.8972 11.827 23.8946 11.8099 23.8955 11.7928C23.8965 11.7757 23.9009 11.759 23.9086 11.7437C23.9154 11.7278 23.9255 11.7136 23.9383 11.702C23.951 11.6904 23.9662 11.6816 23.9826 11.6764L24.5576 11.4711C24.5739 11.4651 24.5912 11.4625 24.6084 11.4635C24.6257 11.4644 24.6426 11.4689 24.6581 11.4766C24.6738 11.4835 24.688 11.4937 24.6996 11.5064C24.7112 11.5192 24.72 11.5342 24.7254 11.5505L24.8899 12.0119Z" fill="#FF6B35"/>
<path d="M9.85112 19.952L9.26282 18.4432L9.73633 17.0757V16.2379L8.28711 17.0757V17.9123L8.90962 19.3946C8.91999 19.4111 8.93496 19.4241 8.95267 19.4322L9.85112 19.952Z" fill="#FF6B35"/>
<path opacity="0.2" d="M9.85112 19.952L9.26282 18.4432L9.73633 17.0757V16.2379L8.28711 17.0757V17.9123L8.90962 19.3946C8.91999 19.4111 8.93496 19.4241 8.95267 19.4322L9.85112 19.952Z" fill="black"/>
<path d="M12.6155 11.0492C12.607 10.8984 12.5633 10.7517 12.4877 10.6209C12.4122 10.4902 12.307 10.379 12.1806 10.2964L11.8263 10.0922C11.6916 10.0242 11.5428 9.98877 11.392 9.98877C11.2411 9.98877 11.0923 10.0242 10.9576 10.0922L6.49627 12.6573C6.36943 12.7404 6.26403 12.8523 6.18865 12.9839C6.11326 13.1155 6.07004 13.263 6.0625 13.4145V18.3361C6.07055 18.487 6.11402 18.6338 6.18938 18.7648C6.26473 18.8958 6.36987 19.0071 6.49627 19.0899L6.85058 19.2941C6.98545 19.3621 7.1344 19.3976 7.28546 19.3976C7.43651 19.3976 7.58546 19.3621 7.72033 19.2941L9.19605 18.4453L9.81856 19.9244C9.82742 19.9397 9.84049 19.9522 9.85624 19.9604C9.87198 19.9685 9.88974 19.972 9.9074 19.9704C9.92506 19.9688 9.94188 19.9621 9.95587 19.9512C9.96986 19.9403 9.98043 19.9256 9.98633 19.9089L10.6486 17.6087L12.185 16.7257C12.3117 16.6432 12.4172 16.5319 12.4928 16.4009C12.5683 16.2699 12.6119 16.1229 12.6199 15.9719L12.6155 11.0492Z" fill="#FF6B35"/>
<path opacity="0.2" d="M6.0625 18.3309C6.07055 18.4818 6.11402 18.6287 6.18938 18.7596C6.26473 18.8906 6.36987 19.002 6.49627 19.0848L6.85058 19.289C6.97312 19.3504 7.10729 19.3853 7.24426 19.3912C7.38124 19.3971 7.5179 19.3739 7.64528 19.3232C7.44108 19.4016 7.28546 19.2857 7.28546 19.0373V14.1157C7.29085 13.9645 7.33452 13.8172 7.41239 13.6875L6.18943 12.9811C6.11085 13.1121 6.06715 13.261 6.0625 13.4137V18.3309Z" fill="black"/>
<path opacity="0.5" d="M12.6 10.9257C12.5493 10.7413 12.3793 10.6828 12.1806 10.7987L7.71925 13.3649C7.59032 13.4439 7.48448 13.5554 7.41241 13.6883L6.18945 12.983C6.26224 12.8504 6.3679 12.7386 6.4963 12.6585L10.9554 10.0923C11.0903 10.0243 11.2393 9.98889 11.3903 9.98889C11.5414 9.98889 11.6903 10.0243 11.8252 10.0923L12.1806 10.2976C12.2893 10.3685 12.3826 10.4607 12.4547 10.5687C12.5267 10.6766 12.5762 10.7981 12.6 10.9257Z" fill="white"/>
<path d="M8.08789 15.5014C8.09213 15.1472 8.16719 14.7975 8.30864 14.4727V14.4661C8.46979 14.0952 8.70599 13.784 8.97089 13.6339C9.35279 13.4131 9.67729 13.7751 9.79981 14.2796C9.81195 14.3303 9.87155 14.3325 9.88038 14.2796C9.99076 13.6173 10.3296 12.8447 10.7214 12.6239C10.983 12.4738 11.2181 12.5136 11.3837 12.699C11.5217 12.8601 11.6044 13.1261 11.6044 13.4716C11.6044 14.5456 10.9565 15.5091 10.4146 16.5235L9.82961 17.5036L9.27773 17.1791C8.73138 16.7972 8.08679 16.5742 8.08789 15.5014Z" fill="#FAFAFA"/>
<path d="M10.6451 15.1496L10.3946 14.494C10.3884 14.4732 10.3756 14.455 10.358 14.4423C10.3405 14.4296 10.3192 14.423 10.2976 14.4237C10.2759 14.4243 10.255 14.4321 10.2382 14.4458C10.2215 14.4595 10.2097 14.4784 10.2048 14.4995L9.81844 16.0028L9.51049 15.1606C9.50321 15.1415 9.49018 15.125 9.47318 15.1136C9.45619 15.1021 9.43606 15.0962 9.41557 15.0966C9.39479 15.0973 9.37479 15.1046 9.35849 15.1176C9.3422 15.1305 9.33048 15.1483 9.32506 15.1683L9.09659 15.9818L8.30078 16.441L8.31954 16.4686C8.34579 16.5069 8.37416 16.5438 8.40453 16.5789L8.42109 16.5988L9.22904 16.1319C9.24003 16.1257 9.24962 16.1173 9.25722 16.1073C9.26481 16.0972 9.27025 16.0857 9.27319 16.0734L9.43213 15.5138L9.75111 16.3869C9.75827 16.4068 9.77174 16.4238 9.78948 16.4354C9.80721 16.4469 9.82823 16.4524 9.84934 16.4509C9.87046 16.4495 9.89057 16.4414 9.90668 16.4277C9.92279 16.4139 9.93404 16.3954 9.93875 16.3747L10.3118 14.931L10.4906 15.3251C10.4944 15.3394 10.5015 15.3526 10.5113 15.3637C10.521 15.3748 10.5332 15.3835 10.5469 15.3891C10.5604 15.3959 10.5754 15.3994 10.5905 15.3994C10.6057 15.3994 10.6206 15.3959 10.6341 15.3891L11.2699 15.0216V15.0127C11.3008 14.9443 11.3306 14.8748 11.3582 14.8063L11.3913 14.7235L10.6451 15.1496Z" fill="#FF6B35"/>
</svg>
