<svg width="17" height="20" viewBox="0 0 17 20" fill="none" xmlns="http://www.w3.org/2000/svg">
<path d="M3.79816 1.36369C3.50837 1.36369 3.22142 1.43297 2.9537 1.56758C2.68598 1.70219 2.44273 1.89949 2.23784 2.14821C2.03295 2.39693 1.87045 2.6922 1.7596 3.01715C1.64875 3.3421 1.59173 3.69038 1.5918 4.04208V19.9997H6.00504V4.04208C6.00504 3.33172 5.77253 2.65047 5.35866 2.14817C4.94479 1.64588 4.38346 1.36369 3.79816 1.36369Z" fill="#407BFF"/>
<path opacity="0.7" d="M3.79816 1.36369C3.50837 1.36369 3.22142 1.43297 2.9537 1.56758C2.68598 1.70219 2.44273 1.89949 2.23784 2.14821C2.03295 2.39693 1.87045 2.6922 1.7596 3.01715C1.64875 3.3421 1.59173 3.69038 1.5918 4.04208V19.9997H6.00504V4.04208C6.00504 3.33172 5.77253 2.65047 5.35866 2.14817C4.94479 1.64588 4.38346 1.36369 3.79816 1.36369Z" fill="#FAFAFA"/>
<path d="M3.90625 4.24899C3.90617 4.19078 3.91731 4.13335 3.9388 4.08131C3.96029 4.02926 3.99152 3.98405 4.03 3.94929C4.06847 3.91453 4.11312 3.89119 4.16036 3.88114C4.2076 3.87109 4.25613 3.8746 4.30205 3.8914C4.29742 3.85348 4.29516 3.81519 4.29527 3.77685C4.29543 3.66076 4.31662 3.54614 4.35734 3.44109C4.39806 3.33605 4.45731 3.24316 4.5309 3.169C4.6045 3.09485 4.69062 3.04124 4.78319 3.01197C4.87575 2.98271 4.97248 2.97851 5.06653 2.99966C5.13072 2.87151 5.22752 2.77218 5.34231 2.71666C5.45711 2.66114 5.58367 2.65244 5.70289 2.69189C5.82211 2.73133 5.92753 2.81677 6.00322 2.93531C6.07892 3.05385 6.12079 3.19906 6.12252 3.34902H6.13191C6.26825 3.35424 6.39756 3.42363 6.49248 3.54253C6.58741 3.66142 6.64049 3.82047 6.64049 3.98602C6.64049 4.15157 6.58741 4.31063 6.49248 4.42952C6.39756 4.54841 6.26825 4.61781 6.13191 4.62302H4.20245C4.12272 4.61957 4.04723 4.57861 3.99195 4.5088C3.93666 4.43899 3.90593 4.34581 3.90625 4.24899Z" fill="#407BFF"/>
<path opacity="0.5" d="M3.90625 4.24899C3.90617 4.19078 3.91731 4.13335 3.9388 4.08131C3.96029 4.02926 3.99152 3.98405 4.03 3.94929C4.06847 3.91453 4.11312 3.89119 4.16036 3.88114C4.2076 3.87109 4.25613 3.8746 4.30205 3.8914C4.29742 3.85348 4.29516 3.81519 4.29527 3.77685C4.29543 3.66076 4.31662 3.54614 4.35734 3.44109C4.39806 3.33605 4.45731 3.24316 4.5309 3.169C4.6045 3.09485 4.69062 3.04124 4.78319 3.01197C4.87575 2.98271 4.97248 2.97851 5.06653 2.99966C5.13072 2.87151 5.22752 2.77218 5.34231 2.71666C5.45711 2.66114 5.58367 2.65244 5.70289 2.69189C5.82211 2.73133 5.92753 2.81677 6.00322 2.93531C6.07892 3.05385 6.12079 3.19906 6.12252 3.34902H6.13191C6.26825 3.35424 6.39756 3.42363 6.49248 3.54253C6.58741 3.66142 6.64049 3.82047 6.64049 3.98602C6.64049 4.15157 6.58741 4.31063 6.49248 4.42952C6.39756 4.54841 6.26825 4.61781 6.13191 4.62302H4.20245C4.12272 4.61957 4.04723 4.57861 3.99195 4.5088C3.93666 4.43899 3.90593 4.34581 3.90625 4.24899Z" fill="#FAFAFA"/>
<path d="M1.77344 8.22403C1.77358 8.16942 1.79155 8.1171 1.82341 8.07855C1.85528 8.03999 1.89844 8.01834 1.94344 8.01834C1.95988 8.01835 1.97622 8.02134 1.99194 8.0272C1.98966 8.00621 1.98845 7.98508 1.98829 7.96391C1.98829 7.8482 2.02612 7.73722 2.09349 7.65535C2.16086 7.57347 2.25224 7.52739 2.34758 7.52722C2.3698 7.52746 2.39195 7.53 2.41381 7.53481C2.44854 7.46323 2.50166 7.40745 2.56501 7.37601C2.62837 7.34457 2.69847 7.33922 2.76458 7.36076C2.83068 7.38231 2.88914 7.42957 2.93099 7.4953C2.97285 7.56104 2.99579 7.64161 2.9963 7.72468H3.00151C3.07621 7.72853 3.1468 7.76725 3.19854 7.83276C3.25027 7.89827 3.27916 7.98551 3.27916 8.07625C3.27916 8.16699 3.25027 8.25423 3.19854 8.31974C3.1468 8.38525 3.07621 8.42397 3.00151 8.42782H1.93875C1.89479 8.42651 1.85298 8.40452 1.82214 8.36649C1.79129 8.32847 1.77383 8.27739 1.77344 8.22403Z" fill="#407BFF"/>
<path opacity="0.5" d="M1.77344 8.22403C1.77358 8.16942 1.79155 8.1171 1.82341 8.07855C1.85528 8.03999 1.89844 8.01834 1.94344 8.01834C1.95988 8.01835 1.97622 8.02134 1.99194 8.0272C1.98966 8.00621 1.98845 7.98508 1.98829 7.96391C1.98829 7.8482 2.02612 7.73722 2.09349 7.65535C2.16086 7.57347 2.25224 7.52739 2.34758 7.52722C2.3698 7.52746 2.39195 7.53 2.41381 7.53481C2.44854 7.46323 2.50166 7.40745 2.56501 7.37601C2.62837 7.34457 2.69847 7.33922 2.76458 7.36076C2.83068 7.38231 2.88914 7.42957 2.93099 7.4953C2.97285 7.56104 2.99579 7.64161 2.9963 7.72468H3.00151C3.07621 7.72853 3.1468 7.76725 3.19854 7.83276C3.25027 7.89827 3.27916 7.98551 3.27916 8.07625C3.27916 8.16699 3.25027 8.25423 3.19854 8.31974C3.1468 8.38525 3.07621 8.42397 3.00151 8.42782H1.93875C1.89479 8.42651 1.85298 8.40452 1.82214 8.36649C1.79129 8.32847 1.77383 8.27739 1.77344 8.22403Z" fill="#FAFAFA"/>
<path d="M2.24414 1.74577C2.24414 1.67141 2.26848 1.6001 2.31181 1.54752C2.35513 1.49494 2.41389 1.4654 2.47516 1.4654C2.49761 1.46523 2.51995 1.46928 2.54138 1.47743C2.53781 1.44894 2.53607 1.42017 2.53617 1.39135C2.53617 1.23391 2.5877 1.08291 2.67944 0.97158C2.77117 0.860249 2.89558 0.797704 3.02531 0.797704C3.05558 0.79754 3.0858 0.800932 3.11553 0.80783C3.16378 0.711799 3.23643 0.637391 3.32254 0.595812C3.40865 0.554233 3.50357 0.547734 3.59299 0.577293C3.68241 0.606851 3.76149 0.670868 3.81834 0.759703C3.87518 0.848538 3.90671 0.957382 3.90817 1.06985H3.91495C3.96672 1.06985 4.01798 1.08222 4.06582 1.10627C4.11365 1.13031 4.15711 1.16556 4.19371 1.20999C4.23032 1.25441 4.25936 1.30716 4.27917 1.36521C4.29899 1.42326 4.30918 1.48548 4.30918 1.54831C4.30918 1.61114 4.29899 1.67336 4.27917 1.73141C4.25936 1.78946 4.23032 1.84221 4.19371 1.88664C4.15711 1.93107 4.11365 1.96631 4.06582 1.99035C4.01798 2.0144 3.96672 2.02678 3.91495 2.02678H2.46838C2.40816 2.02479 2.35097 1.99427 2.30906 1.94175C2.26715 1.88923 2.24385 1.81888 2.24414 1.74577Z" fill="#407BFF"/>
<path opacity="0.5" d="M2.24414 1.74577C2.24414 1.67141 2.26848 1.6001 2.31181 1.54752C2.35513 1.49494 2.41389 1.4654 2.47516 1.4654C2.49761 1.46523 2.51995 1.46928 2.54138 1.47743C2.53781 1.44894 2.53607 1.42017 2.53617 1.39135C2.53617 1.23391 2.5877 1.08291 2.67944 0.97158C2.77117 0.860249 2.89558 0.797704 3.02531 0.797704C3.05558 0.79754 3.0858 0.800932 3.11553 0.80783C3.16378 0.711799 3.23643 0.637391 3.32254 0.595812C3.40865 0.554233 3.50357 0.547734 3.59299 0.577293C3.68241 0.606851 3.76149 0.670868 3.81834 0.759703C3.87518 0.848538 3.90671 0.957382 3.90817 1.06985H3.91495C3.96672 1.06985 4.01798 1.08222 4.06582 1.10627C4.11365 1.13031 4.15711 1.16556 4.19371 1.20999C4.23032 1.25441 4.25936 1.30716 4.27917 1.36521C4.29899 1.42326 4.30918 1.48548 4.30918 1.54831C4.30918 1.61114 4.29899 1.67336 4.27917 1.73141C4.25936 1.78946 4.23032 1.84221 4.19371 1.88664C4.15711 1.93107 4.11365 1.96631 4.06582 1.99035C4.01798 2.0144 3.96672 2.02678 3.91495 2.02678H2.46838C2.40816 2.02479 2.35097 1.99427 2.30906 1.94175C2.26715 1.88923 2.24385 1.81888 2.24414 1.74577Z" fill="#FAFAFA"/>
<path d="M0.455082 11.2522C0.455013 11.2252 0.459349 11.1984 0.467842 11.1734C0.476335 11.1484 0.488816 11.1257 0.504567 11.1066C0.520319 11.0874 0.539029 11.0723 0.559622 11.062C0.580216 11.0517 0.602285 11.0464 0.624561 11.0465C0.640959 11.0466 0.657273 11.0493 0.673058 11.0547C0.670764 11.0337 0.669545 11.0126 0.669408 10.9914C0.669408 10.8757 0.707245 10.7648 0.774611 10.6829C0.841978 10.601 0.933365 10.5549 1.0287 10.5547C1.05092 10.555 1.07307 10.5575 1.09493 10.5623C1.12978 10.4905 1.18312 10.4346 1.24674 10.4033C1.31035 10.3719 1.38071 10.3668 1.44695 10.3887C1.51319 10.4107 1.57165 10.4585 1.6133 10.5247C1.65494 10.591 1.67748 10.672 1.67742 10.7554H1.68263C1.75733 10.7592 1.82792 10.7979 1.87966 10.8635C1.9314 10.929 1.96028 11.0162 1.96028 11.1069C1.96028 11.1977 1.9314 11.2849 1.87966 11.3504C1.82792 11.4159 1.75733 11.4547 1.68263 11.4585H0.619867C0.575603 11.4572 0.533536 11.4348 0.502718 11.3962C0.4719 11.3577 0.454795 11.3059 0.455082 11.2522Z" fill="#407BFF"/>
<path opacity="0.5" d="M0.455082 11.2522C0.455013 11.2252 0.459349 11.1984 0.467842 11.1734C0.476335 11.1484 0.488816 11.1257 0.504567 11.1066C0.520319 11.0874 0.539029 11.0723 0.559622 11.062C0.580216 11.0517 0.602285 11.0464 0.624561 11.0465C0.640959 11.0466 0.657273 11.0493 0.673058 11.0547C0.670764 11.0337 0.669545 11.0126 0.669408 10.9914C0.669408 10.8757 0.707245 10.7648 0.774611 10.6829C0.841978 10.601 0.933365 10.5549 1.0287 10.5547C1.05092 10.555 1.07307 10.5575 1.09493 10.5623C1.12978 10.4905 1.18312 10.4346 1.24674 10.4033C1.31035 10.3719 1.38071 10.3668 1.44695 10.3887C1.51319 10.4107 1.57165 10.4585 1.6133 10.5247C1.65494 10.591 1.67748 10.672 1.67742 10.7554H1.68263C1.75733 10.7592 1.82792 10.7979 1.87966 10.8635C1.9314 10.929 1.96028 11.0162 1.96028 11.1069C1.96028 11.1977 1.9314 11.2849 1.87966 11.3504C1.82792 11.4159 1.75733 11.4547 1.68263 11.4585H0.619867C0.575603 11.4572 0.533536 11.4348 0.502718 11.3962C0.4719 11.3577 0.454795 11.3059 0.455082 11.2522Z" fill="#FAFAFA"/>
<path d="M7.42846e-07 4.17627C0.000138873 4.0891 0.028769 4.00555 0.0796077 3.94397C0.130446 3.88239 0.19934 3.8478 0.271167 3.8478C0.29748 3.84795 0.323642 3.85264 0.348867 3.86173C0.34467 3.82843 0.342579 3.79478 0.34261 3.7611C0.34261 3.57646 0.403045 3.39938 0.51062 3.26882C0.618195 3.13827 0.764098 3.06492 0.916232 3.06492C0.951222 3.06515 0.986126 3.06918 1.02053 3.07694C1.07703 2.96418 1.16222 2.87678 1.26325 2.82794C1.36427 2.77909 1.47565 2.77146 1.58056 2.80619C1.68548 2.84091 1.77824 2.91612 1.84484 3.02044C1.91145 3.12477 1.94829 3.25256 1.94979 3.38453H1.95814C2.08068 3.38453 2.19819 3.44361 2.28484 3.54876C2.37149 3.65392 2.42016 3.79655 2.42016 3.94527C2.42016 4.09399 2.37149 4.23661 2.28484 4.34177C2.19819 4.44693 2.08068 4.50601 1.95814 4.50601H0.263345C0.192701 4.50353 0.125645 4.46768 0.0764563 4.4061C0.027268 4.34451 -0.000164572 4.26204 7.42846e-07 4.17627Z" fill="#407BFF"/>
<path opacity="0.5" d="M7.42846e-07 4.17627C0.000138873 4.0891 0.028769 4.00555 0.0796077 3.94397C0.130446 3.88239 0.19934 3.8478 0.271167 3.8478C0.29748 3.84795 0.323642 3.85264 0.348867 3.86173C0.34467 3.82843 0.342579 3.79478 0.34261 3.7611C0.34261 3.57646 0.403045 3.39938 0.51062 3.26882C0.618195 3.13827 0.764098 3.06492 0.916232 3.06492C0.951222 3.06515 0.986126 3.06918 1.02053 3.07694C1.07703 2.96418 1.16222 2.87678 1.26325 2.82794C1.36427 2.77909 1.47565 2.77146 1.58056 2.80619C1.68548 2.84091 1.77824 2.91612 1.84484 3.02044C1.91145 3.12477 1.94829 3.25256 1.94979 3.38453H1.95814C2.08068 3.38453 2.19819 3.44361 2.28484 3.54876C2.37149 3.65392 2.42016 3.79655 2.42016 3.94527C2.42016 4.09399 2.37149 4.23661 2.28484 4.34177C2.19819 4.44693 2.08068 4.50601 1.95814 4.50601H0.263345C0.192701 4.50353 0.125645 4.46768 0.0764563 4.4061C0.027268 4.34451 -0.000164572 4.26204 7.42846e-07 4.17627Z" fill="#FAFAFA"/>
<path d="M2.49424 6.47246L3.00164 19.9998H0.927734L1.4685 6.47246H2.49424Z" fill="#263238"/>
<path opacity="0.8" d="M2.49424 6.47246L3.00164 19.9998H0.927734L1.4685 6.47246H2.49424Z" fill="#FAFAFA"/>
<path opacity="0.3" d="M1.21094 19.9725L1.58223 11.5089L1.68652 13.6487L1.98168 7.77108L2.35505 13.0247V9.38115L2.71904 19.9998L1.21094 19.9725Z" fill="#FAFAFA"/>
<path d="M0.0736941 19.9997C-0.0754477 19.7029 0.17121 19.4605 0.307836 19.6263C0.307836 19.6263 0.142007 19.2466 0.513297 19.0358C0.884587 18.8251 1.07753 19.1852 1.07753 19.3523C1.07753 19.3523 1.15993 18.9453 1.57241 19.0358C1.9849 19.1263 1.96925 19.6858 1.96925 19.6858C1.96925 19.6858 2.10797 19.2637 2.54913 19.42C2.54913 19.42 2.5215 18.9681 2.85159 18.9706C3.18168 18.9732 3.22288 19.2738 3.22288 19.2738C3.22288 19.2738 3.34647 19.0789 3.55297 19.3099C3.75948 19.5409 3.62024 19.7345 3.62024 19.7345C3.62024 19.7345 3.91853 19.6902 3.9008 19.9997H0.0736941Z" fill="#263238"/>
<path opacity="0.6" d="M0.0736941 19.9997C-0.0754477 19.7029 0.17121 19.4605 0.307836 19.6263C0.307836 19.6263 0.142007 19.2466 0.513297 19.0358C0.884587 18.8251 1.07753 19.1852 1.07753 19.3523C1.07753 19.3523 1.15993 18.9453 1.57241 19.0358C1.9849 19.1263 1.96925 19.6858 1.96925 19.6858C1.96925 19.6858 2.10797 19.2637 2.54913 19.42C2.54913 19.42 2.5215 18.9681 2.85159 18.9706C3.18168 18.9732 3.22288 19.2738 3.22288 19.2738C3.22288 19.2738 3.34647 19.0789 3.55297 19.3099C3.75948 19.5409 3.62024 19.7345 3.62024 19.7345C3.62024 19.7345 3.91853 19.6902 3.9008 19.9997H0.0736941Z" fill="#FAFAFA"/>
<path opacity="0.4" d="M0.544111 19.9999C0.544111 19.9999 0.430429 19.7467 0.657271 19.5493C0.884112 19.3518 1.13181 19.6303 1.13181 19.6303C1.13181 19.6303 1.17301 19.3562 1.43114 19.4164C1.68927 19.4765 1.68718 19.8182 1.68718 19.8182C1.68718 19.8182 1.95731 19.641 2.18415 19.8967C2.18415 19.8967 2.21492 19.6531 2.40056 19.5898C2.58621 19.5265 2.72283 19.7429 2.72283 19.7429C2.72274 19.6557 2.74938 19.5716 2.79757 19.5069C2.84576 19.4422 2.91206 19.4016 2.98357 19.3929C3.24691 19.3512 3.32931 19.6885 3.28811 19.7828C3.28811 19.7828 3.46385 19.7974 3.46385 19.9999H0.544111Z" fill="#FAFAFA"/>
<path d="M2.32413 5.27634C2.32413 5.27634 2.72619 5.89341 2.71628 6.35668C2.70638 6.81996 2.55984 6.96236 2.55984 6.96236L2.5807 6.663C2.5807 6.663 2.49466 7.21741 2.1145 7.54905L1.97735 7.24399C1.97735 7.24399 1.93094 7.58196 1.97735 7.76929C1.97735 7.76929 1.49082 7.4288 1.44754 6.96046L1.39539 7.15792C1.39539 7.15792 1.17845 6.7149 1.22017 6.29213C1.26189 5.86936 1.59198 5.32824 1.59198 5.32824L2.32413 5.27634Z" fill="#407BFF"/>
<path opacity="0.2" d="M2.32413 5.27634C2.32413 5.27634 2.72619 5.89341 2.71628 6.35668C2.70638 6.81996 2.55984 6.96236 2.55984 6.96236L2.5807 6.663C2.5807 6.663 2.49466 7.21741 2.1145 7.54905L1.97735 7.24399C1.97735 7.24399 1.93094 7.58196 1.97735 7.76929C1.97735 7.76929 1.49082 7.4288 1.44754 6.96046L1.39539 7.15792C1.39539 7.15792 1.17845 6.7149 1.22017 6.29213C1.26189 5.86936 1.59198 5.32824 1.59198 5.32824L2.32413 5.27634Z" fill="#FAFAFA"/>
<path opacity="0.2" d="M2.36158 5.54321C2.43803 5.73386 2.49377 5.93575 2.52741 6.14382C2.54815 6.30478 2.51857 6.46933 2.44449 6.60519L2.4471 6.27736C2.41501 6.52958 2.33108 6.76792 2.20305 6.97037L2.01063 6.60519C2.01063 6.60519 1.86618 6.91151 1.87296 7.1115C1.80013 7.02665 1.74558 6.92139 1.71412 6.80497C1.68266 6.68854 1.67525 6.56452 1.69253 6.44381C1.69253 6.44381 1.59814 6.56026 1.59136 6.65203C1.59136 6.65203 1.25397 6.30204 1.59136 5.54257L2.36158 5.54321Z" fill="#FAFAFA"/>
<path d="M1.42578 5.09267H2.50471V5.37811C2.50471 5.39976 2.49762 5.42053 2.48501 5.43584C2.47239 5.45115 2.45528 5.45975 2.43744 5.45975H1.49357C1.47573 5.45975 1.45862 5.45115 1.44601 5.43584C1.43339 5.42053 1.4263 5.39976 1.4263 5.37811V5.09267H1.42578Z" fill="#407BFF"/>
<path opacity="0.5" d="M1.42578 5.09267H2.50471V5.37811C2.50471 5.39976 2.49762 5.42053 2.48501 5.43584C2.47239 5.45115 2.45528 5.45975 2.43744 5.45975H1.49357C1.47573 5.45975 1.45862 5.45115 1.44601 5.43584C1.43339 5.42053 1.4263 5.39976 1.4263 5.37811V5.09267H1.42578Z" fill="#FAFAFA"/>
<path d="M2.5138 5.09286H1.41557C1.41557 5.09286 1.0302 2.58915 1.19551 1.54868C1.2618 1.16136 1.39707 0.796306 1.59183 0.479097C1.66897 0.3501 1.7533 0.227666 1.84422 0.112654C1.86978 0.0803771 1.89637 0.0493656 1.91671 0.0246829C1.92956 0.00952749 1.94677 0.00104904 1.96468 0.00104904C1.9826 0.00104904 1.99981 0.00952749 2.01266 0.0246829C2.03508 0.0512643 2.05907 0.0803771 2.08462 0.112654C2.17555 0.227666 2.25988 0.3501 2.33702 0.479097C2.53195 0.796261 2.66739 1.16131 2.73386 1.54868C2.89865 2.58915 2.5138 5.09286 2.5138 5.09286Z" fill="#407BFF"/>
<path opacity="0.6" d="M1.96484 2.7716C2.25717 2.7716 2.49414 2.484 2.49414 2.12922C2.49414 1.77444 2.25717 1.48684 1.96484 1.48684C1.67252 1.48684 1.43555 1.77444 1.43555 2.12922C1.43555 2.484 1.67252 2.7716 1.96484 2.7716Z" fill="#FAFAFA"/>
<path d="M1.96454 2.59865C2.17795 2.59865 2.35095 2.38869 2.35095 2.12968C2.35095 1.87068 2.17795 1.66071 1.96454 1.66071C1.75113 1.66071 1.57812 1.87068 1.57812 2.12968C1.57812 2.38869 1.75113 2.59865 1.96454 2.59865Z" fill="#263238"/>
<path d="M2.65839 3.96863C2.65839 3.96863 3.29824 4.17875 3.4406 4.74202C3.54072 5.13378 3.45676 5.62806 3.39627 5.89135C3.39352 5.9051 3.38722 5.91743 3.37829 5.92654C3.36935 5.93565 3.35826 5.94106 3.34662 5.94197C3.33498 5.94289 3.3234 5.93927 3.31357 5.93165C3.30374 5.92402 3.29618 5.91278 3.29198 5.89957C3.19394 5.6249 2.95667 5.12871 2.50977 5.09264C2.5144 4.91037 2.52659 4.7285 2.54627 4.54772C2.58903 4.14141 2.65839 3.96863 2.65839 3.96863Z" fill="#263238"/>
<path d="M1.2703 3.96863C1.2703 3.96863 0.630973 4.17875 0.488089 4.74202C0.387445 5.13378 0.471924 5.62806 0.532415 5.89135C0.535168 5.9051 0.54147 5.91743 0.550402 5.92654C0.559334 5.93565 0.57043 5.94106 0.582071 5.94197C0.593712 5.94289 0.605291 5.93927 0.615119 5.93165C0.624948 5.92402 0.632512 5.91278 0.636709 5.89957C0.734225 5.6249 0.971497 5.12871 1.41892 5.09264C1.41428 4.91037 1.4021 4.7285 1.38242 4.54772C1.33966 4.14141 1.2703 3.96863 1.2703 3.96863Z" fill="#263238"/>
<path d="M1.96527 3.96863C2.00178 3.96863 2.0368 3.98623 2.06262 4.01757C2.08844 4.0489 2.10294 4.0914 2.10294 4.13571V5.79135C2.10294 5.83063 2.09009 5.8683 2.0672 5.89607C2.04432 5.92384 2.01328 5.93944 1.98092 5.93944H1.95015C1.91779 5.93944 1.88675 5.92384 1.86386 5.89607C1.84098 5.8683 1.82812 5.83063 1.82812 5.79135V4.13571C1.82812 4.0914 1.84263 4.0489 1.86845 4.01757C1.89426 3.98623 1.92928 3.96863 1.96579 3.96863H1.96527Z" fill="#263238"/>
<path d="M2.33803 0.478245H1.5918C1.66894 0.349248 1.75327 0.226814 1.84419 0.111803C1.87026 0.0795256 1.89634 0.0485136 1.9172 0.0238309C1.92989 0.00856466 1.94704 0 1.96491 0C1.98278 0 1.99993 0.00856466 2.01263 0.0238309C2.03505 0.0504122 2.05956 0.0795256 2.08459 0.111803C2.17587 0.226773 2.26055 0.349208 2.33803 0.478245Z" fill="#263238"/>
<g opacity="0.2">
<path d="M5.97668 5.0294H4.50195V5.15598H5.97668V5.0294Z" fill="black"/>
<path d="M5.97657 5.40829H5.23242V5.53486H5.97657V5.40829Z" fill="black"/>
<path d="M5.97657 5.78612H5.23242V5.9127H5.97657V5.78612Z" fill="black"/>
<path d="M5.97657 6.1643H5.23242V6.29088H5.97657V6.1643Z" fill="black"/>
<path d="M5.97668 6.54248H4.50195V6.66906H5.97668V6.54248Z" fill="black"/>
<path d="M5.97657 6.92066H5.23242V7.04724H5.97657V6.92066Z" fill="black"/>
<path d="M5.97657 7.29919H5.23242V7.42577H5.97657V7.29919Z" fill="black"/>
<path d="M5.97657 7.67737H5.23242V7.80395H5.97657V7.67737Z" fill="black"/>
<path d="M5.97668 8.05555H4.50195V8.18213H5.97668V8.05555Z" fill="black"/>
<path d="M5.97657 8.43373H5.23242V8.56031H5.97657V8.43373Z" fill="black"/>
<path d="M5.97657 8.81192H5.23242V8.93849H5.97657V8.81192Z" fill="black"/>
<path d="M5.97657 9.19009H5.23242V9.31667H5.97657V9.19009Z" fill="black"/>
<path d="M5.97668 9.56863H4.50195V9.6952H5.97668V9.56863Z" fill="black"/>
<path d="M5.97657 9.94681H5.23242V10.0734H5.97657V9.94681Z" fill="black"/>
<path d="M5.97657 10.325H5.23242V10.4516H5.97657V10.325Z" fill="black"/>
<path d="M5.97657 10.7032H5.23242V10.8297H5.97657V10.7032Z" fill="black"/>
<path d="M5.97668 11.0821H4.50195V11.2086H5.97668V11.0821Z" fill="black"/>
<path d="M5.97657 11.4599H5.23242V11.5865H5.97657V11.4599Z" fill="black"/>
<path d="M5.97657 11.8381H5.23242V11.9646H5.97657V11.8381Z" fill="black"/>
<path d="M5.97657 12.2162H5.23242V12.3428H5.97657V12.2162Z" fill="black"/>
<path d="M5.97668 12.5944H4.50195V12.721H5.97668V12.5944Z" fill="black"/>
<path d="M5.97657 12.973H5.23242V13.0995H5.97657V12.973Z" fill="black"/>
<path d="M5.97657 13.3515H5.23242V13.4781H5.97657V13.3515Z" fill="black"/>
<path d="M5.97657 13.7293H5.23242V13.8559H5.97657V13.7293Z" fill="black"/>
<path d="M5.97668 14.1075H4.50195V14.2341H5.97668V14.1075Z" fill="black"/>
<path d="M5.97657 14.4864H5.23242V14.613H5.97657V14.4864Z" fill="black"/>
<path d="M5.97657 14.8642H5.23242V14.9908H5.97657V14.8642Z" fill="black"/>
<path d="M5.97657 15.2424H5.23242V15.369H5.97657V15.2424Z" fill="black"/>
<path d="M5.97668 15.6206H4.50195V15.7471H5.97668V15.6206Z" fill="black"/>
<path d="M5.97657 15.9988H5.23242V16.1253H5.97657V15.9988Z" fill="black"/>
<path d="M5.97657 16.3773H5.23242V16.5039H5.97657V16.3773Z" fill="black"/>
<path d="M5.97657 16.7558H5.23242V16.8824H5.97657V16.7558Z" fill="black"/>
<path d="M5.97668 17.1336H4.50195V17.2602H5.97668V17.1336Z" fill="black"/>
<path d="M5.97657 17.5118H5.23242V17.6384H5.97657V17.5118Z" fill="black"/>
<path d="M5.97657 17.8907H5.23242V18.0173H5.97657V17.8907Z" fill="black"/>
<path d="M5.97657 18.2682H5.23242V18.3948H5.97657V18.2682Z" fill="black"/>
<path d="M5.97668 18.6467H4.50195V18.7733H5.97668V18.6467Z" fill="black"/>
<path d="M5.97657 19.0252H5.23242V19.1518H5.97657V19.0252Z" fill="black"/>
<path d="M5.97657 19.4031H5.23242V19.5297H5.97657V19.4031Z" fill="black"/>
<path d="M5.97657 19.7816H5.23242V19.9082H5.97657V19.7816Z" fill="black"/>
</g>
<path d="M5.71081 13.633C5.86726 14.0374 6.0237 14.4444 6.11443 14.8823C6.17396 15.3179 6.20101 15.7591 6.19526 16.2006L5.96477 16.2361C5.87143 15.838 5.79946 15.4019 5.70403 15.007C5.58722 14.6273 5.41514 14.2475 5.2832 13.8779L5.70716 13.633H5.71081Z" fill="#DC897C"/>
<path d="M6.09143 14.3915L5.86928 14.5814L5.52772 14.8744L5.39422 14.3213L5.33008 14.0567L5.49956 13.2384C5.86563 13.4713 6.09143 14.3915 6.09143 14.3915Z" fill="#407BFF"/>
<path opacity="0.2" d="M5.87064 14.5828L5.52907 14.8758L5.39453 14.3214L5.53429 13.8436C5.53429 13.8436 5.81484 14.1461 5.87064 14.5828Z" fill="black"/>
<path d="M5.45971 19.7673L5.16142 19.7534C5.16142 19.7534 5.15047 18.5718 5.07382 17.475C5.04461 17.0605 5.00602 16.6586 4.95492 16.3358C4.9424 16.2554 4.92885 16.1808 4.91477 16.1111C4.6921 15.0314 5.78198 15.3719 5.78198 15.3719C5.78198 15.3719 6.04532 17.2959 5.45971 19.7673Z" fill="#E4897B"/>
<path opacity="0.2" d="M5.07397 17.4757C5.04477 17.0612 5.00618 16.6593 4.95508 16.3365C5.09289 16.2713 5.24567 16.2699 5.38425 16.3327C5.38425 16.3327 5.39312 17.1637 5.07397 17.4757Z" fill="black"/>
<path d="M4.00127 15.2122C3.92722 15.6698 4.24845 17.1254 4.29173 19.6234H4.58845C4.58845 19.6234 4.89247 18.2165 5.07603 16.7894C5.07603 16.7894 5.7868 16.1729 5.72892 15.747C5.67103 15.3211 4.00127 15.2122 4.00127 15.2122Z" fill="#E4897B"/>
<path d="M5.84086 15.3592L3.99276 15.4731C3.99276 15.4731 3.96616 15.27 3.95625 15.044C3.95625 14.9934 3.95312 14.9415 3.95312 14.8902C3.95312 14.7004 3.9573 14.5168 3.96408 14.3466C3.96408 14.289 3.96825 14.2326 3.97138 14.1782L3.97607 14.0865L3.9792 14.0289C3.9792 14.0244 3.9792 14.02 3.9792 14.0156C3.98754 13.8757 3.99641 13.7504 4.00475 13.6453C4.02352 13.4181 4.03969 13.2808 4.03969 13.2808C4.03969 13.2808 4.31033 13.1055 4.89491 13.1112C5.06762 13.109 5.2398 13.1345 5.407 13.1871C5.47691 13.2109 5.53815 13.2627 5.58075 13.334C5.62336 13.4054 5.64482 13.4921 5.64166 13.5801C5.63797 13.735 5.6425 13.8899 5.65522 14.044C5.66878 14.2219 5.69016 14.4092 5.71467 14.5909C5.74589 14.8494 5.78801 15.1059 5.84086 15.3592Z" fill="#407BFF"/>
<path d="M6.22466 16.1719C6.22466 16.1719 6.28359 16.458 6.28307 16.5004C6.28255 16.5428 6.09065 16.9029 6.09065 16.9029L5.75586 16.6118L5.86015 16.3453C5.86015 16.3453 5.86015 16.0763 6.00565 16.0086C6.15114 15.9409 6.22466 16.1719 6.22466 16.1719Z" fill="#E4897B"/>
<path d="M4.14084 13.1779C4.03654 13.4057 4.98302 13.7234 4.98302 13.7234C4.98302 13.7234 5.47999 13.5171 5.43462 13.2241C5.38925 12.931 4.34578 12.7253 4.14084 13.1779Z" fill="#407BFF"/>
<path opacity="0.5" d="M4.14084 13.1779C4.03654 13.4057 4.98302 13.7234 4.98302 13.7234C4.98302 13.7234 5.47999 13.5171 5.43462 13.2241C5.38925 12.931 4.34578 12.7253 4.14084 13.1779Z" fill="white"/>
<path d="M5.01151 12.8887C5.00453 12.9304 5.00454 12.9733 5.01152 13.015C5.01851 13.0566 5.03234 13.0961 5.05219 13.1311C5.05892 13.144 5.0666 13.1561 5.07513 13.1672C5.08801 13.1847 5.10195 13.201 5.11685 13.2159C5.17786 13.4691 4.98961 13.6729 4.98961 13.6729C4.58912 13.4995 4.477 13.2565 4.477 13.2565C4.51337 13.1847 4.53682 13.1044 4.5458 13.0208C4.55479 12.9373 4.54911 12.8524 4.52915 12.7717C4.50963 12.6889 4.47935 12.6105 4.43945 12.5394L4.88375 12.6369L5.08608 12.6818C5.04908 12.7433 5.02363 12.814 5.01151 12.8887Z" fill="#E4897B"/>
<path opacity="0.2" d="M5.01008 12.8887C5.0031 12.9304 5.0031 12.9733 5.01009 13.015C5.01708 13.0566 5.03091 13.0961 5.05075 13.1311C5.05749 13.144 5.06517 13.1561 5.0737 13.1672C4.83069 13.1672 4.63149 12.928 4.52719 12.7717C4.50767 12.6889 4.4774 12.6105 4.4375 12.5394L4.8818 12.6369L5.08413 12.6818C5.04731 12.7434 5.02204 12.814 5.01008 12.8887Z" fill="black"/>
<path d="M3.96165 11.0302C4.02423 10.5872 4.57856 10.4606 4.72561 10.4821C4.87267 10.5037 4.77776 10.598 4.77776 10.598C4.77776 10.598 5.14279 10.5543 5.26586 10.6613C5.38893 10.7682 5.23666 10.8302 5.23666 10.8302C5.23666 10.8302 5.44108 10.9264 5.49114 11.1188C5.5412 11.3112 5.32948 11.3992 5.32948 11.3992L4.58012 12.6409C4.58012 12.6409 4.48 12.7726 4.35432 12.7352C4.15616 12.677 4.03675 12.3821 4.03675 12.3821C4.03675 12.3821 4.00389 12.4884 3.94549 12.439C3.88708 12.3897 3.84119 11.8986 3.84119 11.8986C3.84119 11.8986 3.81095 11.9853 3.75619 11.903C3.70144 11.8207 3.71135 11.5233 3.75619 11.3258C3.7926 11.2001 3.8657 11.095 3.96165 11.0302Z" fill="#263238"/>
<path d="M5.08083 10.7692C5.08083 10.7692 5.68887 11.116 5.24405 11.8324C4.74135 12.6413 5.08083 10.7692 5.08083 10.7692Z" fill="#263238"/>
<path d="M4.03669 11.9797C4.16341 12.4417 4.49141 12.8955 4.82829 12.8658C5.44571 12.8126 5.64752 12.6037 5.60111 12.0519C5.56148 11.5544 5.26267 10.8411 4.74537 10.8494C4.22807 10.8576 3.86095 11.3354 4.03669 11.9797Z" fill="#E4897B"/>
<path d="M5.20584 11.0644C5.03787 11.1979 4.84324 11.2736 4.64264 11.2834C4.64264 11.2834 4.41633 11.4024 4.53522 11.7093C4.65412 12.0163 4.38243 12.2878 4.46013 12.7188C4.46013 12.7188 4.08154 12.7783 3.82862 11.8593C3.64402 11.1904 4.07632 10.7752 4.58007 10.6322C5.00142 10.5132 5.3748 10.7885 5.20584 11.0644Z" fill="#263238"/>
<path d="M4.95117 11.8384C4.96577 11.8979 5.00331 11.9371 5.03564 11.9251C5.06798 11.9131 5.08101 11.8555 5.06693 11.7985C5.05285 11.7416 5.01479 11.7004 4.98245 11.7118C4.95012 11.7232 4.93656 11.7795 4.95117 11.8384Z" fill="#263238"/>
<path d="M5.33541 11.6745C5.34897 11.7308 5.38756 11.7688 5.41572 11.7567C5.44388 11.7447 5.45952 11.6934 5.44597 11.634C5.43241 11.5745 5.39382 11.5409 5.36514 11.5517C5.33646 11.5624 5.32133 11.6175 5.33541 11.6745Z" fill="#263238"/>
<path d="M5.01971 11.4906C5.02233 11.4856 5.02378 11.4799 5.02389 11.4741C5.0231 11.4668 5.02 11.4601 5.01523 11.4555C5.01046 11.4509 5.0044 11.4487 4.99833 11.4494C4.96204 11.4527 4.92694 11.4666 4.89606 11.49C4.86517 11.5133 4.83943 11.5455 4.82103 11.5836C4.8196 11.5868 4.81873 11.5904 4.81845 11.594C4.81818 11.5977 4.81851 11.6013 4.81944 11.6048C4.82036 11.6083 4.82186 11.6115 4.82384 11.6143C4.82581 11.6171 4.82823 11.6193 4.83094 11.6209C4.83638 11.6239 4.84255 11.6244 4.84824 11.6221C4.85394 11.6199 4.85874 11.6152 4.86171 11.6089C4.87695 11.5789 4.89796 11.5538 4.92294 11.5359C4.94792 11.5179 4.97612 11.5076 5.00511 11.5057C5.01137 11.5031 5.01658 11.4976 5.01971 11.4906Z" fill="#263238"/>
<path d="M5.40426 11.3775C5.40853 11.3749 5.41214 11.371 5.41469 11.3661C5.41589 11.3627 5.41651 11.3591 5.41652 11.3554C5.41654 11.3517 5.41594 11.348 5.41478 11.3446C5.41361 11.3412 5.4119 11.3381 5.40974 11.3355C5.40757 11.3328 5.405 11.3308 5.40218 11.3294C5.36902 11.3111 5.33268 11.303 5.29633 11.3056C5.25998 11.3083 5.22471 11.3217 5.19359 11.3446C5.19108 11.3466 5.18893 11.3493 5.18727 11.3523C5.18562 11.3554 5.18449 11.3588 5.18395 11.3624C5.18341 11.366 5.18348 11.3697 5.18415 11.3733C5.18482 11.3769 5.18608 11.3802 5.18785 11.3832C5.19141 11.3891 5.19669 11.3931 5.20261 11.3944C5.20853 11.3957 5.21463 11.3942 5.21966 11.3902C5.2449 11.3726 5.27326 11.3628 5.30233 11.3614C5.33139 11.3601 5.36029 11.3674 5.38653 11.3826C5.39276 11.3836 5.39909 11.3818 5.40426 11.3775Z" fill="#263238"/>
<path d="M5.25195 11.7897L5.3187 12.0466C5.37174 12.0271 5.41865 11.9884 5.45324 11.9359C5.37938 11.9024 5.31116 11.8529 5.25195 11.7897Z" fill="#DE5753"/>
<path d="M5.26634 12.2768C5.23107 12.2769 5.19636 12.2662 5.16545 12.2456C5.13453 12.225 5.10842 12.1953 5.08956 12.1591C5.08806 12.1566 5.087 12.1537 5.08643 12.1507C5.08585 12.1477 5.08578 12.1445 5.08622 12.1415C5.08666 12.1384 5.08759 12.1355 5.08897 12.1329C5.09035 12.1302 5.09214 12.128 5.09425 12.1262C5.09627 12.1243 5.0986 12.1229 5.10109 12.1221C5.10358 12.1213 5.10617 12.1211 5.10871 12.1216C5.11126 12.1221 5.11369 12.1232 5.11587 12.1248C5.11805 12.1265 5.11992 12.1287 5.12137 12.1313C5.14559 12.1762 5.18263 12.2086 5.22536 12.2224C5.26809 12.2362 5.31351 12.2303 5.3529 12.206C5.35736 12.204 5.36226 12.204 5.36671 12.206C5.37116 12.208 5.37486 12.2119 5.37714 12.217C5.37941 12.2221 5.38011 12.228 5.37911 12.2336C5.37811 12.2392 5.37547 12.2442 5.37168 12.2477C5.33876 12.2667 5.30279 12.2767 5.26634 12.2768Z" fill="#263238"/>
<path d="M5.10051 10.9189C5.10051 10.9189 5.35811 11.0347 5.3091 11.1385C5.26008 11.2423 5.03532 11.1537 5.03532 11.1537C5.03532 11.1537 5.05357 11.3607 4.9159 11.3436C4.77824 11.3265 4.75425 11.2708 4.75425 11.2708C4.75425 11.2708 4.66925 11.629 4.52011 11.4107C4.37096 11.1923 5.10051 10.9189 5.10051 10.9189Z" fill="#263238"/>
<path d="M4.52187 12.1306C4.47963 12.0312 4.24288 11.8654 4.15684 12.116C4.0708 12.3667 4.34874 12.5072 4.48485 12.4958C4.62095 12.4844 4.58862 12.2882 4.52187 12.1306Z" fill="#E4897B"/>
<path d="M3.9918 15.4731C3.92401 16.4414 4.05803 17.7977 4.05803 17.7977H4.96852L5.02067 17.3135L5.07282 17.7977H5.84043C5.84043 17.7977 5.99687 16.2509 5.84043 15.3591L3.9918 15.4731Z" fill="#263238"/>
<path d="M5.50641 19.4408H5.12991C5.12 19.4408 5.11114 19.4547 5.10853 19.4743L5.05951 19.911C5.05429 19.9566 5.07203 19.9996 5.09549 19.999C5.19353 19.9952 5.33537 19.9838 5.46052 19.9838C5.60497 19.9838 5.7296 19.9996 5.89856 19.9996C6.00286 19.9996 6.02945 19.7958 5.98669 19.7768C5.79166 19.6933 5.73691 19.6838 5.56951 19.4794C5.56172 19.468 5.5521 19.4588 5.54125 19.4521C5.5304 19.4455 5.51854 19.4416 5.50641 19.4408Z" fill="#263238"/>
<path d="M4.61969 19.4408H4.24319C4.23328 19.4408 4.22442 19.4547 4.22181 19.4743L4.17279 19.911C4.16758 19.9566 4.18531 19.9996 4.20877 19.999C4.30681 19.9952 4.44865 19.9838 4.5738 19.9838C4.71825 19.9838 4.84289 19.9996 5.01184 19.9996C5.11614 19.9996 5.14273 19.7958 5.09997 19.7768C4.90494 19.6933 4.85019 19.6838 4.68279 19.4794C4.67508 19.4679 4.66548 19.4586 4.65462 19.4519C4.64375 19.4453 4.63185 19.4415 4.61969 19.4408Z" fill="#263238"/>
<path opacity="0.2" d="M3.9543 15.0442C3.9543 14.9936 3.95117 14.9417 3.95117 14.8904C3.95117 14.7005 3.95534 14.517 3.96212 14.3467C3.96212 14.2891 3.96629 14.2328 3.96942 14.1784L3.97412 14.0866L3.97725 14.029C4.09395 14.004 4.21384 14.0118 4.32768 14.0518C4.32768 14.0518 4.39338 14.7138 3.9543 15.0442Z" fill="black"/>
<path d="M4.23518 13.7826C4.17782 14.0794 4.10534 14.4079 4.04432 14.7054C4.00312 14.897 3.98088 15.094 3.9781 15.2921C3.96506 15.6028 3.95307 15.9433 3.93221 16.2534L3.70015 16.2711C3.62688 15.8385 3.58604 15.3988 3.57812 14.9573C3.5969 14.5066 3.68711 14.0712 3.7815 13.6389L4.23518 13.7826Z" fill="#DC897C"/>
<path d="M4.04006 13.2811C3.76211 13.438 3.54883 14.3057 3.54883 14.3057L4.1746 14.6646L4.36233 13.9222C4.40822 13.7386 4.04006 13.2811 4.04006 13.2811Z" fill="#407BFF"/>
<path d="M3.67364 16.1719C3.67364 16.1719 3.61472 16.458 3.61524 16.5004C3.61576 16.5428 3.80766 16.9029 3.80766 16.9029L4.14245 16.6118L4.03815 16.3453C4.03815 16.3453 4.03815 16.0763 3.89266 16.0086C3.74717 15.9409 3.67364 16.1719 3.67364 16.1719Z" fill="#E4897B"/>
<path opacity="0.2" d="M5.17793 13.71C5.18263 13.7347 5.16333 13.7607 5.13569 13.7683C5.10806 13.7758 5.08355 13.7613 5.07729 13.736C5.07103 13.7107 5.09189 13.6853 5.11953 13.6784C5.13074 13.6734 5.14312 13.6739 5.15402 13.6798C5.16493 13.6857 5.17351 13.6966 5.17793 13.71Z" fill="black"/>
<path d="M5.2807 14.2509C5.27683 14.2509 5.27301 14.2499 5.26949 14.248C5.26598 14.246 5.26286 14.2431 5.26036 14.2395C5.15919 14.0927 5.10392 13.7434 5.10392 13.7288C5.1027 13.7204 5.10427 13.7118 5.10827 13.7048C5.11228 13.6978 5.1184 13.693 5.1253 13.6915C5.13213 13.6902 5.13911 13.6922 5.14476 13.697C5.1504 13.7018 5.15427 13.7092 5.15554 13.7174C5.15554 13.7206 5.20769 14.0649 5.30104 14.199C5.30545 14.2055 5.30759 14.2139 5.30701 14.2223C5.30643 14.2307 5.30316 14.2385 5.29791 14.244C5.29296 14.2485 5.28691 14.251 5.2807 14.2509Z" fill="#407BFF"/>
<path opacity="0.2" d="M4.74863 13.7076C4.74445 13.7329 4.76323 13.7589 4.79139 13.7658C4.80261 13.7706 4.81493 13.7701 4.8258 13.7642C4.83667 13.7583 4.84526 13.7475 4.84979 13.7342C4.85396 13.7089 4.83467 13.6829 4.80703 13.676C4.7958 13.6713 4.78354 13.672 4.7727 13.6778C4.76186 13.6837 4.75326 13.6943 4.74863 13.7076Z" fill="black"/>
<path d="M4.76249 14.2508C4.75906 14.2518 4.75549 14.2518 4.75206 14.2508C4.74892 14.2492 4.74607 14.2469 4.74369 14.244C4.7413 14.241 4.73942 14.2375 4.73816 14.2337C4.73689 14.2299 4.73627 14.2258 4.73633 14.2216C4.73639 14.2175 4.73713 14.2135 4.7385 14.2097C4.80421 14.0198 4.77552 13.7325 4.775 13.7293C4.77411 13.721 4.77598 13.7126 4.78018 13.706C4.78438 13.6993 4.79058 13.695 4.79743 13.6939C4.80083 13.6932 4.80429 13.6935 4.80762 13.6945C4.81095 13.6956 4.81407 13.6974 4.8168 13.6999C4.81952 13.7025 4.8218 13.7057 4.82349 13.7093C4.82518 13.7129 4.82625 13.7169 4.82663 13.7211C4.82663 13.7337 4.85792 14.0299 4.78648 14.2344C4.78414 14.2395 4.78066 14.2438 4.77642 14.2467C4.77218 14.2497 4.76735 14.2511 4.76249 14.2508Z" fill="#407BFF"/>
<path opacity="0.5" d="M5.2807 14.2509C5.27683 14.2509 5.27301 14.2499 5.26949 14.248C5.26598 14.246 5.26286 14.2431 5.26036 14.2395C5.15919 14.0927 5.10392 13.7434 5.10392 13.7288C5.1027 13.7204 5.10427 13.7118 5.10827 13.7048C5.11228 13.6978 5.1184 13.693 5.1253 13.6915C5.13213 13.6902 5.13911 13.6922 5.14476 13.697C5.1504 13.7018 5.15427 13.7092 5.15554 13.7174C5.15554 13.7206 5.20769 14.0649 5.30104 14.199C5.30545 14.2055 5.30759 14.2139 5.30701 14.2223C5.30643 14.2307 5.30316 14.2385 5.29791 14.244C5.29296 14.2485 5.28691 14.251 5.2807 14.2509Z" fill="white"/>
<path opacity="0.5" d="M4.76249 14.2508C4.75906 14.2518 4.75549 14.2518 4.75206 14.2508C4.74892 14.2492 4.74607 14.2469 4.74369 14.244C4.7413 14.241 4.73942 14.2375 4.73816 14.2337C4.73689 14.2299 4.73627 14.2258 4.73633 14.2216C4.73639 14.2175 4.73713 14.2135 4.7385 14.2097C4.80421 14.0198 4.77552 13.7325 4.775 13.7293C4.77411 13.721 4.77598 13.7126 4.78018 13.706C4.78438 13.6993 4.79058 13.695 4.79743 13.6939C4.80083 13.6932 4.80429 13.6935 4.80762 13.6945C4.81095 13.6956 4.81407 13.6974 4.8168 13.6999C4.81952 13.7025 4.8218 13.7057 4.82349 13.7093C4.82518 13.7129 4.82625 13.7169 4.82663 13.7211C4.82663 13.7337 4.85792 14.0299 4.78648 14.2344C4.78414 14.2395 4.78066 14.2438 4.77642 14.2467C4.77218 14.2497 4.76735 14.2511 4.76249 14.2508Z" fill="white"/>
<path d="M7.49422 7.41034C7.5109 7.45211 7.50569 7.49641 7.48326 7.5097C7.46084 7.52299 7.43112 7.49957 7.41287 7.4578C7.39461 7.41603 7.40139 7.37173 7.4233 7.35844C7.4452 7.34515 7.47753 7.36857 7.49422 7.41034Z" fill="#263238"/>
<path d="M7.50823 7.4943C7.51802 7.64543 7.51065 7.79749 7.48633 7.94618C7.57446 7.97909 7.66519 7.88732 7.66519 7.88732L7.50823 7.4943Z" fill="#DE5753"/>
<path d="M7.52651 7.10641C7.53083 7.10205 7.53377 7.09601 7.53486 7.08933C7.53546 7.08583 7.53548 7.08222 7.53491 7.07872C7.53433 7.07522 7.53319 7.07189 7.53153 7.06893C7.52988 7.06598 7.52775 7.06346 7.52527 7.06153C7.5228 7.05959 7.52003 7.05829 7.51713 7.05768C7.48224 7.04924 7.4462 7.05103 7.412 7.06292C7.3778 7.07481 7.34644 7.09645 7.32053 7.12603C7.31851 7.12865 7.31694 7.13173 7.3159 7.13508C7.31485 7.13844 7.31437 7.14201 7.31447 7.1456C7.31456 7.14918 7.31524 7.15271 7.31646 7.15598C7.31768 7.15925 7.31942 7.16219 7.32157 7.16464C7.32373 7.16709 7.32627 7.169 7.32903 7.17027C7.3318 7.17153 7.33474 7.17212 7.3377 7.172C7.34065 7.17189 7.34356 7.17106 7.34625 7.16958C7.34894 7.1681 7.35136 7.16599 7.35338 7.16337C7.37411 7.14011 7.39915 7.12325 7.42638 7.11421C7.45361 7.10518 7.48223 7.10424 7.50983 7.11148C7.51275 7.11204 7.51573 7.11189 7.5186 7.11102C7.52146 7.11015 7.52416 7.10858 7.52651 7.10641Z" fill="#263238"/>
<path d="M8.60092 6.65096C8.77822 7.17752 8.90442 7.47371 8.79595 7.86104C8.63325 8.4433 8.02052 8.51418 7.71702 8.06293C7.44377 7.65662 7.19972 6.86424 7.53086 6.41742C7.60359 6.31896 7.69586 6.24471 7.7989 6.20173C7.90195 6.15875 8.01233 6.14848 8.11957 6.17188C8.22681 6.19529 8.32733 6.25159 8.41158 6.33545C8.49583 6.4193 8.56101 6.52791 8.60092 6.65096Z" fill="#E4897B"/>
<path d="M7.60156 7.26733C7.64707 7.47808 7.7096 7.68286 7.78825 7.8787C7.78825 7.8787 7.69908 7.94199 7.68917 7.99958C7.67926 8.05718 7.68917 8.12616 7.78252 8.14578C7.78252 8.14578 7.81537 8.37109 7.89046 8.45083C7.91427 8.47355 7.94275 8.48792 7.97281 8.49238C8.00287 8.49684 8.03336 8.49123 8.06098 8.47615C8.06098 8.47615 8.11313 8.54956 8.2435 8.52805C8.37387 8.50653 8.40411 8.40147 8.40411 8.40147C8.43588 8.40286 8.46684 8.38916 8.49041 8.36328C8.51398 8.33739 8.52829 8.30136 8.53031 8.26286C8.53031 8.26286 8.33841 8.37805 8.10948 8.16413C7.82997 7.90212 7.65527 7.25151 7.65527 7.25151L7.60156 7.26733Z" fill="#263238"/>
<path d="M8.64807 6.86598C8.84206 7.34508 9.2535 8.17037 9.66808 8.22669C9.66808 8.22669 9.83912 8.73301 9.19875 9.32476C8.49737 9.97284 8.59853 9.2121 8.59853 9.2121C8.91142 8.74756 8.68562 8.41213 8.41602 8.14948L8.64807 6.86598Z" fill="#E4897B"/>
<path d="M8.88277 7.51671C8.79621 7.76481 8.06354 8.08632 7.83983 7.44014C7.83983 7.44014 7.38458 7.16673 7.19372 6.80218C7.00286 6.43764 7.11498 6.12816 7.36685 6.01107C7.589 5.90791 7.65939 6.03386 7.65939 6.03386C7.65939 6.03386 8.59492 5.36363 8.67731 5.95601C9.31716 6.09398 8.99072 7.20786 8.88277 7.51671Z" fill="#263238"/>
<path d="M8.0009 7.23277C8.04446 7.3638 8.05124 7.5086 8.0202 7.64478C7.97744 7.82325 7.8502 7.80426 7.77302 7.66376C7.70366 7.53718 7.64161 7.29162 7.72713 7.15745C7.81265 7.02328 7.94667 7.07834 8.0009 7.23277Z" fill="#E4897B"/>
<path d="M7.52592 7.10627C7.52592 7.10627 7.26102 7.13665 7.14316 6.9164C7.02531 6.69616 7.19531 6.5892 7.19531 6.5892L7.47899 5.97593C7.47899 5.97593 7.4623 5.84239 7.64065 5.70062C7.81899 5.55885 8.03905 5.71391 8.03905 5.71391C8.03905 5.71391 8.0182 5.59493 8.24504 5.4924C8.47188 5.38987 8.59547 5.70442 8.59547 5.70442C8.59547 5.70442 8.69976 5.60189 8.85047 5.7367C8.89322 5.77407 8.92723 5.82429 8.94917 5.88243C8.97112 5.94057 8.98023 6.00463 8.97562 6.06833C8.97562 6.06833 9.1597 6.08985 9.17795 6.37655C9.19621 6.66325 9.05437 6.73223 9.05437 6.73223C9.08512 6.77283 9.1086 6.82074 9.12332 6.87292C9.13804 6.9251 9.14368 6.98042 9.13989 7.03538C9.1421 7.0866 9.1298 7.13719 9.10504 7.17875C9.08028 7.22032 9.04455 7.25035 9.00378 7.26386C9.00378 7.26386 9.0648 7.62397 8.70237 7.67777C8.33995 7.73156 8.18663 6.79679 8.18663 6.79679L7.72461 6.76008L7.52592 7.10627Z" fill="#263238"/>
<path d="M10.3109 9.06837C9.76236 9.52848 9.21168 9.9696 8.60729 10.324C8.52406 10.3723 8.43659 10.4091 8.34655 10.4335C8.11867 10.4708 7.88661 10.4778 7.66498 10.4917C7.10596 10.5164 6.54955 10.5253 5.99001 10.4993L5.96289 10.0411C6.69713 9.8696 7.48247 9.76265 8.21723 9.61202C8.62658 9.33545 9.43487 8.65889 9.87969 8.30384L10.3109 9.06837Z" fill="#DC897C"/>
<path d="M6.07634 10.0265H5.72852L5.84637 10.6726C5.84637 10.6726 6.1118 10.6385 6.22809 10.3992L6.07634 10.0265Z" fill="#E4897B"/>
<path d="M5.24023 10.0638L5.4337 10.603L5.8441 10.6726L5.72625 10.0265L5.24023 10.0638Z" fill="#E4897B"/>
<path d="M9.68588 8.06691C9.69631 7.93527 9.7057 7.78591 9.58419 7.80236C9.4507 7.82135 8.65805 8.134 8.46094 8.32893C8.58192 8.44221 8.52821 8.68524 8.52821 8.68524L9.68588 8.06691Z" fill="#263238"/>
<path d="M10.313 7.87808C10.313 7.87808 10.9482 8.28629 11.4675 12.1406L9.06459 13.0754C8.94048 12.676 8.64741 10.6071 7.78906 8.83184C8.04041 8.67185 8.29934 8.53005 8.56449 8.40717C8.89917 8.25287 9.24034 8.1202 9.58659 8.00972C9.82587 7.94514 10.0686 7.90115 10.313 7.87808Z" fill="#407BFF"/>
<path opacity="0.6" d="M11.4677 12.1406L9.06472 13.076C8.99276 12.8425 8.86448 12.0412 8.59539 11.0615C8.50622 10.7311 8.40036 10.3799 8.27677 10.0229C8.13513 9.61317 7.97156 9.21507 7.78711 8.83121C8.03858 8.67152 8.2975 8.52972 8.56254 8.40654C8.89784 8.25273 9.23952 8.12028 9.5862 8.00972C9.82663 7.94462 10.0706 7.90063 10.3163 7.87808C10.3163 7.87808 10.4357 7.95466 10.6145 8.35844C10.7715 8.7371 10.8987 9.13295 10.9942 9.54068C11.1991 10.3937 11.3573 11.2622 11.4677 12.1406Z" fill="#FAFAFA"/>
<path d="M8.12129 19.4772C8.12333 19.4767 8.12521 19.4755 8.12662 19.4737C8.12804 19.4719 8.12891 19.4695 8.12912 19.467C8.12956 19.4647 8.12933 19.4622 8.12848 19.46C8.12763 19.4579 8.1262 19.4561 8.12442 19.455C8.11816 19.4506 7.96798 19.348 7.90019 19.3715C7.89354 19.3732 7.88726 19.3767 7.88178 19.3816C7.8763 19.3865 7.87174 19.3928 7.86838 19.3999C7.86379 19.4077 7.86133 19.417 7.86133 19.4265C7.86133 19.4361 7.86379 19.4454 7.86838 19.4531C7.88611 19.4829 7.93826 19.4917 7.99249 19.4917C8.03569 19.4913 8.07878 19.4864 8.12129 19.4772ZM8.08896 19.4594C8.01022 19.4727 7.90332 19.4721 7.8835 19.4386C7.88089 19.4348 7.87829 19.4272 7.8835 19.412C7.88798 19.4033 7.89511 19.3972 7.90332 19.3949C7.90972 19.3938 7.91621 19.3938 7.92261 19.3949C7.98102 19.4029 8.03755 19.4248 8.08896 19.4594Z" fill="#407BFF"/>
<path d="M8.12744 19.4751C8.12872 19.4738 8.12975 19.4721 8.13047 19.4703C8.13119 19.4684 8.13158 19.4664 8.13161 19.4644C8.13161 19.458 8.11962 19.3201 8.06591 19.2663C8.05827 19.2583 8.04939 19.2524 8.03979 19.2488C8.03019 19.2452 8.02009 19.244 8.01011 19.2454C7.98247 19.2492 7.97465 19.2656 7.97308 19.2796C7.96526 19.3378 8.06643 19.4485 8.11753 19.4764H8.12118C8.12332 19.4765 8.12546 19.4761 8.12744 19.4751ZM8.05287 19.2852C8.08468 19.3296 8.1042 19.3849 8.10867 19.4435C8.05652 19.4055 7.98821 19.3169 7.9929 19.2834C7.9929 19.2834 7.9929 19.272 8.0122 19.2694H8.01845C8.03095 19.2696 8.04298 19.2752 8.05235 19.2852H8.05287Z" fill="#407BFF"/>
<path d="M8.63157 19.4406L8.23838 19.6305L7.83789 18.5444L8.23108 18.3552L8.63157 19.4406Z" fill="#E4897B"/>
<path d="M8.16605 19.4054H8.62755C8.63598 19.4055 8.64414 19.409 8.65068 19.4155C8.65722 19.4219 8.66176 19.4309 8.66354 19.4409L8.74697 19.8972C8.74901 19.9082 8.74899 19.9196 8.74689 19.9305C8.7448 19.9415 8.74069 19.9517 8.73487 19.9605C8.72905 19.9693 8.72168 19.9763 8.7133 19.9811C8.70492 19.9859 8.69575 19.9884 8.68648 19.9883C8.51961 19.9845 8.27921 19.9731 8.06958 19.9731C7.825 19.9731 7.61329 19.9889 7.32647 19.9889C7.15282 19.9889 7.10433 19.7763 7.17733 19.7567C7.50795 19.6693 7.77807 19.6598 8.06384 19.4459C8.09415 19.4212 8.12954 19.4071 8.16605 19.4054Z" fill="#263238"/>
<path d="M11.4673 12.1399L10.9907 15.0512C10.8556 15.1486 10.6481 15.2113 10.4009 15.2493C9.91645 15.3239 9.28077 15.3062 8.73218 15.2739C8.11684 15.2385 7.61361 15.1834 7.5646 15.2201C7.44987 15.3075 8.51159 18.8523 8.51159 18.8523L7.86027 18.87C7.86027 18.87 6.40797 15.8461 6.27186 14.8417C6.21971 14.4708 6.17904 14.0088 6.76048 13.655C7.27257 13.343 9.08522 13.2867 9.08522 13.2867L8.98979 12.7677L11.4673 12.1399Z" fill="#407BFF"/>
<path opacity="0.2" d="M10.4011 15.2507C9.91669 15.3253 9.28101 15.3076 8.73242 15.2753C8.75067 14.1811 9.28831 13.1957 9.28831 13.1957L9.94537 13.0761L10.4011 15.2507Z" fill="black"/>
<path d="M15.4824 18.5357L15.5085 19.0484L14.5339 19.1724L14.5078 18.6598L15.4824 18.5357Z" fill="#E4897B"/>
<path d="M15.5269 19.0677C15.5256 19.0658 15.5239 19.0644 15.5219 19.0636C15.52 19.0628 15.5179 19.0627 15.5159 19.0633C15.514 19.064 15.5123 19.0654 15.5111 19.0673C15.5099 19.0692 15.5092 19.0716 15.5092 19.074C15.5092 19.0829 15.4972 19.2886 15.5446 19.3557C15.5488 19.3621 15.5541 19.3674 15.5602 19.3713C15.5662 19.3751 15.5728 19.3773 15.5796 19.3778C15.5873 19.3796 15.5953 19.3784 15.6025 19.3744C15.6097 19.3704 15.6157 19.3639 15.6197 19.3557C15.6338 19.324 15.6197 19.2626 15.5942 19.2032C15.5751 19.1557 15.5526 19.1103 15.5269 19.0677ZM15.5269 19.1114C15.5707 19.1911 15.6171 19.3082 15.6009 19.3443C15.6009 19.3487 15.5942 19.355 15.5801 19.3538C15.5759 19.3534 15.5719 19.3519 15.5682 19.3495C15.5645 19.3471 15.5613 19.3438 15.5587 19.3399C15.5547 19.3335 15.5512 19.3267 15.5483 19.3196C15.5307 19.2528 15.5238 19.1826 15.5279 19.1127L15.5269 19.1114Z" fill="#407BFF"/>
<path d="M15.5252 19.068C15.5237 19.067 15.5219 19.0664 15.5202 19.0664C15.5185 19.0664 15.5168 19.067 15.5153 19.068C15.5111 19.068 15.4136 19.144 15.3969 19.2256C15.3944 19.2375 15.3939 19.2498 15.3954 19.2619C15.3969 19.2739 15.4004 19.2855 15.4057 19.2959C15.4203 19.3244 15.4365 19.3256 15.4469 19.3218C15.4933 19.3047 15.5319 19.1459 15.5304 19.0782C15.5306 19.0765 15.5306 19.0748 15.5304 19.0731C15.5299 19.0718 15.5291 19.0707 15.5282 19.0699C15.5273 19.069 15.5263 19.0684 15.5252 19.068ZM15.4167 19.2313C15.4358 19.1774 15.4682 19.1321 15.5095 19.1016C15.5043 19.175 15.4694 19.2883 15.4412 19.2984C15.4412 19.2984 15.4323 19.3016 15.423 19.2826L15.4198 19.2763C15.4142 19.2616 15.4131 19.245 15.4167 19.2294V19.2313Z" fill="#407BFF"/>
<path d="M15.4564 19.0535L15.2557 18.5472C15.252 18.5381 15.251 18.5277 15.2529 18.5178C15.2548 18.5079 15.2595 18.499 15.2661 18.4928L15.568 18.2029C15.5753 18.1958 15.5839 18.1909 15.593 18.1884C15.6021 18.1859 15.6116 18.186 15.6207 18.1886C15.6298 18.1912 15.6383 18.1963 15.6455 18.2035C15.6527 18.2107 15.6585 18.2198 15.6624 18.2302C15.7323 18.4137 15.8282 18.682 15.919 18.9105C16.0233 19.1782 16.1276 19.4023 16.2543 19.7162C16.3299 19.906 16.1927 20.051 16.1469 19.9801C15.9383 19.6567 15.8136 19.3656 15.5305 19.1459C15.4991 19.1242 15.4734 19.0922 15.4564 19.0535Z" fill="#263238"/>
<path d="M11.4755 12.1063C11.4755 12.1063 11.8754 14.2467 10.992 15.0556C10.992 15.0556 11.1735 17.9725 11.526 18.2782C11.9547 18.6497 14.9021 18.539 14.9021 18.539L14.9396 19.4681C14.9396 19.4681 11.8217 20.1396 10.8413 19.8105C9.69409 19.425 8.99219 12.7721 8.99219 12.7721L11.4755 12.1063Z" fill="#407BFF"/>
<path opacity="0.2" d="M10.4531 13.5048L10.9355 13.3909C10.9478 13.6438 10.9478 13.8974 10.9355 14.1504L10.6993 14.3497L10.5006 14.2447C10.5006 14.2447 10.4886 13.7143 10.4531 13.5048Z" fill="black"/>
<path d="M9.14618 12.7906L9.18686 13.0317L9.00799 13.0754L8.9668 12.8362L9.14618 12.7906Z" fill="black"/>
<path d="M9.97083 12.5782L10.0152 12.8289L9.2757 13.0092L9.23242 12.7675L9.97083 12.5782Z" fill="black"/>
<path d="M10.8905 12.3428L10.9343 12.6042L10.1077 12.8061L10.0645 12.5542L10.8905 12.3428Z" fill="black"/>
<path d="M11.5407 12.4562L11.0317 12.5809H11.0312L10.9863 12.3182L11.4922 12.1885L11.5407 12.4562Z" fill="black"/>
<path opacity="0.2" d="M8.59596 11.0617C8.50679 10.7313 8.40093 10.38 8.27734 10.0231C8.34357 9.88195 8.44526 9.80411 8.59023 9.85347C8.59284 9.85347 8.81498 10.4674 8.59596 11.0617Z" fill="black"/>
<path d="M8.37435 9.19489C8.4265 10.0107 8.36757 10.8404 8.11361 11.6081C7.84401 12.3593 7.3679 12.9574 6.82661 13.4352L6.57422 13.0935C6.7605 12.8127 6.93456 12.5204 7.09569 12.2176C7.25078 11.9366 7.37473 11.6321 7.46438 11.3119C7.60309 10.7569 7.62812 10.1157 7.62082 9.52526C7.62082 9.46197 7.61665 9.33539 7.61456 9.2721L8.37435 9.19489Z" fill="#DC897C"/>
<path d="M8.57115 9.32722C8.86161 10.0133 8.35891 11.0493 8.35891 11.0493L7.46875 10.7183C7.46875 10.7183 7.51412 9.76898 7.64397 9.18356C7.80406 8.46206 8.34952 8.80509 8.57115 9.32722Z" fill="#407BFF"/>
<path opacity="0.6" d="M8.57115 9.32722C8.86161 10.0133 8.35891 11.0493 8.35891 11.0493L7.46875 10.7183C7.46875 10.7183 7.51412 9.76898 7.64397 9.18356C7.80406 8.46206 8.34952 8.80509 8.57115 9.32722Z" fill="#FAFAFA"/>
<path d="M7.44158 10.5768L8.51269 10.8369L8.42143 11.109L7.4082 10.7749L7.44158 10.5768Z" fill="#263238"/>
<path d="M6.60077 13.0684L6.18359 13.5747L6.60077 13.9443C6.60077 13.9443 6.93504 13.6424 6.84378 13.2399L6.60077 13.0684Z" fill="#E4897B"/>
<path d="M6.12695 13.8588L6.42002 14.2436L6.59732 13.9417L6.18066 13.5714L6.12695 13.8588Z" fill="#E4897B"/>
</svg>
