<svg width="15" height="20" viewBox="0 0 15 20" fill="none" xmlns="http://www.w3.org/2000/svg">
<path d="M8.14336 8.66815C8.51277 6.76351 9.01601 4.88932 9.64906 3.0605L10.748 1.60362C11.2211 1.47386 11.7413 1.68995 12.0719 2.06315C12.4024 2.43635 12.5636 2.94253 12.6169 3.44603C12.6703 3.94953 12.6258 4.45732 12.5931 4.96296C12.5195 6.11366 12.5097 7.28527 12.1812 8.38718C12.0527 8.81936 11.8548 9.26227 11.4838 9.50088C11.0884 9.75504 10.5853 9.72287 10.1252 9.65263C9.57302 9.5683 9.02777 9.44086 8.49414 9.27138C8.36357 9.23009 8.2216 9.17594 8.1558 9.05207C8.09466 8.93733 8.11849 8.79684 8.14336 8.66815Z" fill="#263238"/>
<path d="M8.07721 0.0112861C8.78084 -0.0648553 9.37566 0.253115 9.93784 0.698167C10.5 1.14322 10.9042 1.7856 11.1171 2.48427C11.3415 3.21941 11.357 4.03177 11.1042 4.75726C10.8513 5.48274 10.3218 6.11225 9.6368 6.4195C8.70416 6.83559 7.5539 6.59269 6.78291 5.90527C6.01193 5.21786 5.61348 4.13579 5.63991 3.08536C5.65804 2.35987 5.87099 1.63063 6.29897 1.05582C6.72695 0.481003 7.37825 0.0734859 8.07721 0.0139669" fill="#263238"/>
<path d="M9.90831 2.59332C9.82385 2.31074 9.8824 2.00349 9.86012 1.71072C9.81142 1.06138 9.34199 0.512836 8.77878 0.223284C8.25442 -0.0448194 7.59276 -0.0383849 6.93007 0.135346C6.47618 0.25492 6.04147 0.486562 5.72126 0.840995C5.51038 1.07898 5.35759 1.36572 5.27566 1.67728C5.19372 1.98884 5.18502 2.31617 5.25027 2.63193L8.46012 2.36382C8.74199 2.6389 9.03007 2.91826 9.38344 3.08448C9.48468 3.13903 9.59787 3.16545 9.71194 3.16116C9.76856 3.15766 9.82304 3.13748 9.86894 3.10299C9.91484 3.06851 9.95025 3.02115 9.971 2.96652C10.0062 2.84319 9.94251 2.71557 9.90831 2.59332Z" fill="#263238"/>
<path d="M6.31157 9.94444C6.31157 9.94444 6.50017 7.72347 6.49965 7.72883C6.49914 7.7342 5.37271 7.5047 5.1753 5.97008C5.07737 5.20705 5.14473 3.96198 5.23126 2.9448C5.3095 2.02949 5.924 0.919541 6.80483 1.03965L9.5437 1.8327C9.67279 1.84993 9.79089 1.9168 9.87451 2.02003C9.95812 2.12326 10.0011 2.25527 9.99499 2.38982L9.52297 7.90632L9.35769 10.1648L6.31157 9.94444Z" fill="#FFBF9D"/>
<path d="M5.78332 4.25467C5.7816 4.30576 5.79921 4.35552 5.8324 4.39337C5.86559 4.43122 5.91174 4.45418 5.96104 4.45736C5.98509 4.46002 6.00941 4.45766 6.03256 4.45041C6.05571 4.44317 6.07722 4.4312 6.09582 4.4152C6.11442 4.3992 6.12973 4.3795 6.14084 4.35727C6.15196 4.33504 6.15865 4.31073 6.16052 4.28577C6.16224 4.23469 6.14463 4.18493 6.11144 4.14708C6.07825 4.10923 6.03209 4.08627 5.9828 4.08309C5.95875 4.08043 5.93443 4.08279 5.91128 4.09004C5.88813 4.09728 5.86662 4.10925 5.84802 4.12525C5.82942 4.14125 5.81411 4.16095 5.803 4.18318C5.79188 4.20541 5.78519 4.22972 5.78332 4.25467Z" fill="#263238"/>
<path d="M5.47548 3.60008C5.49827 3.62582 5.64439 3.52018 5.84853 3.52554C6.05268 3.53091 6.19879 3.64083 6.22159 3.61563C6.23299 3.6049 6.21019 3.55772 6.14594 3.50839C6.05944 3.44261 5.95534 3.40626 5.84802 3.40436C5.74201 3.40109 5.63779 3.43303 5.5506 3.49552C5.48687 3.5427 5.46408 3.58828 5.47548 3.60008Z" fill="#263238"/>
<path d="M7.62121 4.25468C7.61949 4.30576 7.6371 4.35552 7.67029 4.39337C7.70348 4.43122 7.74963 4.45418 7.79893 4.45736C7.82298 4.46002 7.8473 4.45766 7.87045 4.45042C7.8936 4.44317 7.91511 4.4312 7.93371 4.4152C7.95231 4.3992 7.96762 4.3795 7.97873 4.35727C7.98985 4.33504 7.99654 4.31073 7.99841 4.28578C8.00013 4.23478 7.98259 4.1851 7.94951 4.14726C7.91643 4.10942 7.87041 4.0864 7.82121 4.08309C7.79713 4.08043 7.77278 4.08279 7.7496 4.09003C7.72642 4.09726 7.70487 4.10923 7.68623 4.12522C7.66759 4.14122 7.65223 4.16091 7.64107 4.18314C7.6299 4.20538 7.62315 4.2297 7.62121 4.25468Z" fill="#263238"/>
<path d="M7.43624 3.57905C7.45955 3.60533 7.60567 3.49916 7.80929 3.50506C8.01292 3.51095 8.16007 3.62034 8.18235 3.59514C8.19375 3.58388 8.17095 3.53723 8.1067 3.4879C8.02014 3.42231 7.91604 3.38615 7.80878 3.38441C7.70287 3.38124 7.59872 3.41297 7.51136 3.47503C7.44763 3.52168 7.42536 3.56726 7.43624 3.57905Z" fill="#263238"/>
<path d="M6.70115 5.23658C6.70115 5.22425 6.57628 5.19851 6.37162 5.1658C6.31981 5.15883 6.26799 5.14704 6.26281 5.11218C6.25763 5.07733 6.27473 5.01567 6.30115 4.95132C6.35297 4.8221 6.40789 4.68697 6.4654 4.54541C6.69338 3.96685 6.8597 3.49069 6.8369 3.48158C6.81411 3.47246 6.61151 3.9336 6.38353 4.51163C6.32861 4.65426 6.27576 4.79046 6.22809 4.92022C6.20685 4.98135 6.1711 5.04998 6.19597 5.13095C6.20296 5.15015 6.21412 5.16744 6.22858 5.18148C6.24304 5.19552 6.26043 5.20593 6.27939 5.21192C6.30796 5.22102 6.33759 5.22607 6.36747 5.22693C6.57162 5.24624 6.6996 5.24624 6.70115 5.23658Z" fill="#263238"/>
<path d="M6.4982 7.72867C7.19336 7.7578 7.88268 7.58665 8.4894 7.23429C8.4894 7.23429 7.92774 8.3555 6.45312 8.17426L6.4982 7.72867Z" fill="#FF9A6C"/>
<path d="M7.39549 2.72624C7.41415 2.78415 7.61829 2.76216 7.85663 2.79809C8.09498 2.83401 8.28669 2.90533 8.31985 2.856C8.33435 2.83187 8.30223 2.77718 8.22555 2.7198C8.12325 2.64881 8.00662 2.60296 7.88458 2.58576C7.76254 2.56857 7.63831 2.58049 7.5214 2.6206C7.4328 2.65707 7.3872 2.70104 7.39549 2.72624Z" fill="#263238"/>
<path d="M5.55693 2.67906C5.59164 2.72786 5.7331 2.68228 5.90201 2.68389C6.07092 2.6855 6.21289 2.72464 6.24709 2.67531C6.26211 2.65118 6.24087 2.60292 6.17921 2.55574C6.09666 2.4992 5.99974 2.46932 5.90076 2.46989C5.80177 2.47047 5.70518 2.50147 5.62325 2.55895C5.56366 2.60668 5.54294 2.65547 5.55693 2.67906Z" fill="#263238"/>
<path d="M10.4435 2.18304C10.2098 1.28864 9.02692 0.0130078 8.1321 0.0382095L6.66992 0.856997C6.70565 1.11054 6.80681 1.34942 6.96274 1.54845C7.11868 1.74747 7.32361 1.89928 7.55593 1.98786C7.80464 2.07901 8.10671 2.1144 8.24713 2.34551C8.38754 2.57661 8.2865 2.91067 8.41915 3.15304C8.60205 3.48924 9.14195 3.49835 9.27511 3.85922C9.33314 4.01633 9.29117 4.19971 9.35231 4.35628C9.43314 4.56487 9.92226 4.84638 10.1295 4.78847C10.3368 4.73056 10.3554 4.3654 10.4311 4.17773C10.5606 3.856 10.5202 3.68549 10.4901 3.50157C10.4202 3.06456 10.5549 2.60986 10.4435 2.18304Z" fill="#263238"/>
<path d="M9.51405 4.93987C9.51716 4.82619 9.65084 4.56077 9.75965 4.54629C10.0508 4.50715 10.5731 4.54629 10.5591 5.30717C10.5405 6.34956 9.53322 6.1147 9.53219 6.08521C9.53115 6.05572 9.50369 5.33291 9.51405 4.93987Z" fill="#FFBF9D"/>
<path d="M9.84652 5.69579C9.85119 5.69257 9.86414 5.70919 9.89367 5.72367C9.93504 5.74302 9.98205 5.74495 10.0248 5.72903C10.1315 5.69043 10.2242 5.51777 10.232 5.32956C10.2363 5.24033 10.221 5.15126 10.1875 5.06896C10.1786 5.03625 10.1623 5.00624 10.1398 4.9815C10.1174 4.95675 10.0894 4.93801 10.0584 4.92687C10.0385 4.92134 10.0173 4.92306 9.99847 4.93175C9.97961 4.94044 9.9642 4.95556 9.95481 4.97459C9.94082 5.00354 9.94704 5.02446 9.94134 5.02821C9.93564 5.03196 9.9201 5.01052 9.92891 4.96762C9.93517 4.94202 9.94959 4.91935 9.96984 4.90327C9.99794 4.88218 10.0329 4.87332 10.0672 4.87861C10.145 4.88558 10.2134 4.96065 10.2476 5.04376C10.2891 5.13476 10.3083 5.23494 10.3035 5.33546C10.2932 5.54511 10.1859 5.73976 10.0393 5.78051C10.0121 5.78811 9.98357 5.78931 9.95587 5.78403C9.92816 5.77874 9.90195 5.76709 9.87917 5.74994C9.84808 5.72153 9.84341 5.69793 9.84652 5.69579Z" fill="#FF9A6C"/>
<path d="M6.98003 0.561254C6.86137 0.978423 6.20593 1.47978 5.91319 1.79078C5.3536 2.38489 5.23961 2.58651 5.15619 3.98923C4.94065 3.48787 4.78158 2.99992 4.83443 2.45353C4.88728 1.90713 5.11629 1.372 5.508 1.00202C5.89971 0.632033 6.46034 0.445433 6.97951 0.558573" fill="#263238"/>
<path d="M10.5888 5.17644C10.6275 5.13977 10.6614 5.09815 10.6899 5.05257C10.7274 5.00296 10.762 4.95103 10.7935 4.89707L10.9137 4.67723C11.08 4.34478 11.2116 3.83002 11.2034 3.25682C11.1964 2.98765 11.1618 2.72002 11.1002 2.4584C11.0474 2.24578 10.9736 2.03933 10.88 1.8423C10.8391 1.75865 10.7956 1.68627 10.7583 1.62299C10.721 1.55972 10.68 1.51039 10.6479 1.47017C10.615 1.42781 10.5766 1.39028 10.5339 1.35864C10.521 1.3699 10.6857 1.52969 10.8293 1.8675C10.9134 2.0639 10.9801 2.26778 11.0287 2.47663C11.0853 2.73303 11.1178 2.99449 11.1256 3.25735C11.1329 3.81662 11.0147 4.31851 10.8666 4.65149L10.7588 4.87294C10.7282 4.9389 10.6904 4.98876 10.666 5.03381C10.6342 5.0775 10.6082 5.12548 10.5888 5.17644Z" fill="#455A64"/>
<path d="M7.33764 5.71834C7.32792 5.67058 7.3104 5.62488 7.28582 5.58321C7.27356 5.56245 7.25646 5.5452 7.2361 5.53302C7.21574 5.52085 7.19275 5.51414 7.16924 5.51351C7.13518 5.51764 7.10272 5.53075 7.07494 5.55158L6.69722 5.78268L6.66406 5.87813C6.73941 5.99984 6.83775 6.10453 6.95318 6.18591C6.98633 6.21315 7.02654 6.22957 7.06873 6.2331C7.12232 6.22698 7.17226 6.20199 7.21018 6.16232C7.26634 6.12277 7.31268 6.07004 7.34541 6.00843C7.38583 5.91942 7.36199 5.81432 7.33764 5.71834Z" fill="#FF9A6C"/>
<path d="M7.05228 6.26509C7.04814 6.25544 7.14036 6.23935 7.23622 6.13908C7.29123 6.08099 7.32915 6.0079 7.34555 5.92835C7.36358 5.83116 7.34895 5.7305 7.3041 5.64309C7.29246 5.62034 7.27876 5.5988 7.26316 5.57875C7.24989 5.56003 7.23337 5.54404 7.21446 5.53156C7.20689 5.52639 7.19822 5.52319 7.18919 5.52226C7.18016 5.52133 7.17106 5.52268 7.16265 5.5262C7.1426 5.53537 7.12336 5.54632 7.10513 5.55891C7.02534 5.60931 6.95332 5.65328 6.8927 5.69028C6.77093 5.7632 6.69321 5.80556 6.68959 5.79752C6.68596 5.78947 6.75591 5.73693 6.87249 5.65489C6.93052 5.61413 7.00047 5.56641 7.07974 5.51386C7.10067 5.49848 7.12307 5.48536 7.14658 5.47472C7.16167 5.46864 7.1779 5.46616 7.19404 5.46746C7.21019 5.46876 7.22585 5.4738 7.23985 5.48223C7.26471 5.49791 7.2865 5.51828 7.3041 5.54228C7.32204 5.56496 7.33783 5.58939 7.35125 5.61521C7.402 5.71379 7.4169 5.82795 7.39321 5.93693C7.37345 6.02529 7.32764 6.10512 7.26213 6.16536C7.21944 6.20563 7.16891 6.23598 7.11394 6.25437C7.0756 6.26777 7.0528 6.26777 7.05228 6.26509Z" fill="#263238"/>
<path d="M12.4148 20L11.6785 18.038C11.6785 18.038 11.7303 16.0128 11.9101 15.0889C12.0899 14.165 11.6883 9.02599 11.6883 9.02599L9.48522 8.41471C9.48522 8.41471 8.94999 9.35093 7.979 9.25817C6.83911 9.15092 6.44118 8.41471 6.44118 8.41471L5.08315 8.64153C5.08315 8.64153 4.23807 11.766 3.87537 12.4963C3.51268 13.2266 3.48418 15.4771 3.48418 15.4771C3.48418 15.4771 3.87693 16.7356 3.97382 17.1565C3.98795 17.2174 3.98305 17.2815 3.95983 17.3393L3.04688 20H12.4148Z" fill="#407BFF"/>
<g opacity="0.3">
<path d="M10.8023 14.8674C10.8225 15.1478 10.766 15.5816 10.8168 15.8577L11.2541 15.9548C11.4202 15.6216 11.5299 15.2614 11.5784 14.8899C11.5784 14.8899 10.796 14.7901 10.8023 14.8674Z" fill="black"/>
</g>
<g opacity="0.3">
<path d="M10.1821 16.6481C10.1239 16.5824 10.0504 16.5333 9.96868 16.5054C9.88109 16.4927 9.7918 16.5038 9.70961 16.5376L8.42204 16.9392L7.50391 16.6931C7.68568 17.0653 7.98596 17.3613 8.35407 17.5311C8.72219 17.7009 9.13562 17.734 9.52463 17.625C9.68318 17.5805 9.84588 17.5119 10.006 17.5484C10.1573 17.5827 10.2733 17.7023 10.3915 17.8052C10.7542 18.1205 11.3039 18.1387 11.7749 18.1805C11.3241 17.5682 10.7272 17.1736 10.1821 16.6481Z" fill="black"/>
</g>
<path d="M10.9126 15.5696L11.811 15.7417L11.6556 12.2939L11.6861 9.02303C11.6861 9.02303 12.8219 9.39837 13.3872 10.503C13.9525 11.6075 14.0602 13.1282 14.1209 13.9486C14.1908 14.8945 14.2504 17.2222 14.1633 17.7852C14.0763 18.3482 13.4587 18.9321 12.4146 18.5852C11.8872 18.4099 10.0234 16.7653 10.0234 16.7653L10.9126 15.5696Z" fill="#407BFF"/>
<path d="M5.08254 8.64013C5.08254 8.64013 3.19549 9.0069 2.81207 9.77528C2.42865 10.5437 0.607925 14.7926 0.843158 16.0162C1.07839 17.2398 2.47839 17.7857 2.95093 17.2983C3.42347 16.8109 3.87529 15.4521 3.87529 15.4521L5.08254 8.64013Z" fill="#407BFF"/>
<path d="M12.0039 18.3568L11.9935 18.3504L11.964 18.3289L11.8521 18.2442L11.4376 17.9225L10.0143 16.8227L10.0039 16.8141L10.0122 16.8034L10.5049 16.16C10.6645 15.953 10.8195 15.7519 10.9671 15.5594L10.9723 15.553H10.9806L11.7464 15.7262H11.7417C11.9797 15.6923 12.222 15.7127 12.4516 15.7862C12.6289 15.8417 12.7963 15.9271 12.9469 16.0388C13.0439 16.1105 13.1329 16.1933 13.2122 16.2854C13.2402 16.3171 13.2583 16.3439 13.2718 16.361L13.2863 16.3809C13.288 16.3831 13.2896 16.3854 13.291 16.3878C13.291 16.3878 13.291 16.3878 13.2847 16.3819L13.2687 16.3637C13.2547 16.3471 13.235 16.3214 13.207 16.2908C12.9995 16.0632 12.7372 15.897 12.4469 15.8093C12.2199 15.7389 11.9809 15.7207 11.7464 15.7557H11.7422L10.9759 15.5851L10.9889 15.5803L10.5272 16.1809C10.3562 16.4034 10.1899 16.6195 10.0334 16.8243V16.8055L11.449 17.915L11.8604 18.241L11.9702 18.3295L11.9982 18.3525C12.0013 18.3536 12.0044 18.3563 12.0039 18.3568Z" fill="#263238"/>
<path d="M11.813 12.5492C11.8151 12.5598 11.8165 12.5706 11.8171 12.5814C11.8171 12.6055 11.8218 12.635 11.8249 12.6736C11.8306 12.7578 11.8383 12.8731 11.8482 13.0141C11.8658 13.301 11.8881 13.6983 11.8964 14.1375C11.9047 14.5766 11.8922 14.9756 11.8689 15.2635C11.8637 15.3354 11.8565 15.3997 11.8508 15.4565C11.8451 15.5134 11.8389 15.5638 11.8332 15.6024L11.8192 15.6941C11.8181 15.7048 11.816 15.7154 11.813 15.7257C11.8117 15.715 11.8117 15.7042 11.813 15.6935C11.813 15.6694 11.8181 15.6399 11.8213 15.6013C11.8244 15.5627 11.8306 15.5123 11.8347 15.4555C11.8389 15.3986 11.8451 15.3338 11.8487 15.2619C11.8674 14.975 11.8767 14.5777 11.8684 14.1385C11.8601 13.6994 11.8409 13.3031 11.828 13.0157C11.8218 12.8747 11.8171 12.7589 11.8135 12.6752C11.8135 12.6372 11.8135 12.6066 11.8109 12.5825C11.8101 12.5713 11.8108 12.5602 11.813 12.5492Z" fill="#263238"/>
<path d="M3.82888 11.4742C3.82949 11.4792 3.82949 11.4842 3.82888 11.4892L3.81851 11.5321C3.80763 11.5713 3.79364 11.6259 3.77499 11.693C3.75634 11.76 3.7325 11.8501 3.70763 11.9509C3.68276 12.0517 3.65167 12.1654 3.62369 12.2946C3.55287 12.5929 3.49735 12.8948 3.45737 13.1992C3.44805 13.2855 3.43509 13.3734 3.42784 13.4635C3.42059 13.5536 3.41489 13.6464 3.40815 13.7402C3.40141 13.834 3.40349 13.9306 3.40141 14.0276C3.39934 14.1247 3.40556 14.2239 3.40711 14.3236C3.42511 14.7 3.46822 15.0746 3.53613 15.4448L3.58794 15.6925C3.60401 15.773 3.61955 15.8534 3.63976 15.9258C3.67758 16.0749 3.70763 16.2153 3.74338 16.3414C3.77913 16.4674 3.80919 16.5816 3.83717 16.6818C3.86515 16.7821 3.89261 16.8668 3.91385 16.9376L3.96152 17.0985C3.96618 17.1156 3.96981 17.1296 3.97292 17.1403C3.97464 17.1451 3.97569 17.1502 3.97603 17.1553C3.97379 17.1508 3.97188 17.1462 3.97033 17.1414L3.95634 17.1001C3.94338 17.0615 3.92577 17.0079 3.90452 16.9392C3.88328 16.8706 3.85271 16.7837 3.82369 16.6851C3.79468 16.5864 3.76204 16.4706 3.72628 16.3451C3.69053 16.2196 3.65737 16.077 3.61903 15.9295C3.59882 15.855 3.58328 15.7767 3.56722 15.6963C3.55116 15.6159 3.53302 15.5354 3.5154 15.448C3.44554 15.0777 3.40122 14.7026 3.38276 14.3257C3.38276 14.2249 3.37603 14.1257 3.37706 14.0282C3.3781 13.9306 3.38173 13.834 3.38432 13.7397C3.38691 13.6453 3.39831 13.5525 3.40504 13.4614C3.41178 13.3702 3.42577 13.2828 3.43561 13.1965C3.47661 12.8914 3.53404 12.5888 3.60763 12.2903C3.63717 12.1627 3.66877 12.0479 3.69572 11.9477C3.72266 11.8474 3.74753 11.7605 3.76774 11.6903C3.78794 11.62 3.804 11.5675 3.81592 11.5294C3.8211 11.5123 3.82525 11.4983 3.82888 11.4876C3.82848 11.4831 3.82848 11.4787 3.82888 11.4742Z" fill="#263238"/>
<path d="M3.61529 11.9151C3.55928 11.8048 3.51114 11.6905 3.47125 11.573C3.42292 11.4588 3.38291 11.3411 3.35156 11.2207C3.408 11.3308 3.45633 11.4452 3.49612 11.5628C3.54471 11.6768 3.58456 11.7946 3.61529 11.9151Z" fill="#263238"/>
<path d="M12.171 11.7122C12.1167 11.8589 12.0541 12.0022 11.9834 12.1412C11.9207 12.2844 11.85 12.4237 11.7715 12.5584C11.8257 12.4117 11.8884 12.2684 11.959 12.1294C12.0217 11.9862 12.0925 11.8469 12.171 11.7122Z" fill="#263238"/>
<path d="M5.17578 8.6399L7.47112 11.9151L10.7665 8.7391L9.48408 8.41308H6.44003L5.17578 8.6399Z" fill="#FFBF9D"/>
<g opacity="0.3">
<path d="M3.41665 11.3924C3.41665 12.1206 3.35913 12.9179 3.20006 13.6273L3.24825 14.4316C3.27675 15.1174 3.10836 15.6032 2.8125 16.2172C3.08763 16.0842 3.26846 15.7936 3.34618 15.4896C3.4239 15.1855 3.41198 14.8649 3.39385 14.5512C3.3669 14.082 3.36224 13.6257 3.44566 13.1635C3.49385 12.8954 3.57675 12.3812 3.64255 12.1318C3.64203 12.1297 3.67779 12.0198 3.41665 11.3924Z" fill="black"/>
</g>
<g opacity="0.3">
<path d="M13.5361 16.3642C13.4734 16.0146 13.1547 15.7626 12.82 15.6822C12.4853 15.6017 12.1542 15.6629 11.8164 15.7251C12.5693 15.6908 13.0361 16.0425 13.361 16.4758C13.3794 16.5087 13.4095 16.5329 13.4449 16.5433C13.464 16.544 13.4828 16.5383 13.4985 16.5271C13.5143 16.5159 13.5262 16.4998 13.5325 16.4811C13.5441 16.4433 13.5454 16.4028 13.5361 16.3642Z" fill="black"/>
</g>
<path d="M7.75615 14.3496C7.7476 14.2994 7.75216 14.2477 7.76938 14.1999C7.7866 14.1521 7.81584 14.11 7.85408 14.0778C7.93198 14.014 8.02943 13.9813 8.12869 13.9856C8.21553 13.9855 8.30056 14.0112 8.37377 14.0596C8.41527 14.0863 8.45004 14.1228 8.47518 14.1662C8.50033 14.2095 8.51513 14.2585 8.51838 14.3089C8.52162 14.3594 8.5132 14.4099 8.49382 14.4564C8.47444 14.5028 8.44465 14.5438 8.40693 14.5759C8.32356 14.6499 8.21611 14.6882 8.10641 14.6832C8.01447 14.6839 7.92577 14.648 7.85874 14.5829C7.79553 14.5153 7.74786 14.422 7.75512 14.3502" fill="#407BFF"/>
<path d="M6.80758 14.6058C6.4366 14.6653 6.0796 14.2304 5.9967 13.9543C5.99052 13.9404 5.98767 13.9251 5.98839 13.9098C5.98911 13.8945 5.99338 13.8796 6.00085 13.8664C6.01292 13.8556 6.02742 13.8482 6.043 13.8448C6.05859 13.8415 6.07474 13.8422 6.08997 13.8471C6.27217 13.8777 6.44012 13.9679 6.56924 14.1044C6.69836 14.2409 6.78188 14.4166 6.80758 14.6058Z" fill="#455A64"/>
<path d="M6.39678 14.3862C6.38822 14.336 6.39279 14.2843 6.41001 14.2365C6.42722 14.1887 6.45646 14.1466 6.49471 14.1144C6.57247 14.0507 6.66972 14.018 6.7688 14.0222C6.8557 14.0217 6.94084 14.0474 7.01388 14.0962C7.05558 14.1228 7.09052 14.1594 7.1158 14.2029C7.14108 14.2463 7.15596 14.2954 7.15921 14.346C7.16245 14.3967 7.15396 14.4473 7.13445 14.4939C7.11494 14.5404 7.08497 14.5815 7.04704 14.6136C6.96364 14.6875 6.85621 14.7258 6.74652 14.7208C6.65456 14.7217 6.56582 14.6858 6.49885 14.6206C6.43512 14.5525 6.38797 14.4597 6.39522 14.3879" fill="#407BFF"/>
<path d="M10.1489 14.3863C10.1402 14.3361 10.1446 14.2844 10.1617 14.2365C10.1788 14.1887 10.2081 14.1465 10.2463 14.1144C10.3242 14.0506 10.4217 14.0179 10.521 14.0222C10.6078 14.0218 10.693 14.0475 10.766 14.0962C10.8077 14.1228 10.8427 14.1594 10.868 14.2029C10.8932 14.2464 10.9081 14.2954 10.9114 14.3461C10.9146 14.3967 10.9061 14.4474 10.8866 14.4939C10.8671 14.5404 10.8371 14.5815 10.7992 14.6136C10.7158 14.6875 10.6084 14.7258 10.4987 14.7209C10.4066 14.7217 10.3177 14.6858 10.2505 14.6206C10.1873 14.5525 10.1396 14.4597 10.1469 14.3879" fill="#407BFF"/>
<g opacity="0.3">
<path d="M7.75615 14.3495C7.7476 14.2992 7.75216 14.2476 7.76938 14.1998C7.7866 14.152 7.81584 14.1098 7.85408 14.0776C7.93198 14.0138 8.02943 13.9811 8.12869 13.9854C8.21553 13.9854 8.30056 14.011 8.37377 14.0594C8.41527 14.0861 8.45004 14.1226 8.47518 14.166C8.50033 14.2094 8.51513 14.2583 8.51838 14.3088C8.52162 14.3592 8.5132 14.4098 8.49382 14.4562C8.47444 14.5026 8.44465 14.5436 8.40693 14.5758C8.32356 14.6497 8.21611 14.6881 8.10641 14.683C8.01447 14.6838 7.92577 14.6479 7.85874 14.5827C7.79553 14.5152 7.74786 14.4219 7.75512 14.35" fill="black"/>
</g>
<g opacity="0.3">
<path d="M6.39678 14.3866C6.38822 14.3363 6.39279 14.2846 6.41001 14.2368C6.42722 14.1891 6.45646 14.1469 6.49471 14.1147C6.57247 14.051 6.66972 14.0183 6.7688 14.0225C6.8557 14.022 6.94084 14.0477 7.01388 14.0965C7.05558 14.1231 7.09052 14.1597 7.1158 14.2032C7.14108 14.2467 7.15596 14.2957 7.15921 14.3464C7.16245 14.397 7.15396 14.4477 7.13445 14.4942C7.11494 14.5407 7.08497 14.5818 7.04704 14.6139C6.96364 14.6878 6.85621 14.7262 6.74652 14.7212C6.65456 14.722 6.56582 14.6861 6.49885 14.6209C6.43512 14.5528 6.38797 14.46 6.39522 14.3882" fill="black"/>
</g>
<g opacity="0.3">
<path d="M10.1489 14.3866C10.1402 14.3364 10.1446 14.2847 10.1617 14.2369C10.1788 14.189 10.2081 14.1469 10.2463 14.1147C10.3242 14.0509 10.4217 14.0182 10.521 14.0225C10.6078 14.0221 10.693 14.0478 10.766 14.0965C10.8077 14.1232 10.8427 14.1597 10.868 14.2032C10.8932 14.2467 10.9081 14.2958 10.9114 14.3464C10.9146 14.397 10.9061 14.4477 10.8866 14.4942C10.8671 14.5408 10.8371 14.5818 10.7992 14.6139C10.7158 14.6878 10.6084 14.7261 10.4987 14.7212C10.4066 14.722 10.3177 14.6861 10.2505 14.6209C10.1873 14.5528 10.1396 14.46 10.1469 14.3882" fill="black"/>
</g>
<path d="M8.30273 14.5138C8.31051 14.3149 8.44885 14.0746 8.56543 13.9165C8.6835 13.7566 8.84634 13.6382 9.03175 13.5776C9.04443 13.5725 9.05845 13.5725 9.07113 13.5776C9.07716 13.5815 9.08234 13.5867 9.08635 13.5928C9.09036 13.5989 9.09312 13.6057 9.09444 13.613C9.13109 13.7306 9.13709 13.8561 9.11185 13.9768C9.08661 14.0976 9.03102 14.2093 8.95069 14.3007C8.87037 14.3921 8.76816 14.4599 8.65438 14.4973C8.54061 14.5348 8.41931 14.5404 8.30273 14.5138Z" fill="#455A64"/>
<path d="M9.65652 14.2047C9.73159 14.1191 9.79905 14.0267 9.85808 13.9286C9.91687 13.8296 9.94791 13.7156 9.94771 13.5994C9.94847 13.5908 9.94737 13.5822 9.94451 13.5741C9.94164 13.566 9.93707 13.5587 9.93113 13.5527C9.92411 13.5486 9.91634 13.546 9.90831 13.5452C9.90028 13.5444 9.89217 13.5453 9.8845 13.5479C9.67443 13.5914 9.48285 13.702 9.3368 13.8642C9.19075 14.0264 9.09761 14.232 9.07051 14.4519L9.05859 14.5082C9.23237 14.6197 9.44116 14.657 9.64098 14.6123C9.80228 14.5866 9.95697 14.5277 10.0959 14.4391C10.2357 14.3491 10.3372 14.2074 10.3798 14.0428C10.2552 14.0133 10.1258 14.0125 10.0008 14.0405C9.87577 14.0685 9.75825 14.1245 9.65652 14.2047Z" fill="#455A64"/>
<path d="M7.36329 13.8125C7.19438 13.6248 6.95656 13.5187 6.71666 13.4538C6.69899 13.58 6.70569 13.7087 6.73637 13.8323C6.76705 13.9559 6.8211 14.0719 6.8954 14.1737C6.9697 14.2756 7.06277 14.3611 7.16923 14.4255C7.27569 14.4899 7.39343 14.5317 7.51562 14.5487L7.53065 14.5219C7.61925 14.2822 7.5322 14.0002 7.36329 13.8125Z" fill="#455A64"/>
<path d="M10.6797 14.6006C10.6869 14.4017 10.8253 14.1614 10.9419 14.0027C11.0603 13.8432 11.223 13.725 11.4082 13.6638C11.4209 13.6588 11.4349 13.6588 11.4476 13.6638C11.4535 13.6678 11.4586 13.673 11.4625 13.6791C11.4664 13.6852 11.4691 13.692 11.4704 13.6992C11.5074 13.8167 11.5138 13.9422 11.4889 14.0631C11.4641 14.184 11.4088 14.2959 11.3287 14.3876C11.2487 14.4793 11.1466 14.5474 11.0329 14.5852C10.9192 14.623 10.7979 14.629 10.6812 14.6027" fill="#455A64"/>
<path d="M6.0293 14.4123C6.0293 14.4123 6.53293 15.9646 6.96816 16.2059C7.40339 16.4472 8.3749 16.6756 8.86764 16.6697C9.36039 16.6638 9.65728 16.6515 10.0537 16.4236L10.0656 16.4166C10.5485 16.1351 10.9237 15.691 11.1288 15.1581L11.4397 14.3538L6.0293 14.4123Z" fill="#E0E0E0"/>
<path d="M11.0897 15.2877C11.0414 15.3326 10.9862 15.3688 10.9265 15.3949C10.8569 15.4272 10.783 15.4485 10.7073 15.4582C10.6067 15.4717 10.5045 15.464 10.4068 15.4357C10.2985 15.4057 10.1892 15.3429 10.0612 15.3284C9.9952 15.3239 9.92907 15.3343 9.86739 15.359C9.80263 15.3821 9.7389 15.4158 9.67102 15.4469C9.60187 15.4814 9.5276 15.5035 9.45133 15.5124C9.37146 15.518 9.29126 15.5087 9.21454 15.485C9.0591 15.4421 8.90884 15.3617 8.74356 15.3327C8.66284 15.3182 8.57995 15.3235 8.50159 15.3483C8.42539 15.3759 8.35226 15.4118 8.28345 15.4555C8.2154 15.4974 8.14459 15.5343 8.07154 15.566C7.99991 15.5971 7.92195 15.6095 7.84459 15.6019C7.69278 15.5805 7.57516 15.4909 7.45029 15.4598C7.3325 15.4358 7.21109 15.4384 7.09433 15.4673C6.99629 15.49 6.89696 15.5061 6.79692 15.5156C6.72076 15.5219 6.64412 15.5142 6.5705 15.4931C6.52403 15.4793 6.48058 15.4563 6.44252 15.4255C6.42898 15.4152 6.41678 15.4031 6.40625 15.3896C6.4544 15.4335 6.51165 15.4654 6.57361 15.4829C6.64625 15.5015 6.72139 15.5073 6.79589 15.5C6.89513 15.4884 6.99358 15.4705 7.09071 15.4464C7.20948 15.4159 7.33327 15.4126 7.4534 15.4368C7.58345 15.4684 7.70262 15.5569 7.84563 15.5751C7.91882 15.5821 7.99253 15.5701 8.06014 15.5402C8.13144 15.5093 8.20067 15.4735 8.26739 15.433C8.33783 15.3889 8.41272 15.353 8.49071 15.3258C8.57306 15.2996 8.66023 15.2939 8.74511 15.3091C8.9161 15.3397 9.06532 15.4201 9.21817 15.4625C9.36359 15.511 9.52164 15.4983 9.65807 15.4271C9.72491 15.3971 9.78967 15.3633 9.85651 15.3397C9.92137 15.3141 9.99092 15.3036 10.0601 15.3091C10.1943 15.3242 10.3037 15.3885 10.4088 15.4191C10.5041 15.4478 10.604 15.4566 10.7026 15.4448C10.7772 15.4365 10.8501 15.417 10.9192 15.3869C10.9644 15.3674 11.0077 15.3438 11.0487 15.3161C11.0752 15.2973 11.0892 15.2872 11.0897 15.2877Z" fill="#263238"/>
<path d="M11.0903 15.1082C11.0414 15.1533 10.9855 15.1896 10.925 15.2155C10.8545 15.2479 10.7798 15.2694 10.7033 15.2793C10.6016 15.2928 10.4983 15.285 10.3996 15.2562C10.2903 15.2262 10.1794 15.1635 10.0499 15.149C9.98325 15.1447 9.91649 15.1551 9.85404 15.1795C9.78823 15.2031 9.72399 15.2369 9.65507 15.2675C9.58528 15.3022 9.51029 15.3243 9.43331 15.3329C9.35245 15.3384 9.27128 15.3293 9.19341 15.3061C9.03797 15.2627 8.88253 15.1828 8.71777 15.1533C8.636 15.139 8.55215 15.1443 8.47269 15.1688C8.39549 15.1964 8.32133 15.2323 8.25145 15.2761C8.18263 15.3179 8.11113 15.3548 8.03746 15.3865C7.96495 15.4178 7.88608 15.4299 7.80792 15.4219C7.65248 15.4005 7.53538 15.3109 7.40896 15.2804C7.28983 15.2559 7.16702 15.2583 7.04885 15.2873C6.94994 15.31 6.84974 15.3261 6.74885 15.3356C6.67186 15.3417 6.59442 15.3343 6.51984 15.3136C6.47295 15.2997 6.42901 15.2767 6.3903 15.246C6.37669 15.2356 6.36434 15.2236 6.35352 15.2101C6.40255 15.2538 6.46046 15.2855 6.52295 15.3029C6.59642 15.3218 6.67246 15.3276 6.74782 15.32C6.84792 15.3084 6.94724 15.2905 7.04523 15.2664C7.16606 15.2356 7.29189 15.2322 7.41414 15.2562C7.54574 15.2879 7.66647 15.3763 7.81103 15.3946C7.88502 15.4017 7.95957 15.3899 8.02813 15.3602C8.10069 15.3285 8.17114 15.2917 8.23901 15.2503C8.31041 15.2064 8.38614 15.1704 8.46492 15.1431C8.54881 15.1166 8.63757 15.1109 8.72398 15.1265C8.89652 15.157 9.04834 15.2375 9.20274 15.2798C9.34965 15.329 9.50939 15.3163 9.6473 15.2444C9.71518 15.2144 9.78046 15.1806 9.84834 15.157C9.91447 15.1314 9.98518 15.121 10.0556 15.1265C10.1913 15.1415 10.3017 15.2058 10.4084 15.2364C10.5048 15.2653 10.6057 15.2742 10.7053 15.2627C10.7806 15.254 10.8544 15.2346 10.9245 15.2047C10.9689 15.1856 11.0115 15.1624 11.052 15.1356C11.0641 15.1256 11.0769 15.1164 11.0903 15.1082Z" fill="#263238"/>
<path d="M9.16241 16.6675C9.16241 16.6675 8.41578 16.1849 8.24065 16.2434C8.19088 16.2611 8.14752 16.2941 8.11632 16.338C8.08513 16.3818 8.06759 16.4345 8.06604 16.4889C7.93112 16.3573 7.78703 16.2362 7.63495 16.1265C7.5479 16.0686 7.44117 16.0262 7.34427 16.0728L7.31474 16.1104L7.32769 16.1774C7.32769 16.1774 6.88417 16.0423 7.08573 16.3125C7.28728 16.5828 8.16552 17.1377 8.30956 17.2075C8.4536 17.2772 9.12044 17.4825 9.42873 17.2906C9.61981 17.2371 9.79298 17.1303 9.92925 16.9817C10.1427 16.7383 10.4572 16.342 10.4572 16.342L10.4365 15.9452L9.58055 16.6037L9.16241 16.6675Z" fill="#FFBF9D"/>
<path d="M11.0009 15.7122C10.9937 15.6575 10.9716 15.606 10.9372 15.5637C10.9004 15.5246 10.8107 15.4908 10.7703 15.5267C10.6693 15.6007 10.5512 15.8179 10.5512 15.8179C10.4833 15.8667 10.3957 15.8715 10.3341 15.9278C10.3011 15.9533 10.274 15.9861 10.2547 16.0237C10.2355 16.0613 10.2245 16.1029 10.2227 16.1455C10.2281 16.1961 10.2477 16.2439 10.2789 16.2831C10.3102 16.3224 10.3519 16.3513 10.3988 16.3664C10.4934 16.3948 10.593 16.4003 10.69 16.3825C10.7936 16.3696 10.9071 16.346 10.9724 16.2619C11.0218 16.1845 11.0434 16.0918 11.0335 15.9997C11.0312 15.903 11.0203 15.8068 11.0009 15.7122Z" fill="#FFBF9D"/>
<path d="M7.85474 16.8578C7.81204 16.833 7.77267 16.8026 7.73764 16.7672C7.64935 16.686 7.56979 16.5952 7.50034 16.4964C7.43047 16.3978 7.37172 16.2913 7.32521 16.179C7.31605 16.1583 7.31264 16.1355 7.31536 16.113C7.31797 16.0955 7.32708 16.0797 7.34075 16.069C7.36458 16.0519 7.3822 16.0621 7.38065 16.0631C7.36828 16.0637 7.35651 16.0688 7.34749 16.0776C7.33738 16.0874 7.33126 16.1008 7.33039 16.1151C7.32966 16.1347 7.33395 16.1541 7.34282 16.1714C7.3938 16.2794 7.45379 16.3826 7.5221 16.4798C7.5907 16.5772 7.66714 16.6685 7.7506 16.7527C7.78722 16.7856 7.82199 16.8207 7.85474 16.8578Z" fill="#FF9A6C"/>
<path d="M9.40016 17.2479C9.37941 17.251 9.3584 17.2519 9.33747 17.2506C9.3129 17.2508 9.28833 17.2495 9.2639 17.2469C9.2354 17.2442 9.20224 17.2426 9.16649 17.2361C9.08251 17.2233 8.99968 17.2034 8.91882 17.1766C8.81968 17.1432 8.72362 17.1006 8.63177 17.0495C8.54024 16.997 8.45352 16.936 8.3727 16.8672C8.3075 16.8108 8.24685 16.7489 8.19135 16.6822C8.16966 16.6571 8.14926 16.6308 8.13021 16.6034C8.11484 16.5834 8.10065 16.5625 8.08773 16.5407C8.07513 16.5233 8.06469 16.5044 8.05664 16.4844C8.06079 16.4844 8.10845 16.5594 8.20535 16.6694C8.26218 16.7331 8.3233 16.7926 8.38825 16.8474C8.46832 16.9138 8.55359 16.9731 8.64317 17.0249C8.73358 17.075 8.82765 17.1176 8.92452 17.1525C9.00414 17.1796 9.08552 17.201 9.16804 17.2163C9.31105 17.242 9.40068 17.242 9.40016 17.2479Z" fill="#FF9A6C"/>
<path d="M10.5959 16.3996C10.5853 16.4051 10.5736 16.4082 10.5618 16.4087C10.5297 16.4131 10.4971 16.4119 10.4654 16.405C10.4178 16.3964 10.3728 16.3762 10.3343 16.346C10.2865 16.3073 10.2528 16.2531 10.2384 16.1921C10.2232 16.1309 10.23 16.0661 10.2576 16.0098C10.2815 15.9645 10.3174 15.9272 10.3612 15.9025C10.3898 15.8859 10.4214 15.8755 10.454 15.872C10.4768 15.872 10.4892 15.872 10.4892 15.872C10.4478 15.8804 10.4079 15.8956 10.3711 15.917C10.3331 15.9419 10.3023 15.9769 10.282 16.0184C10.2581 16.0694 10.2526 16.1276 10.2664 16.1824C10.2798 16.2375 10.3098 16.2866 10.3519 16.3229C10.387 16.3525 10.4278 16.3739 10.4716 16.3857C10.5126 16.3942 10.5542 16.3988 10.5959 16.3996Z" fill="#FF9A6C"/>
<g opacity="0.6">
<path d="M7.28666 15.8524C7.24917 15.7298 7.19227 15.6146 7.11827 15.5114L6.682 14.825C6.65574 14.7753 6.618 14.7331 6.57215 14.7022C6.52967 14.6781 6.40583 14.6186 6.37993 14.7258C6.37463 14.7512 6.37643 14.7776 6.38511 14.802C6.52838 15.2278 6.77367 15.6092 7.09806 15.9103C7.14677 15.9553 7.22241 16.0004 7.27008 15.9414C7.27937 15.9289 7.28571 15.9144 7.28859 15.8989C7.29147 15.8835 7.29081 15.8675 7.28666 15.8524Z" fill="white"/>
</g>
<path d="M1.38834 7.35574C1.29197 7.19971 1.19301 7.04045 1.05259 6.92678C1.02934 6.90389 1.00194 6.88599 0.971972 6.87412C0.942003 6.86224 0.910058 6.85663 0.877981 6.85761C0.850558 6.86239 0.824618 6.87382 0.802284 6.89097C0.77995 6.90812 0.761857 6.93049 0.749484 6.95627C0.725146 7.00828 0.714086 7.06587 0.717359 7.12356C0.722022 7.32411 0.826686 7.50803 0.945857 7.66674C1.06503 7.82546 1.20492 7.97077 1.2956 8.14933H1.87695L1.38834 7.35574Z" fill="#FF9A6C"/>
<path d="M5.10231 7.64713C4.92459 7.50182 4.69609 7.43908 4.4707 7.41496C4.47123 7.53158 4.49415 7.64694 4.53812 7.75432C4.58209 7.86171 4.64623 7.95899 4.72683 8.0405C4.80743 8.12202 4.90288 8.18615 5.00763 8.22917C5.11238 8.27219 5.22435 8.29325 5.33703 8.29112L5.34687 8.26484C5.39506 8.03427 5.27951 7.79298 5.10231 7.64713Z" fill="#455A64"/>
<path d="M4.7168 7.63875C4.75535 7.65977 4.79121 7.68571 4.82353 7.71596C4.88675 7.76958 4.97068 7.84251 5.05877 7.93044C5.14685 8.01838 5.22146 8.10471 5.27276 8.16852C5.30239 8.2012 5.32846 8.23717 5.35048 8.27576C5.31692 8.24719 5.28605 8.21542 5.25825 8.18085C5.20384 8.1208 5.12716 8.03822 5.04011 7.95028C4.95307 7.86235 4.87068 7.78513 4.8111 7.7299C4.77738 7.70215 4.74585 7.67167 4.7168 7.63875Z" fill="#263238"/>
<path d="M5.89091 7.57834C5.87536 7.34562 5.76604 7.12953 5.63184 6.94132C5.54943 7.02019 5.48296 7.1152 5.43627 7.22083C5.38958 7.32647 5.36361 7.44064 5.35985 7.55674C5.35609 7.67283 5.37462 7.78855 5.41437 7.89718C5.45412 8.00582 5.5143 8.10521 5.59142 8.18961L5.61733 8.17942C5.81215 8.06253 5.90697 7.81159 5.89091 7.57834Z" fill="#455A64"/>
<path d="M5.6597 7.19157C5.66205 7.23673 5.65979 7.28202 5.65296 7.32669C5.64519 7.41945 5.63586 7.52938 5.6255 7.64842C5.61514 7.76745 5.60788 7.87952 5.60063 7.97282C5.59979 8.01805 5.59493 8.0631 5.58612 8.10741C5.57984 8.06249 5.57845 8.01699 5.58198 7.97175C5.58198 7.88864 5.5882 7.77281 5.59856 7.64573C5.60892 7.51865 5.62239 7.4039 5.63431 7.32133C5.63826 7.27726 5.64677 7.23376 5.6597 7.19157Z" fill="#263238"/>
<path d="M5.45055 8.33665C5.62711 8.33665 5.77024 8.18852 5.77024 8.00581C5.77024 7.82309 5.62711 7.67496 5.45055 7.67496C5.27399 7.67496 5.13086 7.82309 5.13086 8.00581C5.13086 8.18852 5.27399 8.33665 5.45055 8.33665Z" fill="#407BFF"/>
<g opacity="0.3">
<path d="M5.45055 8.33681C5.62711 8.33681 5.77024 8.18868 5.77024 8.00597C5.77024 7.82325 5.62711 7.67513 5.45055 7.67513C5.27399 7.67513 5.13086 7.82325 5.13086 8.00597C5.13086 8.18868 5.27399 8.33681 5.45055 8.33681Z" fill="black"/>
</g>
<path d="M4.18076 8.44205C3.87972 8.44205 3.57143 8.18789 3.36314 7.97073L3.35589 7.96322C3.34788 7.95508 3.33902 7.94788 3.32946 7.94177C3.30326 7.92551 3.27347 7.91646 3.24294 7.9155C1.88542 7.84955 0.0823103 7.35248 0.0641755 7.34766C0.0467234 7.34282 0.0318427 7.33101 0.022806 7.31482C0.0137692 7.29863 0.0113171 7.27939 0.0159893 7.26133C0.0206615 7.24327 0.0320755 7.22787 0.0477197 7.21851C0.063364 7.20916 0.081957 7.20662 0.0994091 7.21146C0.117544 7.21682 1.90666 7.7096 3.24915 7.77448C3.30413 7.77636 3.35769 7.79299 3.40459 7.82274C3.42255 7.8344 3.43907 7.84826 3.45382 7.86402L3.46159 7.87207C3.73775 8.16001 4.00252 8.31229 4.20511 8.30103C4.55123 8.28173 5.42325 8.01416 5.43206 8.01148C5.44059 8.00877 5.44957 8.00784 5.45846 8.00875C5.46735 8.00966 5.47597 8.01239 5.48383 8.01678C5.49169 8.02117 5.49863 8.02713 5.50424 8.03432C5.50985 8.04152 5.51402 8.04979 5.51651 8.05867C5.52168 8.07658 5.51978 8.09589 5.51124 8.11237C5.5027 8.12884 5.4882 8.14115 5.47092 8.1466C5.43465 8.15786 4.57454 8.42114 4.21237 8.44152L4.18076 8.44205Z" fill="#E0E0E0"/>
<path d="M4.18138 8.44225H4.21143C4.23112 8.43957 4.26065 8.43796 4.299 8.4326C4.3762 8.42241 4.48863 8.40096 4.63216 8.36825C4.77568 8.33554 4.95081 8.28996 5.15029 8.23313C5.25081 8.20471 5.36014 8.17307 5.47153 8.13768C5.48393 8.13228 5.49418 8.12267 5.50058 8.11043C5.50698 8.09818 5.50915 8.08405 5.50673 8.07036C5.50432 8.05666 5.49746 8.04423 5.48729 8.03512C5.47712 8.02601 5.46425 8.02077 5.45081 8.02025C5.43608 8.02116 5.42158 8.02442 5.4078 8.0299L5.36169 8.04385L5.26791 8.07173C5.01402 8.14465 4.73527 8.22401 4.43008 8.28353C4.35216 8.29882 4.27344 8.30939 4.19433 8.31517C4.1111 8.3151 4.02881 8.29683 3.95288 8.26155C3.79717 8.18727 3.65461 8.0865 3.53112 7.96342C3.4648 7.9039 3.41195 7.82615 3.32697 7.80255C3.28473 7.79083 3.24118 7.78488 3.19744 7.78486L3.06117 7.77574C2.8793 7.76287 2.69381 7.7425 2.50573 7.7189C2.12904 7.66957 1.742 7.60201 1.34718 7.52051C0.95236 7.439 0.569976 7.34999 0.2021 7.2524L0.133188 7.23417L0.098991 7.22506C0.0894544 7.22269 0.079512 7.22269 0.0699755 7.22506C0.0606561 7.22693 0.0519646 7.23127 0.0447487 7.23765C0.0375327 7.24404 0.0320387 7.25225 0.0288028 7.26148C0.025567 7.27072 0.0246997 7.28066 0.0262855 7.29035C0.0278713 7.30004 0.0318563 7.30913 0.0378514 7.31675C0.0492503 7.33337 0.0684207 7.33659 0.0922549 7.34302L0.159095 7.36072L0.292255 7.39557C0.469457 7.44061 0.643033 7.48279 0.812981 7.52212C1.41414 7.66409 2.02182 7.77469 2.63371 7.85349C2.76428 7.87065 2.88915 7.88084 3.00728 7.8921L3.1793 7.9039C3.2078 7.90658 3.23371 7.90711 3.26221 7.91033C3.28993 7.91404 3.3163 7.92492 3.33889 7.94197C3.35921 7.95848 3.37842 7.97639 3.3964 7.99559L3.44822 8.04921C3.48397 8.08299 3.51868 8.11516 3.55184 8.14465C3.6145 8.19858 3.68063 8.24802 3.74977 8.29265C3.84511 8.35576 3.95029 8.4013 4.06065 8.42723C4.0992 8.43457 4.13813 8.43959 4.17723 8.44225H4.14718C4.11781 8.4415 4.08854 8.43845 4.05962 8.43313C3.94812 8.40886 3.84165 8.36439 3.74511 8.30176C3.67507 8.25764 3.60807 8.20855 3.54459 8.15484C3.50936 8.12589 3.47412 8.09371 3.43837 8.05993L3.38656 8.00631C3.36933 7.98691 3.35062 7.96897 3.3306 7.95269C3.31002 7.93718 3.28593 7.92739 3.26065 7.92427C3.23526 7.92159 3.20884 7.92052 3.17879 7.91891L3.00625 7.90765C2.88811 7.89746 2.76272 7.88727 2.63215 7.87119C2.01899 7.79504 1.41006 7.68605 0.8078 7.54464C0.637852 7.50603 0.464103 7.46421 0.286556 7.41917L0.153395 7.38485L0.0860376 7.36662C0.0741205 7.3634 0.0647941 7.36179 0.0513226 7.35696C0.0382945 7.35178 0.0268451 7.34307 0.018162 7.33176C0.00931691 7.32047 0.00344635 7.30701 0.00112193 7.29268C-0.00120249 7.27834 9.85636e-05 7.26363 0.00489789 7.24997C0.00969722 7.23631 0.0178317 7.22417 0.0285095 7.21473C0.0391873 7.20529 0.0520445 7.19888 0.0658303 7.1961C0.0793202 7.19374 0.0931574 7.19465 0.106245 7.19878L0.140442 7.2079L0.208835 7.22613C0.576193 7.32211 0.959096 7.41112 1.3534 7.49423C1.7477 7.57735 2.13371 7.6433 2.50936 7.69263C2.69744 7.71676 2.88241 7.73714 3.06376 7.75054L3.19899 7.75966C3.24501 7.75986 3.2908 7.76617 3.33526 7.77842C3.35755 7.7854 3.37895 7.79512 3.39899 7.80738C3.41868 7.81971 3.43526 7.83633 3.45392 7.85081C3.48656 7.88191 3.51609 7.91462 3.54874 7.94465C3.67002 8.06608 3.81013 8.16559 3.96324 8.23903C4.03599 8.27341 4.11488 8.29168 4.19485 8.29265C4.27291 8.28715 4.35059 8.27695 4.42749 8.26208C4.73164 8.20364 5.01039 8.12589 5.26428 8.05403L5.35806 8.02669L5.40418 8.01275C5.41978 8.00667 5.43622 8.00323 5.45288 8.00256C5.47018 8.00356 5.48666 8.01056 5.49965 8.02243C5.51264 8.0343 5.5214 8.05034 5.52451 8.06799C5.52762 8.08563 5.5249 8.10384 5.5168 8.11969C5.50869 8.13555 5.49567 8.14811 5.47983 8.15538C5.36428 8.1913 5.25754 8.22079 5.15599 8.24921C4.9534 8.30283 4.77827 8.34895 4.63371 8.38005C4.48915 8.41115 4.37464 8.43099 4.29951 8.43903C4.26065 8.44332 4.23112 8.44439 4.21143 8.446C4.20135 8.44533 4.19132 8.44407 4.18138 8.44225Z" fill="#263238"/>
<path d="M0.25 8.59542C0.25 8.59542 0.316321 7.46939 0.445855 7.35679C0.575389 7.24418 1.09974 7.11013 1.16865 7.1423C1.23757 7.17448 1.63498 7.33427 1.64897 7.40236C1.65546 7.42467 1.65695 7.44823 1.6533 7.47122C1.64965 7.49422 1.64097 7.51604 1.62792 7.53503C1.61487 7.55402 1.5978 7.56967 1.57801 7.58079C1.55821 7.5919 1.53623 7.59818 1.51373 7.59915L1.20285 7.5407L0.89197 7.71444L0.855182 8.0249C0.855182 8.0249 1.17176 7.76323 1.27798 7.68602C1.3842 7.6088 1.64741 7.61202 1.65777 7.81363C1.65777 7.81363 2.0671 7.86457 2.07954 8.10908C2.07954 8.10908 2.44223 8.38094 2.46244 8.52036C2.48264 8.65977 2.30337 8.9386 2.30337 8.9386C2.30337 8.9386 2.85622 9.49196 2.8412 9.68017C2.82617 9.86838 2.88161 10.4609 2.88161 10.4609L1.62409 10.6218L1.59663 10.0855C1.59663 10.0855 0.331865 8.85977 0.25 8.59542Z" fill="#FFBF9D"/>
<path d="M2.28437 8.55028C2.27421 8.61002 2.24938 8.66605 2.21227 8.713C2.17516 8.75995 2.12702 8.79624 2.07245 8.81838C2.06831 8.81141 2.13359 8.76959 2.19162 8.69506C2.24966 8.62052 2.27712 8.5476 2.28437 8.55028Z" fill="#FF9A6C"/>
<path d="M2.37405 8.66266C2.38027 8.66749 2.3497 8.70181 2.29944 8.69966C2.24918 8.69752 2.2212 8.66052 2.22742 8.65623C2.23364 8.65194 2.2611 8.67071 2.30048 8.67178C2.33986 8.67285 2.36939 8.65677 2.37405 8.66266Z" fill="#FF9A6C"/>
<path d="M2.06927 8.12378C2.06927 8.1286 2.02626 8.14469 1.96098 8.1849C1.87646 8.23701 1.80213 8.30503 1.74181 8.38544C1.69607 8.44649 1.65939 8.51426 1.633 8.58652V8.59188H1.62885C1.56903 8.6195 1.50695 8.64157 1.44336 8.65784C1.49948 8.62355 1.55844 8.59448 1.61953 8.57097L1.61331 8.57794C1.63742 8.50167 1.67425 8.43035 1.72212 8.36721C1.78432 8.28381 1.86313 8.21524 1.9532 8.16614C1.98911 8.1449 2.02843 8.13055 2.06927 8.12378Z" fill="#FF9A6C"/>
<path d="M1.0332 8.45137C1.0332 8.45137 1.03839 8.4385 1.05652 8.42295C1.08313 8.40243 1.11316 8.38716 1.14512 8.37791C1.19007 8.3656 1.23254 8.34509 1.27051 8.31732C1.31309 8.27695 1.35275 8.2334 1.38916 8.18702C1.47155 8.08997 1.5446 8.00364 1.60263 7.94197C1.63093 7.90649 1.66271 7.87415 1.69745 7.84546C1.67435 7.88399 1.64743 7.91993 1.61714 7.9527C1.56533 8.01758 1.49175 8.10659 1.40989 8.20311C1.37252 8.25083 1.33127 8.29514 1.28657 8.33555C1.24563 8.36412 1.19969 8.38416 1.15134 8.39453C1.12051 8.40171 1.09085 8.41345 1.06326 8.42938C1.04408 8.44333 1.03476 8.45298 1.0332 8.45137Z" fill="#FF9A6C"/>
<path d="M0.849464 8.02083C0.826709 8.10052 0.784623 8.17286 0.727213 8.23096C0.669803 8.28905 0.59898 8.33098 0.521484 8.35274C0.587762 8.31118 0.650355 8.26363 0.708531 8.21065C0.760724 8.15171 0.807879 8.0882 0.849464 8.02083Z" fill="#FF9A6C"/>
<path d="M2.3171 8.94611C2.3171 8.9504 2.29844 8.94611 2.27046 8.94611C2.23406 8.94559 2.19822 8.95542 2.16684 8.97453L2.14767 8.98633V8.96327V8.9563C2.14718 8.91685 2.14053 8.87773 2.12798 8.84048C2.11761 8.8126 2.10518 8.79812 2.10777 8.7949C2.11036 8.79168 2.12849 8.80241 2.14507 8.83136C2.16433 8.86943 2.17445 8.91173 2.17461 8.95469V8.96166L2.15388 8.9504C2.1893 8.92877 2.23084 8.92044 2.2715 8.92681C2.30259 8.92949 2.31865 8.94129 2.3171 8.94611Z" fill="#FF9A6C"/>
<path d="M1.44858 10.4476C1.44858 10.4476 0.671373 14.9737 0.734068 15.4509C0.796762 15.9282 0.929404 17.8328 2.2978 17.6236C3.66619 17.4145 3.42889 15.4343 3.38122 15.0547C3.33355 14.675 3.01179 12.1398 3.01179 12.1398L2.90816 10.3666L1.44858 10.4476Z" fill="#407BFF"/>
<path d="M3.24862 14.2911C3.24489 14.2782 3.24246 14.2649 3.24137 14.2514C3.23826 14.2225 3.23308 14.1849 3.22738 14.1378C3.21546 14.0386 3.19992 13.8954 3.1823 13.7179C3.14707 13.3629 3.10613 12.8723 3.06468 12.3297C3.02323 11.787 2.98489 11.2964 2.95432 10.9414C2.93929 10.7661 2.92686 10.6235 2.91805 10.521C2.9146 10.4735 2.91149 10.4354 2.90872 10.4068C2.90803 10.3934 2.90803 10.38 2.90872 10.3666C2.91251 10.3793 2.91494 10.3925 2.91598 10.4058C2.91943 10.4347 2.9241 10.4728 2.92997 10.52C2.94188 10.6186 2.95743 10.7623 2.97505 10.9398C3.01028 11.2942 3.05121 11.7854 3.09318 12.3275C3.13515 12.8696 3.17245 13.3608 3.20147 13.7184C3.2165 13.8938 3.22893 14.0369 3.23774 14.1388C3.24137 14.1866 3.24448 14.2246 3.24707 14.2536C3.24819 14.2661 3.24871 14.2786 3.24862 14.2911Z" fill="#263238"/>
</svg>
