<svg width="13" height="20" viewBox="0 0 13 20" fill="none" xmlns="http://www.w3.org/2000/svg">
<path d="M3.56156 4.30594C3.46495 4.67426 3.36029 5.03788 3.24422 5.40084C3.18787 5.58243 3.12838 5.76379 3.06577 5.94494C3.00404 6.12608 2.93897 6.30655 2.8645 6.49105L2.84638 6.536C2.83833 6.55612 2.82961 6.57357 2.82089 6.59168C2.80334 6.62508 2.78409 6.65755 2.76319 6.68896C2.72605 6.74382 2.68406 6.79524 2.63773 6.8426C2.55732 6.92402 2.47 6.99832 2.37675 7.06466C2.20841 7.1827 2.03045 7.28639 1.84473 7.37462C1.49075 7.54375 1.122 7.68006 0.743122 7.78185L0.601562 7.41286C0.760565 7.32497 0.925605 7.23507 1.08327 7.14047C1.24093 7.04588 1.39859 6.95195 1.54753 6.85132C1.69258 6.75707 1.8309 6.65282 1.96147 6.53935C2.01815 6.49029 2.07024 6.43617 2.11712 6.37766C2.13456 6.35519 2.15026 6.33142 2.16408 6.30655C2.16866 6.29842 2.17248 6.28989 2.17549 6.28106C2.17583 6.27793 2.17583 6.27478 2.17549 6.27166V6.2663L2.18018 6.25019C2.28484 5.90401 2.38145 5.5377 2.48142 5.17676C2.58138 4.81582 2.68268 4.45219 2.78734 4.09259L3.56156 4.30594Z" fill="#FFB573"/>
<path d="M3.7366 3.91486C3.96873 4.38449 3.22605 5.91883 3.22605 5.91883L2.27539 5.54178C2.30574 5.07617 2.39594 4.6164 2.54375 4.17383C2.7846 3.50561 3.47898 3.39491 3.7366 3.91486Z" fill="#407BFF"/>
<path opacity="0.2" d="M3.76064 3.97456C3.53589 3.89942 3.30778 4.0128 3.11725 4.44418C2.92671 4.87557 2.81266 5.56525 2.82071 5.76115L3.22325 5.9215C3.22325 5.9215 3.92098 4.49584 3.76064 3.97456Z" fill="black"/>
<path d="M0.69502 7.38929L0.326027 7.39801C0.280287 7.3993 0.235294 7.40993 0.193815 7.42925C0.152336 7.44857 0.115249 7.47617 0.0848333 7.51035C0.0544179 7.54454 0.0313176 7.58459 0.0169544 7.62803C0.00259117 7.67148 -0.00273158 7.7174 0.00131315 7.76298C0.00711042 7.82136 0.0281164 7.87719 0.062235 7.92492C0.0963536 7.97264 0.142392 8.01059 0.195755 8.03496C0.249118 8.05933 0.30794 8.06928 0.366351 8.06382C0.424762 8.05836 0.480719 8.03767 0.528638 8.00383C0.634755 7.93057 0.731817 7.84499 0.817794 7.74889L0.69502 7.38929Z" fill="#FFB573"/>
<path d="M0.625032 7.38855C0.695655 7.50857 0.751948 7.63647 0.792756 7.76962C0.795356 7.77758 0.800686 7.78437 0.807805 7.78879C0.814924 7.79321 0.823376 7.79497 0.831668 7.79377C0.946581 7.7787 1.05739 7.74108 1.15772 7.68307C1.16222 7.67916 1.16553 7.67408 1.16731 7.66839C1.16909 7.66271 1.16925 7.65664 1.16779 7.65087C1.13491 7.50931 0.996708 7.20875 0.918884 7.20741C0.855148 7.20741 0.700172 7.29999 0.635095 7.34158C0.631234 7.3439 0.62789 7.34699 0.625271 7.35065C0.622652 7.35432 0.620814 7.35848 0.61987 7.36288C0.618926 7.36729 0.618898 7.37184 0.619786 7.37625C0.620674 7.38067 0.622459 7.38485 0.625032 7.38855Z" fill="#263238"/>
<path d="M3.04638 3.62215C3.04638 3.62215 2.6056 5.33696 3.5831 8.31172L6.48271 7.95949C6.4485 7.51201 5.90507 5.37453 6.08018 3.22565C5.75211 3.20271 5.4229 3.20114 5.09463 3.22095C4.68127 3.24692 4.26976 3.29688 3.86219 3.37056C3.58413 3.4331 3.31137 3.51721 3.04638 3.62215Z" fill="#407BFF"/>
<path d="M4.34598 4.83392C4.34491 4.83368 4.34389 4.83323 4.343 4.83259C4.3421 4.83195 4.34135 4.83113 4.34078 4.83019C4.34022 4.82925 4.33985 4.8282 4.33971 4.82711C4.33956 4.82602 4.33964 4.82491 4.33994 4.82385C4.42515 4.51994 4.28963 4.37771 4.08366 4.16101C3.88804 3.96682 3.72089 3.74591 3.5872 3.50487C3.24772 2.87758 3.57847 2.62667 3.79719 2.46095C3.83968 2.43071 3.87982 2.39729 3.91728 2.36099C3.91803 2.3602 3.91892 2.35956 3.91992 2.35911C3.92092 2.35867 3.92199 2.35842 3.92308 2.35839C3.92417 2.35836 3.92526 2.35854 3.92627 2.35893C3.92729 2.35932 3.92823 2.35991 3.92902 2.36065C3.92981 2.3614 3.93045 2.3623 3.9309 2.3633C3.93134 2.36429 3.93159 2.36536 3.93162 2.36646C3.93165 2.36755 3.93146 2.36863 3.93108 2.36965C3.93069 2.37067 3.9301 2.3716 3.92935 2.3724C3.89151 2.40941 3.85092 2.4435 3.80792 2.47437C3.59323 2.63673 3.2712 2.88228 3.60196 3.49682C3.73396 3.73712 3.89955 3.95738 4.09372 4.15094C4.30371 4.371 4.44192 4.51658 4.35403 4.82922C4.35327 4.83068 4.35211 4.8319 4.35069 4.83273C4.34926 4.83356 4.34763 4.83397 4.34598 4.83392Z" fill="white"/>
<path d="M4.80522 1.84773C4.7757 2.25362 4.78644 2.98825 5.09572 3.22105C4.73034 3.43514 4.40316 3.70858 4.12761 4.03016C3.98337 3.80004 3.86664 3.57529 3.86328 3.37066C4.29266 3.21099 4.24167 2.88426 4.12694 2.58572L4.80522 1.84773Z" fill="#FFB573"/>
<path opacity="0.2" d="M4.52754 2.14883L4.125 2.58492C4.15329 2.65449 4.17573 2.7263 4.19209 2.7996C4.3578 2.75465 4.56779 2.54064 4.56377 2.36151C4.565 2.28898 4.55271 2.21686 4.52754 2.14883Z" fill="black"/>
<path d="M3.36813 0.624666C2.9817 0.846733 3.25878 1.75244 3.452 1.82222C3.81428 1.95237 3.84782 0.349599 3.36813 0.624666Z" fill="#263238"/>
<path d="M4.77912 1.24501C4.81132 1.78575 4.85761 2.10107 4.62012 2.40968C4.26253 2.87395 3.56949 2.70823 3.37627 2.18762C3.20251 1.71799 3.17903 0.912914 3.67885 0.635834C3.78867 0.573783 3.91256 0.540916 4.03869 0.54037C4.16483 0.539824 4.289 0.571617 4.39935 0.632714C4.5097 0.693811 4.60255 0.782173 4.66903 0.889365C4.73552 0.996557 4.77342 1.119 4.77912 1.24501Z" fill="#FFB573"/>
<path d="M5.16328 0.77019C5.21493 1.08417 4.96201 1.96908 4.73256 1.9778C4.50311 1.98653 4.379 1.50281 4.43871 1.0466C4.22201 1.0097 2.89967 1.18078 3.06739 0.617896C3.22237 0.0986218 3.99592 0.342157 4.52391 0C4.56416 0.205965 4.33472 0.391804 4.44877 0.358259C4.9184 0.219384 5.11296 0.515249 5.44103 0.365639C5.42683 0.449177 5.39464 0.528627 5.34667 0.598483C5.29871 0.668339 5.23614 0.726928 5.16328 0.77019Z" fill="#263238"/>
<path d="M5.09203 1.80744C5.06353 1.86913 5.02314 1.92458 4.97318 1.97063C4.92321 2.01668 4.86465 2.05242 4.80086 2.0758C4.63045 2.13551 4.5325 1.9859 4.57074 1.81885C4.60495 1.66857 4.73444 1.45589 4.91021 1.46864C5.08599 1.48139 5.16314 1.65582 5.09203 1.80744Z" fill="#FFB573"/>
<path d="M3.58549 8.31053C3.58549 8.31053 2.55298 11.7381 2.43155 13.4C2.30542 15.1289 1.88477 19.4997 1.88477 19.4997L2.30877 19.6272C2.30877 19.6272 3.74919 15.6018 3.80554 13.9018C3.84244 12.7888 5.83635 8.03748 5.83635 8.03748L3.58549 8.31053Z" fill="#FFB573"/>
<path d="M1.84512 19.1427L2.40331 19.3977C2.41321 19.4021 2.42128 19.4097 2.42617 19.4194C2.43106 19.429 2.43247 19.4401 2.43014 19.4507L2.32683 19.9371C2.32418 19.9489 2.3189 19.96 2.31139 19.9695C2.30387 19.979 2.2943 19.9866 2.28341 19.9919C2.27251 19.9972 2.26056 20 2.24844 20C2.23633 20 2.22437 19.9973 2.21345 19.9921C2.02023 19.9002 1.931 19.8452 1.68545 19.7331C1.5345 19.666 0.996438 19.4379 0.787789 19.3427C0.57914 19.2474 0.64623 19.0293 0.740155 19.0495C1.16148 19.14 1.57743 19.191 1.75053 19.1367C1.78174 19.1271 1.81537 19.1293 1.84512 19.1427Z" fill="#263238"/>
<path d="M1.55353 19.0225C1.55505 19.0185 1.55684 19.0147 1.5589 19.0111C1.56222 19.0038 1.56748 18.9975 1.57411 18.993C1.58073 18.9885 1.58847 18.9859 1.59647 18.9856C1.66356 18.9822 1.77359 19.1425 1.79774 19.1747C1.79936 19.1772 1.80022 19.1802 1.80022 19.1831C1.80022 19.1861 1.79936 19.189 1.79774 19.1915C1.79623 19.1942 1.79392 19.1962 1.79114 19.1974C1.78836 19.1986 1.78526 19.1989 1.78231 19.1982C1.71522 19.1848 1.58976 19.1519 1.55823 19.0862C1.55298 19.0765 1.54985 19.0658 1.54904 19.0548C1.54823 19.0438 1.54976 19.0328 1.55353 19.0225ZM1.74675 19.16C1.69778 19.0929 1.63002 19.0151 1.59781 19.0164C1.59446 19.0164 1.59043 19.0164 1.58641 19.0251C1.58189 19.0323 1.57917 19.0404 1.57846 19.0488C1.57776 19.0572 1.57911 19.0657 1.58238 19.0734C1.62438 19.1219 1.68305 19.1528 1.74675 19.16Z" fill="#407BFF"/>
<path d="M1.7095 18.9447L1.71554 18.9333C1.72171 18.9252 1.73038 18.9194 1.74021 18.9167C1.75003 18.9141 1.76046 18.9147 1.76988 18.9186C1.77971 18.9217 1.78877 18.9268 1.79651 18.9336C1.80425 18.9405 1.81049 18.9488 1.81483 18.9581C1.85106 19.0326 1.79739 19.1822 1.79538 19.1883C1.79459 19.191 1.79302 19.1933 1.79087 19.1951C1.78872 19.1969 1.78608 19.198 1.7833 19.1983C1.78052 19.1988 1.77768 19.1984 1.77508 19.1974C1.77248 19.1963 1.77022 19.1945 1.76854 19.1923C1.73231 19.144 1.68602 19.0051 1.7095 18.9447ZM1.77659 19.146C1.79722 19.0899 1.80096 19.0291 1.78733 18.9709C1.78477 18.9654 1.78113 18.9605 1.77663 18.9565C1.77214 18.9525 1.76688 18.9494 1.76116 18.9474C1.7464 18.9427 1.74237 18.9474 1.74103 18.9508C1.72158 18.9776 1.74506 19.0843 1.77659 19.1467V19.146Z" fill="#407BFF"/>
<path d="M3.58437 8.31038C3.58437 8.31038 3.15499 9.65217 3.02148 10.2748C3.29387 10.2982 4.5726 10.6887 4.82821 10.845C4.98453 10.5612 5.74331 8.04806 5.74331 8.04806L3.58437 8.31038Z" fill="#263238"/>
<path opacity="0.2" d="M4.92647 8.9698C4.8473 9.26969 4.74332 10.009 4.9674 10.49C5.06736 10.2063 5.19818 9.80104 5.32498 9.40252C5.19483 9.13282 4.98417 8.75041 4.92647 8.9698Z" fill="black"/>
<path d="M3.0124 10.0687C2.97329 10.1593 2.95057 10.256 2.94531 10.3545C3.15463 10.3948 4.52393 10.8195 4.77552 10.953C4.89762 10.8631 4.91574 10.6692 4.92245 10.6719C4.92915 10.6745 3.78528 10.1754 3.0124 10.0687Z" fill="#407BFF"/>
<path opacity="0.2" d="M3.0124 10.0687C2.97329 10.1593 2.95057 10.256 2.94531 10.3545C3.15463 10.3948 4.52393 10.8195 4.77552 10.953C4.89762 10.8631 4.91574 10.6692 4.92245 10.6719C4.92915 10.6745 3.78528 10.1754 3.0124 10.0687Z" fill="white"/>
<path d="M4.38281 8.21482C4.38281 8.21482 6.02047 12.6172 6.83762 14.0476C7.70442 15.5705 11.3192 12.7615 11.3192 12.7615L10.9945 12.4213C10.9945 12.4213 8.87379 13.3418 8.03584 13.2747C7.21198 11.7317 6.48473 7.95854 6.48473 7.95854L4.38281 8.21482Z" fill="#FFB573"/>
<path d="M4.33008 8.221C4.33008 8.221 5.0996 10.2048 5.28946 10.8107C5.53836 10.6966 6.87479 10.4081 7.17401 10.4168C7.16999 10.0921 6.485 7.95935 6.485 7.95935L4.33008 8.221Z" fill="#263238"/>
<path d="M5.86761 8.22462C5.86583 8.22448 5.86413 8.22384 5.86271 8.22277C5.86128 8.2217 5.86019 8.22025 5.85956 8.21858C5.67909 7.6349 5.2799 7.19144 4.92768 6.80031C4.50032 6.32531 4.13133 5.91539 4.1897 5.36593C4.23196 4.95132 4.39096 4.70711 4.53252 4.49376C4.73379 4.18649 4.89212 3.94363 4.58217 3.34854C4.11657 2.45625 4.61974 2.02218 4.80893 1.85915C4.82905 1.84247 4.84831 1.82478 4.86663 1.80615C4.86738 1.8054 4.86827 1.80481 4.86925 1.8044C4.87022 1.80399 4.87127 1.80378 4.87233 1.80378C4.87339 1.80378 4.87444 1.80399 4.87542 1.8044C4.8764 1.80481 4.87729 1.8054 4.87804 1.80615C4.87959 1.80778 4.88046 1.80994 4.88046 1.81219C4.88046 1.81444 4.87959 1.8166 4.87804 1.81823C4.86596 1.83164 4.84516 1.84976 4.81833 1.87324C4.63182 2.03359 4.13669 2.46162 4.59559 3.3425C4.90957 3.94631 4.74855 4.19253 4.54527 4.5045C4.40505 4.71851 4.24672 4.96071 4.20446 5.37063C4.14877 5.91271 4.51575 6.32062 4.94244 6.79226C5.29533 7.18473 5.69586 7.62954 5.87767 8.21724C5.87798 8.21825 5.87809 8.21932 5.87799 8.22037C5.87789 8.22143 5.87758 8.22245 5.87708 8.22339C5.87658 8.22432 5.8759 8.22515 5.87508 8.22582C5.87426 8.22649 5.87332 8.227 5.8723 8.2273L5.86761 8.22462Z" fill="white"/>
<path d="M4.97483 1.81005C4.97142 1.82166 4.96548 1.83237 4.95742 1.84141C4.94937 1.85045 4.93942 1.85759 4.92828 1.86232C4.91714 1.86705 4.90508 1.86925 4.89299 1.86876C4.88089 1.86827 4.86906 1.8651 4.85834 1.85949C4.84761 1.85387 4.83827 1.84595 4.83098 1.83629C4.82368 1.82663 4.81862 1.81547 4.81616 1.80362C4.8137 1.79177 4.8139 1.77952 4.81674 1.76775C4.81958 1.75599 4.825 1.745 4.8326 1.73558C4.8417 1.71332 4.85916 1.69552 4.88124 1.68599C4.90331 1.67646 4.92824 1.67596 4.95068 1.68459C4.97033 1.69818 4.98386 1.71893 4.98838 1.74239C4.9929 1.76584 4.98803 1.79014 4.97483 1.81005Z" fill="white"/>
<path d="M5.70047 8.20856L6.23476 8.1131C6.24597 8.11109 6.25752 8.11363 6.26686 8.12014C6.27621 8.12665 6.28258 8.1366 6.28459 8.14781L6.3286 8.39416L5.70977 8.50472L5.66576 8.25838C5.66476 8.25283 5.66487 8.24714 5.66608 8.24163C5.66729 8.23612 5.66957 8.2309 5.67279 8.22628C5.67602 8.22165 5.68012 8.21771 5.68487 8.21467C5.68962 8.21163 5.69492 8.20955 5.70047 8.20856Z" fill="white"/>
<path d="M5.20508 10.6203C5.2156 10.7182 5.24355 10.8134 5.2876 10.9014C5.48887 10.8343 6.89104 10.5277 7.1755 10.5197C7.2379 10.3815 7.15806 10.2037 7.16477 10.203C7.17148 10.2023 5.92696 10.3338 5.20508 10.6203Z" fill="#407BFF"/>
<path opacity="0.2" d="M5.20508 10.6203C5.2156 10.7182 5.24355 10.8134 5.2876 10.9014C5.48887 10.8343 6.89104 10.5277 7.1755 10.5197C7.2379 10.3815 7.15806 10.2037 7.16477 10.203C7.17148 10.2023 5.92696 10.3338 5.20508 10.6203Z" fill="white"/>
<path d="M11.3535 12.8826L10.8839 12.4874C10.8757 12.4803 10.8701 12.4706 10.8681 12.4599C10.866 12.4492 10.8676 12.4381 10.8725 12.4284L11.1026 11.9876C11.1084 11.9769 11.1165 11.9677 11.1263 11.9606C11.1361 11.9535 11.1474 11.9487 11.1593 11.9466C11.1713 11.9445 11.1835 11.9451 11.1952 11.9483C11.2069 11.9516 11.2176 11.9575 11.2267 11.9655C11.3877 12.1057 11.4595 12.1828 11.6655 12.3566C11.793 12.4633 12.2499 12.8262 12.425 12.9738C12.6001 13.1214 12.4773 13.314 12.3921 13.269C12.011 13.0678 11.6239 12.9081 11.4428 12.9141C11.4102 12.9148 11.3785 12.9036 11.3535 12.8826Z" fill="#263238"/>
<path d="M11.6002 13.074L11.5922 13.0833C11.587 13.0894 11.5803 13.0939 11.5727 13.0965C11.5652 13.0991 11.5571 13.0997 11.5492 13.0981C11.4821 13.0827 11.4211 12.8968 11.409 12.8626C11.408 12.8597 11.4079 12.8565 11.4088 12.8535C11.4096 12.8505 11.4113 12.8478 11.4137 12.8458C11.4162 12.8442 11.4191 12.8434 11.4221 12.8434C11.4251 12.8434 11.428 12.8442 11.4305 12.8458C11.4976 12.878 11.6036 12.9425 11.6163 13.0136C11.618 13.0242 11.6174 13.0351 11.6147 13.0455C11.6119 13.0559 11.607 13.0656 11.6002 13.074ZM11.4513 12.8895C11.4801 12.9686 11.5251 13.0605 11.5559 13.0679C11.5586 13.0684 11.5612 13.0681 11.5637 13.0672C11.5662 13.0662 11.5684 13.0646 11.57 13.0625C11.5762 13.0568 11.5809 13.0497 11.5837 13.0417C11.5865 13.0338 11.5873 13.0253 11.5861 13.0169C11.5808 12.9827 11.5331 12.9398 11.4526 12.8921L11.4513 12.8895Z" fill="#407BFF"/>
<path d="M11.4291 13.1088C11.4269 13.1126 11.4239 13.1158 11.4204 13.1182C11.4124 13.1248 11.4025 13.1284 11.3922 13.1284C11.3819 13.1284 11.372 13.1248 11.364 13.1182C11.3555 13.1127 11.3482 13.1054 11.3427 13.0968C11.3371 13.0883 11.3334 13.0786 11.3318 13.0686C11.3164 12.9867 11.4083 12.8573 11.4123 12.8512C11.414 12.849 11.4163 12.8472 11.4189 12.8461C11.4215 12.8451 11.4243 12.8447 11.4271 12.8452C11.4297 12.8456 11.4322 12.8467 11.4343 12.8483C11.4364 12.85 11.4381 12.8521 11.4392 12.8546C11.4613 12.9116 11.466 13.0579 11.4291 13.1088ZM11.419 12.8968C11.3842 12.9453 11.3644 13.0029 11.362 13.0625C11.3629 13.0685 11.3651 13.0742 11.3683 13.0793C11.3715 13.0844 11.3758 13.0887 11.3808 13.0921C11.3935 13.1008 11.3989 13.0968 11.4009 13.0921C11.4271 13.074 11.4325 12.9653 11.419 12.8968Z" fill="#407BFF"/>
<path d="M3.98314 1.49385C3.98851 1.53746 3.96972 1.5757 3.94154 1.57905C3.91337 1.58241 3.88519 1.5502 3.87982 1.5066C3.87445 1.46299 3.89324 1.42408 3.92209 1.42072C3.95094 1.41737 3.97777 1.45024 3.98314 1.49385Z" fill="#263238"/>
<path d="M3.48965 1.55381C3.49501 1.59809 3.47556 1.63633 3.44738 1.63969C3.4192 1.64304 3.39102 1.61016 3.38566 1.56656C3.38029 1.52295 3.39975 1.48471 3.42792 1.48135C3.4561 1.478 3.48294 1.5102 3.48965 1.55381Z" fill="#263238"/>
<path d="M3.65003 1.55639C3.61412 1.69742 3.55904 1.83286 3.48633 1.95893C3.5189 1.97653 3.55491 1.98685 3.59186 1.98916C3.62881 1.99148 3.66583 1.98574 3.70034 1.97234L3.65003 1.55639Z" fill="#ED893E"/>
<path d="M3.839 2.07524C3.83584 2.07526 3.83278 2.0741 3.83043 2.07199C3.82807 2.06988 3.82658 2.06698 3.82625 2.06383C3.82606 2.06216 3.82621 2.06046 3.82669 2.05884C3.82716 2.05723 3.82795 2.05572 3.82901 2.05441C3.83007 2.0531 3.83138 2.05201 3.83287 2.05121C3.83435 2.05041 3.83598 2.04991 3.83765 2.04974C3.89264 2.04475 3.94565 2.02676 3.99231 1.99725C4.03897 1.96773 4.07794 1.92755 4.10601 1.88001C4.10673 1.87844 4.10776 1.87703 4.10903 1.87587C4.11031 1.87471 4.11181 1.87382 4.11344 1.87325C4.11507 1.87269 4.1168 1.87246 4.11852 1.87258C4.12024 1.87271 4.12192 1.87318 4.12346 1.87397C4.12639 1.87566 4.12862 1.87836 4.12973 1.88156C4.13084 1.88477 4.13076 1.88827 4.12949 1.89141C4.10001 1.9428 4.05858 1.98633 4.00872 2.01833C3.95886 2.05033 3.90202 2.06985 3.84302 2.07524H3.839Z" fill="#263238"/>
<path d="M4.10993 1.31713C4.10642 1.31712 4.10295 1.3164 4.09972 1.31502C4.09649 1.31364 4.09358 1.31162 4.09115 1.30908C4.06935 1.28484 4.04211 1.26612 4.01167 1.25446C3.98123 1.24279 3.94846 1.23852 3.91604 1.24199C3.90972 1.24229 3.90352 1.24028 3.89856 1.23635C3.89361 1.23241 3.89025 1.22682 3.8891 1.2206C3.88796 1.21438 3.88911 1.20795 3.89233 1.20251C3.89556 1.19707 3.90064 1.19299 3.90665 1.19101C3.9474 1.18585 3.98878 1.19047 4.0274 1.20447C4.06601 1.21846 4.10074 1.24145 4.12872 1.27151C4.13344 1.2765 4.13607 1.2831 4.13607 1.28996C4.13607 1.29683 4.13344 1.30343 4.12872 1.30841C4.12375 1.31355 4.11706 1.31665 4.10993 1.31713Z" fill="#263238"/>
<path d="M3.2488 1.41094H3.24008C3.23363 1.40866 3.22833 1.40394 3.22532 1.39779C3.22231 1.39165 3.22183 1.38457 3.22398 1.37807C3.23648 1.33892 3.25817 1.30333 3.28723 1.27427C3.31629 1.2452 3.35188 1.22352 3.39103 1.21102C3.39434 1.21011 3.39779 1.20989 3.40119 1.21035C3.40458 1.21081 3.40785 1.21196 3.41079 1.21371C3.41373 1.21546 3.41629 1.21779 3.41831 1.22056C3.42034 1.22332 3.42178 1.22647 3.42256 1.2298C3.4242 1.23647 3.42314 1.24351 3.41963 1.24941C3.41611 1.25531 3.41042 1.25959 3.40378 1.26133C3.3721 1.27094 3.34329 1.28821 3.31988 1.31162C3.29648 1.33502 3.27921 1.36384 3.2696 1.39551C3.26783 1.39971 3.26496 1.40335 3.26131 1.40607C3.25765 1.40878 3.25333 1.41046 3.2488 1.41094Z" fill="#263238"/>
<path d="M6.52891 3.60472C6.69261 3.92675 6.83618 4.24543 6.97036 4.57819C7.03745 4.74457 7.10052 4.91364 7.15687 5.08606C7.21801 5.26448 7.26842 5.44639 7.30782 5.63083C7.31722 5.6798 7.32594 5.73079 7.33332 5.78379C7.3411 5.84321 7.34557 5.90301 7.34673 5.96292C7.34724 6.06637 7.32187 6.16831 7.27294 6.25946C7.229 6.34 7.16812 6.41004 7.09448 6.46475C6.98954 6.54135 6.87054 6.59652 6.74427 6.62711C6.64386 6.65231 6.54153 6.66914 6.43834 6.67743C6.06729 6.70166 5.6947 6.67228 5.33203 6.59021L5.36759 6.19707L5.61783 6.1756C5.7017 6.16755 5.78489 6.15748 5.86741 6.14809C6.02702 6.12941 6.18539 6.10141 6.34173 6.06423C6.41048 6.04718 6.47777 6.02475 6.543 5.99714C6.58538 5.98365 6.62415 5.96071 6.65638 5.93005C6.66108 5.92267 6.65638 5.92334 6.64431 5.93676C6.63541 5.95036 6.62947 5.96567 6.62686 5.98171C6.62686 5.98506 6.62686 5.98171 6.62686 5.97701V5.96762V5.94816L6.61814 5.90187C6.61009 5.869 6.60204 5.83478 6.59198 5.79923C6.55105 5.65632 6.49671 5.50135 6.43566 5.34838C6.37461 5.19542 6.3102 5.03977 6.24177 4.88546C6.10759 4.57685 5.962 4.26354 5.81977 3.96097L6.52891 3.60472Z" fill="#FFB573"/>
<path d="M5.56276 6.29291L5.33667 6.00174C5.30846 5.96573 5.27317 5.93588 5.23299 5.91401C5.19282 5.89214 5.14859 5.87871 5.10303 5.87457C5.05747 5.87042 5.01155 5.87563 4.96808 5.88989C4.92461 5.90415 4.88452 5.92714 4.85027 5.95746C4.80685 5.99686 4.77452 6.04695 4.75649 6.10273C4.73846 6.15852 4.73537 6.21805 4.74752 6.2754C4.75967 6.33276 4.78663 6.38592 4.82573 6.42961C4.86483 6.47329 4.9147 6.50596 4.97036 6.52437C5.09229 6.56579 5.21857 6.59303 5.34673 6.60555L5.56276 6.29291Z" fill="#FFB573"/>
<path d="M6.08121 3.22579C6.91581 3.34119 7.17678 4.76885 7.17678 4.76885L6.24826 5.25324C5.95279 4.94879 5.70083 4.60494 5.49954 4.23147C5.17013 3.60954 5.52638 3.14864 6.08121 3.22579Z" fill="#407BFF"/>
</svg>
