<svg width="8" height="20" viewBox="0 0 8 20" fill="none" xmlns="http://www.w3.org/2000/svg">
<path d="M0.18987 6.69642L0.544068 6.68262L0.383818 7.27427C0.25741 7.1983 0.14221 7.10887 0.0408509 7.00803C0.0116193 6.97785 -0.00288655 6.93878 0.000477666 6.89927C0.00384188 6.85977 0.0248054 6.82303 0.0588233 6.797L0.18987 6.69642Z" fill="#E4897B"/>
<path d="M0.954174 7.00145L0.795421 7.48266L0.382812 7.27295L0.543063 6.68262L0.954174 7.00145Z" fill="#E4897B"/>
<path d="M0.884924 4.14519L0.160156 4.2041L1.82244 19.9647L2.54721 19.9058L0.884924 4.14519Z" fill="#407BFF"/>
<path opacity="0.3" d="M0.884924 4.14519L0.160156 4.2041L1.82244 19.9647L2.54721 19.9058L0.884924 4.14519Z" fill="black"/>
<path d="M2.33414 4.02703L1.60938 4.08594L3.27166 19.8465L3.99643 19.7876L2.33414 4.02703Z" fill="#407BFF"/>
<path opacity="0.3" d="M2.33414 4.02703L1.60938 4.08594L3.27166 19.8465L3.99643 19.7876L2.33414 4.02703Z" fill="black"/>
<path d="M1.61149 4.0866L0.886719 4.14551L2.549 19.9061L3.27377 19.8472L1.61149 4.0866Z" fill="#407BFF"/>
<path opacity="0.1" d="M1.61149 4.0866L0.886719 4.14551L2.549 19.9061L3.27377 19.8472L1.61149 4.0866Z" fill="black"/>
<path d="M1.45714 2.98438L0.804904 3.03762L0.160156 4.20449L2.33477 4.02765L1.45714 2.98438Z" fill="#407BFF"/>
<g opacity="0.8">
<path d="M1.45714 2.98438L0.804904 3.03762L0.160156 4.20449L2.33477 4.02765L1.45714 2.98438Z" fill="#FAFAFA"/>
</g>
<path d="M1.08101 2.53711L0.804688 3.03738L1.45692 2.98414L1.08101 2.53711Z" fill="#263238"/>
<path d="M6.56059 3.42773C6.63548 3.49347 6.69763 3.55593 6.76203 3.62495C6.82643 3.69398 6.88783 3.75643 6.94924 3.82217C7.0728 3.95365 7.18812 4.09236 7.30044 4.2337C7.532 4.52107 7.72734 4.82966 7.88304 5.15404C7.90176 5.19612 7.91898 5.24016 7.93695 5.28552L7.96391 5.35126C7.97875 5.39061 7.98928 5.43112 7.99536 5.47222C8.01162 5.60305 7.99184 5.73539 7.9377 5.85811C7.85688 6.03926 7.74363 6.20793 7.60222 6.35773C7.3522 6.62636 7.06435 6.86603 6.74555 7.071L6.46324 6.80804C6.68543 6.5642 6.88858 6.30745 7.0713 6.03955C7.15134 5.9251 7.21284 5.80142 7.25401 5.67207C7.2654 5.64033 7.26669 5.60646 7.25776 5.57412L7.2323 5.52547C7.21507 5.49326 7.2001 5.45973 7.18138 5.42818C7.02287 5.15815 6.83743 4.90099 6.62724 4.65969C6.5224 4.53412 6.41157 4.41185 6.29925 4.28957C6.24309 4.22909 6.18617 4.16861 6.12777 4.10945L5.95703 3.93656L6.56059 3.42773Z" fill="#E4897B"/>
<path d="M6.01172 7.00919L6.33072 7.56337L6.64299 7.32737L6.38689 6.93359L6.01172 7.00919Z" fill="#E4897B"/>
<path d="M3.60694 3.7521C3.41274 4.07685 3.21106 4.39787 3.00188 4.71517C2.89929 4.87492 2.79146 5.03204 2.68662 5.19047L2.52562 5.42713L2.48518 5.48629C2.46497 5.51456 2.4425 5.54809 2.42228 5.57044C2.40206 5.59279 2.38184 5.61974 2.36237 5.64012C2.34291 5.6605 2.32194 5.68351 2.30247 5.70258C2.1512 5.84724 1.99016 5.98378 1.82022 6.11147C1.65622 6.23441 1.49223 6.35405 1.32299 6.46778C0.988262 6.69721 0.644546 6.91086 0.288101 7.11465L0.03125 6.83066L0.91862 6.06348C1.06389 5.93201 1.21067 5.80842 1.3492 5.67825C1.48532 5.55576 1.61357 5.42671 1.73335 5.29171C1.74783 5.27593 1.76056 5.26081 1.77154 5.24635C1.78427 5.23057 1.79326 5.21742 1.80225 5.20427C1.80999 5.1937 1.81699 5.18272 1.82321 5.1714L1.85766 5.11027L1.99619 4.86243C2.0913 4.69874 2.18415 4.53373 2.28075 4.37136C2.47195 4.04398 2.67164 3.72032 2.87982 3.40039L3.60694 3.7521Z" fill="#E4897B"/>
<path d="M5.7099 1.53152C5.70025 1.56964 5.71584 1.6058 5.74332 1.61237C5.7708 1.61895 5.80125 1.59265 5.81091 1.55452C5.82057 1.5164 5.80423 1.48024 5.77674 1.47366C5.74926 1.46709 5.71659 1.49339 5.7099 1.53152Z" fill="#263238"/>
<path d="M5.71186 1.60547C5.73532 1.73369 5.77813 1.8586 5.83917 1.9769C5.8047 1.98887 5.76767 1.99408 5.73067 1.99215C5.69367 1.99021 5.6576 1.9812 5.625 1.96572L5.71186 1.60547Z" fill="#DE5753"/>
<path d="M5.82486 1.29999C5.81954 1.3 5.81433 1.29863 5.80989 1.29604C5.78222 1.2812 5.75086 1.27249 5.71851 1.27066C5.68616 1.26883 5.65378 1.27393 5.62418 1.28553C5.61771 1.28774 5.61052 1.28767 5.6041 1.28535C5.59768 1.28302 5.59253 1.27861 5.58973 1.27303C5.58721 1.26736 5.58728 1.26104 5.58993 1.25541C5.59258 1.24978 5.59761 1.24526 5.60396 1.2428C5.64181 1.22853 5.68303 1.22251 5.72411 1.22526C5.76518 1.228 5.80489 1.23944 5.83984 1.25857C5.84269 1.26022 5.84512 1.26236 5.84701 1.26486C5.8489 1.26735 5.85019 1.27015 5.85082 1.2731C5.85145 1.27604 5.8514 1.27907 5.85067 1.28199C5.84994 1.28492 5.84855 1.28768 5.84658 1.29013C5.84415 1.2932 5.8409 1.2957 5.83711 1.29742C5.83333 1.29914 5.82912 1.30002 5.82486 1.29999Z" fill="#263238"/>
<path d="M4.19464 1.67676C4.28899 2.03043 4.39608 2.67731 4.125 2.91331C4.125 2.91331 4.2508 3.27159 4.99889 3.27159C5.82261 3.27159 5.37331 2.91331 5.37331 2.91331C4.92026 2.8193 4.91877 2.52677 4.98466 2.25263L4.19464 1.67676Z" fill="#E4897B"/>
<path d="M4.02417 3.03643C3.95977 2.92335 3.88938 2.79319 4.02417 2.75243C4.16944 2.70773 4.97593 2.66237 5.25825 2.74586C5.33347 2.76352 5.3979 2.80621 5.43787 2.86487C5.47785 2.92353 5.49024 2.99355 5.47241 3.06009L4.02417 3.03643Z" fill="#407BFF"/>
<path opacity="0.6" d="M4.02417 3.03643C3.95977 2.92335 3.88938 2.79319 4.02417 2.75243C4.16944 2.70773 4.97593 2.66237 5.25825 2.74586C5.33347 2.76352 5.3979 2.80621 5.43787 2.86487C5.47785 2.92353 5.49024 2.99355 5.47241 3.06009L4.02417 3.03643Z" fill="#FAFAFA"/>
<path d="M2.94674 19.53C2.8984 19.5297 2.85021 19.5251 2.80296 19.5161C2.80053 19.5158 2.7983 19.5148 2.79655 19.5132C2.79481 19.5117 2.79365 19.5097 2.79323 19.5076C2.79273 19.5054 2.79296 19.5031 2.79389 19.501C2.79481 19.4989 2.7964 19.4971 2.79847 19.4958C2.80446 19.4918 2.94823 19.4011 3.0321 19.4169C3.04116 19.4183 3.04976 19.4214 3.05727 19.4261C3.06478 19.4307 3.07102 19.4368 3.07554 19.4438C3.08228 19.4517 3.08593 19.4613 3.08593 19.4711C3.08593 19.481 3.08228 19.4905 3.07554 19.4984C3.05756 19.524 3.0029 19.53 2.94674 19.53ZM2.83965 19.4997C2.92202 19.5115 3.03435 19.5115 3.05682 19.4846C3.05682 19.4846 3.0658 19.4741 3.05307 19.455C3.05033 19.4508 3.04655 19.4472 3.04201 19.4445C3.03748 19.4418 3.0323 19.44 3.02686 19.4392C2.95886 19.4431 2.8937 19.4646 2.83965 19.501V19.4997Z" fill="#FAFAFA"/>
<path d="M2.80573 19.5185H2.79899C2.79704 19.5176 2.79544 19.5161 2.79438 19.5144C2.79332 19.5126 2.79284 19.5107 2.793 19.5087C2.793 19.5028 2.79974 19.3634 2.86189 19.3174C2.86935 19.3115 2.87816 19.3071 2.88772 19.3045C2.89728 19.3019 2.90737 19.3011 2.91731 19.3023C2.9274 19.3023 2.93719 19.3053 2.94498 19.311C2.95277 19.3166 2.95807 19.3245 2.95999 19.3332C2.97197 19.3871 2.86713 19.4922 2.81022 19.5192L2.80573 19.5185ZM2.90832 19.3213C2.89755 19.3214 2.88719 19.3249 2.87911 19.3312C2.84238 19.3754 2.82199 19.4284 2.82071 19.483C2.87462 19.4456 2.94127 19.366 2.93453 19.3345C2.93453 19.3312 2.93453 19.3233 2.91431 19.3213H2.90832Z" fill="#FAFAFA"/>
<path d="M6.25021 19.5295C6.19343 19.5295 6.13678 19.5248 6.08097 19.5157C6.07835 19.5153 6.07592 19.5142 6.07404 19.5125C6.07216 19.5109 6.07092 19.5088 6.07049 19.5065C6.07007 19.5042 6.07041 19.5019 6.07147 19.4998C6.07254 19.4977 6.07428 19.4959 6.07648 19.4946C6.10418 19.4808 6.3483 19.3579 6.40746 19.4427C6.41339 19.4501 6.41657 19.4589 6.41657 19.468C6.41657 19.4771 6.41339 19.4859 6.40746 19.4933C6.39099 19.5222 6.3206 19.5295 6.25021 19.5295ZM6.12216 19.4986C6.2255 19.5117 6.36478 19.5097 6.38874 19.4802C6.38874 19.4802 6.39623 19.471 6.385 19.4545C6.35205 19.4078 6.20378 19.4637 6.12216 19.4999V19.4986Z" fill="#FAFAFA"/>
<path d="M6.08315 19.5181C6.08069 19.5186 6.07811 19.5186 6.07566 19.5181C6.07378 19.5169 6.0723 19.5153 6.07138 19.5134C6.07046 19.5116 6.07012 19.5095 6.07042 19.5075C6.07042 19.5023 6.0794 19.3721 6.1453 19.3215C6.15528 19.3135 6.1672 19.3075 6.18017 19.3041C6.19314 19.3007 6.20681 19.2999 6.22018 19.3018C6.25688 19.3051 6.26736 19.3215 6.26961 19.3346C6.28009 19.3905 6.15503 19.4924 6.08914 19.5187L6.08315 19.5181ZM6.20895 19.3208C6.19232 19.3207 6.17625 19.3261 6.16402 19.336C6.12466 19.3783 6.10182 19.4306 6.09887 19.4852C6.16477 19.4497 6.24864 19.3688 6.2434 19.3353C6.2434 19.332 6.2434 19.3235 6.21644 19.3208H6.20895Z" fill="#FAFAFA"/>
<path d="M5.47656 19.5059H6.02696L6.0322 18.3877H5.48255L5.47656 19.5059Z" fill="#E4897B"/>
<path d="M2.17578 19.5059H2.72618L2.95382 18.3877H2.40343L2.17578 19.5059Z" fill="#E4897B"/>
<path d="M2.7621 19.4502H2.14432C2.13339 19.4501 2.12278 19.4534 2.1144 19.4595C2.10602 19.4657 2.10043 19.4743 2.09864 19.4837L2.00878 19.913C2.00693 19.9237 2.00774 19.9345 2.01116 19.9449C2.01458 19.9552 2.02052 19.9648 2.02857 19.9729C2.03662 19.981 2.04658 19.9875 2.05778 19.992C2.06897 19.9964 2.08113 19.9986 2.09339 19.9985C2.30906 19.9952 2.41315 19.984 2.68497 19.984C2.85197 19.984 3.19718 19.9998 3.42857 19.9998C3.65996 19.9998 3.68018 19.8026 3.58508 19.7809C3.15749 19.6994 2.99275 19.5869 2.85271 19.4804C2.82772 19.461 2.7955 19.4503 2.7621 19.4502Z" fill="#263238"/>
<path d="M6.02295 19.4502H5.42388C5.41295 19.4501 5.40234 19.4534 5.39396 19.4595C5.38558 19.4657 5.37999 19.4743 5.3782 19.4837L5.28834 19.913C5.28624 19.9236 5.28683 19.9344 5.29006 19.9448C5.29329 19.9551 5.29908 19.9647 5.30702 19.9729C5.31496 19.981 5.32485 19.9876 5.33598 19.992C5.34712 19.9964 5.35924 19.9986 5.37146 19.9985C5.58787 19.9952 5.90014 19.984 6.17271 19.984C6.49172 19.984 6.76729 19.9998 7.14096 19.9998C7.36561 19.9998 7.42027 19.8026 7.32517 19.7809C6.89085 19.698 6.53889 19.6895 6.15848 19.4883C6.11824 19.4648 6.07129 19.4516 6.02295 19.4502Z" fill="#263238"/>
<path d="M3.07571 3.02252C2.56426 3.12638 2.02734 4.36031 2.02734 4.36031L3.08994 4.98351C3.3339 4.65878 3.54776 4.31738 3.72945 3.96259C4.01026 3.39789 3.59765 2.91668 3.07571 3.02252Z" fill="#407BFF"/>
<path opacity="0.7" d="M3.07571 3.02252C2.56426 3.12638 2.02734 4.36031 2.02734 4.36031L3.08994 4.98351C3.3339 4.65878 3.54776 4.31738 3.72945 3.96259C4.01026 3.39789 3.59765 2.91668 3.07571 3.02252Z" fill="black"/>
<path d="M3.48058 3.80957L3.04102 4.95409L3.09119 4.98367C3.09119 4.98367 3.29188 4.72071 3.50529 4.37033L3.48058 3.80957Z" fill="#407BFF"/>
<path opacity="0.8" d="M3.48058 3.80957L3.04102 4.95409L3.09119 4.98367C3.09119 4.98367 3.29188 4.72071 3.50529 4.37033L3.48058 3.80957Z" fill="black"/>
<path d="M6.50808 5.17993C6.50359 5.71899 6.4669 6.38953 6.37554 7.22179H3.43262C3.39443 6.82736 3.59362 4.89068 3.07617 3.02237C3.39986 2.96729 3.7273 2.93084 4.0564 2.91325C4.4729 2.8922 4.89044 2.8922 5.30695 2.91325C5.59419 2.93776 5.87885 2.98172 6.15838 3.04473C6.15838 3.04473 6.40999 3.28402 6.48637 4.40618C6.50134 4.63035 6.50958 4.88542 6.50808 5.17993Z" fill="#407BFF"/>
<path opacity="0.7" d="M6.50808 5.17993C6.50359 5.71899 6.4669 6.38953 6.37554 7.22179H3.43262C3.39443 6.82736 3.59362 4.89068 3.07617 3.02237C3.39986 2.96729 3.7273 2.93084 4.0564 2.91325C4.4729 2.8922 4.89044 2.8922 5.30695 2.91325C5.59419 2.93776 5.87885 2.98172 6.15838 3.04473C6.15838 3.04473 6.40999 3.28402 6.48637 4.40618C6.50134 4.63035 6.50958 4.88542 6.50808 5.17993Z" fill="black"/>
<path d="M6.50924 5.18037C6.33102 4.89507 6.00752 4.32248 6.0532 3.99707L6.48752 4.40991C6.5025 4.6308 6.51074 4.88586 6.50924 5.18037Z" fill="#407BFF"/>
<path opacity="0.8" d="M6.50924 5.18037C6.33102 4.89507 6.00752 4.32248 6.0532 3.99707L6.48752 4.40991C6.5025 4.6308 6.51074 4.88586 6.50924 5.18037Z" fill="black"/>
<path d="M5.58336 3.48458C5.53693 3.94475 6.72533 5.0518 6.72533 5.0518L7.67785 4.37074C7.42837 4.00115 7.12946 3.65907 6.78748 3.35178C6.23035 2.87912 5.63578 2.96918 5.58336 3.48458Z" fill="#407BFF"/>
<path opacity="0.7" d="M5.58336 3.48458C5.53693 3.94475 6.72533 5.0518 6.72533 5.0518L7.67785 4.37074C7.42837 4.00115 7.12946 3.65907 6.78748 3.35178C6.23035 2.87912 5.63578 2.96918 5.58336 3.48458Z" fill="black"/>
<path d="M6.03311 18.3887L6.03011 18.9645H5.48047L5.48272 18.3887H6.03311Z" fill="#CE6F64"/>
<path d="M2.40272 18.3887H2.95312L2.83555 18.9645H2.28516L2.40272 18.3887Z" fill="#CE6F64"/>
<path d="M4.29418 1.13303C4.21405 1.60898 4.13992 1.88246 4.34809 2.18486C4.41427 2.28279 4.50971 2.36295 4.62408 2.41666C4.73845 2.47037 4.86738 2.49558 4.99691 2.48955C5.12643 2.48353 5.2516 2.44649 5.35886 2.38247C5.46612 2.31845 5.55138 2.22987 5.60539 2.12635C5.8203 1.73192 5.91616 1.0193 5.44364 0.718219C5.34393 0.650633 5.22571 0.607287 5.10087 0.592539C4.97603 0.577792 4.84896 0.592164 4.73245 0.634209C4.61594 0.676255 4.5141 0.744491 4.43716 0.832056C4.36023 0.919621 4.31091 1.02343 4.29418 1.13303Z" fill="#E4897B"/>
<path d="M5.92298 0.9072C5.76091 0.984902 5.5826 1.03298 5.39879 1.04854C5.26176 1.59878 4.89707 2.23184 4.30699 2.04975C4.08234 1.98401 3.85769 1.50608 3.83448 1.08207C3.79554 1.12348 3.76933 1.17739 3.74911 1.19974C3.71543 1.0113 3.73973 0.818383 3.8195 0.640956C3.98275 0.234689 4.09133 0.504219 4.2688 0.257697C4.38337 0.0946642 4.58706 0.0105183 4.94275 0C4.84316 0.04536 4.82444 0.11833 4.97196 0.107812C5.11948 0.0972939 5.74925 0.067054 6.11618 0.284651C5.86831 0.333955 6.01958 0.679085 6.35056 0.495016C6.23 0.666595 6.08023 0.829628 5.92298 0.9072Z" fill="#263238"/>
<path d="M4.97461 1.42781C4.97671 1.54884 5.0229 1.6661 5.10641 1.76242C5.21798 1.88864 5.34604 1.82816 5.37674 1.68616C5.4037 1.55994 5.37674 1.34169 5.23745 1.26543C5.09817 1.18917 4.97386 1.28318 4.97461 1.42781Z" fill="#E4897B"/>
<path d="M4.3037 0.309522C4.22897 0.305362 4.15654 0.285215 4.09271 0.25084C4.02889 0.216464 3.97561 0.168904 3.93752 0.112305C3.93752 0.112305 3.92779 0.497536 4.3037 0.309522Z" fill="#1E2A4C"/>
<path d="M5.33032 7.22236C5.33032 7.22236 4.86903 10.913 4.58672 12.2954C4.2782 13.8074 3.08905 18.8536 3.08905 18.8536H2.07812C2.07812 18.8536 2.79551 13.9317 2.94528 12.4302C3.10628 10.8032 3.43501 7.21973 3.43501 7.21973L5.33032 7.22236Z" fill="#407BFF"/>
<path opacity="0.6" d="M5.33032 7.22236C5.33032 7.22236 4.86903 10.913 4.58672 12.2954C4.2782 13.8074 3.08905 18.8536 3.08905 18.8536H2.07812C2.07812 18.8536 2.79551 13.9317 2.94528 12.4302C3.10628 10.8032 3.43501 7.21973 3.43501 7.21973L5.33032 7.22236Z" fill="#FAFAFA"/>
<path d="M3.23382 18.5273C3.23831 18.5273 3.14471 18.8672 3.14471 18.8672H2.01172L2.01921 18.5642L3.23382 18.5273Z" fill="#407BFF"/>
<path opacity="0.1" d="M3.23382 18.5273C3.23831 18.5273 3.14471 18.8672 3.14471 18.8672H2.01172L2.01921 18.5642L3.23382 18.5273Z" fill="#FAFAFA"/>
<path d="M4.99537 8.53636C4.27874 8.66061 4.45921 11.0239 4.59924 12.2394C4.76997 11.3802 5.00211 9.7269 5.15862 8.55345C5.10795 8.53177 5.05043 8.52575 4.99537 8.53636Z" fill="#407BFF"/>
<path opacity="0.4" d="M4.99537 8.53636C4.27874 8.66061 4.45921 11.0239 4.59924 12.2394C4.76997 11.3802 5.00211 9.7269 5.15862 8.55345C5.10795 8.53177 5.05043 8.52575 4.99537 8.53636Z" fill="#FAFAFA"/>
<path d="M6.37565 7.22168C6.37565 7.22168 6.61078 10.8321 6.61527 12.3053C6.62052 13.837 6.23187 18.8529 6.23187 18.8529H5.29957C5.29957 18.8529 5.04871 13.9264 4.94088 12.4223C4.82406 10.7821 4.44141 7.22168 4.44141 7.22168H6.37565Z" fill="#407BFF"/>
<path opacity="0.6" d="M6.37565 7.22168C6.37565 7.22168 6.61078 10.8321 6.61527 12.3053C6.62052 13.837 6.23187 18.8529 6.23187 18.8529H5.29957C5.29957 18.8529 5.04871 13.9264 4.94088 12.4223C4.82406 10.7821 4.44141 7.22168 4.44141 7.22168H6.37565Z" fill="#FAFAFA"/>
<path d="M6.60013 6.75781L6.33879 6.77622C6.3175 6.77779 6.29687 6.7835 6.27841 6.79295C6.25996 6.80239 6.24413 6.81533 6.23208 6.83081C6.22003 6.8463 6.21206 6.86395 6.20876 6.88248C6.20546 6.90101 6.2069 6.91996 6.21298 6.93794L6.32082 7.25677C6.32992 7.28268 6.34602 7.30627 6.36774 7.32554C6.38946 7.34481 6.41616 7.35919 6.44557 7.36745C6.47499 7.37572 6.50624 7.37762 6.53667 7.373C6.5671 7.36838 6.59581 7.35737 6.62035 7.34092C6.75535 7.23061 6.85216 7.08912 6.89967 6.93268L6.60013 6.75781Z" fill="#E4897B"/>
<path d="M6.01094 18.2652C6.00843 18.2649 6.00613 18.2638 6.00448 18.2621C6.00282 18.2604 6.00193 18.2582 6.00195 18.256C6.10529 16.8682 6.34492 13.5096 6.34043 12.3053C6.34043 11.0727 6.16969 8.31558 6.11578 7.49976C6.11567 7.49867 6.11583 7.49757 6.11623 7.49654C6.11664 7.4955 6.11728 7.49455 6.11813 7.49375C6.11897 7.49295 6.12 7.4923 6.12114 7.49187C6.12228 7.49143 6.12352 7.49121 6.12476 7.49121C6.12722 7.4912 6.12959 7.49201 6.13139 7.49348C6.1332 7.49494 6.13431 7.49695 6.1345 7.4991C6.18542 8.31492 6.35241 11.072 6.35915 12.3053C6.36364 13.5103 6.12401 16.8689 6.02067 18.2573C6.02068 18.2584 6.02042 18.2595 6.01993 18.2605C6.01943 18.2615 6.0187 18.2624 6.01778 18.2631C6.01687 18.2639 6.01579 18.2644 6.01461 18.2648C6.01343 18.2652 6.01218 18.2653 6.01094 18.2652Z" fill="#407BFF"/>
<path opacity="0.3" d="M6.01094 18.2652C6.00843 18.2649 6.00613 18.2638 6.00448 18.2621C6.00282 18.2604 6.00193 18.2582 6.00195 18.256C6.10529 16.8682 6.34492 13.5096 6.34043 12.3053C6.34043 11.0727 6.16969 8.31558 6.11578 7.49976C6.11567 7.49867 6.11583 7.49757 6.11623 7.49654C6.11664 7.4955 6.11728 7.49455 6.11813 7.49375C6.11897 7.49295 6.12 7.4923 6.12114 7.49187C6.12228 7.49143 6.12352 7.49121 6.12476 7.49121C6.12722 7.4912 6.12959 7.49201 6.13139 7.49348C6.1332 7.49494 6.13431 7.49695 6.1345 7.4991C6.18542 8.31492 6.35241 11.072 6.35915 12.3053C6.36364 13.5103 6.12401 16.8689 6.02067 18.2573C6.02068 18.2584 6.02042 18.2595 6.01993 18.2605C6.01943 18.2615 6.0187 18.2624 6.01778 18.2631C6.01687 18.2639 6.01579 18.2644 6.01461 18.2648C6.01343 18.2652 6.01218 18.2653 6.01094 18.2652Z" fill="#FAFAFA"/>
<path d="M6.397 18.5273C6.40149 18.5273 6.35956 18.8672 6.35956 18.8672H5.22582L5.18164 18.5642L6.397 18.5273Z" fill="#407BFF"/>
<path opacity="0.1" d="M6.397 18.5273C6.40149 18.5273 6.35956 18.8672 6.35956 18.8672H5.22582L5.18164 18.5642L6.397 18.5273Z" fill="#FAFAFA"/>
</svg>
