<svg width="18" height="20" viewBox="0 0 18 20" fill="none" xmlns="http://www.w3.org/2000/svg">
<path d="M2.38653 3.91266C2.32725 4.20476 2.25696 4.48926 2.1767 4.7726C2.1363 4.91398 2.09224 5.05361 2.0466 5.19381C2.02352 5.26392 1.99939 5.33344 1.97473 5.40296L1.93644 5.50928C1.91172 5.58296 1.87389 5.65032 1.82523 5.70733C1.76098 5.78099 1.67673 5.82903 1.5855 5.84403C1.51514 5.855 1.44347 5.84841 1.37567 5.82475C1.28708 5.79302 1.20378 5.74525 1.12912 5.68338C1.01184 5.58512 0.90407 5.47351 0.807557 5.35038C0.626752 5.12355 0.465521 4.87827 0.325998 4.61779C0.306065 4.58218 0.298575 4.53965 0.304951 4.49829C0.311326 4.45692 0.331123 4.41961 0.36058 4.39344C0.390037 4.36727 0.427101 4.35406 0.464729 4.35632C0.502357 4.35859 0.537926 4.37617 0.564679 4.40572L0.569925 4.41098C0.659627 4.50796 0.750903 4.61136 0.844802 4.70308C0.938701 4.7948 1.03103 4.89412 1.12545 4.98116C1.21303 5.0648 1.30733 5.13931 1.40715 5.20375C1.43937 5.22622 1.47488 5.24223 1.51206 5.25107C1.52098 5.25107 1.51731 5.24522 1.49632 5.24698C1.47008 5.2506 1.4455 5.26326 1.42603 5.2832C1.41082 5.29955 1.41134 5.30306 1.41239 5.2943L1.43862 5.1944L1.49108 4.98993C1.52622 4.85322 1.55875 4.71477 1.59232 4.57748L1.78746 3.752V3.74674C1.80883 3.66033 1.85958 3.58658 1.92895 3.54114C1.99833 3.4957 2.08087 3.48215 2.15907 3.50335C2.23727 3.52455 2.30497 3.57884 2.34783 3.65471C2.39068 3.73058 2.40532 3.82205 2.38862 3.90974L2.38653 3.91266Z" fill="#FFC3BD"/>
<path d="M1.92702 3.08819C1.63326 3.38029 1.57031 4.22271 1.57031 4.22271L2.4474 4.82678C2.4474 4.82678 2.52819 4.35942 2.58431 3.79216C2.64779 3.17699 2.28268 2.733 1.92702 3.08819Z" fill="#407BFF"/>
<path d="M3.92702 2.60262C3.32219 2.59911 2.7205 2.67623 2.11986 2.93503C1.98997 2.99302 1.88113 3.09757 1.81055 3.23214C1.73996 3.36671 1.71166 3.52365 1.7301 3.67814C1.80249 4.30674 2.00341 5.48157 2.56103 7.09806L4.66719 6.45544C4.59847 6.09148 3.99469 4.37918 3.92702 2.60262Z" fill="#407BFF"/>
<path d="M0.602587 4.46102L0.463575 4.09005L0.09375 4.4026C0.09375 4.4026 0.159322 4.71398 0.434199 4.65147L0.602587 4.46102Z" fill="#FFC3BD"/>
<path d="M0.149285 3.94099L0.0202395 4.13086C0.00995409 4.1437 0.00323876 4.15959 0.000910581 4.1766C-0.0014176 4.19361 0.000741649 4.211 0.00712517 4.22667L0.0936796 4.40193L0.463505 4.08938L0.280953 3.90594C0.2593 3.89123 0.233297 3.88665 0.208626 3.89322C0.183955 3.89979 0.162621 3.91696 0.149285 3.94099Z" fill="#FFC3BD"/>
<path opacity="0.2" d="M3.69141 3.45298C3.70085 3.62357 3.95999 4.33338 4.16352 4.46307C4.11474 4.22472 4.06962 3.97409 4.03185 3.71471L3.69141 3.45298Z" fill="black"/>
<path d="M2.84215 1.56766C2.85736 1.90299 2.93342 2.50589 3.18679 2.67239C3.06719 2.88387 2.90457 3.13391 2.55992 3.22972C2.21528 3.32553 2.21633 3.04803 2.27665 2.88796C2.58406 2.72497 2.51534 2.46032 2.40203 2.22372L2.84215 1.56766Z" fill="#FFC3BD"/>
<path opacity="0.2" d="M2.66268 1.83564L2.40039 2.22414C2.42765 2.27862 2.45047 2.33571 2.46859 2.39473C2.58871 2.34565 2.72615 2.15462 2.70727 2.00798C2.70175 1.94804 2.68665 1.88967 2.66268 1.83564Z" fill="black"/>
<path d="M2.06793 0.85898C2.30661 0.952452 2.2615 1.16919 2.16655 1.26792C2.31501 1.32634 2.4194 1.54776 2.4194 1.54776L2.1676 1.77267C2.1676 1.77267 1.81666 1.76041 1.75529 1.53899C1.69391 1.31758 1.35241 1.0541 1.72224 0.79647C2.09206 0.538837 2.06793 0.85898 2.06793 0.85898Z" fill="#263238"/>
<path d="M2.81525 1.06096C2.8782 1.50613 2.93538 1.76201 2.78063 2.036C2.54719 2.44494 2.01895 2.36023 1.83639 1.94428C1.67273 1.56922 1.59719 0.904398 1.9497 0.638001C2.02784 0.578934 2.11816 0.542913 2.21221 0.533312C2.30625 0.52371 2.40095 0.540841 2.48743 0.583102C2.57391 0.625362 2.64935 0.691369 2.70668 0.774945C2.76402 0.85852 2.80137 0.956931 2.81525 1.06096Z" fill="#FFC3BD"/>
<path d="M2.53007 0.712555C2.49283 0.855685 2.1251 0.712555 1.86386 0.856269C1.74479 0.9217 1.56433 1.20679 1.23438 1.014C1.23438 1.014 1.45889 0.911184 1.48565 0.710218C1.51712 0.476537 1.58217 0.175088 1.95147 0.249282C2.32077 0.323476 2.38214 0.148215 2.62135 0.208388C2.92298 0.28375 3.03524 0.932215 2.53007 0.712555Z" fill="#263238"/>
<path d="M2.45628 0.685998C2.34245 0.941294 2.51294 1.05814 2.64408 1.05814C2.57641 1.21704 2.63988 1.45539 2.63988 1.45539L2.96092 1.41859C2.96092 1.41859 3.2038 1.13642 3.10728 0.929611C3.01076 0.722803 3.08997 0.269461 2.66401 0.374033C2.23806 0.478606 2.45628 0.685998 2.45628 0.685998Z" fill="#263238"/>
<path d="M2.55664 0.48372C2.77958 0.356948 2.86719 0.181687 2.87716 0C2.99518 0.236602 2.93381 0.486641 2.55664 0.48372Z" fill="#263238"/>
<path d="M3.04003 1.45976C3.01 1.56175 2.94623 1.64718 2.86168 1.6987C2.75362 1.75712 2.68542 1.64028 2.70431 1.50299C2.72057 1.37622 2.79663 1.19219 2.91046 1.18986C3.0243 1.18752 3.0799 1.32948 3.04003 1.45976Z" fill="#FFC3BD"/>
<path d="M2.23047 16.611L2.7414 16.5385L2.78914 15.4922L2.23519 15.553L2.23047 16.611Z" fill="#FFC3BD"/>
<path d="M3.12541 11.2078C3.69038 9.59717 4.20289 6.5967 4.20289 6.5967L2.56149 7.09737C2.56149 7.09737 2.15757 9.89687 2.11561 11.2808C2.07154 12.7203 2.10774 15.833 2.10774 15.833H2.88935C2.88935 15.833 3.27439 12.333 3.12541 11.2078Z" fill="#263238"/>
<path opacity="0.2" d="M3.81067 8.06396C3.39835 8.53775 3.33488 9.48591 3.39783 10.3266C3.59979 9.59165 3.78391 8.76091 3.92502 8.07038L3.81067 8.06396Z" fill="black"/>
<path d="M2.08779 15.9383L2.90823 15.9763L2.96173 15.6813L2.04688 15.6234L2.08779 15.9383Z" fill="#407BFF"/>
<path d="M2.30292 1.27863C2.31027 1.31485 2.29873 1.34757 2.27774 1.35282C2.25676 1.35808 2.23368 1.33238 2.22529 1.2944C2.21689 1.25643 2.22948 1.22547 2.25047 1.22079C2.27145 1.21612 2.2961 1.24299 2.30292 1.27863Z" fill="#263238"/>
<path d="M1.90253 1.36329C1.90988 1.39951 1.89834 1.43223 1.87735 1.43749C1.85637 1.44274 1.83329 1.41704 1.82489 1.37907C1.8165 1.34109 1.82909 1.31013 1.85007 1.30546C1.87106 1.30078 1.89571 1.32766 1.90253 1.36329Z" fill="#263238"/>
<path d="M1.9698 1.37769C1.95325 1.49605 1.922 1.61127 1.87695 1.72004C1.90195 1.73187 1.92894 1.73758 1.9561 1.73677C1.98325 1.73597 2.00993 1.72867 2.03433 1.71536L1.9698 1.37769Z" fill="#ED847E"/>
<path d="M2.13984 1.83386C2.17663 1.83119 2.21255 1.82017 2.24538 1.80149C2.27822 1.7828 2.30728 1.75684 2.33078 1.7252C2.33188 1.7241 2.33275 1.72273 2.33332 1.72121C2.33389 1.71969 2.33414 1.71804 2.33407 1.71639C2.334 1.71475 2.33359 1.71314 2.33289 1.71169C2.33219 1.71023 2.3312 1.70897 2.33001 1.708C2.32882 1.70702 2.32744 1.70636 2.32599 1.70605C2.32453 1.70574 2.32303 1.70579 2.3216 1.70621C2.32017 1.70663 2.31883 1.70739 2.3177 1.70845C2.31657 1.70952 2.31566 1.71085 2.31505 1.71235C2.28858 1.74706 2.25509 1.77427 2.21733 1.79174C2.17957 1.80921 2.13863 1.81644 2.09787 1.81283C2.09532 1.81283 2.09286 1.81391 2.091 1.81587C2.08915 1.81783 2.08804 1.8205 2.08791 1.82335C2.08783 1.82477 2.08803 1.82621 2.08847 1.82755C2.08891 1.82889 2.08959 1.83012 2.09048 1.83116C2.09136 1.8322 2.09243 1.83303 2.09361 1.83359C2.09479 1.83416 2.09606 1.83445 2.09735 1.83445C2.1115 1.83543 2.12571 1.83524 2.13984 1.83386Z" fill="#263238"/>
<path d="M2.3083 1.07811C2.31133 1.07694 2.31404 1.07493 2.31617 1.07227C2.31964 1.06816 2.32157 1.06272 2.32157 1.05708C2.32157 1.05144 2.31964 1.04601 2.31617 1.04189C2.29322 1.01894 2.26569 1.00241 2.23586 0.993673C2.20603 0.984936 2.17476 0.984243 2.14464 0.991651C2.13981 0.993279 2.13575 0.996932 2.1333 1.00184C2.13085 1.00674 2.13022 1.01252 2.13152 1.01794C2.13299 1.02346 2.13633 1.02814 2.14083 1.03097C2.14533 1.0338 2.15065 1.03458 2.15565 1.03313C2.17955 1.02748 2.20431 1.0283 2.22786 1.03552C2.25141 1.04273 2.27306 1.05614 2.29099 1.07461C2.29338 1.07676 2.29622 1.07821 2.29925 1.07882C2.30227 1.07943 2.30539 1.07919 2.3083 1.07811Z" fill="#263238"/>
<path d="M1.67698 1.2632C1.68009 1.26239 1.68295 1.26066 1.68526 1.25819C1.68756 1.25572 1.68923 1.25261 1.69009 1.24918C1.69614 1.22264 1.7079 1.19813 1.72435 1.17778C1.7408 1.15742 1.76145 1.14183 1.78451 1.13234C1.787 1.13161 1.78932 1.13032 1.79135 1.12855C1.79337 1.12678 1.79505 1.12457 1.79627 1.12205C1.7975 1.11954 1.79825 1.11677 1.79849 1.11391C1.79872 1.11106 1.79843 1.10819 1.79763 1.10547C1.79617 1.1001 1.79289 1.09557 1.78848 1.09284C1.78407 1.09012 1.77889 1.08941 1.77402 1.09086C1.74506 1.10198 1.71895 1.12076 1.69793 1.14559C1.67692 1.17041 1.66163 1.20055 1.65337 1.23341C1.65223 1.2371 1.65204 1.24106 1.65281 1.24487C1.65358 1.24867 1.65528 1.25217 1.65773 1.25495C1.66018 1.25774 1.66328 1.25972 1.66667 1.26066C1.67007 1.2616 1.67364 1.26147 1.67698 1.26028V1.2632Z" fill="#263238"/>
<path d="M6.31577 14.9573L6.70867 14.5864L6.23761 13.6797L5.80273 14.067L6.31577 14.9573Z" fill="#FFC3BD"/>
<path d="M5.12256 10.9959C4.65936 9.00202 5.40741 7.45855 4.66513 6.45606L3.27344 6.88019C3.27344 6.88019 3.78647 9.96537 4.22134 11.2757C4.67458 12.6375 5.80451 14.3779 5.80451 14.3779L6.47334 13.9245C6.47334 13.9245 5.83966 12.2426 5.12256 10.9959Z" fill="#263238"/>
<path d="M6.61891 14.5006C6.64762 14.4897 6.6786 14.4887 6.7078 14.4978C6.737 14.5069 6.76307 14.5256 6.78258 14.5514L7.08683 14.9352C7.0931 14.9437 7.09775 14.9536 7.1005 14.9642C7.10324 14.9748 7.10402 14.9858 7.1028 14.9968C7.10157 15.0077 7.09836 15.0182 7.09336 15.0277C7.08836 15.0372 7.08168 15.0455 7.07372 15.0521C6.88959 15.2004 6.92264 15.1525 6.74271 15.2927C6.53288 15.4569 6.51977 15.5387 6.23755 15.6754C6.07021 15.7566 5.97893 15.6608 6.00988 15.579C6.15414 15.1993 6.16725 14.9895 6.24069 14.8926C6.24069 14.8926 6.01145 14.8096 6.0424 14.6589C6.07335 14.5082 6.32253 14.3294 6.42115 14.3902C6.45539 14.4066 6.48456 14.4338 6.50507 14.4685C6.52558 14.5032 6.53652 14.5438 6.53655 14.5853C6.55332 14.5464 6.58278 14.5161 6.61891 14.5006Z" fill="#263238"/>
<path d="M2.66417 16.3943C2.69452 16.3941 2.72424 16.404 2.74942 16.4229C2.7746 16.4417 2.79408 16.4686 2.80528 16.5001L2.98469 16.9721C2.98822 16.9825 2.9898 16.9936 2.98934 17.0047C2.98889 17.0158 2.9864 17.0267 2.98203 17.0368C2.97765 17.0468 2.9715 17.0557 2.96393 17.0629C2.95636 17.0702 2.94754 17.0757 2.938 17.079C2.72135 17.1544 2.84725 17.1018 2.63637 17.1713C2.38982 17.2525 2.00688 17.4593 1.71837 17.5545C1.54368 17.613 1.46605 17.4342 1.53004 17.3822C1.93869 17.0504 2.09816 16.6999 2.19416 16.6333C2.19416 16.6333 2.00006 16.4738 2.07245 16.3412C2.14485 16.2085 2.25501 16.1612 2.33107 16.2535C2.35851 16.2814 2.37808 16.3176 2.38739 16.3576C2.39671 16.3976 2.39536 16.4398 2.38353 16.479C2.47498 16.4428 2.5688 16.4145 2.66417 16.3943Z" fill="#263238"/>
<path d="M5.84224 14.5181L6.54517 14.0455L6.44393 13.7668L5.65234 14.2803L5.84224 14.5181Z" fill="#407BFF"/>
<path d="M4.06094 2.78582C4.19156 2.88572 4.30907 2.9862 4.42815 3.09077C4.54723 3.19535 4.66421 3.30459 4.77961 3.41618C5.01521 3.64368 5.23268 3.89348 5.42956 4.16279C5.45474 4.19667 5.48202 4.23289 5.503 4.27086C5.52398 4.30884 5.55179 4.34506 5.57382 4.38362L5.63782 4.50046L5.69604 4.6173C5.76825 4.77048 5.83304 4.92785 5.89014 5.08875C6.00347 5.40335 6.09433 5.72742 6.16187 6.05794C6.16972 6.09847 6.16415 6.1408 6.14617 6.17711C6.1282 6.21342 6.09904 6.24126 6.06407 6.2555C6.02911 6.26973 5.9907 6.2694 5.95593 6.25457C5.92117 6.23974 5.89239 6.2114 5.87492 6.17478V6.17011C5.74063 5.88502 5.60319 5.59584 5.46051 5.32068C5.38812 5.18339 5.3152 5.04844 5.23861 4.92167C5.16448 4.79823 5.08225 4.68107 4.99259 4.57114C4.80201 4.34372 4.59746 4.13134 4.38041 3.93553C4.27078 3.8333 4.15852 3.73457 4.04573 3.63584C3.93295 3.53711 3.81597 3.43954 3.70633 3.34841L3.70214 3.34549C3.66904 3.31921 3.64091 3.28593 3.61935 3.24755C3.5978 3.20917 3.58325 3.16643 3.57653 3.12178C3.56981 3.07714 3.57104 3.03145 3.58018 2.98734C3.58931 2.94323 3.60615 2.90155 3.62974 2.86469C3.6774 2.79024 3.74965 2.73992 3.83061 2.7248C3.8707 2.71731 3.91172 2.7187 3.95133 2.72886C3.99094 2.73903 4.02837 2.75779 4.06147 2.78407L4.06094 2.78582Z" fill="#FFC3BD"/>
<path d="M3.92702 2.6023C4.3215 2.6099 4.75007 3.2975 4.75007 3.2975L4.36713 4.08968C4.06309 3.97621 3.79579 3.7655 3.59863 3.48386C3.26658 2.98554 3.44913 2.59354 3.92702 2.6023Z" fill="#407BFF"/>
<path d="M5.82812 6.02357L5.93776 6.46698L6.35742 6.17488C6.35742 6.17488 6.21421 5.78697 6.01697 5.83838L5.82812 6.02357Z" fill="#FFC3BD"/>
<path d="M6.30928 6.70524L6.44147 6.57613C6.46699 6.55114 6.48373 6.51689 6.48872 6.47946C6.49371 6.44203 6.48664 6.40383 6.46875 6.37166L6.35911 6.17654L5.93945 6.46864L6.10679 6.69064C6.11921 6.70644 6.1343 6.71935 6.15121 6.72864C6.16811 6.73793 6.1865 6.74341 6.20531 6.74477C6.22412 6.74612 6.24299 6.74333 6.26083 6.73655C6.27867 6.72976 6.29514 6.71913 6.30928 6.70524Z" fill="#FFC3BD"/>
<path d="M14.74 5.12836C14.8905 4.60725 15.9827 5.49348 16.0572 5.82414C16.1317 6.1548 15.2221 6.40834 15.8143 6.88564C16.4066 7.36293 15.2939 7.1941 15.5164 7.51716C15.7388 7.84023 15.8521 8.4922 14.782 8.03944C13.7118 7.58668 12.9197 7.10471 13.6017 6.8611C14.2836 6.61749 13.1647 6.21848 13.8598 5.90535C14.5548 5.59221 13.7124 5.23526 14.74 5.12836Z" fill="#407BFF"/>
<path d="M15.582 8.67494C15.6418 8.90453 15.7115 9.14523 15.785 9.37599C15.8227 9.49283 15.8621 9.60266 15.9041 9.71132C15.9266 9.76448 15.9481 9.81881 15.9717 9.86905C15.9827 9.89534 15.9948 9.91988 16.0069 9.94325L16.0252 9.97947L16.0299 9.98882V9.99349C16.0172 9.98153 16.0021 9.97312 15.9859 9.96895C15.9744 9.96382 15.9617 9.96382 15.9502 9.96895C15.9769 9.96345 16.0018 9.95037 16.0226 9.93098C16.1032 9.86567 16.1776 9.79128 16.2445 9.70898C16.3914 9.53372 16.5351 9.33626 16.671 9.13997L16.6741 9.13588C16.6936 9.1079 16.7217 9.08882 16.7529 9.08221C16.7842 9.07561 16.8165 9.08193 16.8439 9.1C16.8713 9.11807 16.8918 9.14665 16.9016 9.18036C16.9113 9.21407 16.9097 9.2506 16.8971 9.2831C16.8022 9.52899 16.6857 9.76381 16.5493 9.98414C16.4759 10.105 16.3898 10.2156 16.2928 10.3136C16.2272 10.3797 16.1498 10.4295 16.0656 10.4597C15.9987 10.4826 15.9273 10.4844 15.8595 10.4649C15.7879 10.4426 15.7236 10.3978 15.6743 10.3358C15.6627 10.3224 15.6549 10.3101 15.6454 10.2973L15.636 10.2821L15.6287 10.271L15.6008 10.226C15.582 10.1956 15.5647 10.1676 15.5484 10.1354C15.5132 10.077 15.4844 10.0145 15.4545 9.95318C15.3978 9.83108 15.3464 9.7084 15.3008 9.58396C15.209 9.33712 15.1331 9.08333 15.0736 8.8245C15.0578 8.75073 15.0682 8.67296 15.1029 8.60766C15.1376 8.54236 15.1937 8.49464 15.2594 8.4746C15.3251 8.45456 15.3952 8.46378 15.455 8.5003C15.5147 8.53681 15.5593 8.59777 15.5793 8.67027L15.582 8.67494Z" fill="#FF8B7B"/>
<path d="M16.8106 9.40507L17.043 9.25201L16.8085 8.8676C16.8085 8.8676 16.6207 9.08843 16.6191 9.30984L16.8106 9.40507Z" fill="#FF8B7B"/>
<path d="M17.1328 8.8197L17.1223 8.80802C17.0956 8.77277 17.0578 8.75036 17.0166 8.74547C16.9755 8.74057 16.9342 8.75356 16.9014 8.78173L16.8086 8.8676L17.0431 9.25201L17.1427 9.14744C17.1792 9.10183 17.1985 9.04236 17.1966 8.98135C17.1948 8.92034 17.1719 8.86246 17.1328 8.8197Z" fill="#FF8B7B"/>
<path d="M14.8284 8.31289C14.8347 8.46595 14.9145 8.76565 14.9811 8.98998C15.0293 9.15239 15.0697 9.27449 15.0697 9.27449L15.15 9.2482L15.8152 9.02795C15.8078 8.63362 15.7737 8.20131 15.4175 7.95594C15.192 7.80171 14.8158 8.03948 14.8284 8.31289Z" fill="#263238"/>
<path opacity="0.3" d="M14.9785 8.99031C15.0268 9.15272 15.0672 9.27482 15.0672 9.27482L15.1474 9.24853C15.1532 9.0943 15.1516 8.84952 15.0897 8.72976C15.0362 8.80665 14.9983 8.89554 14.9785 8.99031Z" fill="black"/>
<path d="M11.832 19.5317L12.248 19.5761L12.4731 18.4953L12.0571 18.4509L11.832 19.5317Z" fill="#FF8B7B"/>
<path d="M8.87695 18.2526L9.2237 18.5249L9.87417 17.7087L9.52743 17.4371L8.87695 18.2526Z" fill="#FF8B7B"/>
<path d="M9.28874 18.4826L9.03222 18.0351C9.02805 18.0273 9.02144 18.0216 9.01368 18.019C9.00591 18.0164 8.99756 18.0171 8.99026 18.021L8.65138 18.2021C8.64301 18.2073 8.63567 18.2144 8.62983 18.2228C8.62399 18.2313 8.61975 18.241 8.6174 18.2513C8.61504 18.2616 8.6146 18.2724 8.61612 18.2829C8.61763 18.2935 8.62106 18.3036 8.6262 18.3126C8.718 18.4674 8.76941 18.5363 8.88167 18.7332C8.95144 18.8547 9.0915 19.134 9.18487 19.3016C9.27825 19.4693 9.43037 19.3694 9.40362 19.2899C9.28349 18.933 9.28874 18.7285 9.30553 18.5655C9.30863 18.5365 9.3027 18.5073 9.28874 18.4826Z" fill="#263238"/>
<path d="M12.3052 19.4358H11.8042C11.7953 19.4359 11.7867 19.4393 11.7797 19.4455C11.7727 19.4516 11.7677 19.4601 11.7654 19.4696L11.6679 19.9107C11.6655 19.9213 11.6654 19.9324 11.6675 19.9431C11.6696 19.9537 11.6739 19.9637 11.6801 19.9722C11.6862 19.9808 11.694 19.9876 11.7029 19.9922C11.7118 19.9969 11.7215 19.9992 11.7313 19.9989C11.9076 19.9989 11.9936 19.9855 12.2118 19.9855C12.3472 19.9855 12.6976 20.0001 12.8849 20.0001C13.0721 20.0001 13.101 19.7939 13.0249 19.7752C12.6829 19.6916 12.4846 19.576 12.3771 19.4661C12.3574 19.4463 12.3318 19.4354 12.3052 19.4358Z" fill="#263238"/>
<path opacity="0.2" d="M12.4725 18.4953L12.3471 19.0994L11.9316 19.0527L12.0565 18.4509L12.4725 18.4953Z" fill="black"/>
<path opacity="0.2" d="M9.52661 17.4371L9.87388 17.7087L9.53815 18.1294L9.19141 17.8571L9.52661 17.4371Z" fill="black"/>
<path d="M12.7363 9.69003L14.2833 10.5167C15.6556 8.1933 15.5108 8.03615 15.5108 8.03615C15.5108 8.03615 15.2716 7.82993 15.0188 7.64941C14.9805 7.62254 14.9416 7.59566 14.9033 7.56996C14.6777 7.42562 14.4432 7.29931 14.2015 7.19198C14.1658 7.17504 14.1301 7.15926 14.0965 7.14349C13.9038 7.06197 13.707 6.9933 13.5069 6.93785C13.4466 7.28019 13.392 7.56879 13.3396 7.81883C13.2714 8.14481 13.2069 8.40303 13.1423 8.62737C13.0327 8.99309 12.8969 9.34845 12.7363 9.69003Z" fill="#263238"/>
<path opacity="0.3" d="M13.1406 8.62988C13.3206 8.40555 13.5283 7.85406 13.5125 7.63264L13.3379 7.82134C13.2697 8.14733 13.2051 8.4073 13.1406 8.62988Z" fill="black"/>
<path d="M14.5269 6.70936C14.4508 6.92902 14.3422 7.1405 14.2006 7.19424C14.2006 7.19424 14.0322 7.6546 14.5725 8.17045C15.1417 7.84563 14.903 7.56989 14.903 7.56989C14.678 7.36717 14.7488 7.17613 14.9429 6.89805L14.7755 6.7041C14.7648 6.67703 14.7471 6.65409 14.7247 6.63817C14.7023 6.62225 14.6762 6.61405 14.6496 6.61461C14.6231 6.61517 14.5973 6.62447 14.5754 6.64132C14.5536 6.65818 14.5367 6.68185 14.5269 6.70936Z" fill="#FF8B7B"/>
<path opacity="0.2" d="M14.775 6.70405C14.7651 6.67821 14.7489 6.65598 14.7282 6.63989C14.7076 6.62381 14.6832 6.6145 14.658 6.61304C14.6329 6.61158 14.6078 6.61802 14.5857 6.63163C14.5637 6.64524 14.5455 6.66547 14.5332 6.69003C14.5623 6.8895 14.6456 7.07425 14.7719 7.21932C14.8099 7.10154 14.8672 6.99261 14.9408 6.898L14.775 6.70405Z" fill="black"/>
<path d="M14.4091 5.89055C14.3908 6.36142 14.374 6.56005 14.5592 6.82937C14.8377 7.23422 15.3507 7.16879 15.4929 6.71662C15.6209 6.30767 15.6303 5.60663 15.2448 5.36535C15.1609 5.31102 15.0658 5.28205 14.9688 5.28134C14.8718 5.28063 14.7763 5.30818 14.6918 5.36128C14.6073 5.41438 14.5368 5.49116 14.4872 5.58401C14.4376 5.67686 14.4107 5.78254 14.4091 5.89055Z" fill="#FF8B7B"/>
<path d="M15.6341 6.0046C15.6349 6.0048 15.6358 6.0048 15.6367 6.0046C15.6395 5.99952 15.6405 5.99341 15.6395 5.98754C15.6384 5.98167 15.6353 5.97648 15.6309 5.97305C15.6056 5.95205 15.5761 5.93824 15.5449 5.93285C15.5138 5.92745 15.4819 5.93062 15.452 5.94209C15.447 5.94441 15.4431 5.94886 15.441 5.95445C15.4389 5.96003 15.4389 5.96631 15.441 5.97188C15.4431 5.97746 15.4471 5.98189 15.4521 5.98419C15.4571 5.98649 15.4628 5.98648 15.4678 5.98415C15.4915 5.97531 15.5168 5.97309 15.5415 5.97767C15.5662 5.98225 15.5895 5.9935 15.6094 6.01044C15.6134 6.01302 15.6182 6.01385 15.6227 6.01277C15.6273 6.01169 15.6313 6.00878 15.6341 6.0046Z" fill="#263238"/>
<path d="M14.6354 5.45284C14.9612 5.97512 14.5268 5.80336 14.6071 6.09546C14.6596 6.29234 14.2572 6.70829 14.1481 6.35777C14.039 6.00725 14.1046 5.38098 14.6354 5.45284Z" fill="#407BFF"/>
<path d="M14.502 5.44938C14.5607 5.93953 14.9652 5.42309 15.1005 5.68306C15.2358 5.94304 15.9052 5.79173 15.7111 5.49028C15.517 5.18883 14.7548 4.92418 14.502 5.44938Z" fill="#407BFF"/>
<path d="M14.2554 6.28578C14.2671 6.38411 14.3126 6.47354 14.3824 6.53523C14.4747 6.61585 14.5628 6.53523 14.5717 6.41138C14.5796 6.2998 14.5413 6.12395 14.4317 6.09182C14.322 6.05969 14.2418 6.16485 14.2554 6.28578Z" fill="#FF8B7B"/>
<path d="M14.2832 10.5168C14.2832 10.5168 13.8478 12.8612 13.5242 14.6646C13.2666 16.0983 12.5023 18.8341 12.5023 18.8341L11.8906 18.7663C11.8906 18.7663 12.0858 15.5269 12.6439 14.5823C12.6339 12.4791 12.3853 10.4286 13.0457 9.84262L14.2832 10.5168Z" fill="#407BFF"/>
<path d="M11.8035 18.558L12.6077 18.6684L12.5384 18.971L11.7852 18.8805L11.8035 18.558Z" fill="#263238"/>
<path opacity="0.3" d="M13.199 11.6595L12.6219 11.0426C12.5532 11.7711 12.5994 12.7233 12.6251 13.734C12.9823 13.0382 13.2472 12.2811 13.199 11.6595Z" fill="black"/>
<path d="M13.9441 10.3418C13.9441 10.3418 12.7664 12.6366 12.1606 14.3407C12.0874 14.5499 11.9977 14.7515 11.8925 14.943C11.1581 16.2645 9.75801 17.9861 9.75801 17.9861L9.31055 17.5696C9.31055 17.5696 10.7017 14.6579 11.2583 13.9978C11.6381 11.984 11.9287 10.2004 12.7355 9.69044L13.9441 10.3418Z" fill="#407BFF"/>
<path d="M9.74229 18.1428L9.16211 17.6428L9.3006 17.3559L9.93743 17.939L9.74229 18.1428Z" fill="#263238"/>
<path d="M12.7538 9.57495L12.6217 9.69179C12.6117 9.70055 12.619 9.71983 12.6374 9.72977L14.2594 10.5973C14.2735 10.6043 14.2877 10.6031 14.2929 10.5938L14.369 10.4448C14.3748 10.4349 14.3659 10.4191 14.3507 10.4109L12.7822 9.57554C12.7778 9.57298 12.773 9.57159 12.7681 9.57149C12.7632 9.57139 12.7583 9.57258 12.7538 9.57495Z" fill="#407BFF"/>
<path opacity="0.2" d="M12.7538 9.57495L12.6217 9.69179C12.6117 9.70055 12.619 9.71983 12.6374 9.72977L14.2594 10.5973C14.2735 10.6043 14.2877 10.6031 14.2929 10.5938L14.369 10.4448C14.3748 10.4349 14.3659 10.4191 14.3507 10.4109L12.7822 9.57554C12.7778 9.57298 12.773 9.57159 12.7681 9.57149C12.7632 9.57139 12.7583 9.57258 12.7538 9.57495Z" fill="black"/>
<path d="M12.8869 9.88546L12.8449 9.86268C12.8365 9.85859 12.8318 9.85041 12.835 9.84456L12.9357 9.65236C12.9388 9.64652 12.9483 9.64594 12.9561 9.65236L12.9981 9.67515C13.0065 9.67923 13.0112 9.688 13.0081 9.69326L12.9074 9.88546C12.9045 9.88817 12.9009 9.88967 12.8971 9.88967C12.8934 9.88967 12.8897 9.88817 12.8869 9.88546Z" fill="#407BFF"/>
<path d="M14.1345 10.5533L14.0925 10.5305C14.0841 10.5264 14.0799 10.5177 14.0831 10.5124L14.1838 10.3202C14.1869 10.3144 14.1959 10.3138 14.2043 10.3202L14.2462 10.343C14.2546 10.3471 14.2588 10.3553 14.2562 10.3611L14.1549 10.5533C14.1523 10.5568 14.1429 10.5574 14.1345 10.5533Z" fill="#407BFF"/>
<path d="M13.5094 10.2196L13.4675 10.1968C13.4596 10.1927 13.4549 10.1845 13.458 10.1787L13.5587 9.98646C13.5619 9.98062 13.5708 9.98003 13.5792 9.98646L13.6212 10.0092C13.6296 10.0133 13.6343 10.0215 13.6311 10.0274L13.5304 10.2196C13.5273 10.2231 13.5162 10.2236 13.5094 10.2196Z" fill="#407BFF"/>
<path d="M15.0025 6.11045C14.9988 6.14842 15.0135 6.18172 15.0356 6.18522C15.0576 6.18873 15.0781 6.1601 15.0817 6.12213C15.0854 6.08416 15.0702 6.05027 15.0487 6.04735C15.0272 6.04443 15.0062 6.07247 15.0025 6.11045Z" fill="#263238"/>
<path d="M15.3814 6.16467C15.3777 6.20264 15.3924 6.23594 15.4145 6.23945C15.4365 6.24295 15.457 6.21432 15.4606 6.17577C15.4643 6.13721 15.4496 6.10449 15.4276 6.10157C15.4056 6.09865 15.3851 6.12669 15.3814 6.16467Z" fill="#263238"/>
<path d="M15.418 6.10198L15.5009 6.08737C15.5009 6.08737 15.4531 6.1528 15.418 6.10198Z" fill="#263238"/>
<path d="M15.026 6.4065C15.0095 6.40647 14.9931 6.40411 14.9772 6.39949C14.9455 6.39011 14.9161 6.37283 14.8913 6.34894C14.8665 6.32506 14.8469 6.29519 14.834 6.26162C14.8049 6.18685 14.7988 6.10349 14.8167 6.02447C14.8345 5.94545 14.8753 5.8752 14.9326 5.82463C14.958 5.80129 14.9879 5.78493 15.02 5.77685C15.0521 5.76878 15.0855 5.76922 15.1174 5.77815C15.1493 5.78708 15.1789 5.80424 15.2037 5.82825C15.2286 5.85225 15.248 5.88243 15.2605 5.91635C15.2909 5.99075 15.297 6.07465 15.2778 6.15354C15.2612 6.23315 15.2202 6.30382 15.1619 6.35334C15.1229 6.38692 15.0753 6.40557 15.026 6.4065ZM15.0685 5.79893C15.0246 5.79985 14.9821 5.81644 14.9473 5.84625C14.8944 5.89301 14.8568 5.95789 14.8403 6.03086C14.8238 6.10384 14.8293 6.18083 14.856 6.24993C14.867 6.28018 14.8841 6.30713 14.9062 6.32858C14.9282 6.35002 14.9545 6.36536 14.9829 6.37333C15.0113 6.38131 15.041 6.38169 15.0695 6.37446C15.0981 6.36723 15.1247 6.35259 15.1472 6.33172C15.2001 6.28496 15.2377 6.22008 15.2542 6.1471C15.2707 6.07413 15.2652 5.99714 15.2385 5.92804C15.227 5.89819 15.2096 5.87161 15.1876 5.85027C15.1656 5.82893 15.1396 5.81338 15.1115 5.80477C15.0974 5.80082 15.083 5.79885 15.0685 5.79893Z" fill="white"/>
<path d="M15.4831 6.48236C15.4716 6.48228 15.4602 6.48071 15.449 6.47768C15.3441 6.44789 15.2916 6.2849 15.3278 6.11372C15.364 5.94255 15.4852 5.82688 15.5901 5.85609C15.695 5.8853 15.7475 6.04888 15.7108 6.22063C15.6944 6.29802 15.6579 6.36833 15.6058 6.42277C15.573 6.45889 15.5292 6.48013 15.4831 6.48236ZM15.555 5.87887C15.4705 5.87887 15.3834 5.97936 15.3519 6.12015C15.3163 6.27672 15.3624 6.4251 15.4569 6.45081C15.4812 6.45599 15.5063 6.45426 15.5298 6.44579C15.5534 6.43731 15.5747 6.42236 15.5917 6.40232C15.6399 6.35142 15.6735 6.28576 15.6882 6.21362C15.7233 6.05706 15.6772 5.90867 15.5833 5.88296C15.5741 5.88017 15.5645 5.87879 15.555 5.87887Z" fill="white"/>
<path d="M15.3383 6.14034C15.3363 6.14045 15.3344 6.13997 15.3326 6.13894C15.3309 6.13791 15.3294 6.13638 15.3284 6.13449C15.3142 6.11405 15.2759 6.12748 15.2759 6.12748C15.2744 6.12806 15.2728 6.1283 15.2712 6.12818C15.2696 6.12807 15.268 6.1276 15.2666 6.12682C15.2651 6.12603 15.2639 6.12494 15.2628 6.1236C15.2617 6.12226 15.2609 6.1207 15.2604 6.11901C15.2599 6.11733 15.2597 6.11554 15.2598 6.11376C15.2599 6.11198 15.2603 6.11024 15.261 6.10864C15.2617 6.10704 15.2627 6.10561 15.2639 6.10443C15.2651 6.10326 15.2665 6.10235 15.268 6.10178C15.268 6.10178 15.3242 6.08133 15.3488 6.11814C15.351 6.12074 15.3523 6.12419 15.3523 6.12778C15.3523 6.13136 15.351 6.13481 15.3488 6.13742C15.3457 6.13974 15.342 6.14077 15.3383 6.14034Z" fill="white"/>
<path d="M15.303 6.21471C15.3247 6.30559 15.3571 6.39283 15.3996 6.4741C15.3811 6.48561 15.3605 6.49238 15.3393 6.49389C15.3182 6.49541 15.297 6.49164 15.2773 6.48286L15.303 6.21471Z" fill="#FF5652"/>
<path d="M15.1409 6.61663C15.1428 6.6159 15.1445 6.61458 15.1458 6.61283C15.1471 6.61107 15.1479 6.60895 15.1482 6.6067C15.1484 6.60379 15.1475 6.60091 15.1459 6.59864C15.1442 6.59637 15.1419 6.59487 15.1393 6.59443C15.097 6.58912 15.0564 6.57289 15.0207 6.54703C14.985 6.52117 14.9552 6.48639 14.9337 6.44546C14.9333 6.44386 14.9326 6.44237 14.9316 6.44111C14.9306 6.43985 14.9294 6.43884 14.9281 6.43817C14.9267 6.4375 14.9252 6.43717 14.9237 6.43722C14.9223 6.43727 14.9208 6.43769 14.9195 6.43845C14.9181 6.43921 14.917 6.44029 14.9161 6.44161C14.9152 6.44294 14.9146 6.44447 14.9143 6.44609C14.914 6.44772 14.914 6.4494 14.9144 6.45101C14.9147 6.45262 14.9154 6.45411 14.9163 6.45539C14.9389 6.5 14.9707 6.53793 15.0091 6.56599C15.0476 6.59405 15.0915 6.61142 15.1372 6.61663H15.1409Z" fill="#263238"/>
<path d="M14.979 5.9594C14.9822 5.95837 14.9851 5.95635 14.9874 5.95355C15.0038 5.93278 15.0245 5.91665 15.0477 5.90649C15.0708 5.89633 15.0958 5.89244 15.1206 5.89513C15.1232 5.89573 15.1258 5.89574 15.1284 5.89517C15.1309 5.8946 15.1333 5.89347 15.1355 5.89183C15.1376 5.89019 15.1395 5.88809 15.1409 5.88565C15.1423 5.88321 15.1433 5.88047 15.1437 5.87761C15.1446 5.87166 15.1435 5.86553 15.1404 5.86052C15.1374 5.85551 15.1327 5.852 15.1274 5.85073C15.0963 5.84601 15.0646 5.84988 15.0352 5.862C15.0057 5.87412 14.9794 5.89413 14.9585 5.92025C14.9555 5.92389 14.9537 5.92852 14.9532 5.93344C14.9528 5.93836 14.9538 5.9433 14.9561 5.94752C14.9584 5.95174 14.9619 5.95501 14.966 5.95684C14.9701 5.95866 14.9747 5.95895 14.979 5.95764V5.9594Z" fill="#263238"/>
<path d="M9.36198 18.7253H9.36827C9.37763 18.7277 9.38738 18.7273 9.39658 18.7243C9.40577 18.7212 9.41409 18.7155 9.42073 18.7078C9.4254 18.7035 9.429 18.6978 9.4312 18.6915C9.4334 18.6852 9.43413 18.6783 9.43332 18.6716C9.42493 18.6132 9.28749 18.5419 9.27175 18.5337C9.26992 18.5328 9.26789 18.5326 9.26592 18.533C9.26395 18.5334 9.26215 18.5345 9.26073 18.5361C9.25932 18.5376 9.25836 18.5396 9.25799 18.5418C9.25761 18.544 9.25784 18.5463 9.25864 18.5483C9.277 18.6073 9.31424 18.7037 9.36198 18.7253ZM9.28592 18.5682C9.33837 18.598 9.40972 18.6459 9.41444 18.6774C9.41475 18.6805 9.41434 18.6835 9.41323 18.6863C9.41212 18.6891 9.41037 18.6915 9.40814 18.6932C9.40386 18.6985 9.39839 18.7024 9.39231 18.7045C9.38623 18.7067 9.37975 18.707 9.37352 18.7055C9.34572 18.6973 9.31372 18.6471 9.28592 18.5682Z" fill="#407BFF"/>
<path d="M9.27305 18.5621C9.32027 18.5832 9.42256 18.5943 9.45456 18.5586C9.46004 18.5521 9.46346 18.5438 9.46432 18.535C9.46517 18.5261 9.4634 18.5172 9.45928 18.5096C9.45601 18.5018 9.45126 18.495 9.44537 18.4896C9.43948 18.4841 9.43259 18.4802 9.42518 18.478C9.36695 18.4593 9.26781 18.5364 9.26204 18.5364C9.26063 18.5375 9.2595 18.539 9.25876 18.5408C9.25803 18.5425 9.25771 18.5444 9.25784 18.5464C9.25785 18.5483 9.25835 18.5502 9.25928 18.5519C9.2602 18.5535 9.26152 18.5548 9.26309 18.5557L9.27305 18.5621ZM9.42413 18.5008C9.43187 18.5043 9.43808 18.511 9.44144 18.5195C9.44721 18.5323 9.44407 18.5388 9.44144 18.5423C9.42098 18.5656 9.33653 18.5633 9.29037 18.5452C9.32834 18.5147 9.37417 18.4987 9.42098 18.4996L9.42413 18.5008Z" fill="#407BFF"/>
<path d="M12.5283 19.5272C12.5622 19.5301 12.5961 19.5211 12.6253 19.5015C12.6327 19.4952 12.6388 19.487 12.643 19.4777C12.6471 19.4684 12.6494 19.4581 12.6494 19.4477C12.6499 19.4418 12.6488 19.4358 12.6464 19.4304C12.644 19.4251 12.6403 19.4205 12.6358 19.4174C12.5896 19.3835 12.4212 19.4693 12.3882 19.4869C12.3863 19.488 12.3848 19.4897 12.3839 19.4918C12.3829 19.4939 12.3826 19.4962 12.3829 19.4986C12.3832 19.5008 12.3841 19.503 12.3856 19.5046C12.387 19.5063 12.3888 19.5074 12.3908 19.5079C12.4359 19.5198 12.482 19.5262 12.5283 19.5272ZM12.6054 19.4314C12.6123 19.4306 12.6192 19.4323 12.6253 19.436C12.6253 19.436 12.6295 19.4401 12.6295 19.4466C12.6295 19.4537 12.628 19.4608 12.6251 19.4672C12.6222 19.4736 12.6179 19.4792 12.6127 19.4834C12.5839 19.5085 12.5151 19.5114 12.4249 19.4933C12.4818 19.4623 12.5427 19.4414 12.6054 19.4314Z" fill="#407BFF"/>
<path d="M12.3932 19.5089H12.3969C12.453 19.4832 12.5642 19.3816 12.5543 19.329C12.5543 19.3173 12.5454 19.3027 12.5196 19.2992C12.4195 19.2864 12.3827 19.4879 12.3812 19.4961C12.3807 19.4981 12.3808 19.5002 12.3813 19.5021C12.3819 19.5041 12.3829 19.5058 12.3843 19.5072C12.3856 19.5082 12.3871 19.5088 12.3886 19.5091C12.3901 19.5094 12.3917 19.5094 12.3932 19.5089ZM12.5128 19.3202H12.5196C12.5301 19.3202 12.5359 19.3237 12.537 19.3308C12.5412 19.3611 12.4646 19.4417 12.4079 19.4768C12.42 19.4283 12.453 19.3202 12.5128 19.3202Z" fill="#407BFF"/>
<path d="M15.0371 6.04775L15.12 6.03314C15.12 6.03314 15.0728 6.09857 15.0371 6.04775Z" fill="#263238"/>
<path d="M13.4979 7.73763C13.3972 7.83811 13.297 7.92575 13.1937 8.0163C13.0903 8.10685 12.9839 8.19156 12.8747 8.27335C12.7642 8.35766 12.6499 8.43565 12.5322 8.50703C12.4037 8.58926 12.2664 8.65305 12.1236 8.69689L12.111 8.7004C12.0799 8.70887 12.0476 8.70887 12.0165 8.7004C11.9101 8.67022 11.8076 8.62466 11.7118 8.56486C11.6253 8.51238 11.5419 8.45384 11.4621 8.3896C11.3844 8.32612 11.3101 8.25933 11.2391 8.18922C11.1683 8.11736 11.1012 8.04726 11.0351 7.96606C11.0148 7.94063 11.0031 7.90811 11.002 7.87412C11.001 7.84013 11.0106 7.80679 11.0292 7.77985C11.0479 7.75292 11.0744 7.73408 11.1042 7.72659C11.134 7.71909 11.1652 7.72341 11.1924 7.7388H11.1972C11.2732 7.78437 11.3519 7.83461 11.4301 7.87901C11.5082 7.92341 11.5874 7.96898 11.664 8.00987C11.7406 8.05076 11.8214 8.08815 11.8943 8.11912C11.9619 8.14856 12.0323 8.16933 12.1041 8.18104L11.9992 8.18572C12.0979 8.14247 12.1923 8.08805 12.2809 8.02331C12.3795 7.95379 12.4787 7.87667 12.5768 7.79722C12.6749 7.71777 12.7725 7.63364 12.8695 7.54893C12.9665 7.46422 13.0636 7.37367 13.1559 7.29247H13.1585C13.2118 7.2451 13.2795 7.22266 13.3473 7.2299C13.4151 7.23715 13.4778 7.27352 13.522 7.3313C13.5661 7.38908 13.5884 7.46374 13.584 7.53947C13.5796 7.61521 13.5489 7.68607 13.4985 7.73705L13.4979 7.73763Z" fill="#FF8B7B"/>
<path d="M11.2662 7.87227L11.1277 7.52174L10.8555 7.77646C10.8555 7.77646 11.005 8.02124 11.1734 8.06272L11.2662 7.87227Z" fill="#FF8B7B"/>
<path d="M11.0034 7.28035L10.9027 7.38434C10.874 7.414 10.8525 7.45122 10.8401 7.49256C10.8277 7.53391 10.8249 7.57805 10.8318 7.62094L10.8565 7.77751L11.1287 7.51987L11.0034 7.28035Z" fill="#FF8B7B"/>
<path d="M13.505 6.94041C13.2978 6.89718 12.8262 7.41537 12.8262 7.41537L13.1677 8.21514C13.1677 8.21514 13.7762 7.8062 13.7736 7.5141C13.7715 7.25062 13.7699 6.99591 13.505 6.94041Z" fill="#263238"/>
<path d="M10.8073 6.7057C10.7488 6.70575 10.6909 6.69292 10.6369 6.66795C10.5829 6.64299 10.5338 6.60638 10.4926 6.56024C9.91691 5.91945 9.13632 5.55948 8.32241 5.55948C7.5085 5.55948 6.7279 5.91945 6.15224 6.56024C6.06724 6.64436 5.95659 6.68914 5.84292 6.68542C5.72926 6.68169 5.62116 6.62974 5.54075 6.54019C5.46034 6.45064 5.4137 6.33026 5.41035 6.20367C5.407 6.07708 5.44721 5.95385 5.52275 5.85919C6.26565 5.03218 7.27305 4.5676 8.32346 4.5676C9.37386 4.5676 10.3813 5.03218 11.1242 5.85919C11.1865 5.9286 11.2289 6.01703 11.2461 6.11329C11.2634 6.20956 11.2546 6.30934 11.2209 6.40005C11.1872 6.49076 11.1302 6.56832 11.0569 6.62292C10.9837 6.67753 10.8976 6.70675 10.8094 6.70687L10.8073 6.7057Z" fill="#407BFF"/>
<path opacity="0.4" d="M10.8073 6.7057C10.7488 6.70575 10.6909 6.69292 10.6369 6.66795C10.5829 6.64299 10.5338 6.60638 10.4926 6.56024C9.91691 5.91945 9.13632 5.55948 8.32241 5.55948C7.5085 5.55948 6.7279 5.91945 6.15224 6.56024C6.06724 6.64436 5.95659 6.68914 5.84292 6.68542C5.72926 6.68169 5.62116 6.62974 5.54075 6.54019C5.46034 6.45064 5.4137 6.33026 5.41035 6.20367C5.407 6.07708 5.44721 5.95385 5.52275 5.85919C6.26565 5.03218 7.27305 4.5676 8.32346 4.5676C9.37386 4.5676 10.3813 5.03218 11.1242 5.85919C11.1865 5.9286 11.2289 6.01703 11.2461 6.11329C11.2634 6.20956 11.2546 6.30934 11.2209 6.40005C11.1872 6.49076 11.1302 6.56832 11.0569 6.62292C10.9837 6.67753 10.8976 6.70675 10.8094 6.70687L10.8073 6.7057Z" fill="white"/>
<path d="M11.1229 12.0987C11.1984 12.004 11.2386 11.8808 11.2353 11.7542C11.232 11.6276 11.1853 11.5072 11.1049 11.4177C11.0245 11.3281 10.9164 11.2762 10.8027 11.2724C10.6891 11.2687 10.5784 11.3135 10.4934 11.3976C9.91556 12.0263 9.13846 12.3759 8.33066 12.3707C7.52285 12.3654 6.74947 12.0057 6.17826 11.3696C5.60704 10.7334 5.28405 9.87215 5.27934 8.97251C5.27462 8.07288 5.58856 7.20745 6.15307 6.56393C6.22861 6.46927 6.26882 6.34604 6.26548 6.21945C6.26213 6.09286 6.21548 5.97248 6.13507 5.88293C6.05466 5.79338 5.94657 5.74143 5.8329 5.7377C5.71924 5.73398 5.60859 5.77876 5.52358 5.86288C4.99647 6.44973 4.62877 7.19034 4.46276 7.99955C4.29675 8.80876 4.33917 9.65372 4.58515 10.4373C4.83113 11.2208 5.27067 11.9112 5.85325 12.4289C6.43583 12.9467 7.13778 13.2708 7.8784 13.3641V15.0676H6.97561C6.85735 15.0676 6.74394 15.1199 6.66032 15.213C6.5767 15.3062 6.52972 15.4325 6.52972 15.5642C6.52972 15.6959 6.5767 15.8222 6.66032 15.9153C6.74394 16.0084 6.85735 16.0607 6.97561 16.0607H7.8763V17.0586C7.8763 17.1903 7.92328 17.3166 8.0069 17.4097C8.09052 17.5028 8.20393 17.5551 8.32219 17.5551C8.44045 17.5551 8.55386 17.5028 8.63748 17.4097C8.7211 17.3166 8.76808 17.1903 8.76808 17.0586V16.0561H9.66877C9.78703 16.0561 9.90044 16.0037 9.98406 15.9106C10.0677 15.8175 10.1147 15.6912 10.1147 15.5595C10.1147 15.4278 10.0677 15.3015 9.98406 15.2084C9.90044 15.1152 9.78703 15.0629 9.66877 15.0629H8.76808V13.3594C9.65905 13.2502 10.4898 12.8054 11.1229 12.0987Z" fill="#407BFF"/>
<path d="M14.1003 3.08132C14.1005 3.07743 14.1005 3.07352 14.1003 3.06963C14.1003 3.05503 14.1003 3.03984 14.1003 3.02523C14.1003 3.01063 14.1003 3.01355 14.1003 3.00771C14.1003 3.00187 14.1003 2.97967 14.0966 2.96623C14.0968 2.96137 14.0968 2.95649 14.0966 2.95162C14.0908 2.91427 14.0812 2.8778 14.0677 2.84296L14.063 2.83245C14.0577 2.81855 14.0516 2.80509 14.0447 2.79214C14.0447 2.78746 14.0399 2.78337 14.0373 2.7787C14.0308 2.76634 14.0236 2.75443 14.0158 2.74306L14.0074 2.7308C13.9971 2.71545 13.9857 2.70099 13.9733 2.68757C13.9613 2.67398 13.9485 2.66129 13.935 2.64959L13.9235 2.64024C13.913 2.63148 13.9025 2.62389 13.892 2.61629L13.8789 2.60753C13.8677 2.60041 13.8561 2.59397 13.8443 2.58825L13.8333 2.58241C13.8024 2.56742 13.77 2.55663 13.7367 2.55028H13.7221C13.7105 2.55028 13.6984 2.54677 13.6864 2.54619H13.6696C13.657 2.54619 13.6439 2.54619 13.6313 2.54619H13.6192C13.6016 2.54767 13.5841 2.5504 13.5668 2.55437L10.9308 3.17187C10.815 3.19898 10.7137 3.2762 10.6491 3.38652C10.5844 3.49685 10.5618 3.63125 10.5861 3.76016C10.6105 3.88907 10.6798 4.00193 10.7789 4.07391C10.878 4.14589 10.9986 4.1711 11.1144 4.14398L12.2826 3.86999L10.4954 5.86037C10.474 5.88424 10.4548 5.91047 10.4382 5.93866C10.4299 5.95212 10.4224 5.96617 10.4157 5.98072C10.4021 6.00918 10.3912 6.03914 10.3831 6.0701C10.375 6.10082 10.3694 6.1323 10.3663 6.16416C10.3663 6.18013 10.3663 6.1959 10.3663 6.21148C10.3663 6.22784 10.3663 6.24361 10.3663 6.25938C10.3764 6.37409 10.422 6.48131 10.4954 6.56258C11.0699 7.20421 11.3925 8.07334 11.3925 8.97943C11.3925 9.88553 11.0699 10.7547 10.4954 11.3963C10.45 11.4412 10.4133 11.496 10.3876 11.5574C10.3619 11.6187 10.3477 11.6852 10.3459 11.7528C10.3441 11.8205 10.3548 11.8878 10.3772 11.9507C10.3996 12.0136 10.4333 12.0707 10.4763 12.1186C10.5193 12.1664 10.5706 12.204 10.627 12.229C10.6835 12.2539 10.744 12.2658 10.8047 12.2638C10.8654 12.2618 10.9252 12.246 10.9802 12.2174C11.0353 12.1888 11.0845 12.1479 11.1249 12.0973C11.8118 11.3302 12.2215 10.3086 12.2763 9.22699C12.331 8.14535 12.0269 7.07901 11.4218 6.23076L12.9121 4.57104L12.6661 5.87206C12.642 6.00094 12.6647 6.1352 12.7293 6.24546C12.7939 6.35571 12.8951 6.43298 13.0107 6.46035C13.0411 6.46728 13.072 6.47081 13.1031 6.47086C13.2053 6.47076 13.3044 6.43152 13.3838 6.35973C13.4631 6.28794 13.5179 6.18795 13.539 6.07653L14.0934 3.14032C14.0968 3.12083 14.0991 3.10112 14.1003 3.08132Z" fill="#407BFF"/>
<path opacity="0.4" d="M14.1003 3.08132C14.1005 3.07743 14.1005 3.07352 14.1003 3.06963C14.1003 3.05503 14.1003 3.03984 14.1003 3.02523C14.1003 3.01063 14.1003 3.01355 14.1003 3.00771C14.1003 3.00187 14.1003 2.97967 14.0966 2.96623C14.0968 2.96137 14.0968 2.95649 14.0966 2.95162C14.0908 2.91427 14.0812 2.8778 14.0677 2.84296L14.063 2.83245C14.0577 2.81855 14.0516 2.80509 14.0447 2.79214C14.0447 2.78746 14.0399 2.78337 14.0373 2.7787C14.0308 2.76634 14.0236 2.75443 14.0158 2.74306L14.0074 2.7308C13.9971 2.71545 13.9857 2.70099 13.9733 2.68757C13.9613 2.67398 13.9485 2.66129 13.935 2.64959L13.9235 2.64024C13.913 2.63148 13.9025 2.62389 13.892 2.61629L13.8789 2.60753C13.8677 2.60041 13.8561 2.59397 13.8443 2.58825L13.8333 2.58241C13.8024 2.56742 13.77 2.55663 13.7367 2.55028H13.7221C13.7105 2.55028 13.6984 2.54677 13.6864 2.54619H13.6696C13.657 2.54619 13.6439 2.54619 13.6313 2.54619H13.6192C13.6016 2.54767 13.5841 2.5504 13.5668 2.55437L10.9308 3.17187C10.815 3.19898 10.7137 3.2762 10.6491 3.38652C10.5844 3.49685 10.5618 3.63125 10.5861 3.76016C10.6105 3.88907 10.6798 4.00193 10.7789 4.07391C10.878 4.14589 10.9986 4.1711 11.1144 4.14398L12.2826 3.86999L10.4954 5.86037C10.474 5.88424 10.4548 5.91047 10.4382 5.93866C10.4299 5.95212 10.4224 5.96617 10.4157 5.98072C10.4021 6.00918 10.3912 6.03914 10.3831 6.0701C10.375 6.10082 10.3694 6.1323 10.3663 6.16416C10.3663 6.18013 10.3663 6.1959 10.3663 6.21148C10.3663 6.22784 10.3663 6.24361 10.3663 6.25938C10.3764 6.37409 10.422 6.48131 10.4954 6.56258C11.0699 7.20421 11.3925 8.07334 11.3925 8.97943C11.3925 9.88553 11.0699 10.7547 10.4954 11.3963C10.45 11.4412 10.4133 11.496 10.3876 11.5574C10.3619 11.6187 10.3477 11.6852 10.3459 11.7528C10.3441 11.8205 10.3548 11.8878 10.3772 11.9507C10.3996 12.0136 10.4333 12.0707 10.4763 12.1186C10.5193 12.1664 10.5706 12.204 10.627 12.229C10.6835 12.2539 10.744 12.2658 10.8047 12.2638C10.8654 12.2618 10.9252 12.246 10.9802 12.2174C11.0353 12.1888 11.0845 12.1479 11.1249 12.0973C11.8118 11.3302 12.2215 10.3086 12.2763 9.22699C12.331 8.14535 12.0269 7.07901 11.4218 6.23076L12.9121 4.57104L12.6661 5.87206C12.642 6.00094 12.6647 6.1352 12.7293 6.24546C12.7939 6.35571 12.8951 6.43298 13.0107 6.46035C13.0411 6.46728 13.072 6.47081 13.1031 6.47086C13.2053 6.47076 13.3044 6.43152 13.3838 6.35973C13.4631 6.28794 13.5179 6.18795 13.539 6.07653L14.0934 3.14032C14.0968 3.12083 14.0991 3.10112 14.1003 3.08132Z" fill="white"/>
</svg>
