<svg width="56" height="60" viewBox="0 0 56 60" fill="none" xmlns="http://www.w3.org/2000/svg">
<path d="M24.1563 59.9996C37.4975 59.9996 48.3127 54.525 48.3127 47.7718C48.3127 41.0185 37.4975 35.5439 24.1563 35.5439C10.8152 35.5439 0 41.0185 0 47.7718C0 54.525 10.8152 59.9996 24.1563 59.9996Z" fill="#C8C6C6"/>
<path d="M46.1218 49.0275C46.1218 49.0275 46.1081 49.0698 46.0792 49.1512L45.9471 49.5113C45.8954 49.6725 45.8013 49.8588 45.6949 50.0795C45.5977 50.3065 45.4458 50.546 45.2848 50.8216C44.9415 51.3585 44.4705 51.9831 43.8219 52.6093C43.1763 53.2355 42.3605 53.8617 41.3975 54.4409C39.4728 55.6166 36.9511 56.5512 34.1044 57.3276C32.6764 57.7049 31.1589 58.0274 29.5699 58.2622C27.9825 58.4986 26.3221 58.6348 24.6223 58.6739C21.2181 58.7459 17.9718 58.3875 15.0916 57.7331C12.2084 57.0866 9.70194 56.0894 7.76664 54.9466C7.64511 54.8761 7.52358 54.8088 7.40661 54.7368C7.29116 54.6617 7.17723 54.5881 7.06482 54.5161C6.84152 54.3689 6.61669 54.2358 6.41466 54.0809C6.20958 53.9321 6.00906 53.7866 5.81614 53.6457C5.63081 53.4938 5.45005 53.3482 5.27687 53.2058C5.19028 53.1338 5.10369 53.0664 5.02166 52.996L4.78773 52.78C4.6343 52.6375 4.48695 52.5013 4.34568 52.3714C4.0768 52.0959 3.83527 51.8391 3.61804 51.6074C3.416 51.3632 3.23523 51.1472 3.07877 50.9578C2.9223 50.7699 2.81141 50.593 2.71115 50.4599L2.49088 50.15C2.44227 50.0795 2.41797 50.042 2.41797 50.042C2.41797 50.042 2.44531 50.0764 2.49696 50.1437C2.54861 50.2142 2.62456 50.3159 2.7233 50.449C2.82508 50.5805 2.93901 50.7558 3.097 50.9405C3.25498 51.1268 3.43575 51.3413 3.64083 51.5839C3.85805 51.8125 4.1011 52.0677 4.3715 52.3401C4.51277 52.47 4.66012 52.6046 4.81507 52.7455C4.89254 52.816 4.97002 52.888 5.05053 52.96C5.13256 53.0304 5.21914 53.0977 5.30573 53.1682C5.47891 53.3091 5.65968 53.4547 5.845 53.6034C6.03793 53.7427 6.23844 53.8867 6.44352 54.0339C6.64556 54.1873 6.87038 54.3188 7.09368 54.466C7.2061 54.538 7.32003 54.6116 7.43548 54.6851C7.55244 54.7556 7.67397 54.8229 7.7955 54.8933C11.657 57.193 17.8275 58.7272 24.6208 58.5878C26.3176 58.5503 27.9749 58.4141 29.5593 58.1792C31.1452 57.9444 32.6597 57.6251 34.0861 57.2509C36.9299 56.4792 39.4485 55.5524 41.3686 54.3877C42.3317 53.8132 43.1459 53.1948 43.7915 52.5733C44.4402 51.9534 44.9141 51.3335 45.2589 50.8012C45.4215 50.5288 45.5749 50.2909 45.6737 50.0655C45.7815 49.8447 45.8787 49.6616 45.9319 49.5019C45.9927 49.3469 46.0397 49.2279 46.0716 49.145C46.1035 49.0651 46.1218 49.0244 46.1218 49.0244V49.0275Z" fill="#263238"/>
<path d="M15.7543 39.9613C15.1817 40.337 14.729 40.8865 14.4874 41.5409C14.2915 42.0716 14.2246 42.6743 14.6272 43.1142C15.5204 44.0926 22.0251 43.8906 22.0251 43.8906C22.0251 43.8906 22.3289 44.5528 24.2445 45.5735C26.6507 46.8556 26.6765 49.0707 28.1667 49.7016C28.5814 49.877 28.6133 49.7298 28.6133 49.7298C28.6133 49.7298 29.2832 51.0824 29.0873 52.3473C28.8913 53.6137 27.7748 55.713 28.0543 56.5192C28.3338 57.3254 29.2544 58.188 31.4327 57.3254C33.6096 56.4629 36.2057 54.1898 37.2675 52.5492C38.3278 50.9102 38.4114 49.9317 38.4114 49.9317C38.4114 49.9317 38.7471 50.4922 39.5279 49.0175C40.3102 47.5429 40.5609 44.293 39.5279 43.4867C39.5279 43.4867 39.695 42.8245 39.5841 41.7898C39.4884 40.9037 36.0948 34.454 29.1997 36.9854C29.1997 36.9854 27.4968 36.4093 25.9337 37.1873C25.9337 37.1873 18.5753 37.9184 15.7543 39.9597V39.9613Z" fill="#FF725E"/>
<path d="M26.0236 37.1465C26.0236 37.1465 25.9127 37.1872 25.7137 37.2592C25.5147 37.3312 25.2321 37.4533 24.9055 37.649C24.5789 37.8431 24.2159 38.1202 23.8574 38.4771C23.5004 38.8356 23.1525 39.2755 22.8411 39.7749C22.2168 40.7768 21.9904 41.8632 21.9646 42.635C21.9494 43.0232 21.9676 43.3395 21.9919 43.5555C22.0147 43.7715 22.033 43.8921 22.0254 43.8936C22.0223 43.8936 22.0147 43.8655 22.0041 43.8091C21.9935 43.7527 21.9737 43.6698 21.9616 43.5602C21.9297 43.3442 21.9008 43.0264 21.9099 42.6334C21.9205 41.8538 22.1408 40.7486 22.7743 39.7311C23.0887 39.227 23.4427 38.7824 23.8072 38.4239C24.1718 38.0654 24.544 37.7883 24.8782 37.6005C25.2124 37.4095 25.501 37.2936 25.7046 37.231C25.8048 37.195 25.8869 37.1794 25.9415 37.1653C25.9962 37.1512 26.0251 37.1465 26.0251 37.1496L26.0236 37.1465Z" fill="#263238"/>
<g opacity="0.4">
<path d="M38.6277 48.4806C38.2008 47.5899 37.4777 46.8369 36.621 46.3688C35.5364 45.7771 34.2755 45.6064 33.0481 45.7442C32.7321 45.7802 32.4162 45.835 32.1078 45.9101C31.1645 46.1402 30.25 46.5441 29.5011 47.1797C28.7628 47.8059 28.2038 48.6262 28.0078 49.5905C28.0306 49.6344 28.1187 49.6907 28.1552 49.7048C28.5835 49.8801 28.6139 49.7314 28.6139 49.7314C28.6139 49.7314 28.8129 48.8297 29.9492 47.7214C30.2545 47.4239 30.6525 47.175 31.1158 46.9105C31.7736 46.5363 32.6167 46.2921 33.6968 46.3046C33.7332 46.3046 33.7697 46.2999 33.8076 46.2984C33.8076 46.2984 35.5713 46.469 36.9415 47.6087C37.5871 48.1456 38.1355 48.9456 38.412 49.9318C38.4742 49.9991 38.6231 50.2011 39.0378 49.7659C38.9816 49.3244 38.8191 48.8798 38.6277 48.4791V48.4806Z" fill="black"/>
</g>
<g opacity="0.3">
<path d="M25.0253 37.2947C25.0253 37.2947 22.4277 38.403 21.7091 41.6107C21.7091 41.6107 21.5253 42.7691 21.1015 42.9585C20.6777 43.1479 17.3281 43.7867 17.3281 43.7867C19.4594 43.9698 22.0266 43.8915 22.0266 43.8915C22.0266 43.8915 21.5405 41.6169 22.8105 39.7493C23.7644 38.3451 25.0997 37.5326 25.7043 37.2148C25.5478 37.2321 25.3169 37.2602 25.0268 37.2978L25.0253 37.2947Z" fill="black"/>
</g>
<g opacity="0.2">
<path d="M28.556 49.726L28.6137 49.7291C28.6137 49.7291 29.2836 51.0817 29.0877 52.3466C28.9677 53.1278 28.4952 54.2267 28.2188 55.1425C28.5879 54.748 28.8613 54.2236 29.0892 53.7195C29.4446 52.9415 29.7758 52.1337 29.8594 51.2774C29.9429 50.4211 29.6452 49.3973 29.0588 48.7852C28.8385 49.0763 28.6684 49.3894 28.5545 49.7229L28.556 49.726Z" fill="black"/>
</g>
<g opacity="0.4">
<path d="M39.5779 43.2167C39.6068 42.9349 39.6341 42.2931 39.5855 41.7906C38.8609 41.1409 37.9312 40.5539 37.0365 40.1891C35.5478 39.5833 33.892 39.422 32.3198 39.732C30.4285 40.1046 28.712 41.1331 27.1959 42.3557C26.8374 42.6453 26.482 42.9506 26.0642 43.1353C25.6465 43.3216 25.1452 43.3717 24.7442 43.1494C24.7442 43.1494 24.5953 44.0135 25.7969 43.8194C27 43.6253 28.3064 42.2837 29.4001 41.6607C30.6685 40.939 31.9522 40.5836 33.3376 40.496C34.723 40.4083 36.8512 41.0673 38.3384 42.0051C38.8716 42.3416 39.3258 42.9459 39.5794 43.2136L39.5779 43.2167Z" fill="black"/>
</g>
<path d="M39.5522 43.1113C39.5522 43.1113 39.5386 43.0941 39.5127 43.0597C39.4869 43.0221 39.4505 42.9689 39.4049 42.9031C39.2986 42.7748 39.1451 42.5822 38.9021 42.3803C38.4281 41.9654 37.6443 41.4864 36.5976 41.0935C36.0766 40.8962 35.4887 40.7193 34.8477 40.5925C34.5256 40.5362 34.1899 40.4939 33.8436 40.4798C33.4957 40.4673 33.1387 40.4767 32.7726 40.5111C32.0435 40.5894 31.2854 40.7725 30.5517 41.0966C29.8134 41.4144 29.1268 41.8981 28.4341 42.4053C27.7399 42.9094 27.0457 43.401 26.2862 43.6953C26.0963 43.7641 25.9079 43.8377 25.7074 43.869C25.5099 43.9019 25.2988 43.9035 25.1119 43.8158C24.922 43.7313 24.7868 43.5528 24.7291 43.3603C24.6683 43.1677 24.6638 42.9673 24.6744 42.7748C24.7473 42.0108 24.9509 41.3079 25.2289 40.6927C25.5054 40.0759 25.8502 39.5468 26.2102 39.1053C26.5687 38.6607 26.9515 38.3148 27.3039 38.0377C27.6548 37.7559 27.9921 37.5649 28.267 37.4131C28.5481 37.2737 28.7698 37.172 28.9278 37.1203C29.0023 37.0937 29.0615 37.0718 29.104 37.0561C29.1435 37.042 29.1648 37.0358 29.1648 37.0373C29.1648 37.0373 29.1451 37.0483 29.1071 37.064C29.0645 37.0812 29.0068 37.1047 28.9339 37.136C28.779 37.1923 28.5602 37.2988 28.2822 37.4412C28.0103 37.5962 27.6776 37.7903 27.3328 38.0737C26.9849 38.3523 26.6067 38.6999 26.2543 39.1429C25.9003 39.5828 25.5616 40.1103 25.2896 40.7209C25.0162 41.3298 24.8172 42.0312 24.7473 42.7795C24.7367 42.9658 24.7428 43.1567 24.799 43.3352C24.8537 43.5121 24.9737 43.6686 25.1423 43.7438C25.3094 43.8221 25.5069 43.8221 25.6952 43.7892C25.8866 43.7594 26.072 43.6874 26.2588 43.6186C27.0062 43.3274 27.6959 42.839 28.3886 42.3364C29.0813 41.8308 29.7755 41.3424 30.5213 41.0214C31.2642 40.6958 32.0298 40.5127 32.765 40.436C33.1341 40.4015 33.4957 40.3921 33.8466 40.4078C34.1975 40.4234 34.5363 40.4673 34.8598 40.5268C35.5069 40.6567 36.0948 40.8383 36.6174 41.0387C37.6655 41.4394 38.4509 41.9294 38.9218 42.3552C39.1618 42.5634 39.3153 42.7607 39.417 42.8922C39.4596 42.9611 39.4945 43.0143 39.5188 43.0534C39.5416 43.0894 39.5522 43.1098 39.5507 43.1098L39.5522 43.1113Z" fill="#263238"/>
<path d="M38.4115 49.9321C38.4115 49.9321 38.3932 49.8898 38.3659 49.8068C38.3522 49.763 38.3355 49.7129 38.3157 49.655C38.2975 49.5939 38.2763 49.5251 38.2398 49.4499C38.1243 49.1431 37.9026 48.7188 37.5349 48.268C37.3542 48.041 37.1263 47.8187 36.8696 47.5964C36.6038 47.3866 36.3121 47.169 35.9749 46.9953C35.8928 46.9483 35.8078 46.9029 35.7181 46.8638C35.63 46.8231 35.5419 46.7808 35.4508 46.7417C35.2654 46.6728 35.0771 46.5961 34.8781 46.5444C34.4846 46.4317 34.0623 46.3503 33.6279 46.3456C33.1934 46.3362 32.7696 46.3847 32.3686 46.4771C31.9691 46.5742 31.5969 46.7166 31.2536 46.8794C30.5745 47.2191 30.0262 47.6496 29.6312 48.0754C29.2347 48.4997 28.9704 48.8957 28.8155 49.1838C28.7289 49.3231 28.6833 49.4437 28.6423 49.5188C28.6028 49.5955 28.5815 49.6362 28.5785 49.6346C28.5754 49.6346 28.5921 49.5908 28.6271 49.511C28.6651 49.4327 28.7061 49.3106 28.7881 49.1681C28.9355 48.8738 29.1952 48.4684 29.5902 48.0347C29.9836 47.5995 30.535 47.1581 31.2217 46.8121C31.568 46.6462 31.9447 46.5006 32.3503 46.4004C32.7559 46.3065 33.1874 46.2564 33.6294 46.2658C34.0715 46.272 34.4983 46.3534 34.8978 46.4693C35.0999 46.5225 35.2897 46.6008 35.4766 46.6712C35.5693 46.7104 35.6574 46.7558 35.747 46.7965C35.8366 46.8356 35.9232 46.881 36.0068 46.9295C36.3485 47.108 36.6417 47.3318 36.9091 47.5447C37.1658 47.7733 37.3952 48.0003 37.576 48.232C37.9421 48.6922 38.1578 49.1274 38.2656 49.439C38.299 49.5141 38.3188 49.5861 38.334 49.6472C38.3507 49.7067 38.3644 49.7583 38.3765 49.8021C38.3993 49.8867 38.4099 49.9305 38.4069 49.9321H38.4115Z" fill="#263238"/>
<g opacity="0.2">
<path d="M36.9445 47.6222C36.1045 46.8489 34.9819 46.3871 33.8593 46.29C34.6887 47.3984 34.994 48.8824 34.7646 50.2616C34.5353 51.6408 33.7955 52.9072 32.7822 53.8387C31.769 54.7701 30.496 55.3776 29.1684 55.6719C28.8752 55.736 28.5759 55.7877 28.3071 55.9239C28.2007 55.9771 28.1005 56.046 28.0139 56.129C28.0063 56.2793 28.0184 56.4123 28.0564 56.5203C28.3359 57.3266 29.2565 58.1891 31.4348 57.3266C33.6117 56.464 36.2078 54.1909 37.2696 52.5503C38.1583 51.1758 38.3724 50.1912 38.4135 49.9329C38.2509 48.9184 37.6357 48.2578 36.9476 47.6238L36.9445 47.6222Z" fill="black"/>
</g>
<g opacity="0.2">
<path d="M39.5279 43.4876C39.5279 43.4876 39.5507 43.6175 39.5765 43.2168C37.9617 40.8795 33.8405 40.4443 33.8405 40.4443C33.8405 40.4443 35.5996 41.6654 35.7788 43.6614C35.8943 44.9513 34.3296 45.5133 33.207 45.7497C37.427 45.3943 38.7836 48.5253 39.1329 49.654C39.2499 49.5037 39.3806 49.297 39.5279 49.0199C40.3102 47.5453 40.5609 44.2954 39.5279 43.4892V43.4876Z" fill="black"/>
</g>
<g opacity="0.2">
<path d="M30.7915 38.317C30.5986 38.0853 30.392 37.8583 30.1322 37.7111C29.874 37.5624 29.5519 37.5029 29.2785 37.6219L29.3195 37.6281C27.9357 38.3138 26.7052 39.3282 25.7543 40.5712C25.5127 40.8859 25.2818 41.3148 25.4732 41.6639C25.5978 41.8909 25.8743 41.9942 26.1264 41.977C26.3786 41.9582 26.6141 41.8408 26.8343 41.7124C27.9736 41.0534 28.961 40.0828 30.2112 39.6946C30.5728 39.5818 31.0209 39.4519 31.0968 39.0699C31.1515 38.7944 30.9708 38.5314 30.7915 38.3185V38.317Z" fill="white"/>
</g>
<g opacity="0.2">
<path d="M25.991 38.1019C25.1768 38.0456 24.3701 38.4494 23.8202 39.0709C23.2703 39.6924 22.9589 40.508 22.8268 41.3377C22.7812 41.6242 22.7797 41.9749 23.0121 42.1408C23.2886 42.3396 23.6577 42.1158 23.9099 41.8872C24.4248 41.4223 24.8638 40.7162 25.3621 39.9288C25.6765 39.431 26.5105 38.368 25.991 38.1035V38.1019Z" fill="white"/>
</g>
<g opacity="0.2">
<path d="M21.999 38.7655C21.8775 38.4979 21.5661 38.4806 21.3033 38.4963C19.491 38.6043 17.7107 39.2336 16.2144 40.2934C16.1172 40.3623 16.0458 40.4688 16.0306 40.5893C16.0047 40.7928 16.1369 40.9368 16.3298 40.9916C16.5865 41.0636 16.8585 41.048 17.1228 41.0229C18.6267 40.8789 20.1017 40.4187 21.4309 39.6798C21.6572 39.5545 21.8881 39.4121 21.9945 39.1569C22.0461 39.0317 22.0537 38.8892 21.999 38.7655Z" fill="white"/>
</g>
<g opacity="0.2">
<path d="M33.6204 42.8209C33.3592 42.2182 32.832 41.6233 31.4436 41.9176C30.2177 42.1837 29.0662 42.8068 28.1594 43.696C27.8555 43.995 27.5563 44.4192 27.7021 44.8247C27.8555 45.252 28.3842 45.3585 28.8247 45.3867C30.0263 45.4634 31.2674 45.4321 32.3809 44.9624C32.7804 44.7949 33.2559 44.463 33.5171 44.1108C33.8468 43.6678 33.7708 43.17 33.6189 42.8193L33.6204 42.8209Z" fill="white"/>
</g>
<g opacity="0.2">
<path d="M33.4812 49.4291C33.3309 49.1395 32.6579 48.781 32.3435 48.8405C31.7054 48.8922 31.1859 49.4354 30.9489 50.0491C30.7135 50.6627 30.7059 51.339 30.7013 51.9996C30.6998 52.2407 30.7059 52.5053 30.8578 52.69C31.0963 52.9796 31.549 52.9107 31.8832 52.7526C32.7855 52.3237 33.4509 51.4063 33.5937 50.3919C33.6392 50.0663 33.6316 49.7187 33.4812 49.4291Z" fill="white"/>
</g>
<path d="M30.4223 38.6326C30.3707 38.7312 30.0456 38.6545 29.6947 38.4604C29.3453 38.2663 29.1037 38.0283 29.1554 37.9297C29.207 37.8311 29.5321 37.9078 29.883 38.1019C30.2324 38.296 30.474 38.534 30.4223 38.6326Z" fill="white"/>
<path d="M32.7852 43.4711C32.6864 43.5212 32.495 43.3256 32.3218 43.0563C32.1502 42.787 32.0499 42.5287 32.1335 42.4536C32.2155 42.38 32.4646 42.5366 32.653 42.8309C32.8414 43.1252 32.8839 43.4226 32.7867 43.4711H32.7852Z" fill="white"/>
<path d="M33.0233 51.7423C32.9202 51.7016 32.9536 51.3509 33.0142 50.9392C33.0779 50.5275 33.1492 50.1831 33.26 50.1768C33.3676 50.1706 33.4738 50.5432 33.4041 51.0018C33.3358 51.4605 33.1234 51.783 33.0233 51.7423Z" fill="white"/>
<path d="M25.8561 38.2432C25.8561 38.3559 25.6252 38.4499 25.3366 38.4546C25.048 38.4577 24.814 38.37 24.8125 38.2573C24.8125 38.1446 25.0434 38.0507 25.332 38.046C25.6207 38.0428 25.8546 38.1305 25.8561 38.2432Z" fill="white"/>
<path d="M20.8698 38.5245C20.885 38.6356 20.5037 38.7812 20.0191 38.8501C19.5345 38.919 19.1289 38.883 19.1137 38.7718C19.0985 38.6607 19.4798 38.5151 19.9644 38.4462C20.449 38.3773 20.8546 38.4133 20.8698 38.5245Z" fill="white"/>
<path opacity="0.4" d="M22.8008 41.0581C23.7243 40.9172 24.6677 41.0988 25.4743 41.5794C25.4865 41.5873 25.4986 41.5935 25.5108 41.6013C26.7078 42.3215 28.1069 44.0904 28.4198 44.9968C28.7327 45.9032 27.9671 45.9377 28.4198 46.7783C28.8725 47.619 28.5489 49.8279 28.5489 49.8279L27.358 49.2236L23.2094 42.1258L20.75 41.3712L22.8023 41.0581H22.8008Z" fill="black"/>
<path d="M6.20145 42.7551C5.69408 43.0885 5.29304 43.5738 5.07885 44.1546C4.90568 44.6242 4.84643 45.1581 5.2019 45.5494C5.99334 46.4151 11.7552 46.2382 11.7552 46.2382C11.7552 46.2382 12.0241 46.8253 13.7209 47.7301C15.8521 48.8651 15.8749 50.8282 17.195 51.387C17.5611 51.542 17.59 51.4121 17.59 51.4121C17.59 51.4121 18.1839 52.6097 18.0107 53.7305C17.8376 54.8514 16.8487 56.7127 17.0963 57.425C17.3439 58.1389 18.1596 58.9028 20.0888 58.1389C22.0181 57.3749 24.3164 55.3617 25.2567 53.909C26.197 52.4562 26.27 51.5905 26.27 51.5905C26.27 51.5905 26.5662 52.0868 27.2589 50.7812C27.9516 49.4756 28.1734 46.5967 27.2589 45.8829C27.2589 45.8829 27.4078 45.2974 27.309 44.38C27.2239 43.5942 24.2177 37.8818 18.111 40.1251C18.111 40.1251 16.6026 39.6148 15.2187 40.3036C15.2187 40.3036 8.70033 40.9501 6.20297 42.7598L6.20145 42.7551Z" fill="#FF9A6C"/>
<path d="M15.2971 40.2617C15.2971 40.2617 15.1983 40.2977 15.0221 40.3635C14.8459 40.4277 14.5953 40.5372 14.3066 40.7094C14.018 40.8816 13.696 41.1259 13.38 41.4436C13.064 41.7599 12.7557 42.1512 12.4807 42.5927C11.9278 43.4787 11.7273 44.4399 11.7045 45.124C11.6893 45.4684 11.7075 45.7471 11.7273 45.9397C11.747 46.1322 11.7622 46.2371 11.7561 46.2387C11.7531 46.2387 11.747 46.2136 11.7364 46.1635C11.7273 46.1134 11.709 46.0398 11.6969 45.9443C11.668 45.7534 11.6422 45.4716 11.6498 45.124C11.6589 44.4321 11.8533 43.4521 12.4154 42.552C12.6934 42.1058 13.0078 41.7113 13.3314 41.3935C13.655 41.0758 13.9846 40.8315 14.2808 40.664C14.577 40.495 14.8338 40.3932 15.013 40.3384C15.1026 40.3071 15.1756 40.2946 15.2226 40.2805C15.2713 40.2695 15.2971 40.2648 15.2971 40.2664V40.2617Z" fill="#263238"/>
<g opacity="0.4">
<path d="M26.4608 50.3008C26.0826 49.5119 25.4415 48.845 24.6835 48.4301C23.7219 47.9057 22.6054 47.7538 21.5193 47.8775C21.2382 47.9088 20.9602 47.9573 20.6868 48.0247C19.8513 48.2282 19.0401 48.5867 18.3778 49.1487C17.7246 49.7028 17.2294 50.4308 17.0547 51.284C17.076 51.3231 17.1519 51.3716 17.1838 51.3857C17.5636 51.5407 17.5894 51.4092 17.5894 51.4092C17.5894 51.4092 17.7656 50.6108 18.7712 49.6293C19.0416 49.3647 19.3941 49.1455 19.8042 48.9107C20.3875 48.5788 21.1334 48.3628 22.0904 48.3738C22.1238 48.3738 22.1557 48.3706 22.1892 48.3691C22.1892 48.3691 23.7508 48.5209 24.966 49.5291C25.5387 50.005 26.0233 50.7126 26.2694 51.5861C26.3241 51.6456 26.4562 51.824 26.8239 51.4389C26.7737 51.0476 26.6309 50.6546 26.4608 50.2993V50.3008Z" fill="black"/>
</g>
<g opacity="0.3">
<path d="M14.4114 40.3947C14.4114 40.3947 12.11 41.3763 11.4735 44.2176C11.4735 44.2176 11.3109 45.243 10.9357 45.4105C10.5605 45.578 7.59375 46.1431 7.59375 46.1431C9.48044 46.3059 11.756 46.2355 11.756 46.2355C11.756 46.2355 11.3246 44.2207 12.4502 42.566C13.2948 41.323 14.4767 40.6029 15.0129 40.3212C14.8747 40.3368 14.6696 40.3619 14.4129 40.3947H14.4114Z" fill="black"/>
</g>
<g opacity="0.2">
<path d="M17.5419 51.4065L17.5935 51.4096C17.5935 51.4096 18.1875 52.6072 18.0143 53.728C17.908 54.42 17.4902 55.3937 17.2441 56.2046C17.5707 55.8555 17.8123 55.3906 18.0158 54.9444C18.3303 54.2556 18.625 53.5402 18.6979 52.7825C18.7708 52.0248 18.508 51.1168 17.99 50.5752C17.794 50.8335 17.6437 51.1106 17.5434 51.4065H17.5419Z" fill="black"/>
</g>
<g opacity="0.4">
<path d="M27.3015 45.6396C27.3273 45.3891 27.385 44.932 27.3091 44.3763C26.6665 43.8002 25.8432 43.2804 25.0517 42.9579C23.7332 42.421 22.2657 42.2785 20.8728 42.5541C19.1972 42.8844 17.6766 43.7955 16.3338 44.8788C16.0163 45.1355 15.7018 45.4048 15.3312 45.5691C14.9605 45.7335 14.5169 45.7789 14.1615 45.5817C14.1615 45.5817 14.0293 46.3472 15.0942 46.1765C16.1591 46.0043 17.3181 44.8162 18.2858 44.2651C19.4084 43.6264 20.5462 43.3117 21.772 43.2335C22.9979 43.1552 24.8846 43.7391 26.2017 44.5688C26.6741 44.8663 27.0767 45.4016 27.3015 45.6396Z" fill="black"/>
</g>
<path d="M27.2807 45.5467C27.2807 45.5467 27.267 45.5326 27.2457 45.5013C27.2214 45.4669 27.1895 45.4215 27.15 45.3636C27.0559 45.2508 26.9191 45.0802 26.7049 44.9002C26.2857 44.5339 25.5899 44.1096 24.6648 43.7621C24.203 43.5883 23.682 43.4302 23.1154 43.3191C22.5472 43.2142 21.9244 43.1829 21.2788 43.2471C20.6332 43.3159 19.9633 43.4787 19.3131 43.7652C18.6599 44.047 18.0508 44.4744 17.4371 44.9237C16.8218 45.3698 16.2066 45.805 15.5337 46.0664C15.365 46.1275 15.1979 46.1933 15.0202 46.2199C14.8455 46.248 14.6572 46.2512 14.4901 46.1729C14.3214 46.0978 14.1999 45.9381 14.1483 45.7659C14.0936 45.5937 14.0905 45.4168 14.0997 45.2461C14.165 44.5683 14.3442 43.9452 14.5918 43.4005C14.8379 42.8541 15.1433 42.3845 15.4623 41.9947C16.1048 41.2104 16.796 40.7564 17.2852 40.495C17.5343 40.3713 17.7318 40.2821 17.87 40.2367L18.0265 40.1803C18.0614 40.1678 18.0796 40.1631 18.0812 40.1631C18.0812 40.1631 18.0644 40.1725 18.0295 40.1881C17.9915 40.2038 17.9399 40.2257 17.8761 40.2523C17.7394 40.3024 17.5449 40.3963 17.2988 40.5231C16.8173 40.7908 16.1352 41.2495 15.5048 42.0307C15.1919 42.4205 14.8911 42.887 14.6511 43.4286C14.408 43.9672 14.2333 44.5887 14.1711 45.2508C14.1619 45.4152 14.1665 45.5843 14.2166 45.7424C14.2652 45.8989 14.37 46.0367 14.5189 46.1025C14.6663 46.1713 14.8394 46.1713 15.0065 46.1432C15.1752 46.1165 15.3392 46.0524 15.5048 45.9929C16.1656 45.7346 16.7763 45.3041 17.39 44.8579C18.0022 44.4102 18.6189 43.9766 19.2812 43.6932C19.939 43.4052 20.618 43.2424 21.2712 43.1735C21.9244 43.1093 22.5533 43.1453 23.1275 43.2533C23.7002 43.3692 24.2213 43.5288 24.6846 43.7089C25.6127 44.0642 26.31 44.4994 26.7262 44.8767C26.9389 45.0614 27.0741 45.2368 27.1637 45.3542C27.2017 45.4152 27.2305 45.4622 27.2533 45.4982C27.2731 45.5311 27.2822 45.5483 27.2822 45.5483L27.2807 45.5467Z" fill="#263238"/>
<path d="M26.2715 51.5873C26.2624 51.5905 26.2229 51.4324 26.1196 51.1615C26.0163 50.8907 25.8204 50.515 25.4953 50.1158C25.3358 49.9139 25.1322 49.7182 24.9059 49.5209C24.6704 49.3362 24.4122 49.1421 24.1129 48.9887C23.9686 48.9026 23.8076 48.84 23.6496 48.7648C23.4855 48.7038 23.32 48.6364 23.1438 48.5895C22.7944 48.4893 22.4222 48.4188 22.0379 48.4126C21.6535 48.4048 21.2783 48.4486 20.9244 48.5284C20.5704 48.6145 20.2408 48.7398 19.9385 48.8838C19.3369 49.1844 18.8508 49.5648 18.503 49.9405C18.1521 50.3162 17.9181 50.6668 17.7799 50.9205C17.6401 51.1741 17.5763 51.3228 17.5687 51.3196C17.5657 51.3196 17.5809 51.2805 17.6113 51.2101C17.6447 51.1412 17.6812 51.0316 17.7541 50.9048C17.8847 50.6434 18.1141 50.2849 18.4635 49.8998C18.8113 49.5147 19.3005 49.1233 19.9081 48.8149C20.215 48.6677 20.5492 48.5378 20.9077 48.4502C21.2677 48.3672 21.649 48.3218 22.0409 48.3312C22.4328 48.3374 22.8111 48.4094 23.1665 48.5128C23.3458 48.5597 23.5144 48.6286 23.68 48.6928C23.841 48.7695 24.0035 48.8337 24.1494 48.9229C24.4517 49.081 24.7114 49.2798 24.9499 49.4693C25.1778 49.6712 25.3814 49.8732 25.5409 50.0798C25.8644 50.4884 26.0558 50.8735 26.1515 51.1506C26.2077 51.2852 26.226 51.401 26.2487 51.4731C26.2685 51.5482 26.2776 51.5873 26.2746 51.5873H26.2715Z" fill="#263238"/>
<g opacity="0.2">
<path d="M24.9736 49.5429C24.2293 48.8572 23.2358 48.4486 22.2408 48.3625C22.9761 49.3441 23.2465 50.6591 23.0429 51.8801C22.8393 53.1012 22.1831 54.2236 21.2869 55.0486C20.3891 55.8736 19.2604 56.4106 18.0846 56.672C17.8249 56.7299 17.559 56.7753 17.3221 56.8959C17.2279 56.9429 17.1398 57.0039 17.0623 57.0775C17.0562 57.2105 17.0653 57.328 17.0988 57.425C17.3464 58.1389 18.1621 58.9028 20.0913 58.1389C22.0206 57.3749 24.3189 55.3617 25.2592 53.909C26.0461 52.6926 26.236 51.8191 26.2725 51.5905C26.1281 50.692 25.5828 50.1065 24.9736 49.546V49.5429Z" fill="black"/>
</g>
<g opacity="0.2">
<path d="M27.2614 45.8803C27.2614 45.8803 27.2812 45.9961 27.304 45.6408C25.873 43.5712 22.2242 43.1846 22.2242 43.1846C22.2242 43.1846 23.7827 44.2663 23.9407 46.0353C24.0425 47.1781 22.6571 47.6759 21.6621 47.8841C25.4006 47.5694 26.6021 50.3434 26.912 51.3422C27.0153 51.2091 27.1323 51.026 27.2629 50.7802C27.9556 49.4746 28.1774 46.5957 27.2629 45.8819L27.2614 45.8803Z" fill="black"/>
</g>
<g opacity="0.2">
<path d="M19.5209 41.2986C19.3492 41.0935 19.1669 40.8931 18.9375 40.7616C18.7082 40.6301 18.4226 40.5785 18.1811 40.6818L18.2175 40.6865C16.9916 41.2939 15.9024 42.1925 15.0593 43.293C14.8467 43.5716 14.6416 43.9521 14.8102 44.2604C14.9211 44.4624 15.1642 44.5532 15.389 44.5375C15.6123 44.5219 15.8204 44.417 16.0164 44.3027C17.025 43.7188 17.9 42.8578 19.0074 42.515C19.328 42.4163 19.7244 42.2989 19.7913 41.9624C19.8399 41.7181 19.6789 41.4864 19.5209 41.297V41.2986Z" fill="white"/>
</g>
<g opacity="0.2">
<path d="M15.2694 41.1082C14.5479 41.0581 13.8339 41.4166 13.3463 41.966C12.8587 42.5155 12.5837 43.2388 12.4667 43.973C12.4257 44.2281 12.4257 44.5365 12.6308 44.6853C12.8754 44.8606 13.202 44.6633 13.4268 44.4598C13.8825 44.0481 14.2714 43.4235 14.7135 42.7253C14.993 42.2838 15.7297 41.3414 15.271 41.1082H15.2694Z" fill="white"/>
</g>
<g opacity="0.2">
<path d="M11.733 41.6968C11.6252 41.4589 11.3502 41.4448 11.1178 41.4589C9.51212 41.5544 7.93532 42.1117 6.61069 43.051C6.5241 43.112 6.46182 43.2059 6.44815 43.3124C6.42536 43.4924 6.54233 43.6208 6.71398 43.6677C6.94185 43.7319 7.18186 43.7178 7.41732 43.6959C8.74955 43.5691 10.056 43.1605 11.2332 42.5062C11.4338 42.395 11.6373 42.2682 11.7315 42.0428C11.7771 41.9332 11.7847 41.8048 11.7345 41.6968H11.733Z" fill="white"/>
</g>
<g opacity="0.2">
<path d="M22.0274 45.288C21.7949 44.7542 21.3286 44.2266 20.0996 44.4881C19.0135 44.7229 17.9942 45.2755 17.1906 46.0629C16.9217 46.3275 16.6574 46.7032 16.785 47.0633C16.9202 47.4421 17.3896 47.536 17.78 47.5611C18.8449 47.6284 19.9432 47.6018 20.9306 47.1854C21.2845 47.0366 21.7053 46.7423 21.9377 46.4308C22.2309 46.0379 22.1626 45.598 22.0274 45.2865V45.288Z" fill="white"/>
</g>
<g opacity="0.2">
<path d="M21.9038 51.1415C21.7702 50.8847 21.1747 50.5669 20.8967 50.6202C20.3316 50.6656 19.8713 51.1477 19.6617 51.6909C19.452 52.2342 19.446 52.8337 19.4414 53.4176C19.4414 53.6321 19.446 53.8654 19.5796 54.0297C19.7908 54.2865 20.1918 54.2254 20.488 54.0845C21.2871 53.7057 21.8765 52.8916 22.0041 51.9946C22.0451 51.7066 22.0375 51.3982 21.9038 51.1415Z" fill="white"/>
</g>
<path d="M19.4854 41.4127C19.4307 41.5098 19.1846 41.4675 18.937 41.3172C18.6894 41.1669 18.5344 40.9666 18.5891 40.8695C18.6438 40.7724 18.8899 40.8147 19.1375 40.965C19.3851 41.1153 19.54 41.3157 19.4854 41.4127Z" fill="white"/>
<path d="M21.8007 46.0285C21.6915 46.0473 21.5717 45.8595 21.4777 45.6262C21.3851 45.393 21.3427 45.1707 21.4322 45.1049C21.5201 45.0392 21.731 45.1895 21.8417 45.4697C21.9539 45.7499 21.9069 46.0098 21.7992 46.027L21.8007 46.0285Z" fill="white"/>
<path d="M21.8026 53.0861C21.6979 53.0438 21.7434 52.6775 21.7404 52.2454C21.7434 51.8118 21.6964 51.4455 21.801 51.4032C21.8511 51.3844 21.9315 51.4596 22.0043 51.6099C22.0771 51.7602 22.1347 51.9871 22.1347 52.2439C22.1347 52.4991 22.0771 52.7276 22.0058 52.8779C21.9345 53.0297 21.8526 53.1049 21.8026 53.0861Z" fill="white"/>
<path d="M15.1121 41.47C15.0756 41.578 14.8462 41.5921 14.5895 41.6078C14.3328 41.6172 14.1034 41.6234 14.0578 41.5186C14.0381 41.4669 14.076 41.3933 14.1687 41.3276C14.2599 41.2618 14.4057 41.207 14.5728 41.1992C14.7399 41.1914 14.8888 41.2321 14.986 41.29C15.0832 41.3479 15.1288 41.4168 15.1121 41.47Z" fill="white"/>
<path d="M9.52882 41.9561C9.52578 42.0704 9.27362 42.1549 8.98196 42.2395C8.68726 42.3193 8.42901 42.3788 8.37129 42.2817C8.31204 42.1894 8.52168 41.9452 8.87866 41.845C9.23564 41.7448 9.5349 41.845 9.53034 41.9546L9.52882 41.9561Z" fill="white"/>
<path d="M27.9219 1.75352L31.317 30.544C31.317 30.544 34.2063 32.7419 39.0582 32.5775C43.9117 32.4131 45.2864 29.6642 45.2864 29.6642L48.0481 1.75195H27.9219V1.75352Z" fill="#E0E0E0"/>
<path d="M28.9629 2.86192L31.9737 29.4591C31.9737 29.4591 35.697 31.2672 38.8642 31.1264C42.6285 30.9589 44.6048 29.1179 44.6048 29.1179L47.0277 2.86035C47.0277 2.86035 43.2878 3.98749 37.2312 3.87947C31.8066 3.78241 28.9629 2.86035 28.9629 2.86035V2.86192Z" fill="#F5F5F5"/>
<path d="M29.5406 7.95664L31.9741 29.4583C31.9741 29.4583 33.9413 31.3243 38.8647 31.1255C42.9768 30.9596 44.6053 29.117 44.6053 29.117L46.5573 7.95508H29.5391L29.5406 7.95664Z" fill="#FF725E"/>
<path d="M37.9641 3.21695C43.5339 3.21695 48.0492 2.50556 48.0492 1.62801C48.0492 0.750457 43.5339 0.0390625 37.9641 0.0390625C32.3942 0.0390625 27.8789 0.750457 27.8789 1.62801C27.8789 2.50556 32.3942 3.21695 37.9641 3.21695Z" fill="#E0E0E0"/>
<path d="M47.6182 1.62783C47.6182 2.34012 43.304 2.8035 37.9842 2.91777C33.0259 3.02423 28.4125 2.3589 28.3502 1.62783C28.291 0.918677 32.6629 0.337891 37.9842 0.337891C43.3055 0.337891 47.6182 0.915546 47.6182 1.62783Z" fill="#F5F5F5"/>
<path d="M38.0763 9.94442C42.7686 9.94442 46.5725 8.98562 46.5725 7.80287C46.5725 6.62012 42.7686 5.66132 38.0763 5.66132C33.384 5.66132 29.5801 6.62012 29.5801 7.80287C29.5801 8.98562 33.384 9.94442 38.0763 9.94442Z" fill="#FF725E"/>
<path opacity="0.3" d="M38.0763 9.94442C42.7686 9.94442 46.5725 8.98562 46.5725 7.80287C46.5725 6.62012 42.7686 5.66132 38.0763 5.66132C33.384 5.66132 29.5801 6.62012 29.5801 7.80287C29.5801 8.98562 33.384 9.94442 38.0763 9.94442Z" fill="white"/>
<path opacity="0.2" d="M39.3867 29.9912C38.9781 29.8002 38.7183 29.376 38.7122 28.9126L38.4844 14.4008C38.492 13.0169 39.5371 11.8475 40.9377 11.6596C42.7363 11.4185 43.9819 12.5754 43.833 14.3491L42.9672 28.67C42.7378 29.6953 41.2202 30.8506 39.3882 29.9928L39.3867 29.9912Z" fill="black"/>
<path opacity="0.2" d="M37.1677 30.0722C37.7571 29.9282 38.1718 29.3803 38.1688 28.7557L38.0913 14.4004C38.0837 13.0165 37.0386 11.8471 35.638 11.6592C33.8394 11.4182 32.2672 12.5077 32.416 14.2814L33.6085 28.668C33.8333 29.4993 35.4056 30.5011 37.1662 30.0722H37.1677Z" fill="white"/>
<path opacity="0.2" d="M44.2558 13.6992C44.5293 11.0238 46.2717 10.8359 46.2717 10.8359L44.7875 27.1465C44.4518 28.9092 43.3034 29.1785 43.2852 28.5507L44.2558 13.6976V13.6992Z" fill="black"/>
<path opacity="0.1" d="M32.0848 14.0088C32.0848 11.4696 29.8867 11.0234 29.8867 11.0234C29.8867 11.0234 31.857 27.0679 31.9481 27.9023C32.059 28.9229 33.2834 29.3018 33.2424 28.6114L32.0863 14.0072L32.0848 14.0088Z" fill="white"/>
<path d="M33.6097 27.6052C33.3924 27.6271 33.0673 26.0867 32.8835 24.1659C32.6997 22.2435 32.7271 20.6686 32.9443 20.6467C33.1615 20.6248 33.4866 22.1636 33.6704 24.086C33.8542 26.0069 33.8269 27.5833 33.6097 27.6052Z" fill="white"/>
<path d="M32.8326 19.1621C32.6154 19.1793 32.4088 18.8067 32.3708 18.3292C32.3344 17.8518 32.4802 17.4494 32.6989 17.4322C32.9162 17.415 33.1228 17.7876 33.1592 18.265C33.1957 18.7425 33.0498 19.1448 32.8311 19.1621H32.8326Z" fill="white"/>
<path opacity="0.2" d="M29.7893 10.2451C29.7893 10.2451 32.2654 11.0247 32.4066 12.1252C32.4066 12.1252 32.8305 10.3938 36.1268 11.1844L35.8732 2.91562C35.8732 2.91562 32.5358 2.88274 28.5527 1.88867L29.7908 10.2435L29.7893 10.2451Z" fill="white"/>
<path opacity="0.4" d="M30.6328 2.50879C30.6328 2.50879 31.3665 9.92126 32.4071 9.94474C33.4477 9.96666 33.2426 2.78588 33.2426 2.78588L30.6343 2.50879H30.6328Z" fill="white"/>
<path d="M48.0477 1.62732C48.0477 1.62732 48.0477 1.58819 48.0188 1.52244C47.996 1.45356 47.917 1.37372 47.8061 1.29232C47.5783 1.13107 47.1909 0.980789 46.682 0.846159C45.6627 0.575334 44.1482 0.356169 42.2691 0.219973C40.39 0.0853435 38.1448 0.0274212 35.6566 0.118218C34.4125 0.166747 33.1076 0.249717 31.7632 0.414091C31.0918 0.49706 30.4082 0.600381 29.7261 0.752231C29.3858 0.828939 29.044 0.91817 28.7114 1.03715C28.5473 1.09976 28.3802 1.16551 28.2298 1.25631C28.1539 1.30171 28.084 1.35337 28.0217 1.41286C27.9655 1.47548 27.9184 1.54749 27.9154 1.62576C27.9169 1.70403 27.964 1.77604 28.0202 1.84023C28.0825 1.89972 28.1523 1.95138 28.2283 1.99677C28.3787 2.08757 28.5443 2.15332 28.7098 2.21594C29.0425 2.33648 29.3843 2.42415 29.7246 2.50085C30.4066 2.6527 31.0902 2.75446 31.7617 2.83899C33.106 3.00493 34.4125 3.0879 35.6566 3.13643C38.1448 3.22879 40.3915 3.16931 42.2691 3.03468C44.1467 2.89848 45.6612 2.67932 46.682 2.40849C47.1909 2.27386 47.5783 2.12358 47.8061 1.96233C47.917 1.88093 47.9945 1.80109 48.0188 1.73221C48.0462 1.66646 48.0431 1.62576 48.0477 1.62732C48.0462 1.62732 48.0522 1.66646 48.0264 1.73534C48.0051 1.80735 47.9277 1.89032 47.8153 1.97486C47.5874 2.14236 47.2 2.29891 46.6896 2.43823C45.6688 2.71845 44.1528 2.94701 42.2737 3.09103C40.3931 3.23193 38.1463 3.29767 35.6535 3.21001C34.4079 3.16304 33.1 3.08164 31.7526 2.91727C31.0781 2.8343 30.3945 2.73254 29.7079 2.57913C29.3646 2.50242 29.0213 2.41319 28.6825 2.29108C28.5154 2.2269 28.3468 2.16115 28.1888 2.06565C28.1098 2.01713 28.0339 1.96233 27.9655 1.89658C27.9017 1.82457 27.8409 1.73691 27.8379 1.62419C27.8409 1.51305 27.9032 1.42538 27.967 1.35337C28.0369 1.28762 28.1128 1.23126 28.1903 1.1843C28.3483 1.08881 28.5169 1.02306 28.684 0.958872C29.0213 0.836766 29.3661 0.749101 29.7079 0.670828C30.3945 0.518978 31.0781 0.417222 31.7526 0.332687C33.1 0.168313 34.4079 0.0869088 35.6535 0.0399449C38.1448 -0.0477211 40.3931 0.0164632 42.2722 0.15892C44.1512 0.302943 45.6673 0.5315 46.6881 0.811718C47.197 0.951045 47.5844 1.10759 47.8137 1.2751C47.9246 1.35963 48.0021 1.4426 48.0249 1.51618C48.0507 1.58506 48.0446 1.62576 48.0462 1.62419L48.0477 1.62732Z" fill="#263238"/>
<path d="M46.9935 3.21582C46.9935 3.21582 46.9919 3.25965 46.9859 3.34419C46.9783 3.43029 46.9676 3.55709 46.954 3.72147C46.9251 4.05647 46.881 4.54646 46.8264 5.18204C46.7109 6.45633 46.5453 8.30671 46.3357 10.6189C45.9119 15.2464 45.3194 21.7212 44.6419 29.1195V29.1321L44.6343 29.1399C44.4566 29.3575 44.247 29.5297 44.0252 29.6878C43.8019 29.8443 43.5695 29.9868 43.3249 30.1089C42.8373 30.3547 42.3223 30.5551 41.7891 30.6991C41.6569 30.7414 41.5217 30.7695 41.3881 30.8024C41.2529 30.8322 41.1192 30.8713 40.9825 30.8948C40.709 30.9417 40.4356 31.0028 40.1576 31.0325L39.7414 31.0873C39.6016 31.1061 39.4619 31.1124 39.3221 31.1249L38.9013 31.1593C38.7601 31.1672 38.6188 31.1687 38.4775 31.1734C37.3048 31.2063 36.1366 31.1092 35.0277 30.8259C34.4717 30.6928 33.9324 30.5144 33.4144 30.2921C32.8964 30.0713 32.3997 29.8146 31.9485 29.4843L31.9364 29.4749V29.4577C31.0963 22.1329 30.3656 15.7317 29.8431 11.1605C29.5848 8.87654 29.3783 7.04964 29.237 5.79101C29.1671 5.16326 29.1139 4.67953 29.0775 4.34922C29.0608 4.18641 29.0471 4.06117 29.038 3.97664C29.0289 3.8921 29.0273 3.84983 29.0273 3.84983C29.0273 3.84983 29.0349 3.8921 29.0456 3.97664C29.0562 4.06274 29.0714 4.18641 29.0911 4.34922C29.1306 4.67953 29.1884 5.16326 29.2628 5.78944C29.4101 7.04651 29.6243 8.87184 29.8917 11.1559C30.4203 15.727 31.1616 22.1266 32.0108 29.4499L31.9956 29.4232C32.4346 29.7457 32.9329 30.0009 33.4448 30.2201C33.9583 30.4392 34.4945 30.6161 35.0474 30.7492C36.1488 31.0294 37.3093 31.1265 38.476 31.0936C39.6001 31.0529 40.7151 30.9214 41.7694 30.6224C42.298 30.4799 42.8084 30.2811 43.2899 30.0385C43.5315 29.9164 43.7609 29.777 43.9811 29.6236C44.1984 29.4686 44.408 29.2949 44.572 29.0929L44.5644 29.1133C45.2526 21.7165 45.8541 15.2417 46.2856 10.6158C46.5043 8.30514 46.679 6.45476 46.799 5.18048C46.8598 4.54646 46.9084 4.05491 46.9403 3.72147C46.957 3.55709 46.9691 3.43029 46.9783 3.34419C46.9874 3.25965 46.9935 3.21582 46.9935 3.21582Z" fill="#263238"/>
<path d="M51.2853 32.2945C50.8251 31.507 50.7172 30.2829 51.0286 29.4219C51.34 28.5608 52.0479 27.8611 52.8971 27.5762C53.0824 28.171 53.2465 28.7784 53.2875 29.4015C53.327 30.0246 53.2343 30.6711 52.9305 31.2112C52.6267 31.7513 51.8884 32.2287 51.2853 32.296V32.2945Z" fill="#455A64"/>
<path d="M52.4793 28.8379C52.4611 28.8317 52.2469 29.5252 52.0008 30.3862C51.7547 31.2472 51.5709 31.9501 51.5891 31.9548C51.6074 31.961 51.8216 31.2675 52.0676 30.4065C52.3137 29.5455 52.4975 28.8442 52.4793 28.8379Z" fill="#263238"/>
<path d="M51.1445 31.8787C52.4114 32.0133 53.7634 31.5593 54.6794 30.692C54.7417 30.6326 54.8085 30.5684 54.8951 30.5559C55.0501 30.5324 55.1291 30.6967 55.2111 30.8173C55.2324 30.8486 55.2536 30.8799 55.2734 30.9112C55.3721 31.0584 55.3281 31.2493 55.1777 31.3417C53.9427 32.1025 52.6241 32.4328 51.304 32.198C51.2326 32.1855 51.178 32.126 51.1688 32.0524L51.1445 31.8818V31.8787Z" fill="#263238"/>
<path d="M45.3643 24.0342L43.3652 36.2651C43.3652 36.2651 44.2083 36.3951 45.9173 36.1712C46.6237 36.0789 47.9847 35.6108 48.6197 35.257C49.6253 34.695 50.6188 33.1593 50.6188 33.1593C50.7707 33.0732 51.3146 32.937 51.5485 32.2591C51.7688 31.6188 51.0837 30.9379 51.0837 30.9379C50.9956 30.5747 50.7905 27.6191 48.521 25.5073C46.9897 24.0811 46.0464 24.1954 45.3643 24.0357V24.0342Z" fill="#FF725E"/>
<path d="M45.7599 24.064C47.077 24.3583 49.2447 26.6751 48.8102 30.7015C48.4381 34.1565 45.6035 36.8585 42.6686 36.165C39.7322 35.4731 39.117 32.3421 39.7565 29.0578C40.3961 25.7734 42.6899 23.3783 45.7599 24.064Z" fill="#FF725E"/>
<g opacity="0.5">
<path d="M45.7599 24.064C47.077 24.3583 49.2447 26.6751 48.8102 30.7015C48.4381 34.1565 45.6035 36.8585 42.6686 36.165C39.7322 35.4731 39.117 32.3421 39.7565 29.0578C40.3961 25.7734 42.6899 23.3783 45.7599 24.064Z" fill="white"/>
</g>
<path d="M43.8591 30.9534C43.5462 31.0755 43.5128 32.7145 43.4672 33.2969C43.4216 33.8792 43.1801 35.7515 43.6404 35.8141C44.1007 35.8768 45.1747 35.2161 45.4922 35.0001C45.8096 34.7841 46.317 34.3285 46.3444 33.9058C46.3717 33.4832 44.5184 30.6951 43.8591 30.9534Z" fill="#FF725E"/>
<path d="M44.327 30.213C44.2344 30.6137 45.1261 31.3119 45.4284 31.5468C45.7322 31.7816 46.5069 32.533 46.996 32.3279C47.4852 32.1229 47.8057 31.2258 47.9105 30.3304C48.0153 29.435 48.0381 28.3814 47.5687 28.4409C46.993 28.5145 46.4826 28.7837 46.0466 28.9669C45.6836 29.1203 44.4227 29.7997 44.3255 30.2146L44.327 30.213Z" fill="#FF725E"/>
<path d="M44.0879 29.5413C44.3142 29.7198 45.2196 29.186 45.4581 28.9793C45.6966 28.7727 47.1655 27.8882 47.5286 27.2855C47.8521 26.747 46.3239 24.9561 45.7862 25.1377C45.2484 25.3193 44.7228 26.7251 44.5846 27.0882C44.3978 27.5751 43.7765 29.2971 44.0879 29.5413Z" fill="#FF725E"/>
<path d="M43.4602 29.3501C43.7047 29.3376 44.0496 27.8989 44.2334 27.2962C44.4309 26.6466 44.9595 25.5273 44.7742 25.0795C44.5888 24.6318 43.9493 24.5833 43.1685 24.8541C42.3877 25.1249 42.1234 25.701 42.1841 25.9343C42.2449 26.1675 42.4591 27.1381 42.5791 27.4246C42.7705 27.8895 43.1396 29.3673 43.4617 29.3517L43.4602 29.3501Z" fill="#FF725E"/>
<path d="M42.9373 29.7942C43.036 29.6173 42.6091 28.2632 42.4253 27.8781C42.2415 27.4945 41.8511 26.1295 41.526 26.1811C41.2009 26.2328 40.7224 27.3364 40.5994 27.7575C40.4763 28.1786 40.253 28.88 40.3533 29.1226C40.4217 29.2901 41.3361 29.6424 41.561 29.7159C41.845 29.8099 42.8203 30.0055 42.9373 29.7926V29.7942Z" fill="#FF725E"/>
<path d="M43.1326 31.0173C42.7726 30.9062 41.9006 32.2399 41.732 32.4372C41.5634 32.6344 40.9102 33.414 40.8282 33.9291C40.7477 34.4441 41.3067 34.7181 41.5254 34.9685C41.7229 35.1955 42.4354 35.4664 42.6632 35.1846C42.8926 34.9044 43.0794 33.3968 43.122 33.1573C43.1645 32.9178 43.4957 31.1285 43.1311 31.0157L43.1326 31.0173Z" fill="#FF725E"/>
<path d="M42.768 30.3931C42.7999 30.689 42.2014 31.4012 41.9751 31.6549C41.7487 31.9085 40.6231 33.2422 40.257 32.865C39.8909 32.4877 39.8514 30.4307 40.1613 30.1144C40.4712 29.7982 42.7377 30.1097 42.768 30.3931Z" fill="#FF725E"/>
<path d="M50.6222 32.8431C50.6222 32.8431 50.6465 32.8134 50.6799 32.7539C50.7148 32.6944 50.7572 32.6052 50.8058 32.4924C50.9013 32.267 51.0045 31.9398 51.0575 31.5673C51.1091 31.1931 51.0985 30.8503 51.0666 30.6061C51.0515 30.484 51.0333 30.3853 51.0166 30.3196C50.9999 30.2523 50.9893 30.2163 50.9847 30.2178C50.9741 30.2194 50.9999 30.3697 51.0166 30.6123C51.0348 30.855 51.0378 31.1915 50.9878 31.5594C50.9362 31.9257 50.8437 32.2498 50.7603 32.4768C50.6768 32.7038 50.6116 32.84 50.6222 32.8462V32.8431Z" fill="#263238"/>
</svg>
