<svg width="12" height="12" viewBox="0 0 12 12" fill="none" xmlns="http://www.w3.org/2000/svg">
<path fill-rule="evenodd" clip-rule="evenodd" d="M12 6C12 9.31137 9.31137 12 6 12C2.68863 12 0 9.31137 0 6C0 2.68863 2.68863 0 6 0C9.31137 0 12 2.68863 12 6ZM8.44295 4.75066L6 7.19361L3.55705 4.75066C3.37695 4.57056 3.08435 4.57056 2.90425 4.75066C2.72415 4.93076 2.72415 5.22336 2.90425 5.40346L5.67385 8.17256C5.85395 8.35315 6.14655 8.35315 6.32665 8.17256L9.09575 5.40346C9.27585 5.22336 9.27585 4.93076 9.09575 4.75066C8.91565 4.57056 8.62305 4.57056 8.44295 4.75066Z" fill="#FF6B35"/>
</svg>
