<svg width="12" height="16" viewBox="0 0 12 16" fill="none" xmlns="http://www.w3.org/2000/svg">
<path fill-rule="evenodd" clip-rule="evenodd" d="M10.5564 6.63231H10.0567L10.0574 4.1104C10.0574 1.85009 8.2312 0 6.00005 0C3.76889 0 1.94267 1.85009 1.94267 4.1104V6.63231H1.44293C0.649366 6.63231 0 7.29017 0 8.0941V14.5382C0 15.3421 0.649366 16 1.44293 16H10.5563C11.3499 16 11.9992 15.3421 11.9992 14.5382L12 8.0941C12 7.29017 11.3507 6.63231 10.5564 6.63231ZM3.74506 4.1104C3.74506 2.8541 4.75997 1.82589 6.00011 1.82589C7.24024 1.82589 8.25515 2.85406 8.25515 4.1104V6.63231H3.74506V4.1104ZM6.6078 11.2107V13.1007C6.6078 13.439 6.33556 13.7163 6.00009 13.7163C5.66615 13.7163 5.39238 13.4405 5.39238 13.1007V11.2107C5.02915 10.999 4.78621 10.6005 4.78621 10.1466C4.78621 9.46691 5.32914 8.91688 6.00009 8.91688C6.67103 8.91688 7.21396 9.46691 7.21396 10.1466C7.21396 10.6005 6.96949 10.9982 6.6078 11.2107Z" fill="#3DB842"/>
</svg>
