<svg width="24" height="24" viewBox="0 0 24 24" fill="none" xmlns="http://www.w3.org/2000/svg">
<path d="M23.7665 9.6498H22.7999V9.6H12V14.4H18.7817C17.7924 17.1942 15.1338 19.2 12 19.2C8.02378 19.2 4.79999 15.9762 4.79999 12C4.79999 8.0238 8.02378 4.8 12 4.8C13.8354 4.8 15.5052 5.4924 16.7766 6.6234L20.1707 3.2292C18.0275 1.2318 15.1608 0 12 0C5.37298 0 0 5.373 0 12C0 18.627 5.37298 24 12 24C18.6269 24 23.9999 18.627 23.9999 12C23.9999 11.1954 23.9171 10.41 23.7665 9.6498Z" fill="#FFC107"/>
<path d="M1.38379 6.4146L5.32638 9.306C6.39317 6.6648 8.97677 4.8 12.0002 4.8C13.8356 4.8 15.5053 5.4924 16.7767 6.6234L20.1709 3.2292C18.0277 1.2318 15.1609 0 12.0002 0C7.39097 0 3.39378 2.6022 1.38379 6.4146Z" fill="#FF3D00"/>
<path d="M12.0001 24.0002C15.0997 24.0002 17.9161 22.814 20.0455 20.885L16.3315 17.7422C15.0862 18.6892 13.5646 19.2015 12.0001 19.2002C8.87892 19.2002 6.22872 17.21 5.23033 14.4326L1.31714 17.4476C3.30313 21.3338 7.33632 24.0002 12.0001 24.0002Z" fill="#4CAF50"/>
<path d="M23.7666 9.64941H22.8V9.59961H12V14.3996H18.7818C18.3085 15.7295 17.456 16.8915 16.3296 17.7422L16.3314 17.741L20.0454 20.8838C19.7826 21.1226 24 17.9996 24 11.9996C24 11.195 23.9172 10.4096 23.7666 9.64941Z" fill="#1976D2"/>
</svg>
