<svg width="175" height="175" viewBox="0 0 175 175" fill="none" xmlns="http://www.w3.org/2000/svg">
<path d="M125.829 118.44C146.615 97.1471 146.615 62.6244 125.829 41.3314C105.044 20.0384 71.3434 20.0384 50.5577 41.3314C29.772 62.6244 29.772 97.1471 50.5577 118.44C71.3434 139.733 105.044 139.733 125.829 118.44Z" fill="#263238"/>
<path d="M88.2128 134.609C58.7563 134.609 34.7942 110.058 34.7942 79.8864C34.7942 49.715 58.737 25.1602 88.2128 25.1602C117.689 25.1602 141.608 49.7111 141.608 79.8864C141.608 110.062 117.65 134.609 88.2128 134.609ZM88.2128 25.5565C58.9691 25.5565 35.1811 49.9291 35.1811 79.8864C35.1811 109.844 58.9498 134.212 88.2128 134.212C117.476 134.212 141.221 109.84 141.221 79.8864C141.221 49.933 117.433 25.5565 88.2128 25.5565Z" fill="#263238"/>
<path d="M125.831 116.813C146.617 95.5202 146.617 60.9974 125.831 39.7044C105.045 18.4114 71.3449 18.4114 50.5592 39.7044C29.7735 60.9974 29.7735 95.5202 50.5592 116.813C71.3449 138.106 105.045 138.106 125.831 116.813Z" fill="white"/>
<path d="M88.2128 132.981C58.7563 132.981 34.7942 108.434 34.7942 78.2584C34.7942 48.0831 58.737 23.5361 88.2128 23.5361C117.689 23.5361 141.608 48.0831 141.608 78.2584C141.608 108.434 117.65 132.981 88.2128 132.981ZM88.2128 23.9325C58.9691 23.9325 35.1811 48.3011 35.1811 78.2584C35.1811 108.216 58.9498 132.584 88.2128 132.584C117.476 132.584 141.221 108.212 141.221 78.2584C141.221 48.305 117.433 23.9325 88.2128 23.9325Z" fill="#263238"/>
<path d="M115.63 107.992C130.782 92.4691 130.782 67.3023 115.63 51.7799C100.477 36.2575 75.9101 36.2575 60.7575 51.7799C45.6049 67.3024 45.6049 92.4691 60.7575 107.992C75.9101 123.514 100.477 123.514 115.63 107.992Z" fill="white"/>
<path d="M88.2127 119.829C80.4992 119.834 72.9576 117.495 66.542 113.108C60.1263 108.722 55.1247 102.484 52.1699 95.1854C49.2151 87.8865 48.4398 79.8538 49.942 72.1034C51.4443 64.353 55.1567 57.2331 60.6096 51.6444C66.0625 46.0556 73.0109 42.2491 80.5759 40.7063C88.1409 39.1635 95.9826 39.9538 103.109 42.9771C110.236 46.0004 116.327 51.1209 120.612 57.691C124.897 64.2611 127.184 71.9855 127.184 79.8872C127.171 90.4732 123.062 100.622 115.757 108.109C108.452 115.597 98.5464 119.811 88.2127 119.829ZM88.2127 40.3378C80.5767 40.3371 73.112 42.6559 66.7626 47.0012C60.4132 51.3465 55.4642 57.523 52.5415 64.7496C49.6188 71.9762 48.8537 79.9284 50.343 87.6005C51.8322 95.2726 55.5089 102.32 60.908 107.852C66.3072 113.383 73.1863 117.15 80.6755 118.676C88.1646 120.203 95.9275 119.42 102.982 116.427C110.037 113.433 116.067 108.364 120.309 101.86C124.552 95.3562 126.816 87.7095 126.816 79.8872C126.805 69.4023 122.734 59.3501 115.497 51.9357C108.26 44.5214 98.4478 40.3504 88.2127 40.3378Z" fill="#263238"/>
<path d="M103.651 47.1661C92.1439 43.0875 76.2182 47.6378 70.0274 51.2487C70.0274 51.2487 52.7629 60.3176 50.9947 77.9995C49.2264 95.6813 62.0452 112.46 85.5043 117.002C108.963 121.544 124.897 97.9763 124.897 81.1823C124.897 64.3882 115.158 51.2487 103.651 47.1661ZM90.5575 88.5983C84.6841 89.169 80.4975 85.4273 81.6041 80.2746C81.9412 78.8479 82.6496 77.5416 83.6539 76.4947C84.6582 75.4477 85.9208 74.6993 87.3074 74.3291C90.2364 73.5364 93.4982 74.4599 95.0459 77.9638C96.4349 81.1466 96.4349 88.0235 90.5575 88.5983Z" fill="#263238"/>
<path d="M103.187 45.7475C91.6799 41.6649 75.7464 46.1993 69.5479 49.8261C69.5479 49.8261 52.2872 58.8949 50.5151 76.5808C48.743 94.2666 61.5811 111.057 85.0403 115.575C108.499 120.094 124.433 96.5497 124.433 79.7557C124.433 62.9616 114.698 49.8261 103.187 45.7475ZM90.0974 87.1756C84.22 87.7504 80.0374 84.0245 81.144 78.852C81.7979 75.8356 84.1929 73.6635 86.8433 72.9263C89.7762 72.1137 93.0341 73.0611 94.5818 76.561C95.9709 79.7438 95.9709 86.6049 90.0974 87.1756Z" fill="#FF6B35"/>
<path d="M90.8984 116.348C88.9208 116.342 86.948 116.149 85.0055 115.769C73.7267 113.589 64.4483 108.531 58.1724 101.139C52.2254 94.1353 49.4357 85.4073 50.3218 76.5644C52.0823 58.9776 69.281 49.7462 69.459 49.6551C75.4176 46.167 91.4594 41.3789 103.253 45.5646C115.839 50.0158 124.626 64.0828 124.626 79.7432C124.626 89.9576 118.95 101.642 110.5 108.817C106.224 112.459 99.6119 116.348 90.8984 116.348ZM92.7595 44.32C83.4114 44.32 73.9202 47.4909 69.6447 49.9999C69.4667 50.095 52.446 59.2313 50.7087 76.6C48.8514 95.1619 62.9819 111.108 85.0752 115.38C96.5939 117.604 105.126 112.879 110.252 108.523C118.621 101.42 124.24 89.8585 124.24 79.7551C124.24 64.2493 115.557 50.3408 103.125 45.9332C99.7805 44.813 96.2779 44.2679 92.7595 44.32ZM88.9096 87.4327C86.1702 87.4327 83.8138 86.4854 82.3319 84.7533C81.6509 83.9499 81.1707 82.9889 80.9328 81.9532C80.6948 80.9175 80.7063 79.838 80.9661 78.8078C81.3141 77.3498 82.0404 76.0153 83.0683 74.9457C84.0961 73.876 85.3871 73.111 86.8047 72.7315C90.2097 71.7881 93.3321 73.2587 94.7599 76.4732C95.7001 78.5938 95.9593 82.1571 94.5858 84.5868C93.6571 86.2278 92.1597 87.1592 90.1245 87.3614C89.7067 87.4129 89.3043 87.4327 88.9096 87.4327ZM88.8206 72.8663C88.1671 72.8666 87.5165 72.9559 86.886 73.1318C85.5374 73.4923 84.309 74.2192 83.3303 75.2357C82.3516 76.2522 81.6591 77.5206 81.3259 78.9069C81.0815 79.8741 81.0701 80.8877 81.2925 81.8605C81.5149 82.8333 81.9645 83.7362 82.6027 84.4917C84.2278 86.3784 86.9518 87.2662 90.0704 86.9809C91.9702 86.7946 93.3708 85.9265 94.2298 84.4045C95.5415 82.0897 95.29 78.6849 94.3884 76.6555C93.1541 73.8532 90.9216 72.8663 88.8206 72.8663Z" fill="#263238"/>
<path d="M122.831 79.1533C120.033 74.0005 119.472 72.2724 119.472 68.2612C119.472 64.2499 117.236 59.9375 115.274 58.5185C113.313 57.0995 111.92 55.9381 108.84 52.7831C105.76 49.628 101.566 48.4865 98.211 49.0572C94.8564 49.628 93.181 49.632 88.9752 49.0572C84.7693 48.4825 84.7809 47.341 80.8498 48.7718C76.9186 50.2027 69.393 52.791 69.393 52.791C69.393 52.791 61.2676 56.2315 59.8786 59.9573C58.4895 63.6831 59.3214 70.5641 58.2032 73.4337C57.085 76.3034 54.0051 75.15 55.4019 81.7574C56.7986 88.3649 59.0389 92.0629 59.0389 95.2339C59.0389 98.4048 64.0689 104.12 68.5534 104.12C73.0378 104.12 76.1061 104.981 80.3042 108.417C84.5023 111.854 87.857 113.003 93.1733 110.137C98.4896 107.272 104.924 107.557 107.722 107.272C110.519 106.986 114.156 102.4 115.274 98.385C116.393 94.3698 120.873 94.0884 122.27 90.0613C122.719 88.7731 123.222 87.7267 123.613 86.7239C123.875 85.5609 124.079 84.3848 124.224 83.2002C124.04 81.7666 123.565 80.3883 122.831 79.1533ZM96.2493 78.864C94.2915 80.2988 96.5318 84.31 93.7343 87.4651C90.9369 90.6202 90.9369 87.1758 90.0972 87.1758C88.8291 87.3112 87.5476 87.2214 86.3093 86.9102C85.0634 86.712 83.8252 86.3592 83.1017 85.7449C81.4224 84.31 80.3042 83.4499 78.0717 83.1645C75.8391 82.8791 77.7931 80.5842 79.1938 78.2932C80.5944 76.0022 80.873 75.9982 81.1516 73.4219C81.4302 70.8455 85.3458 70.5561 85.3458 70.5561C85.3458 70.5561 87.0251 69.696 90.3758 70.5561C93.7266 71.4162 92.8947 73.1325 95.6922 73.7271C98.4896 74.3216 98.211 77.4331 96.2493 78.864Z" fill="#263238"/>
<path d="M87.6752 111.928C84.9977 111.928 82.7148 110.613 80.1844 108.54C75.816 104.972 72.7283 104.287 68.5534 104.287C63.8369 104.287 58.8455 98.3728 58.8455 95.2018C58.8455 93.5688 58.2265 91.7495 57.4371 89.4466C56.5351 86.9408 55.7932 84.3775 55.2162 81.773C54.2528 77.2385 55.3748 76.2555 56.5627 75.2171C57.2003 74.7349 57.7033 74.0898 58.0214 73.3462C58.5399 72.0224 58.6289 69.7789 58.7256 67.4007C58.8378 64.6777 58.95 61.8516 59.7006 59.8698C61.1129 56.1083 68.9868 52.7352 69.3196 52.5925C69.4085 52.5608 76.9265 49.9923 80.7996 48.5773C83.508 47.5785 84.4212 47.8123 86.0385 48.2404C87.0125 48.5106 88.0025 48.7158 89.0023 48.8548C93.1966 49.4255 94.8062 49.4255 98.1763 48.8548C101.937 48.2126 106.077 49.6475 108.979 52.6361C111.962 55.6921 113.367 56.8693 115.39 58.3477C117.414 59.8262 119.666 64.1981 119.666 68.2569C119.666 72.169 120.196 73.8813 123.001 79.0539C123.743 80.3088 124.225 81.7065 124.417 83.1602C124.419 83.1747 124.419 83.1894 124.417 83.2038C124.274 84.3955 124.069 85.5783 123.802 86.7474C123.644 87.1437 123.481 87.5401 123.307 87.9602C123.024 88.6301 122.73 89.3198 122.456 90.1046C121.748 92.134 120.281 93.2359 118.861 94.2981C117.441 95.3604 116.017 96.4306 115.468 98.4045C114.373 102.329 110.763 107.125 107.729 107.434C107.192 107.489 106.522 107.521 105.752 107.561C102.471 107.727 97.5146 107.981 93.2507 110.276C91.1497 111.421 89.3351 111.925 87.6752 111.928ZM83.9104 48.2761C82.8852 48.3258 81.876 48.5565 80.9272 48.9578C77.058 50.3768 69.5285 52.9453 69.455 52.973C69.3815 53.0007 61.4147 56.4174 60.0605 60.0204C59.3331 61.9547 59.2209 64.7371 59.1125 67.4324C59.0158 69.8344 58.9229 72.1056 58.3812 73.4929C58.0424 74.2978 57.5017 74.9965 56.8142 75.5183C55.6534 76.5211 54.6784 77.3852 55.5915 81.6897C56.1662 84.278 56.9042 86.8254 57.8008 89.3158C58.6018 91.6544 59.2325 93.5014 59.2325 95.2018C59.2325 98.2222 64.1696 103.89 68.5534 103.89C72.8096 103.89 75.9708 104.58 80.4242 108.23C84.3979 111.489 87.7448 112.808 93.0844 109.931C97.4218 107.592 102.429 107.339 105.744 107.156C106.518 107.117 107.172 107.085 107.702 107.029C110.275 106.768 113.932 102.436 115.089 98.2895C115.677 96.1809 117.178 95.0592 118.629 93.9731C120.003 92.9426 121.423 91.8803 122.088 89.9658C122.367 89.1731 122.661 88.4676 122.947 87.7977C123.117 87.4014 123.284 87.005 123.431 86.6086C123.689 85.4693 123.889 84.317 124.03 83.1563C123.837 81.7644 123.371 80.427 122.661 79.2243C119.817 73.9804 119.279 72.2324 119.279 68.2371C119.279 64.3646 117.112 60.0798 115.162 58.6529C113.123 57.1626 111.707 55.9775 108.704 52.9017C105.888 50.0161 101.879 48.609 98.2575 49.2313C94.899 49.8021 93.1618 49.8021 88.9714 49.2313C87.9559 49.0907 86.9504 48.8829 85.9611 48.609C85.295 48.4052 84.6054 48.2933 83.9104 48.2761ZM91.8153 88.9908H91.6953C91.1149 88.9274 90.7977 88.3804 90.5345 87.9365C90.3798 87.663 90.2173 87.3776 90.078 87.3776C88.7943 87.5163 87.4968 87.4251 86.2436 87.1081C84.7191 86.8623 83.6086 86.458 82.9586 85.919C81.3335 84.5317 80.223 83.6676 78.0215 83.3862C77.4372 83.3109 77.0774 83.1008 76.9187 82.748C76.5744 81.9553 77.3714 80.7384 78.3 79.3115C78.5361 78.9508 78.776 78.5822 79.0004 78.2096C79.2248 77.837 79.4492 77.4922 79.6272 77.2108C80.4978 75.8394 80.7067 75.5143 80.9311 73.4215C81.2136 70.8174 84.839 70.421 85.2724 70.3814C85.5432 70.2585 87.2418 69.5887 90.403 70.3814C91.5765 70.6149 92.6386 71.2476 93.4171 72.1769C93.9887 72.9079 94.8078 73.3918 95.7116 73.5325C96.8723 73.7743 97.6462 74.4719 97.8745 75.5143C98.1337 76.755 97.4875 78.2096 96.3461 79.0579C95.5297 79.6564 95.5104 80.7543 95.4872 82.1455C95.4601 83.8024 95.4253 85.8595 93.8582 87.6273C93.0341 88.5469 92.3763 88.9908 91.8153 88.9908ZM90.078 86.9812C90.4649 86.9812 90.6661 87.3459 90.8905 87.7343C91.1149 88.1227 91.3548 88.5508 91.7456 88.5944C92.1364 88.638 92.8058 88.1981 93.5912 87.33C95.0615 85.6732 95.0925 83.7627 95.1389 82.1099C95.166 80.6631 95.1854 79.4146 96.1565 78.7051C97.1974 77.9441 97.7623 76.6559 97.534 75.5659C97.3521 74.7018 96.6905 74.1112 95.6729 73.9011C94.6909 73.7443 93.8005 73.2204 93.1734 72.4306C92.4477 71.5547 91.4507 70.9601 90.3488 70.7461C87.1141 69.9177 85.462 70.7223 85.4465 70.7461C85.4237 70.7581 85.3986 70.7649 85.373 70.7659C85.3343 70.7659 81.6121 71.075 81.3567 73.4572C81.1168 75.6451 80.8808 76.0177 79.9909 77.4209C79.8129 77.7023 79.604 78.0273 79.3679 78.4157C79.1319 78.8042 78.8998 79.1649 78.6599 79.5295C77.886 80.7464 77.0541 82.0029 77.3095 82.5816C77.4062 82.7956 77.6771 82.9343 78.1104 82.9779C80.432 83.2712 81.5657 84.167 83.2449 85.5979C83.8408 86.1092 84.8893 86.4858 86.3403 86.7236C87.562 87.0315 88.8264 87.1213 90.078 86.9891V86.9812Z" fill="#263238"/>
<path d="M81.4419 84.4327C80.4367 83.7282 79.2756 83.2922 78.0641 83.1643C77.4295 83.085 77.1393 82.8353 77.0736 82.4746C75.4588 83.4576 73.7821 84.4736 72.0436 85.5227C67.5299 88.2068 63.171 91.1554 58.9888 94.3537C59.0239 94.635 59.042 94.9183 59.0429 95.2019C59.0429 96.4584 59.8477 98.1271 61.0936 99.6769C61.9062 99.0427 62.8 98.3689 63.8021 97.6475C67.1374 95.2297 74.2838 89.7083 81.4419 84.4327Z" fill="white"/>
<path d="M61.0897 99.875C61.0615 99.875 61.0337 99.8687 61.0083 99.8563C60.9829 99.844 60.9604 99.826 60.9426 99.8037C59.6116 98.1508 58.8455 96.4702 58.8455 95.2019C58.8439 94.9262 58.8259 94.6508 58.7913 94.3774C58.7878 94.3428 58.7931 94.3078 58.8066 94.2758C58.8202 94.2439 58.8416 94.2161 58.8687 94.1951C63.0568 90.9937 67.4207 88.0412 71.939 85.3522C73.6879 84.3018 75.3594 83.2871 76.969 82.3041C76.9962 82.2885 77.0268 82.2803 77.058 82.2803C77.0892 82.2803 77.1198 82.2885 77.147 82.3041C77.1755 82.3169 77.2006 82.3365 77.2201 82.3614C77.2397 82.3862 77.2531 82.4155 77.2592 82.4468C77.294 82.6371 77.4178 82.8947 78.0872 82.9819C79.3263 83.1124 80.514 83.558 81.5424 84.278C81.5688 84.2957 81.5904 84.3198 81.6054 84.3481C81.6204 84.3765 81.6282 84.4083 81.6282 84.4405C81.6282 84.4728 81.6204 84.5045 81.6054 84.5329C81.5904 84.5613 81.5688 84.5854 81.5424 84.603C77.7003 87.4291 73.9394 90.2711 70.6235 92.7801C67.8453 94.8808 65.4464 96.6962 63.891 97.8218C62.9972 98.4679 62.1189 99.1298 61.1825 99.8473C61.1542 99.8641 61.1224 99.8736 61.0897 99.875ZM59.1937 94.4448C59.2215 94.6962 59.2357 94.9489 59.2363 95.2019C59.2363 96.3275 59.9405 97.8892 61.1284 99.4033C61.9989 98.7256 62.8347 98.0993 63.6821 97.4849C65.2298 96.3632 67.6325 94.5479 70.4107 92.4511C73.6608 89.9896 77.3366 87.2111 81.1013 84.4405C80.1777 83.8436 79.1313 83.4745 78.0446 83.3624C77.8322 83.3606 77.6234 83.3054 77.4365 83.2018C77.2497 83.0981 77.0905 82.9491 76.9729 82.7679C75.4252 83.7152 73.8156 84.6863 72.1402 85.693C67.6662 88.3565 63.3438 91.2785 59.1937 94.4448Z" fill="#263238"/>
<path d="M68.0929 71.9272C77.4178 64.5786 83.1558 59.8024 92.4691 55.7634C96.8103 53.8806 101.62 52.0772 105.771 50.464C104.291 49.6495 102.669 49.143 100.997 48.9736C99.8361 49.37 98.6444 49.81 97.4875 50.2499C87.8144 53.9242 79.5536 57.2299 67.0018 68.6215C62.2155 72.9617 58.2148 76.8223 55.0923 79.9378C55.1607 80.541 55.2589 81.1402 55.3864 81.7333C55.4908 82.2169 55.5992 82.6806 55.7114 83.1364C58.4198 80.0844 62.1652 76.6004 68.0929 71.9272Z" fill="white"/>
<path d="M55.7114 83.3351H55.665C55.6307 83.3269 55.5993 83.3093 55.574 83.2841C55.5488 83.259 55.5307 83.2273 55.5218 83.1924C55.4096 82.7366 55.3013 82.2689 55.2007 81.7813C55.0682 81.1837 54.9688 80.579 54.9027 79.9699C54.8992 79.9395 54.9026 79.9086 54.9126 79.8797C54.9227 79.8508 54.9392 79.8247 54.9608 79.8035C58.7101 76.0618 62.7186 72.2725 66.8741 68.4832C79.7896 56.7627 88.3522 53.5125 97.4217 50.072C98.5477 49.644 99.7433 49.2159 100.931 48.7957C100.958 48.7881 100.986 48.7881 101.012 48.7957C102.711 48.9693 104.36 49.4838 105.864 50.3099C105.897 50.3278 105.924 50.3551 105.943 50.3884C105.961 50.4218 105.969 50.4598 105.967 50.4979C105.964 50.536 105.951 50.5726 105.929 50.6032C105.907 50.6338 105.876 50.6572 105.841 50.6706L103.384 51.6218C99.7781 53.0091 96.0327 54.444 92.5504 55.9819C83.8833 59.7355 78.3851 64.0796 70.0624 70.6474L68.2052 72.114C62.6373 76.4978 58.7178 80.0413 55.8623 83.2955C55.8412 83.3124 55.8169 83.3247 55.7909 83.3315C55.7649 83.3383 55.7379 83.3396 55.7114 83.3351ZM55.3245 80.0135C55.3825 80.5288 55.4754 81.0798 55.6031 81.6902C55.6805 82.0469 55.7578 82.3917 55.8391 82.7286C58.6868 79.5577 62.5599 76.0499 67.9885 71.7731L69.8457 70.3026C78.1916 63.711 83.7053 59.3549 92.4188 55.5815C95.9321 54.0595 99.6659 52.6207 103.276 51.2215L105.327 50.4288C103.985 49.7511 102.536 49.3243 101.047 49.1683C99.8593 49.5845 98.6947 50.0086 97.5842 50.4288C88.5496 53.8573 80.0179 57.0917 67.1566 68.7607C63.0204 72.5143 59.0389 76.2956 55.3245 80.0135Z" fill="#263238"/>
<path d="M93.3435 72.3435C93.9361 73.0784 94.7722 73.5638 95.6921 73.707C96.0215 73.772 96.3388 73.8897 96.6324 74.0558L97.147 73.7665C102.247 70.9364 111.254 66.0373 117.898 61.9825C117.388 60.9131 116.717 59.9326 115.909 59.0771C112.663 60.7141 109.211 62.6088 106.472 64.2299C102.87 66.3227 98.6095 69.018 93.3435 72.3435Z" fill="white"/>
<path d="M96.6324 74.2537C96.6 74.2538 96.568 74.2457 96.5395 74.2299C96.2631 74.0726 95.964 73.9616 95.6535 73.9009C94.6944 73.7468 93.8227 73.2412 93.2004 72.478C93.1813 72.4569 93.1668 72.4317 93.1581 72.4044C93.1495 72.377 93.1467 72.348 93.1501 72.3194C93.1528 72.2901 93.1624 72.2619 93.1778 72.2371C93.1933 72.2123 93.2143 72.1916 93.2391 72.1767L93.9781 71.709C98.9849 68.5381 102.939 66.0529 106.36 64.0393C109.308 62.3151 112.752 60.4403 115.808 58.8866C115.844 58.8678 115.885 58.8612 115.924 58.8676C115.964 58.874 116 58.8931 116.029 58.9222C116.852 59.7933 117.535 60.7927 118.052 61.8831C118.075 61.9275 118.08 61.979 118.066 62.027C118.052 62.075 118.021 62.1157 117.979 62.1407C112.419 65.5376 105.245 69.4973 100.006 72.3907L97.2205 73.9287L96.8336 74.1506L96.7214 74.218C96.6948 74.2368 96.6643 74.249 96.6324 74.2537ZM93.6299 72.3828C94.1779 72.9933 94.9143 73.3922 95.7154 73.5125C96.0288 73.5748 96.3322 73.6815 96.6169 73.8296H96.6362L97.0232 73.6036L99.8051 72.0618C104.994 69.2 112.078 65.2879 117.604 61.9227C117.134 60.9771 116.537 60.1032 115.832 59.3265C112.814 60.8525 109.432 62.6956 106.545 64.396C103.113 66.4056 99.1629 68.8988 94.1638 72.0578L93.6299 72.3828Z" fill="#263238"/>
<path d="M81.3644 102.792C87.4623 96.9139 98.2227 95.0748 111.494 88.0948C116.783 85.3202 120.931 83.1719 123.876 81.5349C123.604 80.7096 123.256 79.9132 122.835 79.1567C122.726 78.9585 122.63 78.7603 122.529 78.5859C114.083 81.6855 99.07 88.6893 89.2538 93.9768C83.4886 97.0843 78.1143 101.111 73.8271 104.726C75.1476 105.116 76.4102 105.688 77.5803 106.427C78.7694 105.285 80.0308 104.074 81.3644 102.792Z" fill="white"/>
<path d="M77.5804 106.622C77.5453 106.621 77.5108 106.611 77.4798 106.594C76.3242 105.865 75.0772 105.3 73.7731 104.914C73.7393 104.904 73.7088 104.884 73.685 104.858C73.6611 104.831 73.6447 104.798 73.6377 104.763C73.6307 104.728 73.6331 104.691 73.6447 104.657C73.6563 104.623 73.6766 104.592 73.7035 104.569C78.4951 100.454 83.6804 96.8461 89.1804 93.7996C99.3836 88.2981 114.33 81.3894 122.456 78.3968C122.499 78.3814 122.547 78.3821 122.59 78.3987C122.633 78.4154 122.669 78.447 122.692 78.488L122.997 79.0588C123.424 79.8271 123.778 80.6354 124.054 81.4726C124.067 81.5172 124.065 81.5649 124.048 81.6081C124.031 81.6513 124 81.6874 123.961 81.7105C121.767 82.9313 118.954 84.4018 115.394 86.2687L111.576 88.2505C106.085 91.14 101.02 93.1535 96.5474 94.9253C90.1206 97.4779 85.0442 99.4954 81.4922 102.916C80.1586 104.206 78.8973 105.416 77.7081 106.547C77.6928 106.567 77.6737 106.585 77.6517 106.598C77.6298 106.611 77.6056 106.619 77.5804 106.622ZM74.2297 104.64C75.3939 105.017 76.5107 105.534 77.5572 106.178C78.7103 105.076 79.9355 103.9 81.233 102.65C84.8391 99.1704 89.9465 97.145 96.412 94.5765C100.873 92.8047 105.93 90.7991 111.405 87.9175L115.224 85.9159C118.707 84.0926 121.469 82.6419 123.64 81.4409C123.375 80.683 123.048 79.9497 122.661 79.249L122.436 78.8289C114.261 81.8452 99.4687 88.6905 89.3468 94.1484C83.9815 97.125 78.9177 100.64 74.2297 104.64Z" fill="#263238"/>
<path d="M87.0249 105.575C86.9119 105.575 86.8003 105.549 86.698 105.5C86.5958 105.45 86.5053 105.379 86.4329 105.29C86.3021 105.129 86.2388 104.921 86.257 104.712C86.2751 104.504 86.3731 104.311 86.5297 104.176C87.6367 103.259 88.8892 102.543 90.2325 102.059C90.4251 102.009 90.629 102.037 90.8021 102.137C90.9752 102.237 91.1042 102.401 91.1624 102.596C91.2206 102.79 91.2035 103 91.1147 103.182C91.0258 103.364 90.8721 103.504 90.6852 103.574C89.5388 103.995 88.4691 104.61 87.5202 105.393C87.381 105.511 87.2057 105.576 87.0249 105.575Z" fill="#FF6B35"/>
<path d="M100.332 98.1665C100.264 98.0189 100.242 97.8536 100.27 97.693C100.297 97.5325 100.372 97.3845 100.485 97.2693C100.597 97.154 100.742 97.0771 100.899 97.049C101.055 97.0209 101.217 97.0429 101.361 97.1121C102.64 97.749 103.804 98.6056 104.8 99.6449C104.939 99.8026 105.01 100.01 104.998 100.221C104.987 100.433 104.894 100.631 104.741 100.773C104.587 100.914 104.384 100.987 104.178 100.975C103.971 100.964 103.778 100.869 103.64 100.711C102.782 99.8243 101.784 99.0925 100.687 98.547C100.53 98.4654 100.404 98.3312 100.332 98.1665Z" fill="#FF6B35"/>
<path d="M107.845 95.4511C107.732 95.4471 107.621 95.4178 107.52 95.365C107.419 95.3123 107.331 95.2375 107.261 95.1459C107.136 94.9801 107.08 94.7703 107.105 94.5623C107.13 94.3544 107.235 94.1651 107.396 94.0361C108.531 93.157 109.806 92.4865 111.165 92.0542C111.266 92.0185 111.373 92.0045 111.48 92.0133C111.586 92.022 111.69 92.0532 111.784 92.1049C111.878 92.1566 111.96 92.2277 112.026 92.3137C112.092 92.3997 112.14 92.4988 112.167 92.6047C112.194 92.7106 112.199 92.821 112.182 92.929C112.165 93.037 112.126 93.1403 112.069 93.2323C112.011 93.3243 111.935 93.4031 111.846 93.4636C111.757 93.5242 111.657 93.5653 111.552 93.5842C110.392 93.9643 109.302 94.5418 108.329 95.2925C108.19 95.3996 108.019 95.4555 107.845 95.4511Z" fill="white"/>
<path d="M65.4812 101.461C65.4687 101.299 65.5049 101.137 65.585 100.997C65.6651 100.857 65.7851 100.746 65.929 100.678C66.0728 100.61 66.2335 100.589 66.3894 100.618C66.5452 100.647 66.6888 100.724 66.8006 100.838C67.7873 101.889 68.5885 103.106 69.1686 104.437C69.2376 104.631 69.2304 104.844 69.1486 105.032C69.0668 105.22 68.9167 105.369 68.7301 105.445C68.5436 105.522 68.3352 105.521 68.1491 105.444C67.963 105.366 67.8138 105.217 67.7331 105.028C67.2272 103.893 66.5407 102.853 65.7017 101.948C65.575 101.817 65.497 101.645 65.4812 101.461Z" fill="white"/>
<path d="M117.197 68.8949C117.188 68.7792 117.204 68.6627 117.243 68.5538C117.283 68.4449 117.345 68.3462 117.426 68.2647C117.498 68.191 117.583 68.1325 117.677 68.0927C117.771 68.0528 117.872 68.0322 117.973 68.0322C118.075 68.0322 118.176 68.0528 118.27 68.0927C118.364 68.1325 118.449 68.191 118.521 68.2647C119.506 69.3161 120.307 70.5336 120.889 71.8637C120.93 71.961 120.952 72.0658 120.954 72.172C120.955 72.2782 120.936 72.3836 120.896 72.4819C120.857 72.5802 120.799 72.6695 120.726 72.7443C120.652 72.8192 120.565 72.8782 120.468 72.9178C120.372 72.9573 120.269 72.9767 120.166 72.9747C120.062 72.9727 119.96 72.9495 119.865 72.9062C119.77 72.863 119.685 72.8007 119.614 72.7231C119.544 72.6455 119.489 72.5541 119.453 72.4543C118.949 71.3175 118.261 70.2762 117.418 69.3745C117.293 69.2453 117.215 69.076 117.197 68.8949Z" fill="white"/>
<path d="M69.2539 77.9236C69.2414 77.7619 69.2776 77.6002 69.3577 77.4602C69.4378 77.3203 69.5578 77.2089 69.7017 77.141C69.8455 77.0732 70.0062 77.0522 70.1621 77.0808C70.3179 77.1095 70.4615 77.1865 70.5733 77.3013C71.5583 78.3545 72.3593 79.5732 72.9413 80.9043C73.0103 81.0977 73.0031 81.3111 72.9213 81.4992C72.8395 81.6873 72.6894 81.8354 72.5028 81.9121C72.3163 81.9889 72.1079 81.9882 71.9218 81.9104C71.7357 81.8325 71.5865 81.6835 71.5058 81.4949C71.0018 80.3581 70.3137 79.3168 69.4706 78.4151C69.3445 78.2823 69.2678 78.1084 69.2539 77.9236Z" fill="white"/>
<path d="M60.4707 65.4266C60.4582 65.2649 60.4944 65.1031 60.5745 64.9632C60.6546 64.8232 60.7746 64.7118 60.9185 64.6439C61.0623 64.5761 61.223 64.5551 61.3789 64.5838C61.5347 64.6124 61.6783 64.6894 61.7901 64.8043C62.7741 65.8582 63.5749 67.0768 64.1581 68.4072C64.2271 68.6007 64.2199 68.814 64.1381 69.0021C64.0563 69.1902 63.9062 69.3383 63.7196 69.415C63.5331 69.4918 63.3247 69.4912 63.1386 69.4133C62.9525 69.3354 62.8033 69.1864 62.7226 68.9978C62.2186 67.861 61.5305 66.8197 60.6874 65.9181C60.5613 65.7852 60.4846 65.6113 60.4707 65.4266Z" fill="white"/>
<path d="M76.0597 97.2109C75.9015 97.2046 75.749 97.1488 75.6227 97.051C75.4964 96.9531 75.4025 96.8179 75.3536 96.6637C75.3046 96.5094 75.3031 96.3435 75.3491 96.1883C75.3951 96.0332 75.4865 95.8962 75.6109 95.7958C76.7456 94.9168 78.0208 94.2462 79.3795 93.814C79.4804 93.7783 79.5875 93.7643 79.6939 93.773C79.8004 93.7817 79.9039 93.8129 79.998 93.8646C80.0921 93.9163 80.1748 93.9874 80.2408 94.0734C80.3067 94.1595 80.3546 94.2585 80.3814 94.3644C80.4082 94.4703 80.4133 94.5808 80.3964 94.6888C80.3795 94.7968 80.3409 94.9001 80.2831 94.9921C80.2254 95.0841 80.1496 95.1628 80.0607 95.2234C79.9718 95.284 79.8716 95.325 79.7664 95.344C78.6061 95.7241 77.5165 96.3016 76.5433 97.0523C76.4041 97.1594 76.2337 97.2153 76.0597 97.2109Z" fill="white"/>
<path d="M94.8253 62.6755C94.783 62.5681 94.7641 62.4524 94.7701 62.3366C94.7762 62.2209 94.8069 62.1079 94.8601 62.0057C94.9563 61.8203 95.1203 61.6816 95.3161 61.62C95.5119 61.5583 95.7236 61.5787 95.9048 61.6767C97.1513 62.3824 98.2703 63.3021 99.213 64.3958C99.2831 64.4756 99.3367 64.5693 99.3704 64.671C99.4041 64.7727 99.4172 64.8804 99.4091 64.9875C99.4009 65.0946 99.3716 65.1989 99.3229 65.294C99.2741 65.3892 99.2071 65.4732 99.1257 65.5409C99.0443 65.6087 98.9504 65.6588 98.8495 65.6882C98.7486 65.7176 98.643 65.7258 98.539 65.7121C98.435 65.6984 98.3348 65.6632 98.2445 65.6086C98.1541 65.554 98.0756 65.4812 98.0135 65.3946C97.2006 64.4709 96.2419 63.6938 95.1774 63.0957C95.0146 63.0035 94.8896 62.8544 94.8253 62.6755Z" fill="white"/>
<path d="M106.615 54.7365C106.457 54.7303 106.304 54.6745 106.178 54.5766C106.052 54.4788 105.958 54.3436 105.909 54.1894C105.86 54.0351 105.858 53.8692 105.904 53.714C105.951 53.5588 106.042 53.4218 106.166 53.3215C107.302 52.444 108.577 51.7736 109.935 51.3397C110.133 51.2851 110.344 51.3134 110.522 51.4182C110.7 51.523 110.829 51.6957 110.883 51.8986C110.936 52.1014 110.909 52.3177 110.806 52.4998C110.704 52.6818 110.535 52.8149 110.337 52.8696C109.177 53.2506 108.087 53.8295 107.114 54.582C106.97 54.6911 106.794 54.7457 106.615 54.7365Z" fill="white"/>
<path d="M70.7047 69.7001C70.5465 69.6939 70.394 69.6381 70.2677 69.5402C70.1414 69.4424 70.0475 69.3072 69.9986 69.153C69.9496 68.9987 69.9481 68.8328 69.9941 68.6776C70.0401 68.5224 70.1315 68.3854 70.2559 68.2851C71.3907 67.406 72.6658 66.7355 74.0245 66.3033C74.1254 66.2675 74.2325 66.2536 74.3389 66.2623C74.4454 66.271 74.5489 66.3022 74.643 66.3539C74.7371 66.4056 74.8198 66.4767 74.8858 66.5627C74.9518 66.6487 74.9996 66.7478 75.0264 66.8537C75.0532 66.9596 75.0583 67.07 75.0414 67.178C75.0245 67.286 74.9859 67.3893 74.9282 67.4813C74.8704 67.5733 74.7947 67.6521 74.7057 67.7127C74.6168 67.7732 74.5166 67.8143 74.4114 67.8332C73.2511 68.2133 72.1615 68.7909 71.1884 69.5416C71.05 69.6504 70.879 69.7064 70.7047 69.7001Z" fill="white"/>
<path d="M83.2099 92.0313C83.1431 91.8841 83.122 91.7195 83.1494 91.5597C83.1768 91.3999 83.2515 91.2525 83.3633 91.1375C83.4751 91.0226 83.6187 90.9455 83.7746 90.9168C83.9305 90.8881 84.0913 90.9091 84.2352 90.977C85.5173 91.6111 86.6824 92.4681 87.6788 93.5097C87.8163 93.6674 87.8871 93.8746 87.8754 94.0857C87.8638 94.2968 87.7708 94.4946 87.6169 94.6354C87.463 94.7763 87.2607 94.8487 87.0547 94.8368C86.8486 94.825 86.6556 94.7297 86.518 94.572C85.6576 93.6876 84.6584 92.9574 83.562 92.4118C83.4068 92.3283 83.283 92.1945 83.2099 92.0313Z" fill="#FF6B35"/>
<path d="M110.527 76.874C110.479 76.7686 110.454 76.6535 110.454 76.5371C110.454 76.4206 110.479 76.3056 110.527 76.2001C110.569 76.1046 110.629 76.0184 110.703 75.9467C110.778 75.8749 110.865 75.819 110.961 75.7821C111.057 75.7453 111.159 75.7282 111.261 75.7319C111.363 75.7357 111.463 75.7601 111.556 75.8038C112.837 76.4374 114.001 77.2944 114.996 78.3366C115.064 78.4146 115.116 78.5057 115.15 78.6045C115.184 78.7033 115.198 78.808 115.193 78.9125C115.187 79.0171 115.161 79.1194 115.117 79.2137C115.072 79.308 115.01 79.3925 114.934 79.4622C114.858 79.532 114.769 79.5857 114.672 79.6202C114.576 79.6548 114.474 79.6696 114.372 79.6637C114.27 79.6578 114.17 79.6314 114.078 79.5859C113.986 79.5405 113.903 79.4769 113.835 79.3988C112.977 78.5139 111.979 77.7836 110.883 77.2386C110.728 77.1611 110.603 77.0328 110.527 76.874Z" fill="#FF6B35"/>
<path d="M110.542 64.3602C110.417 64.4612 110.264 64.52 110.105 64.5287C109.946 64.5374 109.788 64.4955 109.653 64.4088C109.518 64.322 109.412 64.1946 109.35 64.044C109.289 63.8935 109.274 63.727 109.308 63.5675C109.624 62.1451 110.178 60.7893 110.945 59.5602C111 59.4688 111.073 59.3899 111.159 59.3284C111.245 59.2668 111.343 59.2238 111.445 59.202C111.548 59.1802 111.654 59.1801 111.757 59.2016C111.86 59.2232 111.958 59.266 112.044 59.3274C112.13 59.3888 112.203 59.4675 112.259 59.5588C112.314 59.65 112.351 59.7519 112.367 59.8583C112.383 59.9646 112.378 60.0731 112.351 60.1773C112.325 60.2814 112.278 60.3789 112.214 60.464C111.566 61.5205 111.095 62.6807 110.821 63.8965C110.784 64.0799 110.686 64.2442 110.542 64.3602Z" fill="#FF6B35"/>
<path d="M82.8811 68.0545C82.7915 68.1264 82.6874 68.1773 82.5764 68.2033C82.4654 68.2293 82.3501 68.2299 82.2388 68.2051C82.039 68.1604 81.8645 68.0365 81.7536 67.8605C81.6427 67.6845 81.6043 67.4706 81.6468 67.2657C81.9626 65.8451 82.5149 64.4909 83.2796 63.2624C83.335 63.171 83.408 63.0921 83.494 63.0305C83.5801 62.9689 83.6776 62.9259 83.7804 62.9041C83.8832 62.8823 83.9893 62.8822 84.0922 62.9038C84.1951 62.9253 84.2926 62.9681 84.3788 63.0295C84.465 63.0909 84.5382 63.1696 84.5937 63.2609C84.6493 63.3522 84.6862 63.4541 84.7021 63.5604C84.718 63.6668 84.7126 63.7753 84.6862 63.8794C84.6598 63.9836 84.6131 64.0811 84.5487 64.1661C83.901 65.2224 83.4315 66.3827 83.1597 67.5986C83.1194 67.7783 83.0213 67.9389 82.8811 68.0545Z" fill="#FF6B35"/>
<path d="M61.0588 84.9517C60.9335 85.0527 60.7808 85.1115 60.6216 85.1202C60.4624 85.1289 60.3045 85.087 60.1694 85.0002C60.0343 84.9135 59.9287 84.7861 59.867 84.6355C59.8053 84.485 59.7905 84.3185 59.8246 84.159C60.1408 82.7379 60.6945 81.3835 61.4612 80.1557C61.5827 79.9952 61.7597 79.8885 61.9557 79.8578C62.1517 79.827 62.3517 79.8745 62.5145 79.9904C62.6773 80.1064 62.7905 80.2819 62.8307 80.4808C62.8708 80.6797 62.8349 80.8868 62.7303 81.0594C62.0823 82.1159 61.6114 83.2761 61.3374 84.4919C61.3001 84.6739 61.2015 84.8367 61.0588 84.9517Z" fill="#FF6B35"/>
<path d="M97.1896 53.7139C97.1228 53.5668 97.1017 53.4021 97.1291 53.2423C97.1566 53.0825 97.2312 52.9351 97.3431 52.8202C97.4549 52.7052 97.5984 52.6281 97.7544 52.5994C97.9103 52.5707 98.071 52.5917 98.2149 52.6596C99.4957 53.2959 100.661 54.1526 101.659 55.1924C101.727 55.2704 101.78 55.3615 101.814 55.4605C101.848 55.5594 101.862 55.6642 101.857 55.7689C101.851 55.8736 101.825 55.9762 101.781 56.0708C101.737 56.1653 101.675 56.25 101.599 56.32C101.522 56.39 101.433 56.444 101.337 56.4788C101.24 56.5136 101.138 56.5286 101.036 56.5229C100.934 56.5171 100.833 56.4909 100.741 56.4455C100.649 56.4002 100.566 56.3367 100.498 56.2586C99.6388 55.3732 98.6409 54.6416 97.5456 54.0944C97.388 54.0129 97.2624 53.8786 97.1896 53.7139Z" fill="#FF6B35"/>
<path d="M79.6581 52.0616C79.5913 51.9144 79.5702 51.7498 79.5976 51.59C79.6251 51.4301 79.6998 51.2828 79.8116 51.1678C79.9234 51.0528 80.0669 50.9758 80.2229 50.9471C80.3788 50.9184 80.5395 50.9394 80.6834 51.0072C81.9642 51.6436 83.129 52.5003 84.1271 53.54C84.2651 53.6977 84.3363 53.9051 84.3251 54.1166C84.3138 54.3281 84.221 54.5263 84.0671 54.6677C83.9132 54.8091 83.7107 54.882 83.5043 54.8705C83.2978 54.859 83.1043 54.7639 82.9663 54.6062C82.1061 53.7222 81.1084 52.9909 80.0141 52.4421C79.8565 52.3605 79.7309 52.2263 79.6581 52.0616Z" fill="#FF6B35"/>
<path d="M114.307 90.4453C114.259 90.3398 114.234 90.2248 114.234 90.1084C114.234 89.9919 114.259 89.8769 114.307 89.7714C114.349 89.6759 114.409 89.5897 114.483 89.518C114.558 89.4462 114.645 89.3903 114.741 89.3534C114.837 89.3166 114.939 89.2995 115.041 89.3032C115.143 89.3069 115.243 89.3314 115.336 89.3751C116.617 90.0087 117.781 90.8657 118.776 91.9079C118.844 91.9859 118.897 92.077 118.931 92.176C118.965 92.2749 118.98 92.3797 118.974 92.4844C118.968 92.5891 118.943 92.6917 118.898 92.7862C118.854 92.8808 118.792 92.9655 118.716 93.0355C118.64 93.1055 118.551 93.1595 118.454 93.1943C118.358 93.2291 118.255 93.2441 118.153 93.2383C118.051 93.2326 117.951 93.2064 117.859 93.161C117.766 93.1157 117.684 93.0522 117.615 92.9741C116.757 92.0872 115.759 91.3555 114.663 90.8099C114.508 90.7324 114.383 90.6041 114.307 90.4453Z" fill="#FF6B35"/>
<path d="M102.769 81.499C102.871 81.4501 102.983 81.4248 103.096 81.4248C103.209 81.4248 103.321 81.4501 103.423 81.499C103.609 81.5856 103.753 81.7436 103.826 81.9388C103.898 82.134 103.892 82.3505 103.81 82.5415C103.22 83.864 102.409 85.0712 101.415 86.1088C101.341 86.1804 101.254 86.2365 101.159 86.2737C101.064 86.3109 100.963 86.3285 100.861 86.3255C100.759 86.3226 100.659 86.2991 100.566 86.2565C100.473 86.2139 100.39 86.1529 100.32 86.0771C100.18 85.9244 100.104 85.7211 100.11 85.5116C100.116 85.3022 100.202 85.1036 100.351 84.9593C101.195 84.0589 101.887 83.0208 102.398 81.8875C102.473 81.7172 102.604 81.5796 102.769 81.499Z" fill="#FF6B35"/>
<path d="M70.6969 57.206C70.8391 57.1341 70.9994 57.1086 71.1561 57.1331C71.3128 57.1575 71.4584 57.2307 71.5732 57.3427C71.688 57.4546 71.7665 57.6001 71.798 57.7592C71.8295 57.9184 71.8125 58.0836 71.7494 58.2326C71.1546 59.5533 70.3432 60.7599 69.3505 61.7998C69.2 61.9343 69.0046 62.004 68.8051 61.9944C68.6057 61.9847 68.4176 61.8964 68.2802 61.748C68.1428 61.5996 68.0667 61.4025 68.0679 61.1979C68.069 60.9934 68.1473 60.7972 68.2864 60.6504C69.1305 59.75 69.8223 58.7119 70.3332 57.5786C70.4095 57.4155 70.5378 57.284 70.6969 57.206Z" fill="#FF6B35"/>
<path d="M99.5033 105.262C99.6466 105.188 99.8089 105.161 99.9677 105.186C100.126 105.21 100.274 105.284 100.39 105.399C100.505 105.513 100.583 105.661 100.613 105.822C100.643 105.984 100.623 106.151 100.556 106.301C99.961 107.621 99.1496 108.828 98.1569 109.868C98.0064 110.002 97.811 110.072 97.6115 110.062C97.4121 110.053 97.224 109.964 97.0866 109.816C96.9492 109.668 96.8731 109.47 96.8743 109.266C96.8754 109.061 96.9537 108.865 97.0928 108.718C97.9369 107.818 98.6287 106.78 99.1396 105.647C99.2137 105.479 99.3423 105.343 99.5033 105.262Z" fill="#FF6B35"/>
<path d="M88.1317 40.9707H87.6287C81.3391 40.9745 75.1504 42.5913 69.6272 45.6737C64.104 48.7561 59.422 53.206 56.0082 58.6175C52.5945 64.0291 50.5576 70.23 50.0833 76.6548C49.6091 83.0796 50.7126 89.5238 53.2932 95.3997L88.1162 78.4154L88.1317 40.9707Z" fill="white"/>
<path opacity="0.3" d="M92.8018 37.6938C94.7751 34.6973 95.7153 32.5411 96.1642 30.4166V30.3452C96.1913 30.2104 96.2183 30.0757 96.2416 29.9488C96.2648 29.822 96.2764 29.7507 96.2919 29.6516L96.3499 29.2552C96.3499 29.1521 96.377 29.0531 96.3886 28.95C96.4002 28.8469 96.4157 28.6805 96.4312 28.5536C96.4466 28.4268 96.4505 28.3396 96.4582 28.2326C96.466 28.1256 96.4582 27.9631 96.4853 27.8362C96.5124 27.7094 96.4853 27.6063 96.5047 27.4914C96.524 27.3764 96.5047 27.2258 96.5047 27.095V26.6986V26.3023C96.5047 26.1437 96.5047 25.9773 96.5047 25.8147C96.5047 25.6522 96.5047 25.6007 96.5047 25.4937C96.5047 25.2162 96.5047 24.9348 96.5047 24.6455C96.5047 24.5939 96.5047 24.5305 96.5047 24.4592C96.5047 24.4275 96.5047 24.3878 96.5047 24.3522C96.5047 24.3165 96.5047 24.2729 96.5047 24.2293V24.1896C96.5047 24.1421 96.5047 24.0906 96.5047 24.043C96.5047 23.9954 96.5047 23.9637 96.5047 23.9241V23.8686C96.5047 23.8052 96.5047 23.7378 96.5047 23.6704C96.5047 23.603 96.5047 23.5991 96.5047 23.5634C96.4079 21.8907 96.1835 19.0329 96.0442 17.7091C95.7811 15.2001 95.3284 8.17249 93.9858 6.21444H93.9548V27.2853C93.9289 27.4692 93.8392 27.6374 93.702 27.7591C93.5649 27.8808 93.3895 27.9478 93.2081 27.9478C93.0267 27.9478 92.8513 27.8808 92.7142 27.7591C92.577 27.6374 92.4872 27.4692 92.4613 27.2853V13.238C92.4618 10.842 92.1043 8.46002 91.4012 6.1748L91.2038 7.07059C90.8329 8.76191 90.6448 10.4899 90.6428 12.2234V27.2853C90.6201 27.4712 90.5319 27.6423 90.3947 27.7663C90.2576 27.8903 90.0809 27.9588 89.898 27.9588C89.715 27.9588 89.5384 27.8903 89.4012 27.7663C89.2641 27.6423 89.1758 27.4712 89.1531 27.2853V12.9051C89.152 10.7282 88.8564 8.56193 88.2748 6.46812L88.1936 6.1748L88.0465 6.76143C87.5708 8.66258 87.3303 10.6175 87.3307 12.5801V27.2853C87.308 27.4712 87.2198 27.6423 87.0826 27.7663C86.9455 27.8903 86.7688 27.9588 86.5859 27.9588C86.403 27.9588 86.2263 27.8903 86.0891 27.7663C85.952 27.6423 85.8638 27.4712 85.8411 27.2853V6.1748C84.5333 8.08925 84.0574 15.1644 83.7942 17.495C83.6356 18.9061 83.4073 21.8233 83.3183 23.5277C83.3183 23.5674 83.3183 23.603 83.3183 23.6427C83.3183 23.6823 83.3183 23.7536 83.3183 23.8091V23.8844C83.3183 23.9241 83.3183 23.9598 83.3183 23.9994C83.3183 24.039 83.3183 24.0945 83.3183 24.1421V24.1936C83.3183 24.2372 83.3183 24.2729 83.3183 24.3165C83.3203 24.3495 83.3203 24.3826 83.3183 24.4156V24.6494C83.3183 29.2076 82.8734 33.1317 86.464 37.6225C87.6794 39.3 88.3384 41.3322 88.3445 43.4213C88.3445 49.0973 88.1471 60.7267 87.5706 68.111C87.2959 71.5078 86.8161 74.9443 86.375 77.6713C86.286 78.2223 86.197 78.7455 86.1119 79.237V79.3083C86.0384 79.7285 85.9726 80.1209 85.9068 80.4974C85.8875 80.5886 85.872 80.6797 85.8565 80.7669L85.8217 80.9651C85.7908 81.1157 85.7637 81.2664 85.7366 81.4051C85.6859 81.6727 85.6639 81.9452 85.6708 82.2176C85.6708 82.3564 85.6708 82.4911 85.7018 82.614C85.7356 82.8843 85.7979 83.1501 85.8875 83.4067C86.0241 83.7909 86.2186 84.1506 86.464 84.473C86.9885 85.1546 87.7241 85.6327 88.5495 85.8285C88.8236 85.8934 89.104 85.9267 89.3853 85.9276H90.1204C90.6832 85.928 91.2386 85.7972 91.7447 85.5451C92.2508 85.2931 92.6943 84.9265 93.0417 84.473C93.2065 84.2573 93.3491 84.0249 93.4673 83.7793C93.5249 83.6583 93.5753 83.5339 93.6182 83.4067C93.8418 82.7653 93.8952 82.0746 93.773 81.4051C93.7459 81.2664 93.715 81.1118 93.6879 80.9572L93.6569 80.7947L93.5989 80.4617C93.5718 80.3151 93.5447 80.1605 93.5176 80.0059C93.5176 79.9504 93.4983 79.8989 93.4867 79.8474C93.4635 79.7179 93.4402 79.5858 93.417 79.451V79.4233C93.3667 79.13 93.3126 78.8168 93.2584 78.4958C93.2313 78.3333 93.2042 78.1628 93.1771 77.9924C92.7206 75.2178 92.2137 71.6505 91.9312 68.1268C91.3392 60.7425 90.844 49.1013 91.1574 43.4372C91.3083 39.2278 92.3336 38.4786 92.8018 37.6938Z" fill="black"/>
<path d="M90.0623 42.6447C90.279 38.475 91.3005 37.7219 91.7686 36.941C95.3864 31.4514 95.5411 28.8195 95.5411 23.8609C95.5411 22.9097 95.2123 18.617 95.0343 16.9087C94.7712 14.3997 94.3185 7.37211 92.9758 5.41406H92.9449V26.5285C92.919 26.7124 92.8292 26.8807 92.6921 27.0023C92.5549 27.124 92.3795 27.191 92.1981 27.191C92.0167 27.191 91.8413 27.124 91.7042 27.0023C91.567 26.8807 91.4773 26.7124 91.4514 26.5285V12.4813C91.4522 10.0865 91.0946 7.70577 90.3912 5.42199L90.1939 6.31778C89.8226 8.00902 89.6344 9.73705 89.6328 11.4705V26.5285C89.6069 26.7124 89.5171 26.8807 89.38 27.0023C89.2428 27.124 89.0675 27.191 88.8861 27.191C88.7046 27.191 88.5293 27.124 88.3921 27.0023C88.255 26.8807 88.1652 26.7124 88.1393 26.5285V12.1523C88.1403 9.97391 87.8447 7.80604 87.261 5.71134L87.1836 5.42199L87.052 6.0205C86.5766 7.9217 86.3361 9.87655 86.3362 11.8392V26.5443C86.3135 26.7303 86.2253 26.9014 86.0882 27.0254C85.951 27.1494 85.7744 27.2179 85.5914 27.2179C85.4085 27.2179 85.2318 27.1494 85.0947 27.0254C84.9575 26.9014 84.8693 26.7303 84.8466 26.5443V5.42199C83.5233 7.33247 83.0474 14.4116 82.7959 16.7224C82.5908 18.5417 82.2774 22.8542 82.2774 23.857C82.2774 28.4152 81.8363 32.3432 85.427 36.83C86.6424 38.5076 87.3014 40.5398 87.3074 42.6289C87.3074 48.3048 87.1101 59.9342 86.5336 67.3225C86.1358 71.7801 85.5198 76.2144 84.6879 80.6087C84.5797 81.1465 84.5862 81.702 84.7071 82.237C84.828 82.772 85.0603 83.2739 85.3883 83.7083C85.7358 84.1616 86.1794 84.528 86.6855 84.78C87.1915 85.032 87.7469 85.163 88.3095 85.1629H89.0447C89.6074 85.1632 90.1629 85.0325 90.669 84.7804C91.1751 84.5284 91.6186 84.1618 91.966 83.7083C92.2947 83.2801 92.5301 82.7847 92.6562 82.2555C92.7824 81.7263 92.7964 81.1756 92.6972 80.6404C91.8616 76.2467 91.2456 71.8122 90.8516 67.3542C90.2596 59.9501 89.7605 48.3128 90.0623 42.6447Z" fill="#D9D9D9"/>
<path d="M89.0448 85.3447H88.3097C87.7342 85.3447 87.1657 85.2145 86.6451 84.9634C86.1244 84.7123 85.6642 84.3464 85.2975 83.892C84.9309 83.4376 84.6667 82.9059 84.5239 82.3348C84.381 81.7637 84.3631 81.1673 84.4714 80.5883C85.3021 76.2006 85.9168 71.7728 86.3131 67.3219C86.8935 60.1001 87.087 48.6094 87.087 42.6441C87.0748 40.602 86.4314 38.6164 85.2491 36.9721C81.9757 32.8737 82.0106 29.1558 82.0493 25.2199C82.0493 24.7759 82.0493 24.328 82.0493 23.8722C82.0493 22.8734 82.3665 18.5252 82.5716 16.7178C82.6103 16.3532 82.6567 15.8775 82.7109 15.3266C83.0127 12.1992 83.5157 6.96325 84.6455 5.30644C84.6691 5.27175 84.703 5.24572 84.7421 5.23215C84.7812 5.21858 84.8235 5.21819 84.8629 5.23104C84.9022 5.24388 84.9365 5.26929 84.9608 5.30354C84.985 5.33779 84.9979 5.37908 84.9976 5.42139V26.5279C85.0218 26.6596 85.0901 26.7784 85.1908 26.864C85.2915 26.9495 85.4182 26.9963 85.549 26.9963C85.6798 26.9963 85.8065 26.9495 85.9071 26.864C86.0078 26.7784 86.0761 26.6596 86.1003 26.5279V11.8227C86.1006 9.84396 86.3437 7.87309 86.8239 5.95648L86.967 5.36986C86.9775 5.32761 87.0014 5.29019 87.0351 5.26359C87.0688 5.23699 87.1102 5.22277 87.1528 5.2232C87.195 5.2236 87.236 5.23759 87.27 5.2632C87.3041 5.28881 87.3294 5.32474 87.3424 5.36589L87.4236 5.65524C88.0116 7.76817 88.3098 9.95459 88.3097 12.1517V26.5279C88.3339 26.6596 88.4022 26.7784 88.5029 26.864C88.6035 26.9495 88.7302 26.9963 88.861 26.9963C88.9918 26.9963 89.1185 26.9495 89.2192 26.864C89.3199 26.7784 89.3882 26.6596 89.4124 26.5279V11.4858C89.4122 9.73234 89.6017 7.98427 89.9773 6.27357L90.1746 5.37778C90.184 5.33506 90.2069 5.29671 90.2398 5.26874C90.2727 5.24078 90.3138 5.22476 90.3565 5.2232C90.3994 5.21975 90.4422 5.2317 90.4775 5.25701C90.5128 5.28232 90.5384 5.31941 90.55 5.36193C91.2594 7.67033 91.6195 10.0764 91.6179 12.4965V26.5279C91.6398 26.6619 91.7075 26.7837 91.8088 26.8715C91.9101 26.9593 92.0385 27.0075 92.1712 27.0075C92.3039 27.0075 92.4323 26.9593 92.5336 26.8715C92.6349 26.7837 92.7025 26.6619 92.7245 26.5279V5.42139C92.7245 5.36882 92.7448 5.31841 92.7811 5.28125C92.8174 5.24408 92.8666 5.2232 92.9179 5.2232C92.9534 5.22305 92.9885 5.23035 93.0211 5.24467C93.0538 5.25899 93.0832 5.28001 93.1075 5.30644C94.2683 7.03459 94.779 12.3855 95.0731 15.5842C95.1195 16.0955 95.1621 16.5395 95.2008 16.8962C95.371 18.5411 95.7076 22.8932 95.7076 23.8722C95.7076 28.8704 95.5451 31.5181 91.9003 37.0514C91.8307 37.1663 91.7456 37.2853 91.6527 37.42C91.1574 38.1176 90.4107 39.172 90.2288 42.656C89.9386 48.2051 90.4107 59.7751 91.0026 67.3219C91.3952 71.7733 92.0099 76.2012 92.8444 80.5883C92.9527 81.1676 92.9347 81.7643 92.7917 82.3357C92.6487 82.9071 92.3841 83.4391 92.017 83.8936C91.6499 84.348 91.1893 84.7138 90.6681 84.9646C90.1469 85.2155 89.5781 85.3453 89.0023 85.3447H89.0448ZM84.6378 6.22601C83.7981 8.31882 83.3648 12.8136 83.1172 15.3662C83.063 15.9211 83.0204 16.4007 82.9779 16.7614C82.7767 18.5649 82.4594 22.8813 82.4594 23.8722C82.4594 24.328 82.4594 24.7799 82.4594 25.2238C82.4207 29.2549 82.3859 32.7548 85.5548 36.7185C86.8106 38.4337 87.4894 40.5199 87.4894 42.6639C87.4894 48.6372 87.2766 60.1397 86.7155 67.3734C86.3195 71.8393 85.7022 76.2817 84.8661 80.6834C84.7693 81.205 84.7861 81.7421 84.9152 82.2563C85.0442 82.7705 85.2824 83.2493 85.6127 83.6584C85.943 84.0676 86.3574 84.3971 86.8262 84.6235C87.295 84.8499 87.8068 84.9675 88.3251 84.9681H89.0603C89.5788 84.9682 90.091 84.851 90.5602 84.6249C91.0293 84.3987 91.444 84.0692 91.7744 83.6599C92.1049 83.2505 92.343 82.7715 92.4718 82.257C92.6006 81.7424 92.6168 81.2051 92.5194 80.6834C91.6868 76.2812 91.0708 71.839 90.6738 67.3734C90.0663 59.8147 89.5943 48.2131 89.8999 42.656C90.0856 39.053 90.875 37.9432 91.3973 37.206C91.482 37.0928 91.5608 36.975 91.6333 36.8532C95.2201 31.4151 95.3787 28.807 95.3787 23.892C95.3787 22.9249 95.0421 18.5966 94.8719 16.9596C94.8371 16.6029 94.7945 16.1669 94.7481 15.6397C94.5043 12.984 94.071 8.26729 93.1694 6.15466V26.5279C93.1481 26.7682 93.0398 26.9918 92.8659 27.1545C92.6919 27.3173 92.4648 27.4075 92.2292 27.4075C91.9936 27.4075 91.7665 27.3173 91.5925 27.1545C91.4186 26.9918 91.3103 26.7682 91.289 26.5279V12.4807C91.2893 10.3598 91.0068 8.24875 90.4494 6.20619L90.4145 6.35681C90.0436 8.03999 89.8567 9.76024 89.8574 11.4858V26.5279C89.8316 26.7644 89.7217 26.9829 89.5486 27.1415C89.3755 27.3002 89.1514 27.3879 88.9191 27.3879C88.6868 27.3879 88.4626 27.3002 88.2895 27.1415C88.1164 26.9829 88.0065 26.7644 87.9808 26.5279V12.1517C87.9739 10.144 87.7137 8.14561 87.2069 6.20619C86.7577 8.04965 86.5303 9.94248 86.5298 11.8425V26.5477C86.5041 26.7842 86.3942 27.0027 86.2211 27.1614C86.048 27.32 85.8238 27.4078 85.5915 27.4078C85.3592 27.4078 85.1351 27.32 84.962 27.1614C84.7889 27.0027 84.679 26.7842 84.6532 26.5477L84.6378 6.22601Z" fill="#263238"/>
<path d="M95.1351 29.6584C95.522 27.8827 95.5414 26.1149 95.5414 23.8714C95.5414 23.8199 95.5414 23.7565 95.5414 23.6891C95.5414 23.6217 95.5414 23.5424 95.5414 23.4552V23.4315C95.5414 23.3443 95.5414 23.2491 95.5414 23.15V23.1263C95.5414 23.0192 95.5414 22.9083 95.522 22.7893H92.9722V26.5469C92.9463 26.7309 92.8565 26.8991 92.7194 27.0208C92.5822 27.1424 92.4069 27.2094 92.2254 27.2094C92.044 27.2094 91.8686 27.1424 91.7315 27.0208C91.5943 26.8991 91.5046 26.7309 91.4787 26.5469V22.7695H89.6601V26.5271C89.6342 26.711 89.5445 26.8793 89.4073 27.0009C89.2702 27.1226 89.0948 27.1896 88.9134 27.1896C88.7319 27.1896 88.5566 27.1226 88.4194 27.0009C88.2823 26.8793 88.1925 26.711 88.1666 26.5271V22.7695H86.3481V26.5271C86.3254 26.713 86.2371 26.8841 86.1 27.0081C85.9628 27.1322 85.7862 27.2006 85.6032 27.2006C85.4203 27.2006 85.2437 27.1322 85.1065 27.0081C84.9693 26.8841 84.8811 26.713 84.8584 26.5271V22.7695H82.3357C82.3357 22.8845 82.3357 22.9915 82.3357 23.0946V23.1302C82.3357 23.2254 82.3357 23.3165 82.3357 23.4037V23.4354C82.3357 23.5187 82.3357 23.594 82.3357 23.6653C82.3357 23.7367 82.3357 23.8001 82.3357 23.8516C82.309 25.8226 82.4514 27.7922 82.7613 29.7376C84.7034 30.6543 86.8185 31.1224 88.9568 31.1087C91.0951 31.095 93.2043 30.5999 95.1351 29.6584Z" fill="#263238"/>
<path d="M88.8126 31.3282C86.6749 31.331 84.5622 30.8563 82.6219 29.937C82.5942 29.9234 82.5701 29.9035 82.5513 29.8787C82.5325 29.854 82.5195 29.8251 82.5135 29.7943C82.1956 27.8323 82.0479 25.8454 82.0724 23.8567C82.0724 23.8012 82.0724 23.7378 82.0724 23.6665L82.1111 22.7429C82.115 22.6928 82.1369 22.6459 82.1727 22.6115C82.2085 22.577 82.2555 22.5575 82.3046 22.5567H84.8273C84.8527 22.5563 84.8779 22.5615 84.9012 22.5717C84.9245 22.5819 84.9455 22.5971 84.9628 22.6161C84.9989 22.6529 85.0197 22.7027 85.0208 22.7548V26.5124C85.045 26.6441 85.1133 26.763 85.214 26.8485C85.3147 26.934 85.4414 26.9809 85.5722 26.9809C85.703 26.9809 85.8296 26.934 85.9303 26.8485C86.031 26.763 86.0993 26.6441 86.1235 26.5124V22.7707C86.1235 22.7181 86.1439 22.6677 86.1802 22.6306C86.2165 22.5934 86.2657 22.5725 86.317 22.5725H88.1394C88.1907 22.5725 88.2399 22.5934 88.2762 22.6306C88.3125 22.6677 88.3329 22.7181 88.3329 22.7707V26.5282C88.357 26.6599 88.4254 26.7788 88.5261 26.8643C88.6267 26.9499 88.7534 26.9967 88.8842 26.9967C89.015 26.9967 89.1417 26.9499 89.2424 26.8643C89.3431 26.7788 89.4114 26.6599 89.4356 26.5282V22.7707C89.4356 22.7181 89.456 22.6677 89.4922 22.6306C89.5285 22.5934 89.5777 22.5725 89.629 22.5725H91.4476C91.4989 22.5725 91.5481 22.5934 91.5844 22.6306C91.6207 22.6677 91.641 22.7181 91.641 22.7707V26.5282C91.663 26.6623 91.7307 26.784 91.832 26.8719C91.9333 26.9597 92.0617 27.0078 92.1943 27.0078C92.327 27.0078 92.4554 26.9597 92.5567 26.8719C92.658 26.784 92.7257 26.6623 92.7476 26.5282V22.7707C92.7476 22.7181 92.768 22.6677 92.8043 22.6306C92.8406 22.5934 92.8898 22.5725 92.9411 22.5725H95.4909C95.54 22.5733 95.5871 22.5929 95.6228 22.6273C95.6586 22.6618 95.6805 22.7087 95.6844 22.7588L95.727 23.6665C95.727 23.7537 95.727 23.8211 95.727 23.8726C95.727 26.0685 95.696 27.8917 95.3168 29.6992C95.3105 29.7293 95.2975 29.7576 95.2787 29.7817C95.2599 29.8058 95.2358 29.825 95.2085 29.8379C93.2106 30.8138 91.026 31.3228 88.8126 31.3282ZM82.8618 29.6239C84.7666 30.5035 86.8349 30.9498 88.9243 30.932C91.0136 30.9142 93.0744 30.4328 94.9647 29.5208C95.2822 27.6566 95.4119 25.7639 95.3516 23.8726C95.3516 23.8211 95.3516 23.7616 95.3516 23.6942L95.3207 22.9689H93.1462V26.5362C93.1249 26.7765 93.0166 27.0001 92.8426 27.1628C92.6687 27.3256 92.4416 27.4158 92.206 27.4158C91.9703 27.4158 91.7433 27.3256 91.5693 27.1628C91.3953 27.0001 91.287 26.7765 91.2657 26.5362V22.9689H89.8341V26.5362C89.8084 26.7727 89.6985 26.9911 89.5254 27.1498C89.3523 27.3085 89.1281 27.3962 88.8958 27.3962C88.6635 27.3962 88.4394 27.3085 88.2663 27.1498C88.0932 26.9911 87.9833 26.7727 87.9575 26.5362V22.9689H86.5221V26.5362C86.4963 26.7727 86.3864 26.9911 86.2133 27.1498C86.0402 27.3085 85.8161 27.3962 85.5838 27.3962C85.3515 27.3962 85.1273 27.3085 84.9542 27.1498C84.7811 26.9911 84.6712 26.7727 84.6455 26.5362V22.9689H82.5019L82.471 23.6704C82.471 23.7576 82.471 23.8211 82.471 23.8726C82.4401 25.7976 82.5709 27.7218 82.8618 29.6239Z" fill="#263238"/>
<path opacity="0.3" d="M104.495 74.6832C104.463 74.2478 104.359 73.8213 104.185 73.4227L103.891 72.737C103.664 72.2093 103.322 71.7414 102.893 71.3685C102.463 70.9957 101.956 70.7277 101.411 70.5847C101.279 70.553 101.148 70.5253 101.024 70.5055C100.631 70.4466 100.231 70.4533 99.8399 70.5253C99.7092 70.5493 99.58 70.5811 99.4529 70.6204C99.0704 70.7344 98.7085 70.9111 98.3812 71.1436H98.358L98.0175 71.3854L97.8743 71.4845L97.6267 71.6589L97.2397 71.9364L97.1121 72.0236L96.7832 72.2534H96.76L95.576 73.0462C93.2893 74.592 90.3061 76.5104 87.2726 78.1989C83.5388 80.2799 78.4817 82.9236 73.8928 85.1552L68.4759 87.6959L64.6105 89.535L35.5526 103.13C35.5526 103.13 30.4646 105.588 34.918 107.566C34.918 107.566 39.387 109.23 50.2595 105.227C56.4503 102.944 65.2915 99.0359 66.2395 98.4493C66.6017 98.2711 66.9099 97.9957 67.1313 97.6523C67.3528 97.3089 67.4792 96.9103 67.497 96.4992C67.5976 95.6866 67.199 92.3294 69.2497 90.4784L69.42 90.3277C74.9336 87.898 83.2602 84.3822 89.0176 82.3211C92.1595 81.2034 95.4212 80.264 98.033 79.5743L99.5381 79.178H99.6039L100.73 78.9005L101.016 78.8292L101.182 78.7895L101.627 78.6825C102.491 78.477 103.254 77.9624 103.78 77.2312C104.306 76.5001 104.559 75.6007 104.495 74.6951V74.6832Z" fill="black"/>
<path d="M97.7852 70.3865C94.1977 72.9447 90.4863 75.3154 86.665 77.4894C82.9273 79.5703 77.8702 82.2141 73.2813 84.4496L34.9759 102.369C34.9759 102.369 29.8879 104.827 34.3414 106.805C34.3414 106.805 38.8103 108.469 49.6868 104.466C55.8775 102.183 64.7148 98.2748 65.6667 97.6922C66.0284 97.5123 66.3361 97.2359 66.5574 96.892C66.7787 96.5482 66.9054 96.1495 66.9242 95.7381C67.0209 94.9256 66.6224 91.5683 68.6769 89.7173L68.8472 89.5706C74.357 87.137 82.6836 83.6252 88.441 81.5601C92.5819 80.1289 96.7905 78.9118 101.051 77.9135C101.569 77.7916 102.056 77.5568 102.478 77.2251C102.9 76.8934 103.247 76.4725 103.496 75.9911C103.76 75.4819 103.907 74.918 103.927 74.342C103.947 73.766 103.839 73.1929 103.612 72.6656L103.314 71.9799C103.092 71.4684 102.762 71.0135 102.348 70.6473C101.934 70.2812 101.447 70.013 100.921 69.8616C100.394 69.7103 99.8419 69.6795 99.3027 69.7716C98.7634 69.8637 98.2506 70.0764 97.8006 70.3945L97.7852 70.3865Z" fill="#D9D9D9"/>
<path d="M37.2782 107.355C36.2597 107.399 35.2409 107.276 34.2602 106.99C32.9718 106.419 32.3256 105.742 32.3256 104.969C32.3024 103.463 34.7942 102.242 34.8986 102.194L73.2272 84.2705C77.5995 82.142 82.7223 79.4785 86.5954 77.3183C90.404 75.1497 94.1026 72.7843 97.6769 70.2312C98.1507 69.8955 98.691 69.6711 99.2593 69.5741C99.8275 69.477 100.41 69.5098 100.964 69.67C101.519 69.8301 102.032 70.1138 102.467 70.5006C102.902 70.8875 103.248 71.368 103.481 71.9079L103.779 72.5936C104.012 73.1339 104.125 73.7202 104.111 74.3107C104.096 74.9011 103.955 75.481 103.696 76.0088C103.437 76.5365 103.067 76.999 102.613 77.3632C102.159 77.7273 101.632 77.9841 101.07 78.115C96.8163 79.1115 92.6141 80.3272 88.4798 81.7576C82.9661 83.7196 74.7672 87.168 68.9247 89.7483L68.7815 89.8751C67.1526 91.3457 67.1293 93.7952 67.1139 95.1111C67.1184 95.3307 67.1106 95.5504 67.0906 95.7691C67.0695 96.211 66.9331 96.639 66.6956 97.0085C66.4581 97.3779 66.1282 97.6754 65.7403 97.8699C64.7768 98.4604 55.9473 102.373 49.7294 104.66C43.7669 106.852 39.7274 107.355 37.2782 107.355ZM97.8859 70.5483C94.2941 73.1117 90.5774 75.4863 86.7502 77.6631C82.881 79.8233 77.7388 82.4948 73.3588 84.6273L35.0302 102.547C34.3724 102.868 32.6661 103.922 32.6816 104.965C32.6816 105.563 33.2658 106.122 34.3918 106.626C34.4266 106.626 38.9381 108.211 49.594 104.279C55.7848 101.996 64.5834 98.1077 65.5391 97.5409C65.8752 97.3769 66.1611 97.1217 66.3657 96.8031C66.5703 96.4845 66.6859 96.1146 66.6999 95.7334C66.7165 95.5291 66.723 95.3241 66.7192 95.1191C66.7192 93.8388 66.7579 91.1752 68.5184 89.5699L68.6925 89.4154C68.7066 89.4038 68.7222 89.3945 68.7389 89.3876C74.5892 86.8033 82.8113 83.343 88.3482 81.3731C92.4963 79.9384 96.7127 78.7199 100.981 77.7226C101.486 77.6022 101.959 77.3692 102.366 77.0403C102.773 76.7113 103.104 76.2945 103.336 75.8195C103.567 75.3444 103.694 74.8229 103.706 74.292C103.719 73.7612 103.616 73.234 103.407 72.7482L103.109 72.0585C102.9 71.5726 102.588 71.14 102.197 70.7918C101.805 70.4435 101.344 70.1881 100.845 70.0439C100.346 69.8996 99.8216 69.87 99.3102 69.9572C98.7987 70.0444 98.3123 70.2463 97.8859 70.5483Z" fill="#263238"/>
<path d="M67.853 86.9902L64.0264 88.7778C65.4421 91.2251 66.3213 93.9584 66.6033 96.7884C66.7749 96.4637 66.879 96.106 66.9089 95.738C67.0057 94.9255 66.6071 91.5683 68.6617 89.7172L68.832 89.5706L68.9442 89.5191L67.853 86.9902Z" fill="#263238"/>
<path d="M66.6029 96.9859H66.5449C66.5047 96.9761 66.4685 96.9537 66.4414 96.9217C66.4143 96.8896 66.3977 96.8497 66.394 96.8076C66.1165 94.0067 65.2464 91.3015 63.8442 88.8802C63.8305 88.8559 63.8217 88.8289 63.8184 88.801C63.8151 88.7731 63.8173 88.7448 63.8248 88.7177C63.8332 88.6916 63.8468 88.6675 63.8648 88.647C63.8828 88.6265 63.9048 88.6101 63.9293 88.5988L67.756 86.8073C67.7795 86.7961 67.805 86.79 67.831 86.7892C67.8569 86.7883 67.8827 86.7929 67.9069 86.8025C67.9311 86.8121 67.9531 86.8266 67.9717 86.8451C67.9903 86.8636 68.0051 86.8858 68.0152 86.9103L69.1063 89.4391C69.1166 89.4631 69.1221 89.4888 69.1226 89.515C69.1231 89.5411 69.1185 89.567 69.1091 89.5914C69.0998 89.6157 69.0858 89.6379 69.0681 89.6566C69.0503 89.6754 69.0291 89.6904 69.0057 89.7007L68.9167 89.7404L68.7736 89.8672C67.1446 91.3377 67.1214 93.7873 67.1059 95.1032C67.1104 95.3228 67.1027 95.5425 67.0827 95.7612C67.0512 96.1558 66.9391 96.5393 66.7538 96.8868C66.7389 96.9151 66.7172 96.9389 66.6908 96.9563C66.6644 96.9736 66.6342 96.9838 66.6029 96.9859ZM64.2814 88.8684C65.4999 91.0316 66.311 93.4101 66.6726 95.8801C66.6726 95.8299 66.6803 95.7744 66.6958 95.7136C66.7124 95.5093 66.7189 95.3042 66.7151 95.0992C66.7151 93.819 66.7538 91.1554 68.5143 89.5501L68.673 89.4074L67.7366 87.2314L64.2814 88.8684Z" fill="#263238"/>
<path d="M37.3169 160.357V142.79H41.1049V157.733H45.0399V160.357H37.3169Z" fill="#263238"/>
<path d="M51.308 160.603C50.2376 160.662 49.1707 160.433 48.2126 159.941C47.4849 159.511 46.9347 158.825 46.6649 158.01C46.3441 157.007 46.1937 155.955 46.22 154.899V142.79H49.9654V155.498C49.9647 155.861 49.9932 156.225 50.0505 156.584C50.0959 156.911 50.23 157.218 50.4374 157.471C50.6799 157.696 50.9949 157.82 51.3216 157.82C51.6482 157.82 51.9632 157.696 52.2057 157.471C52.3985 157.214 52.5189 156.906 52.5539 156.584C52.6036 156.224 52.6281 155.861 52.6274 155.498V142.79H56.3961V154.915C56.4229 155.971 56.2684 157.025 55.9395 158.026C55.6645 158.838 55.1157 159.523 54.3918 159.957C53.4367 160.444 52.3734 160.667 51.308 160.603Z" fill="#263238"/>
<path d="M58.8066 160.357V142.79H61.4764L64.9974 151.248V142.79H68.1315V160.357H65.5701L62.0529 151.241V160.357H58.8066Z" fill="#263238"/>
<path d="M75.5875 160.603C74.5094 160.661 73.437 160.408 72.4921 159.873C71.7466 159.403 71.1822 158.683 70.8941 157.836C70.5627 156.841 70.4042 155.795 70.4259 154.744V148.403C70.402 147.337 70.5604 146.276 70.8941 145.267C71.1814 144.423 71.7463 143.707 72.4921 143.242C73.4388 142.713 74.5107 142.464 75.5875 142.524C76.6158 142.469 77.6403 142.69 78.5591 143.167C79.25 143.566 79.7856 144.198 80.0758 144.954C80.3834 145.799 80.533 146.696 80.5169 147.598V149.116H76.814V147.36C76.8141 147.028 76.796 146.696 76.7599 146.365C76.7375 146.076 76.6311 145.8 76.4542 145.572C76.3415 145.458 76.2052 145.37 76.0553 145.316C75.9054 145.262 75.7456 145.242 75.5875 145.259C75.4269 145.245 75.2652 145.267 75.1136 145.323C74.962 145.38 74.8241 145.469 74.7092 145.584C74.5106 145.811 74.385 146.095 74.3493 146.397C74.2986 146.738 74.274 147.083 74.2758 147.427V155.688C74.2732 156.048 74.3043 156.408 74.3687 156.762C74.4155 157.06 74.5505 157.337 74.7556 157.555C74.8687 157.658 75.0009 157.738 75.1445 157.788C75.288 157.838 75.44 157.859 75.5914 157.848C75.7468 157.863 75.9036 157.843 76.0502 157.788C76.1968 157.733 76.3296 157.645 76.4387 157.531C76.6168 157.296 76.7268 157.014 76.756 156.718C76.7983 156.38 76.819 156.04 76.8179 155.7V153.864H80.5208V155.383C80.5356 156.295 80.3888 157.203 80.0874 158.062C79.8055 158.838 79.2766 159.494 78.5862 159.925C77.8716 160.377 76.8721 160.603 75.5875 160.603Z" fill="#263238"/>
<path d="M82.6567 160.357V142.79H86.4447V149.901H89.0913V142.79H92.9025V160.357H89.0913V152.675H86.4447V160.353L82.6567 160.357Z" fill="#263238"/>
<path d="M102.467 160.357V145.691H99.8862V142.806H108.84V145.691H106.278V160.357H102.467Z" fill="#263238"/>
<path d="M110.364 160.357V142.79H114.137V160.357H110.364Z" fill="#263238"/>
<path d="M116.652 160.357L116.946 142.79H121.012L122.897 153.004L124.928 142.79H128.84L129.138 160.357H126.449L126.131 148.668L124.139 160.357H121.747L119.631 148.581L119.379 160.357H116.652Z" fill="#263238"/>
<path d="M131.362 160.357V142.79H139.066V145.438H135.15V149.798H138.126V152.485H135.139V157.733H139.097V160.357H131.362Z" fill="#263238"/>
</svg>
