<svg width="25" height="20" viewBox="0 0 25 20" fill="none" xmlns="http://www.w3.org/2000/svg">
<path fill-rule="evenodd" clip-rule="evenodd" d="M0.28275 0.431375C0.100069 0.649055 -4.52864e-05 0.924156 1.53675e-08 1.20833V15.7083C1.53675e-08 16.6697 0.381919 17.5918 1.06174 18.2716C1.74156 18.9514 2.66359 19.3333 3.625 19.3333H20.5417C21.5031 19.3333 22.4251 18.9514 23.1049 18.2716C23.7847 17.5918 24.1667 16.6697 24.1667 15.7083V1.22042C24.1683 1.04028 24.1297 0.862043 24.0536 0.69876C23.9775 0.535476 23.8659 0.391274 23.7268 0.276708C23.5118 0.0991152 23.242 0.00135232 22.9632 1.08201e-08H1.20833C1.03192 -2.35965e-05 0.857636 0.0385829 0.697733 0.113107C0.537831 0.18763 0.396186 0.296264 0.28275 0.431375ZM2.41667 4.12525V15.7083C2.41667 16.0288 2.54397 16.3361 2.77058 16.5628C2.99719 16.7894 3.30453 16.9167 3.625 16.9167H20.5417C20.8621 16.9167 21.1695 16.7894 21.3961 16.5628C21.6227 16.3361 21.75 16.0288 21.75 15.7083V4.12525L12.9376 12.9376C12.711 13.1642 12.4037 13.2914 12.0833 13.2914C11.7629 13.2914 11.4556 13.1642 11.229 12.9376L2.41667 4.12525Z" fill="#FF6B35"/>
</svg>
