<svg width="137" height="150" viewBox="0 0 137 150" fill="none" xmlns="http://www.w3.org/2000/svg">
<path d="M0 52.4969C0.0307349 51.8983 0.202661 51.3155 0.501661 50.7965C0.800661 50.2775 1.21819 49.8371 1.71995 49.5114L86.5069 0.417945C87.0398 0.146409 87.6291 0.00488281 88.2269 0.00488281C88.8246 0.00488281 89.4139 0.146409 89.9468 0.417945L91.8851 1.53914C92.3845 1.86673 92.7999 2.30776 93.0976 2.82646C93.3952 3.34515 93.5668 3.92691 93.5984 4.52455V72.1143C93.5653 72.7116 93.3931 73.2928 93.0955 73.8112C92.798 74.3297 92.3834 74.771 91.8851 75.0998L7.09149 124.226C6.55883 124.495 5.97097 124.635 5.37485 124.635C4.77873 124.635 4.19087 124.495 3.6582 124.226L1.71995 123.105C1.2204 122.777 0.804557 122.336 0.50584 121.818C0.207124 121.299 0.0338701 120.718 0 120.12V52.4969Z" fill="#FF6B35"/>
<g opacity="0.7">
<path d="M0 52.4969C0.0307349 51.8983 0.202661 51.3155 0.501661 50.7965C0.800661 50.2775 1.21819 49.8371 1.71995 49.5114L86.5069 0.417945C87.0398 0.146409 87.6291 0.00488281 88.2269 0.00488281C88.8246 0.00488281 89.4139 0.146409 89.9468 0.417945L91.8851 1.53914C92.3845 1.86673 92.7999 2.30776 93.0976 2.82646C93.3952 3.34515 93.5668 3.92691 93.5984 4.52455V72.1143C93.5653 72.7116 93.3931 73.2928 93.0955 73.8112C92.798 74.3297 92.3834 74.771 91.8851 75.0998L7.09149 124.226C6.55883 124.495 5.97097 124.635 5.37485 124.635C4.77873 124.635 4.19087 124.495 3.6582 124.226L1.71995 123.105C1.2204 122.777 0.804557 122.336 0.50584 121.818C0.207124 121.299 0.0338701 120.718 0 120.12V52.4969Z" fill="white"/>
</g>
<path d="M0.502808 50.7984L5.37821 53.618L93.0957 2.81947C92.8049 2.29636 92.3889 1.85406 91.8851 1.53242L89.9403 0.41787C89.4107 0.143295 88.8231 0 88.2269 0C87.6307 0 87.0432 0.143295 86.5136 0.41787L1.72 49.5114C1.20973 49.8271 0.790241 50.2707 0.502808 50.7984Z" fill="#FF6B35"/>
<path opacity="0.8" d="M0.502808 50.7984L5.37821 53.618L93.0957 2.81947C92.8049 2.29636 92.3889 1.85406 91.8851 1.53242L89.9403 0.41787C89.4107 0.143295 88.8231 0 88.2269 0C87.6307 0 87.0432 0.143295 86.5136 0.41787L1.72 49.5114C1.20973 49.8271 0.790241 50.2707 0.502808 50.7984Z" fill="white"/>
<path opacity="0.1" d="M0 52.4906V120.08C0.0307349 120.679 0.202661 121.262 0.501661 121.781C0.800661 122.3 1.21819 122.74 1.71995 123.066L3.6582 124.194C3.80853 124.277 3.96564 124.348 4.12788 124.406C4.35825 124.481 4.59527 124.535 4.83571 124.565C5.2873 124.623 5.7452 124.607 6.19182 124.519L6.5292 124.432L6.74089 124.359C6.60739 124.413 6.46421 124.437 6.32061 124.432C6.17702 124.426 6.03622 124.39 5.90737 124.326C5.72305 124.206 5.57582 124.037 5.4823 123.838C5.38878 123.639 5.35271 123.417 5.37816 123.198V55.6087C5.36021 55.3021 5.43613 54.9974 5.59574 54.7353C5.75536 54.4733 5.99105 54.2664 6.2712 54.1425L5.37816 53.6184L0.502751 50.7988C0.194179 51.3106 0.0211228 51.8929 0 52.4906Z" fill="#FF6B35"/>
<path opacity="0.05" d="M0 52.4906V120.08C0.0307349 120.679 0.202661 121.262 0.501661 121.781C0.800661 122.3 1.21819 122.74 1.71995 123.066L3.6582 124.194C3.80853 124.277 3.96564 124.348 4.12788 124.406C4.35825 124.481 4.59527 124.535 4.83571 124.565C5.2873 124.623 5.7452 124.607 6.19182 124.519L6.5292 124.432L6.74089 124.359C6.60739 124.413 6.46421 124.437 6.32061 124.432C6.17702 124.426 6.03622 124.39 5.90737 124.326C5.72305 124.206 5.57582 124.037 5.4823 123.838C5.38878 123.639 5.35271 123.417 5.37816 123.198V55.6087C5.36021 55.3021 5.43613 54.9974 5.59574 54.7353C5.75536 54.4733 5.99105 54.2664 6.2712 54.1425L5.37816 53.6184L0.502751 50.7988C0.194179 51.3106 0.0211228 51.8929 0 52.4906Z" fill="black"/>
<path opacity="0.2" d="M5.3781 53.6188L46.0946 68.8776C47.5035 69.4056 49.0497 69.4363 50.4783 68.9648C51.9069 68.4932 53.1327 67.5475 53.9535 66.2836L60.4893 56.2327L93.0956 2.82031L61.7925 56.6042L93.5984 72.135C93.5685 72.7462 93.3841 73.3398 93.0625 73.8599L61.6933 56.7701L54.099 68.9638C53.2556 70.3191 51.9528 71.3236 50.4301 71.7929C48.9073 72.2621 47.2669 72.1645 45.8102 71.518L40.3923 69.1231L5.89408 124.327C5.70977 124.207 5.56252 124.038 5.469 123.839C5.37549 123.639 5.33942 123.418 5.36486 123.199V122.071L40.2203 69.0501L5.3781 53.6188Z" fill="#FF6B35"/>
<path opacity="0.05" d="M5.3781 53.6188L46.0946 68.8776C47.5035 69.4056 49.0497 69.4363 50.4783 68.9648C51.9069 68.4932 53.1327 67.5475 53.9535 66.2836L60.4893 56.2327L93.0956 2.82031L61.7925 56.6042L93.5984 72.135C93.5685 72.7462 93.3841 73.3398 93.0625 73.8599L61.6933 56.7701L54.099 68.9638C53.2556 70.3191 51.9528 71.3236 50.4301 71.7929C48.9073 72.2621 47.2669 72.1645 45.8102 71.518L40.3923 69.1231L5.89408 124.327C5.70977 124.207 5.56252 124.038 5.469 123.839C5.37549 123.639 5.33942 123.418 5.36486 123.199V122.071L40.2203 69.0501L5.3781 53.6188Z" fill="black"/>
<path d="M21.4993 64.9558C21.5309 64.3581 21.7025 63.7764 22.0002 63.2577C22.2979 62.739 22.7133 62.2979 23.2127 61.9703L108.006 12.8769C108.538 12.6054 109.126 12.4639 109.723 12.4639C110.32 12.4639 110.908 12.6054 111.44 12.8769L113.378 13.998C113.878 14.3249 114.295 14.7656 114.594 15.2843C114.893 15.8031 115.065 16.3852 115.098 16.9835V84.5733C115.064 85.1712 114.891 85.753 114.593 86.2716C114.294 86.7901 113.878 87.231 113.378 87.5587L28.5908 136.652C28.057 136.921 27.4681 137.06 26.8709 137.06C26.2737 137.06 25.6848 136.921 25.1509 136.652L23.1928 135.504C22.6952 135.175 22.2812 134.733 21.9838 134.215C21.6863 133.697 21.5136 133.116 21.4795 132.519L21.4993 64.9558Z" fill="#FF6B35"/>
<g opacity="0.5">
<path d="M21.4993 64.9558C21.5309 64.3581 21.7025 63.7764 22.0002 63.2577C22.2979 62.739 22.7133 62.2979 23.2127 61.9703L108.006 12.8769C108.538 12.6054 109.126 12.4639 109.723 12.4639C110.32 12.4639 110.908 12.6054 111.44 12.8769L113.378 13.998C113.878 14.3249 114.295 14.7656 114.594 15.2843C114.893 15.8031 115.065 16.3852 115.098 16.9835V84.5733C115.064 85.1712 114.891 85.753 114.593 86.2716C114.294 86.7901 113.878 87.231 113.378 87.5587L28.5908 136.652C28.057 136.921 27.4681 137.06 26.8709 137.06C26.2737 137.06 25.6848 136.921 25.1509 136.652L23.1928 135.504C22.6952 135.175 22.2812 134.733 21.9838 134.215C21.6863 133.697 21.5136 133.116 21.4795 132.519L21.4993 64.9558Z" fill="white"/>
</g>
<path d="M21.9954 63.2576L26.8774 66.0772L114.595 15.2853C114.304 14.7622 113.888 14.3199 113.384 13.9983L111.439 12.8837C110.909 12.6091 110.32 12.4658 109.723 12.4658C109.126 12.4658 108.537 12.6091 108.006 12.8837L23.1927 61.9706C22.6901 62.2895 22.2778 62.7327 21.9954 63.2576Z" fill="#FF6B35"/>
<path opacity="0.6" d="M21.9954 63.2576L26.8774 66.0772L114.595 15.2853C114.304 14.7622 113.888 14.3199 113.384 13.9983L111.439 12.8837C110.909 12.6091 110.32 12.4658 109.723 12.4658C109.126 12.4658 108.537 12.6091 108.006 12.8837L23.1927 61.9706C22.6901 62.2895 22.2778 62.7327 21.9954 63.2576Z" fill="white"/>
<path opacity="0.1" d="M21.4927 64.9505V132.54C21.5248 133.134 21.6954 133.711 21.9907 134.226C22.2859 134.741 22.6977 135.18 23.1928 135.506L25.1244 136.634C25.2771 136.718 25.4364 136.789 25.6007 136.846C25.8309 136.922 26.068 136.975 26.3085 137.005C26.7601 137.063 27.218 137.047 27.6647 136.959L27.9954 136.866C28.0663 136.846 28.135 136.82 28.2005 136.786C28.0711 136.843 27.9315 136.872 27.7903 136.872C27.6492 136.872 27.5096 136.843 27.3802 136.786C27.1964 136.664 27.0498 136.494 26.9564 136.294C26.8631 136.094 26.8266 135.871 26.851 135.652V68.0686C26.833 67.7621 26.909 67.4573 27.0686 67.1953C27.2282 66.9332 27.4639 66.7264 27.744 66.6024L26.851 66.0783L21.969 63.2588C21.6726 63.7743 21.5089 64.3557 21.4927 64.9505Z" fill="black"/>
<path opacity="0.4" d="M26.8774 66.078L67.5939 81.3368C69.0028 81.8648 70.549 81.8955 71.9776 81.424C73.4062 80.9524 74.632 80.0067 75.4528 78.7428L81.9952 68.6985L114.601 15.2861L83.2984 69.07L115.104 84.6008C115.074 85.2121 114.89 85.8056 114.568 86.3257L83.1925 69.2293L75.5917 81.423C74.7484 82.7768 73.4468 83.7802 71.9256 84.2493C70.4043 84.7185 68.7654 84.6219 67.3094 83.9772L61.8982 81.5823L27.4066 136.793C27.2228 136.671 27.0762 136.5 26.9828 136.3C26.8894 136.1 26.853 135.878 26.8774 135.658V134.53L61.7328 81.5093L26.8774 66.078Z" fill="#FF6B35"/>
<path opacity="0.05" d="M26.8774 66.078L67.5939 81.3368C69.0028 81.8648 70.549 81.8955 71.9776 81.424C73.4062 80.9524 74.632 80.0067 75.4528 78.7428L81.9952 68.6985L114.601 15.2861L83.2984 69.07L115.104 84.6008C115.074 85.2121 114.89 85.8056 114.568 86.3257L83.1925 69.2293L75.5917 81.423C74.7484 82.7768 73.4468 83.7802 71.9256 84.2493C70.4043 84.7185 68.7654 84.6219 67.3094 83.9772L61.8982 81.5823L27.4066 136.793C27.2228 136.671 27.0762 136.5 26.9828 136.3C26.8894 136.1 26.853 135.878 26.8774 135.658V134.53L61.7328 81.5093L26.8774 66.078Z" fill="black"/>
<path d="M43.0142 78.4461L131.248 27.3623L134.78 29.4057C135.262 29.722 135.663 30.1473 135.952 30.6473C136.24 31.1474 136.407 31.7082 136.441 32.2849V97.566C136.408 98.1429 136.241 98.7042 135.953 99.2044C135.665 99.7046 135.263 100.13 134.78 100.445L49.8675 149.605C49.3546 149.865 48.7882 150 48.2137 150C47.6392 150 47.0728 149.865 46.5599 149.605L44.6878 148.524C44.2059 148.207 43.8047 147.782 43.5163 147.282C43.228 146.782 43.0605 146.221 43.0274 145.644L43.0142 78.4461Z" fill="#FF6B35"/>
<path opacity="0.2" d="M43.0142 78.4461L131.248 27.3623L134.78 29.4057C135.262 29.722 135.663 30.1473 135.952 30.6473C136.24 31.1474 136.407 31.7082 136.441 32.2849V97.566C136.408 98.1429 136.241 98.7042 135.953 99.2044C135.665 99.7046 135.263 100.13 134.78 100.445L49.8675 149.605C49.3546 149.865 48.7882 150 48.2137 150C47.6392 150 47.0728 149.865 46.5599 149.605L44.6878 148.524C44.2059 148.207 43.8047 147.782 43.5163 147.282C43.228 146.782 43.0605 146.221 43.0274 145.644L43.0142 78.4461Z" fill="black"/>
<path d="M130.765 21.618L131.122 21.4189L129.753 20.6228C129.637 20.5534 129.515 20.4956 129.389 20.4503L90.5576 6.01419C90.0232 5.83946 89.4476 5.83769 88.9122 6.00914C88.3767 6.18059 87.9086 6.51657 87.5741 6.96953L44.1387 70.5854C43.4593 71.6805 43.0721 72.9325 43.0142 74.221V78.4404L44.3372 79.2298L131.221 27.3566V23.1306C131.214 22.5933 131.056 22.069 130.765 21.618Z" fill="#FF6B35"/>
<path opacity="0.1" d="M89.3735 7.28755C89.2006 7.42333 89.0489 7.58434 88.9236 7.76522L45.4816 71.3811C45.1248 71.9438 44.8528 72.5564 44.6746 73.1989L43.3516 72.416C43.4495 72.0888 43.5665 71.7675 43.7022 71.4541C43.7617 71.3214 43.8212 71.1953 43.8874 71.0693L43.9205 71.0096C43.9893 70.8764 44.0666 70.7479 44.152 70.6248L87.5874 7.00892C87.6528 6.91467 87.7259 6.82591 87.8057 6.74354L88.0372 6.53125L89.3735 7.28755Z" fill="black"/>
<path opacity="0.35" d="M131.109 21.4115C130.991 21.3398 130.867 21.2799 130.738 21.2324L91.9006 6.79621C91.4736 6.65379 91.0175 6.62291 90.5753 6.70649C90.1332 6.79007 89.7195 6.98535 89.3736 7.27388L88.0505 6.49104C88.3993 6.20525 88.814 6.01177 89.2566 5.92832C89.6993 5.84487 90.1557 5.87411 90.5841 6.01337L129.415 20.4429C129.542 20.4904 129.664 20.5504 129.779 20.622L131.109 21.4115Z" fill="white"/>
<path opacity="0.2" d="M87.5742 6.96901C87.6414 6.87586 87.7143 6.78706 87.7925 6.70312C87.7111 6.78422 87.638 6.87329 87.5742 6.96901Z" fill="black"/>
<path d="M88.9235 7.75151L45.4815 71.3674C44.8071 72.4644 44.4224 73.7156 44.3635 75.003V79.229L132.597 28.1452V23.9258C132.566 23.3534 132.375 22.8013 132.046 22.3322C131.718 21.8631 131.264 21.4959 130.738 21.2721L91.9003 6.80281C91.368 6.62372 90.7926 6.61911 90.2574 6.78966C89.7223 6.96021 89.2551 7.29707 88.9235 7.75151Z" fill="#FF6B35"/>
<path opacity="0.05" d="M132.597 23.9118C132.579 23.3827 132.417 22.8685 132.127 22.4258L44.6745 73.1845C44.4888 73.7686 44.3863 74.3761 44.3702 74.989V79.215L132.604 28.1312L132.597 23.9118Z" fill="black"/>
<path d="M128.826 5.95993C128.844 5.78275 128.816 5.60401 128.744 5.4412C128.672 5.27838 128.559 5.13709 128.416 5.03114L125.717 3.47209C125.554 3.39857 125.375 3.36967 125.197 3.38832C125.019 3.40696 124.849 3.47249 124.705 3.57824L52.3349 45.5001C51.9172 45.7721 51.5694 46.1392 51.3199 46.5715C51.0705 47.0039 50.9264 47.4892 50.8994 47.9879V134.897C50.8797 135.075 50.908 135.255 50.9813 135.418C51.0546 135.582 51.1702 135.722 51.3162 135.825L54.0019 137.385C54.1647 137.458 54.3437 137.487 54.5212 137.469C54.6987 137.452 54.8685 137.388 55.014 137.285L127.398 95.3897C127.813 95.1162 128.159 94.7486 128.407 94.3164C128.656 93.8843 128.799 93.3998 128.826 92.9018V5.95993Z" fill="#F0F0F0"/>
<path d="M55.0207 137.318L127.398 95.3896C127.813 95.1161 128.159 94.7485 128.407 94.3163C128.656 93.8842 128.799 93.3997 128.826 92.9017V5.95984C128.826 5.04431 128.165 4.67279 127.398 5.13055L55.0207 47.0524C54.6049 47.3259 54.259 47.6936 54.0108 48.1257C53.7626 48.5578 53.6191 49.0423 53.5918 49.5403V136.449C53.5918 137.384 54.2335 137.756 55.0207 137.318Z" fill="#FAFAFA"/>
<path d="M101.406 55.0545C101.337 56.0364 101.155 57.007 100.864 57.947C100.603 58.7916 100.253 59.6057 99.8188 60.3751C99.4433 61.0487 98.9855 61.6727 98.4561 62.2327C98.0182 62.7007 97.5064 63.093 96.9412 63.3937C96.3259 63.799 95.5893 63.9772 94.8574 63.8979C94.4317 63.81 94.0502 63.5753 93.7791 63.2345C93.6204 63.5795 93.455 63.9245 93.283 64.2694C93.0978 64.638 92.8761 64.9869 92.6215 65.311C92.3357 65.6804 92.0095 66.0164 91.649 66.3128C91.2123 66.6764 90.735 66.9881 90.2268 67.2416C89.6851 67.5629 89.0504 67.6892 88.4274 67.5998C87.8803 67.4761 87.4044 67.1397 87.1044 66.6644C86.694 66.0248 86.4213 65.3062 86.304 64.5547C86.1289 63.5074 86.069 62.444 86.1253 61.3835C86.1695 60.2146 86.3133 59.0515 86.5553 57.9072C86.7752 56.8777 87.0919 55.8714 87.5013 54.9019C87.8617 54.0526 88.3381 53.2577 88.9169 52.5401C89.4157 51.9096 90.0397 51.3899 90.7493 51.0142C90.985 50.8476 91.2518 50.7306 91.5338 50.6702C91.8157 50.6097 92.107 50.6072 92.3899 50.6626C92.7514 50.8248 93.0491 51.1024 93.2367 51.4521V51.0938C93.2518 50.7914 93.3355 50.4964 93.4814 50.2314C93.5964 49.9868 93.7804 49.7815 94.0107 49.6409L95.4263 48.9178C95.5032 48.8667 95.5954 48.844 95.6872 48.8537C95.7789 48.8633 95.8645 48.9048 95.9291 48.9709C96.0049 49.0622 96.0611 49.1683 96.0941 49.2825C96.1271 49.3966 96.1362 49.5164 96.1209 49.6343L95.8034 58.0664C95.7769 58.7033 95.896 59.1213 96.1606 59.3203C96.2997 59.4164 96.4646 59.4679 96.6336 59.4679C96.8025 59.4679 96.9675 59.4164 97.1066 59.3203C97.5219 59.0847 97.8563 58.7285 98.0658 58.2986C98.3844 57.6631 98.5626 56.9661 98.5884 56.2553C98.6545 55.5189 98.7008 54.7626 98.7339 53.9797C98.767 53.1969 98.767 52.4737 98.7339 51.8103C98.7171 50.6196 98.5391 49.4368 98.2047 48.2942C97.9969 47.4887 97.5323 46.7735 96.8816 46.2574C96.2309 45.8201 95.4388 45.647 94.6656 45.7731C93.5332 45.9506 92.4407 46.3256 91.4373 46.8811C90.38 47.4291 89.4156 48.1411 88.5796 48.9908C87.7218 49.8733 86.9753 50.8581 86.3569 51.9231C85.7152 53.047 85.1962 54.2369 84.8089 55.4724C84.4028 56.7475 84.1171 58.058 83.9555 59.3866C83.9092 59.7515 83.8696 60.2159 83.8365 60.7931C83.8034 61.3703 83.7769 61.9674 83.7505 62.591C83.724 63.2146 83.7042 63.8183 83.6909 64.4021C83.6777 64.9859 83.6909 65.4437 83.6909 65.7953C83.7204 66.8664 83.9123 67.9268 84.2598 68.94C84.5105 69.7238 84.9676 70.4252 85.5829 70.97C86.1658 71.4549 86.9029 71.7139 87.6601 71.6998C88.6426 71.6667 89.6026 71.3958 90.4583 70.9103C91.1296 70.5698 91.7772 70.1841 92.3965 69.756C92.9065 69.4017 93.3906 69.0115 93.8453 68.5883C94.2239 68.2242 94.5817 67.8388 94.9169 67.434C95.2146 67.0558 95.4858 66.6909 95.7306 66.3327C95.9754 65.9744 96.1011 65.7821 96.2268 65.6295C96.3552 65.4648 96.5207 65.333 96.7096 65.2447L98.6942 64.2097C98.7686 64.1538 98.8592 64.1235 98.9522 64.1235C99.0452 64.1235 99.1358 64.1538 99.2102 64.2097C99.3557 64.3292 99.4153 64.5613 99.3822 64.9196C99.3601 65.1534 99.2878 65.3797 99.1705 65.583C98.767 66.3327 98.3105 67.1288 97.8078 67.9581C97.2816 68.8206 96.6841 69.6373 96.0217 70.3995C95.2746 71.2471 94.4581 72.0304 93.5807 72.7414C92.5559 73.5641 91.4472 74.2757 90.2731 74.8643C89.0192 75.5895 87.5992 75.9758 86.1518 75.9855C85.0656 75.9536 84.0273 75.5296 83.2279 74.7914C82.3847 73.9536 81.7717 72.9115 81.4484 71.7662C81.0195 70.3528 80.7966 68.8847 80.7869 67.4074C80.7869 67.0492 80.7869 66.5583 80.7869 65.9346C80.7869 65.3177 80.82 64.6675 80.8464 63.9908C80.8729 63.3141 80.9059 62.664 80.939 62.0536C80.9721 61.4433 81.0052 60.9523 81.0382 60.6007C81.2048 58.8417 81.546 57.1037 82.057 55.4127C82.5735 53.6604 83.2789 51.9697 84.1606 50.3707C85.032 48.7835 86.0988 47.3125 87.3359 45.9921C88.5429 44.6868 89.9692 43.6045 91.5498 42.7944C92.9758 41.9699 94.5712 41.4842 96.2135 41.3746C97.3347 41.3295 98.4306 41.7164 99.2763 42.456C100.124 43.2965 100.71 44.366 100.963 45.5343C101.333 47.0212 101.528 48.5464 101.545 50.0788C101.545 50.7422 101.545 51.5449 101.499 52.4605C101.453 53.376 101.466 54.2915 101.406 55.0545ZM88.9831 59.9107C88.8678 60.8497 89.0048 61.8026 89.38 62.6706C89.6909 63.2146 90.1672 63.334 90.8023 62.9957C91.525 62.5949 92.0776 61.944 92.3569 61.1646C92.7564 60.104 92.9669 58.9812 92.9787 57.8475C93.0893 56.9011 92.9572 55.942 92.595 55.0611C92.2907 54.5038 91.8012 54.3977 91.133 54.7427C90.4232 55.1545 89.8853 55.8094 89.6182 56.587C89.2194 57.6414 89.0045 58.7567 88.9831 59.8842V59.9107Z" fill="#FF6B35"/>
<path d="M53.5852 136.469C53.5722 136.631 53.5958 136.794 53.6542 136.945C53.7126 137.097 53.8043 137.234 53.9226 137.345L51.3228 135.845C51.1757 135.743 51.0587 135.603 50.9842 135.439C50.9097 135.276 50.8804 135.095 50.8994 134.917V48.0078C50.9158 47.5079 51.0617 47.0209 51.3228 46.5947L54.0086 48.1471C53.7472 48.5756 53.6013 49.0648 53.5852 49.5669V136.469Z" fill="#E0E0E0"/>
<path d="M134.204 98.4284C134.178 98.4757 134.147 98.5201 134.112 98.5611L97.338 86.8981C95.9419 86.2802 94.3703 86.1882 92.9119 86.6392C91.4536 87.0901 90.2065 88.0537 89.3998 89.3528L50.0857 147.933L48.6303 148.776C48.4683 148.889 48.2804 148.96 48.084 148.982C47.8876 149.004 47.6888 148.977 47.5057 148.902L87.9312 88.5301C88.7408 87.2341 89.9875 86.2726 91.4445 85.8209C92.9015 85.3692 94.4717 85.4571 95.8694 86.0688L134.204 98.4284Z" fill="#FF6B35"/>
<path opacity="0.4" d="M85.7746 95.072L85.8673 94.9924L50.0857 147.934L48.6303 148.776C48.4675 148.888 48.2798 148.958 48.0837 148.98C47.8876 149.002 47.6891 148.975 47.5057 148.902L84.359 94.1963L85.7746 95.072Z" fill="white"/>
<path opacity="0.4" d="M134.205 98.4292C134.178 98.4764 134.147 98.5209 134.112 98.5619L97.338 86.8988C95.9421 86.2795 94.37 86.1868 92.9113 86.6378C91.4526 87.0889 90.2056 88.0533 89.3998 89.3535L87.9445 88.5043C88.7552 87.2096 90.0032 86.2506 91.4606 85.8024C92.9181 85.3541 94.4876 85.4466 95.8827 86.0629L134.205 98.4292Z" fill="white"/>
<path d="M136.407 31.8668C136.328 31.3891 136.077 31.2564 135.746 31.482C135.582 31.6044 135.439 31.7522 135.322 31.9199L135.137 32.1786L98.8529 87.495L93.4351 95.0647C93.0863 95.5058 92.6242 95.8432 92.0986 96.0408C91.5729 96.2383 91.0036 96.2885 90.4516 96.1859L85.7747 95.0713L50.0526 81.8957C49.8125 81.8465 49.565 81.8465 49.3249 81.8957C49.2317 81.9146 49.1408 81.9435 49.0537 81.9819L50.3768 81.1991L84.6038 93.8042L89.1087 95.4163C89.6607 95.5204 90.2305 95.4709 90.7565 95.2733C91.2824 95.0756 91.7443 94.7373 92.0922 94.2951L97.51 86.7321L133.973 31.1569C134.084 31.0056 134.223 30.8772 134.383 30.7788L131.228 28.9544L132.551 28.1914L134.734 29.4519C135.159 29.7225 135.526 30.0755 135.813 30.4901C136.101 30.9048 136.303 31.3728 136.407 31.8668Z" fill="#FF6B35"/>
<path opacity="0.4" d="M98.8529 87.4952L93.4351 95.0649C93.0863 95.506 92.6242 95.8434 92.0986 96.0409C91.5729 96.2385 91.0035 96.2886 90.4516 96.1861L85.7747 95.0715L85.8673 94.9919L86.0922 94.6336L89.155 95.3634C89.707 95.4675 90.2768 95.418 90.8028 95.2204C91.3287 95.0227 91.7906 94.6845 92.1385 94.2422L97.5034 86.7588L98.8529 87.4952Z" fill="white"/>
<path opacity="0.1" d="M134.78 29.3933L132.597 28.1328L131.274 28.8958L134.43 30.7202C134.269 30.8172 134.129 30.9458 134.019 31.0983L97.5565 86.6735L97.5035 86.7465L98.8266 87.4829L135.111 32.1598L135.296 31.9011C135.413 31.7334 135.556 31.5856 135.72 31.4632C136.044 31.2376 136.295 31.3703 136.381 31.848C136.29 31.3528 136.101 30.8807 135.827 30.4593C135.552 30.0378 135.196 29.6755 134.78 29.3933Z" fill="black"/>
<path d="M50.8201 82.9509L43.0341 78.4463V145.645C43.0672 146.221 43.2346 146.782 43.523 147.282C43.8113 147.782 44.2126 148.208 44.6945 148.524L46.5666 149.605C47.0795 149.865 47.6459 150 48.2204 150C48.7948 150 49.3613 149.865 49.8742 149.605L50.8069 149.068L50.8201 82.9509Z" fill="#FF6B35"/>
<path opacity="0.15" d="M50.8201 82.9509L43.0341 78.4463V145.645C43.0672 146.221 43.2346 146.782 43.523 147.282C43.8113 147.782 44.2126 148.208 44.6945 148.524L46.5666 149.605C47.0795 149.865 47.6459 150 48.2204 150C48.7948 150 49.3613 149.865 49.8742 149.605L50.8069 149.068L50.8201 82.9509Z" fill="black"/>
<path d="M136.441 32.2862V97.5606C136.42 98.1581 136.242 98.7395 135.925 99.2457C135.678 99.673 135.347 100.045 134.952 100.34L134.886 100.374C134.852 100.4 134.817 100.424 134.78 100.447L49.8675 149.606C49.7052 149.722 49.5165 149.795 49.3188 149.818C49.1211 149.841 48.9207 149.814 48.7363 149.739C48.5954 149.657 48.4766 149.541 48.3902 149.402C48.3037 149.264 48.2522 149.106 48.2401 148.943C48.2331 148.844 48.2331 148.744 48.2401 148.644V83.3633C48.2254 83.1296 48.2675 82.8957 48.3628 82.6819C48.4581 82.4681 48.6038 82.2806 48.7873 82.1358C48.9708 81.9909 49.1867 81.8929 49.4163 81.8501C49.6459 81.8074 49.8825 81.8213 50.1056 81.8905L85.8277 95.0661L90.5046 96.1807C91.0565 96.2833 91.6259 96.2331 92.1516 96.0355C92.6772 95.838 93.1393 95.5006 93.4881 95.0595L98.9059 87.4898L135.19 32.1734L135.375 31.9146C135.938 31.0655 136.441 31.2247 136.441 32.2862Z" fill="#FF6B35"/>
<path d="M134.78 100.445L134.893 100.372L134.952 100.333C135.348 100.042 135.68 99.6713 135.925 99.2446C136.237 98.7461 136.415 98.1744 136.441 97.586L98.8596 87.502L123.997 106.668L134.78 100.445Z" fill="#FF6B35"/>
<path opacity="0.2" d="M134.78 100.445L134.893 100.372L134.952 100.333C135.348 100.042 135.68 99.6713 135.925 99.2446C136.237 98.7461 136.415 98.1744 136.441 97.586L98.8596 87.502L123.997 106.668L134.78 100.445Z" fill="black"/>
<path d="M48.2071 148.643C48.1829 148.855 48.2183 149.07 48.3095 149.264C48.4007 149.457 48.5439 149.621 48.7231 149.737C48.9069 149.814 49.1071 149.843 49.3049 149.821C49.5027 149.798 49.6918 149.726 49.8543 149.611L79.1001 132.674L85.7815 95.0645L48.2071 147.555V148.643Z" fill="#FF6B35"/>
<path opacity="0.15" d="M89.3801 89.3127L48.7231 149.738C48.5439 149.621 48.4007 149.457 48.3095 149.264C48.2183 149.071 48.1829 148.855 48.2071 148.643V147.561L87.8983 88.5166L89.3801 89.3127Z" fill="black"/>
<path d="M135.924 99.2438C135.68 99.6705 135.348 100.041 134.952 100.332L134.893 100.372L49.8674 149.604C49.7048 149.72 49.5158 149.792 49.318 149.814C49.1202 149.836 48.92 149.807 48.7362 149.73L89.3998 89.299C90.214 87.9936 91.4701 87.0262 92.9378 86.5741C94.4055 86.1221 95.9865 86.2156 97.391 86.8377L135.924 99.2438Z" fill="#FF6B35"/>
<path opacity="0.15" d="M43.3251 72.4023L44.6481 73.1852C44.4606 73.7736 44.3559 74.3855 44.3372 75.003V79.2224L43.0142 78.4395V74.2135C43.0335 73.5982 43.1382 72.9887 43.3251 72.4023Z" fill="black"/>
<path d="M50.4232 81.1722L49.0737 81.955L47.711 81.1656L44.3571 79.2284L45.6603 78.4521L50.4232 81.1722Z" fill="#FF6B35"/>
<path opacity="0.1" d="M50.4828 81.1987L45.6603 78.4521L44.3373 79.2284L47.6912 81.1656L49.0539 81.955L49.3119 81.8754C49.552 81.8263 49.7995 81.8263 50.0396 81.8754L52.8047 82.917L83.9689 94.4274L84.4584 93.7043L50.4828 81.1987Z" fill="black"/>
</svg>
